<mxfile host="app.diagrams.net" modified="2020-12-19T03:31:56.001Z" agent="5.0 (Windows NT 10.0; Win64; x64) AppleWebKit/537.36 (KHTML, like Gecko) Chrome/86.0.4240.75 Safari/537.36 Edg/86.0.622.38" etag="e4P_smNz9tdDlxzQOl68" version="13.8.6" type="github">
  <diagram id="seg4FtiIYjwiPw5cGpYO" name="Page-1">
    <mxGraphModel dx="2583" dy="1393" grid="1" gridSize="10" guides="1" tooltips="1" connect="1" arrows="1" fold="1" page="1" pageScale="1" pageWidth="3300" pageHeight="4681" math="0" shadow="0">
      <root>
        <mxCell id="0" />
        <mxCell id="1" parent="0" />
        <mxCell id="R27VUwDnr8lnY172pskY-1" value="" style="shape=image;verticalLabelPosition=bottom;labelBackgroundColor=#ffffff;verticalAlign=top;aspect=fixed;imageAspect=0;image=data:image/png,iVBORw0KGgoAAAANSUhEUgAABJwAAAD+CAYAAAB/XR+eAAAgAElEQVR4Aey9PaslSZI2eKWZH1HaCKMkXKlKG1pIGC2lSpZWqlIpZSChla4/0FQOKXeVsLy80kwVVLKwM60ss6MULE1DF0PDaiPMCCsszTbV/RtiMXc398fNzSM8vu45554nIQl3D/987DFzczsRcR9++r//v+n//Pxfpn/5+3/mf2JADpAD5AA5QA6QA+QAOUAOkAPkADlADpAD5AA5sJkD/8f/8r9N/+//9f9MDxJs+uavv+J/YkAOkAPkADlADpAD5AA5QA6QA+QAOUAOkAPkADmwmwPfPf6v04M82cSAEwNu5AA5QA6QA+QAOUAOkAPkADlADpAD5AA5QA6QA0dw4J/+9psScJIM/xEBIkAEiAARIAJEgAgQASJABIgAESACRIAIEIEtCOhDTQw4bUGPbYgAESACRIAIEAEiQASIABEgAkSACBABIkAEGgQYcGogYQERIAJEgAgQASJABIgAESACRIAIEAEiQASIwB4EGHDagx7bEgEiQASIABEgAkSACBABIkAEiAARIAJEgAg0CDDg1EDCAiJABIgAESACROBoBP7y6/8R/jDJv/+b9vyf07//1VfTN3/1r9N/a9HI9d/+Nf6Bk7/6H9N//NdIg311dN7f/MN/th3912+n77esoe3piUr+PP3H3301ff/rPz/ReByGCBABIkAEiAARuGcEGHC6Z+lz7USACBABIkAETkRAgzUSZMJ0HNIGnLxgSCwrQappmjoBp9B/ExRKY4z+OWMbxNKxnPYyp//+B/8v1+B6q7/s8g//GoNsTn+5Xg7AxbXn8rk2eC+3t4Kt+2PQyeLDPBEgAkSACBABInA0Agw4HY0o+yMCRIAIEAEiQAQCAhhk0rQGUL7/9W/hCacUGPq7307//V/l6Zsc0MFAkAaBsEyfNJLAy9/9dvrLAfjn+UoAR/uHvvP9v/vt9B8p8NQGcWxQrc5rH7Fdfa+7BJ0Lrr9bWW/UwaYqgBf6W/mUmXbLKxEgAkSACBABIkAEZhBgwGkGHN4iAkSACBABIkAEtiOgARV84qcEO1KAJT2dU8pxPAiU6JM7TcAJ+tE62MXmtIxdXtsLwS8J8vw6vdL3D7+F+3EOxwec4vqrfnsBJ8EFAmJl2YDPX9vX6eCe27b0whQRIAJEgAgQASJABNYiwIDTWsRYnwgQASJABIgAERhCYCjgVAWJJABSgjxhEA2w6NNLVcAJAia23dAMZyrpOPi62mC6BM/S/PIaYb69vnLd8hqiPBWW+1Q8qvVCvxg4MmuoAle6dKzTvJKolXglAkSACBABIkAEiMB6BBhwWo8ZWxABIkAEiAARIAIDCOSA06/Tx7UhyPLv/5aeXsLAiQY/bOBDyrVM6+R29ZNIA9Maq6LjYABntmVaDwaHpk7AKQWVFJ+5V+q0zje63ibgtCPYlNaTX12s5j67WN4kAkSACBABIkAEiMAiAgw4LULECkSACBABIkAEiMBaBDCIod9t0mt+WkeDOhCIyoGV3oDaRgMwnXo5UIN9D6bLk0AliKRzn71CcMobv/5uVXmCaS7gNE0wB+m/CjhBsAmejIqQQLuFdUd5aHDMPGHWwZfFRIAIEAEiQASIABFYQoABpyWEeJ8IEAEiQASIABE4AAEIjuRvCaWgSBMsKcGY2QBPJ5BSAkY4bRjfGQ9rlnQJ2uQgWblZUhoEg4BTvKlBHP0od53XoNR8wGmaphBkko+X/9kEnOBemc3mlM7nm2F8Ng/FhkSACBABIkAEiMAdIMCA0x0ImUskAkSACBABInApBHIQIwWHSuCmBHO++Yd/nf7j1+Wv03lzzU9MaVBHgzyDwRGcR5mDNxKWlTnOttG56NxyF3WAadJX7DqBshBcW1pP9YRTHuigxH9O/96s4aCu2Q0RIAJEgAgQASJwdwgw4HR3IueCiQARIAJEgAg8HQI5UGSDLPpKXAigLL3GVQI/7bec9OmhmTVpkEbmoN+CCtVjQKgfTIJx7fy9fBOssQGneo4aBPOeyNJ7W57wKmtM43tz9cqWgl319JkjAkSACBABIkAEiMAsAgw4zcLDm0SACBABIkAEiMBeBDB4YoMrf/m3f52+/6uvJgms2Htl3BI4yXX0qaLFIElp+00VEILy7seyS8CpH5Qqs2xTaYzOHBWXvKa2g7ZEg2casGtrQImOvxDQy30OBO+gdyaJABEgAkSACBABIjCHAANOc+jwHhEgAkSACBABIrAZAQ2orHpKpwoKpaE1uISBIS2DYE54mgry1Qe3q3JYkvaDfefbJeA0uoY6MKUBHw3k1EEut8+lQFIODi0EkcIadPyFurlPnWcGgAkiQASIABEgAkSACGxGgAGnzdCxIREgAkSACBABIjCCQAg85UBKCeLUwZlpkoDRv//6z9NfTKf5tTwMRmmgCAJJuV54ba6M4wZ2vFfKmqBT6cPOtZ5ir54GfOSD37+dvq9e5ysfRucTTjWazBEBIkAEiAARIALPAwEGnJ6HHLkKIkAEiAARIAJXiUD1lJMJBEkQpw5GtUvA9lXQpwk4laCPBnByAKoTXOoFoso4pc9S1s4Rn6TCejj3MBYDTh54LCMCRIAIEAEiQASeKQIMOD1TwXJZRIAIEAEiQAQujUAO+IQnk/5z+u9/kxmlIE564ukv//XnacrBo/rVLwzYYCAnrKt5DUyfJoI+mjpziMR51eOUgFMvOGXLtb2uXYNfQ3+hTgNj+CSXnXJeE6zT1sn5gVf4dEy5wtNiuQsmiAARIAJEgAgQASKwEQEGnDYCx2ZEgAgQASJABIhAHwENFmkAJgeaNMDhBVVS4EnaaMBmLgiiY1RBH/MUUX+GI3dKwKmsw2s3Ws9ru7JsS8Apv87YGSv3yW84dRBiMREgAkSACBABIrABAQacNoDGJkSACBABIkAEiAARIAJEgAgQASJABIgAESACfQQYcOpjwztEgAgQASJABIgAESACRIAIEAEiQASIABEgAhsQYMBpA2hsQgSIABEgAkSACBABIkAEiAARIAJEgAgQASLQR4ABpz42vEMEiAARIAJEgAgQASJABIgAESACRIAIEAEisAEBBpw2gMYmRIAIEAEiQASIABEgAkSACBABIkAEiAARIAJ9BBhw6mPDO0SACBABIkAEiAARIAJEgAgQASJABIgAESACGxBgwGkDaGxCBIgAESACRIAIEAEiQASIABEgAkSACBABItBHgAGnPja8QwSIABEgAkSACBABIkAEiAARIAJEgAgQASKwAYFVAac//eGPE/8TA3KAHCAHyAFygBwgB8gBcoAcIAfIAXKAHCAH7psDSzEoBpwYRGMQkRwgB8gBcoAcIAfIAXKAHCAHyAFygBwgB8iBVRxgwImEWUUYRqjvO0JN+VP+5AA5QA6QA+QAOUAOkAPkADlADpADIxxgwIkBJwacyAFygBwgB8gBcoAcIAfIAXKAHCAHyAFygBw4lAMMOJFQhxJqJMrJOoyGkwPkADlADpAD5AA5QA6QA+QAOUAOkAPPmwMMODHgxIATOUAOkAPkADlADpAD5AA5QA6QA+QAOUAOkAOHcoABJxLqUEIxQv28I9SUL+VLDpAD5AA5QA6QA+QAOUAOkAPkADkwwoELBpy+mz5/eJg+/uXvcsDj+08fpoeHh+nzr48RXuzvs+n7P/xx0r6lf/zvjxXn9vD4q+n3DEhl+YwQinWO4S5xJI7kADlADpAD5AA5QA6QA+QAOUAOkAO3zIGLBZx+/8uPU3Dpd9NXj3UQCANCGJBaDfTXn4Ux3D7SPT/gpHP6ePrqNyT4atwZpGOQjhwgB8gBcoAcIAfIAXKAHCAHyAFygBy4aw5cKOCUniD69Lvw5FEICP3mV9PH5omnzYGOHExKgSPvSaVcJwaUNACGwa42zQDUZpnQ0Ny1oSFvGLgmB8gBcoAcIAfIAXKAHCAHyAFy4L44cJGAUwzuSPAmBp7kKSN8/e1PIfi0I7hjgkkuqU2dMiefAEv33TEYZGGQhRwgB8gBcoAcIAfIAXKAHCAHyAFygBwgB+6QAxcJOFXfU/r0u+lPJvgTA07ymt3GoJPtzxOsqbMUUFq6z4CTH6gjLsSFHCAHyAFygBwgB8gBcoAcIAfIAXKAHLg/Dlwk4BSIFgI+MaBUBaDMR70f0mt37ettne8+eQEsBpwYTfY4wDLyghwgB8gBcoAcIAfIAXKAHCAHyAFygBw4hQMXCjiVbzhplDM+QSR/US7ecz/0PUoC8/SSjlFdTZ04fieIlYNgG5+4Gp03651C8kruxJgYkwPkADlADpAD5AA5QA6QA+QAOUAOkAOnc+AyAacU7IlPLUmQCb/hdJmAU/UNKYd4fKXu/h7/Y6CKMicHyAFygBwgB8gBcoAcIAfIAXKAHCAHtnHgMgGnJqCDTzyVgFMIAskrck39hcWap5fc9lWd9Nfstoy1dm6sv16exIyYkQPkADlADpAD5AA5QA6QA+QAOUAOkAM3xYGLBpzq19j0dbWnCThVTyxVwaeFYBYJflMEd4ONlCFlSA6QA+QAOUAOkAPkADlADpAD5AA5QA6cyoGLBJz0I+HxO00xwPT51xroSU8bpe8mlXK9P3DtBJDqANfDJB8kl4BEKH/81fR7ku1UsjH4M8BdcpAcJAfIAXKAHCAHyAFygBwgB8gBcoAceAYcuEjAiYEHBh7IAXKAHCAHyAFygBwgB8gBcoAcIAfIAXKAHHi+HGDA6RlEDamgz1dBKVvKlhwgB8gBcoAcIAfIAXKAHCAHyAFy4BY5wIATA058VJEcIAfIAXKAHCAHyAFygBwgB8gBcoAcIAfIgUM5wIATCXUooW4x6so53/avBV/+8D8n/icGezjQswF7+mRbcpK8Igeeqx3ocZvlt+1PUX6UHzlADpzBgScNOH35w08T/xMDcoAcWMOBJcP3XB16ruvpDqs9jlEGTyeD54g1eUX+PEdey5p63Lbla/Z61qVveE0csFw+K39Na+ZcqINbODCiGww4MQjGICA5cNUcWDJkz9Wh57qe7rDa4xhl8HQyeI5Yk1fkz3Pktaypx21bvuXwwjY89F4DByyXz8pfw1o5B+rcHg6M6AYDTgw2XHWwYY8CsO3zMKBLhuy5OvRc19MdVnscowyeTgbPEWvyivx5jryWNfW4bcvphz0PP+we5Wi5fFb+HrHlmp+XXRjRDQacGHBiwIkcuGoOLBmy5+rQc11Pd1jtcYwyeDoZPEesySvy5znyWtbU47Yt58HyeR0s70melstn5e8JU671edqDEd1gwInBhqsONtA4PU/jtEauS4bsuTr0XNfTHVZ7HKMMnk4GzxHrZ8Wr9z+bHl79gn+ggX+kInCgx21bvmavZ136e9fEAcvls/LXtGbOhTq4hQMjusGAEwNODDiRA1fNgSVDdpmD6j9OL188TI/vZw7k3/58+igd0L54+zfTR2//MR7W3IPbL6bHh59Nr+UwI/c1DYeb168e5g98Mt7Dw/TR21+EuT08PEz1/9S/9Alzi/j9Ynp88fPpCxivxVXnKFfbt+Sh/9l+ZjC7ULsex1oMnmLu5FbN29vl1nXxai93Re//Znr5rd+P2LhWbtZOFBsh9Yv97NgUtUnJti3335/fOl0e0EG1Ve9/Vmy7loWr9HHUfHzM163p2D563LblWw4vbMND7zVwwHL5rPw1rJVzoM7t4cCIbjDgxGDDbLDhi7efTB+9/XGmzofq8Pn4/qcpHIybA+mb6XWFtbT7ZHr57YCSv38zPbx4N33xw0+TzMd3Om3/2u+P08sXg+NU89P2vO4xQke0XTJkT+J0hyCQPTz5+XyIgqDOqoCTHFbCAetn08uFQ5wEscpBTw9zctDRtB4yNFiU8jC3iN9ywEn0Oq+tOljpGPYaD23tUxGpHGwE9ivj5ODc0Dh23PX5HsfILQ0iKJ/IrTWcuCivdupOsSu+ndN9WHW1snFqw6onoix30OZgWvUXyip7Fe0H2owoEylfEeAJNjbVD+n5dcb1lv7zepuAk867ns8l7Noarq6t2+O2LT/CB7jZPr59N3306kPyn8UX7XHM8V/F781to18t/nWDBf3jFpODfHnL5bPyjUwPmv/N9LtJT+QMCXojfcg5Ua8WQ+rJaXoiPBvRDQacLCmZnwnqlM2yBKE+TI8QDIoBJxvgkY0WDMMPvaCU9m/b/zR9aTbf2pAaw2NlCIambuds3rYt86caqRF5LBmytY7ypvrNoUIPRfVVDiFyEKqDrjFwpAez8ASTHsTy004mIGQOi+Hwp23MvbgebG8PdjLHct+bmx4ey7UcrKT/TYclOcS9+Jvpo+bJp/ogFoNrZbxNY7mY1LKZk3uPY3NtDrtHbq0PMN4Ity7Kq506obZslOc5AKPjiowqm6V2Sa661z9MD+EpJg3SiK1RW1DK8InM2n5pP9LG2BWdh3st9jCsL/Bp6QlPMzcImBe7KYFZnbedj82P26dRGTxlvR63bfnIHv+c68iPpG6gqPEt5wJSynO4Jr87YEf/+BQ/1XL5rPxz5v/o2sb1JJ3b3r+pHoaQfSHrmbmX50A9OUVPBN8R3WDAqTH6DEIsKn6lzCMBpzogFBzGV2/q6HSSQ7ynvwiJLOq22XBUcjN1xKi4zmBns676ovx9jC+Hy5Ihe0onG8dqDlj2YAMHrhAwSpyUIEx46keCTfrKSA4IxcNYDk55wZ6qXayPfN/0Sl114JI+9YmW/xmeoNL5lMPg8mFJ8YmOANZvD15Sp4xR0oj3mekex84cc65vxa5bh9wKfLl2bl0br7p8srbrh6j3EjwvbTSQkspysDzm0cahParTxa5Iv6FNCEqVvouNKWUx4PTzEqjKdhPtU2tXytxxHdimLu/Vt+Uy74xNEzDWeTvzMZjZfm8p3+O2Lb82f+Lp59P+4Do0B3M4jrbO+mHG93V9WVOH/vHwodty+az8EB9c2Vo+3HJ+jZ78OL18JW+9SJtPppfv34XPSdR7TTrvhacEjQ64WJo61JNhPRH+jugGA04u8W5ZaffPvf/aWgnYVE84QXAHn3DCfrS+lGk6BpNSVFoeg3yACHWWizECuRzXaepUATGsp+kSJKOhV0yu97pkyJ7MSZfDAnDdS+dDiBzgTFBAAyrxG032e0z1L+7iXEpQavYQh08P6NywzDlEZqzS3F6/SgfAmYCTtpG5yBrC3Ho45PHhsCVzgwPilz/AvTRH6VPxwbSOffa1x7Gzx839q/x6uAbbCIdjcit+S+jKuXVxXs3ZgIV7MaiCdqnW2yrokoJHqsOB18DRyHNpDwGnwHnNa5DGPEWkdsP2JXnVFc/mzK7NzEMDX9rfwrUf0I/+0Udvf56+h1fjFTFAPEGfZ+d7nfV63Lbl9LGibzW7bwrn5GA8cshN/IxPcxjfl/7xqkPyEjctl8/KL83jnu6P6kng//s30+P79GRgfuIvBaGqz7VQT87m0IhuMODkGujrPXyfTRrp//gnnDp4piATHtzzI5FZLjQUTyHzax5jyZDlQ/vZTrv5JVsDMDq+PYDFV8XkEDLzSl2e84aDyPuf5V/ZX0swKIwjY/UDY/FAKAeheDiSAFnY4OXVt+rgpgfBdNgJBzxTluZucQh4VIEAWZu+JiP9mYNY6Lvcv9eAEx7WLabkFhy6b4hbPdulNuOar8o50UcNpJe0H7TRemFdNkgU9D7ZkCZgNBJw8p9wygH8Fz+bHke+4SRjayAr21/gl5Y183fqSF2zL4TXl0P/xs6FflvcrpkDc3PrcduWX7Nvcfbcwt6qwaTKp3U+GyH304+lXR+8uU//+EwZWi6flT9zDbfQ91o9qeoHnXhXfUsYz5TxAQfqydk8GNENBpzyJtAJitzh/e5mp1hUTxCVp4W0XTYG1S+FssGmSLSW54h0wb5qy0chD/215myDc1b/S4Zszik+9F74Rb485Yebmqb1wJV5nII4VQBB+snBHT3EmIAT1MmvmOjBpjkI/WJ6Kb+qh28l/WJ6hL6rcfOB52+ml+/r76tIvYccFDKHonw4HA84yfoxgFLnpX/EsQSbRF51XcXn3GuPY4fyRw+y3pXcin+h0WDT8rflR82X6+LWxXll8FzDZ7Q7aq+yPBoblF6P0729e402JPStNijYNX0qSOxg+10nfFo0BqzRfqhdEtnXtsRdr8y9E3CS9akNr8e09sfyTOcjc9HgmTcfr8z2fRv5Hrdt+Vl+wc30Kz+swse/xU/Wp/zFdrU/ss79cRzZV/GP+Gw7SKu/0r06vvnN4K3nlAOulstn5e8R22bNa/Xk2x/DH5KK/ZRz6Jf6mt0BTzh19UP3N+pJPqOO6AYDTgcYpUZxbrxP2RCXFK1serLhqbMVN8/Xrz6ZXr7FD7rNbIpV8KoEngqmM20zznUd3NBLP9g3GicsZ9rH67K4LBky91Cx46DV7U8DPqnvfPiCfD6sSBkcyqq6EEwqv4bXAady8IEDio4P/cpcv3j7s+nlt9g+HdpAL6M+w2HM9BEd39ju8b2MqYc4fcUF+68PRNXaAha98bVPWFPCDjGvAwj1WFjvyHSPY0eOMduXyha4hAG7woeEB8ivwp/cmg06PDW3Ls4rR79meZjro46C7id+NXxMgeKe/Ytj1nYF7WO2g9K/PG0ZAkIauKltaTP/b/9x+iLMG+c8YzdEd9yAk2kv9awNze1gLVl3tUznbfrLc1Q7ODPHLIfrrdPjti2/Rp/iSedUHaSt71n7ruvnNdK+rkP/eNyftVw+K79e7uNruJm+1+iJ1FXbHII+wvFyDsXz69YnnKgn6zg2ohsMOOWgxTpwb0aJN6xPFM371SWvuQoSlQ1U24WA07dlk6sV1zzl5BoJfNy49JPHb9ZU19F59OtT1reEzZIhaw4gZznrchhy+Vo2ut6BKwcF5HCiHw2XeebDDxzqqlfOoFwPNjnYEO89vpW/rgT1YP15XCgLeOU+0hyqvySnByU9OMmhx+9f+mrGCDjZQ5W011dztH//MPXUQQFZQ49j5Ba5tYcDF+eV1fvhPOq+1VfJW/12ytDGhHFNnea+2ggcO9mIXDfWUTtc2dvKbvq2JcqyY8uSfc995jG9vmAtapfxlcG8XgjyhzJnbcMy8eZxubIet235Lfkap8wVDtJfvH0zvUxPXsg+pzwO329Sv3bgO07FP699X3/+dR36x+P+v+XyWXlfbuPzfBbtV+iJcLjSGfnjUvlpo2O+4UQ9Wce/Ed1gwEmNPK/50bhFRcOAkxiJpOjaLgac4vvoYUPNhsAS2DMMUvZmep3lUW+WvmHFOra9HZN5H8PrxWXJkO05EK5qmw8W0cm3gRbJ58OKHCLgwCL3oi78fPpCDjb62ltOwyFI2qUAUHBKoW546iX3i4cXaA8HGDvHvF7sIweCyuGleuVFD0pVUKrUtWNUc4a5lHI5rNmDWOlP6uHTPXnO0NfRZT2OHT1Otz9ya+iVusKhwhfBtJRfF7cuzquNOhPsldod20e2HSADsWP56Z9U3tSDII30ifcl/aB6b+ya9Jvu5wN6N/Dftyuoe8KXylaHgLq0jQGt2s7COjMWsBbR3Vc/i7+4Vxg4XMz23uvztsp63Lblt+ZvHD7ffJAWP7UEmUrQ6Kcp+8zi96J/nf3g4p+pnx3nib5vqVOvAevQP66x6WEWyy2Xz8qvmdOzrbtWT8JfMI/69Pj+6IAT9WQtz0Z0gwEnx6CvBfq51ZcNbcmx01fqpC6mZRPVzbP0g08sJQMvxmXor9LhZtnbHKCO/DoE78s/N9nc43qWDBkeJJ4ybQMtOHY4sOUDVDwQlwNOPNSojpXyeODQw145RKeDSA5KQPt8KNSAkxxyilOrY+Tri59PL9Mvq3KokjHc4I4cjKpAlPavhyKYQ/72k967vWuPYyjTp0yTW8rhsQDCU8pmzVjXxquxuZdAidqxbD/gwJzLXv0i2BFrx3JACYNFGJDRgFOwNfjElLFhYuO0bg74eDamzHt5nb9If0ku9mMDUMH2emuVsmxz0xyyXdY5wfxxvcNPYGk/133tcduW36PPktec/FzRFfWT873e2ePMJ5zoH+cf1hflMPin3i3ft+RH5vKs66zUk2if7YMJ6jOYa37lDut7Z0meI/dwbIT3DDj1jP4dl9e/oDiKCb/AxOCSRINFyWNgKTtrOfAjiiwfAn03faGbKT71BMam3ZjBCBiZ5HGCE/ghbCQa7NqjOGzryNxg/5QYLRmy5cPFdTvunP/l5dPjGGVzedncsgzIqyvmTxPoOneu4q+4wf3ZINq5c9qjWz1u2/Kn9BWubSz0Ryt/1Qtmqr8M/rW3nto/p3/sYXRUmeXyWfmj5nur/WzSk+pMgk84eecX6snZ3BjRDQacKtJ6RGXZ2URl/+TYHAeWDNkep5ltr/dA85Sy6XHsKefAsZ4fF8mr5ydT6mmUaY/btnxub+c9+n7XzAHL5bPy14wB50YdHeHAiG4w4MSA06pHTEeIxzo0UEdyYMmQ8QDAQ91eDvQ4trdftr9vbpJX9y3/56z/PW7b8iN9AfZF3/IpOWC5fFb+KdfEsahDZ3BgRDcYcGLAiQEncuCqObBkyJ6zU8+1Pc2Btccx4v80+D9XnMkr8ufeuG05f8bhhn3y0PwUHLBcPiv/FGvhGNSZMzkwohsMODHYcNXBhjMVhH3fhgFeMmTP1aHnup7usNrjGGXwdDJ4jliTV+TPc+S1rKnHbVtOP+s2/CzKqZWT5fJZeWLfYk9MbguTEd140oDTyIRY54/DGzmxIlbkADlADpAD5AA5QA6QA+QAOUAOkAPkADlwjRxgwOkPJOY1EpNzIi/JAXKAHCAHyAFygBwgB8gBcoAcIAfIgdvlAANODDjxiSpygBwgB8gBcoAcIAfIAXKAHCAHyAFygBwgBw7lAANOJNShhGL0+Xajz5QdZUcOkAPkADlADpAD5AA5QA6QA+QAOXAUBxhwYsCJASdygBwgB8gBcr/QwA8AACAASURBVIAcIAfIAXKAHCAHyAFygBwgBw7lAANOJNShhDoqEsp+GFUnB8gBcoAcIAfIAXKAHCAHyAFygBwgB26XA4cGnJY6430iQASIABEgAkSACBABIkAEiAARIAJEgAgQASLwL3//z9M3f/3V9E9/+830gBlCQwSIABEgAkSACBABIkAEiAARIAJEgAgQASJABLYggDEmBpy2IMg2RIAIEAEiQASIABEgAkSACBABIkAEiAARIAIVAgw4VXAwQwSIABEgAkSACBABIkAEiAARIAJEgAgQASKwFwEGnPYiyPZEgAgQASJABIgAESACRIAIEAEiQASIABEgAhUCDDhVcDBDBIgAESACRIAIEAEiQASIABEgAkSACBABIrAXgVUBJ/65wtv9c4WUHWVHDpAD5AA5QA6QA+QAObB0eCBHyBFyIHJgTleIEfWEHFjWE9EhBpz+QGWhspAD5AA5QA6QA+QAOUAO3AcH5g7Rco88uA8eUM7Lcp7TFeK3jB8xug+M5vRE7jHgxIATHQtygBwgB8gBcoAcIAfIgTvhwNLhgIfE+zgkUs7Lcp7TFeK3jB8xug+M5vSEAac7cSyo7Peh7JQz5UwOkAPkADlADpADSxxYOhwsted9cuxeODCnK/eCAddJfV/iwJyeMODEgBN/zSQHyAFygBwgB8gBcoAcuCMOLB0Olg4XvM8D6L1wYE5X7gUDrpP6vsSBOT1hwOmOnIslovA+jQk5QA6QA+QAOUAOkAPPnwNLhwNy4PlzgDIek/GcrhDDMQyJ0/PHaU5PGHBiwIm/aJID5AA5QA6QA+QAOUAO3BEHlg4HPCA+/wMiZTwm4zldIYZjGBKn54/TnJ48YcDpu+nzh4fp4fFX0+97G/pvfjV9LHVm/n/+dRHY9586/X39WWiP9WqS/2766vFhevj0u9axSuN7bX//y4/n595bE8tbnIkJMSEHyAFygBwgB8gBcuBiHFg6HNS+c/G9bXnwj2f89uDTZ587+uDqZwc/3m372fS94Ubt86czRe43zW/gHBHPGB9PX/2mXRN9/RYTK+97zM/pyho8TtcVewYO+Y+nr76W87XhPHXlYrZ3DWduqe6cnpwXcEqknwse5Xu6YSTyf/zL3zUkUCXVTUoEUDaftPG4m9bDFPuLdT7/2gk4VQr5MOEYMo6OLfO1926JCJwrN1JygBwgB8gBcoAcIAfIgaXDwSkcyWcDc/g1wSUdux+Qcn6cdn/QTj6/e6/mAH39Gg+VAa9/nFWV0/BZqSsyj3IujrLM+d98N30uD1vM6gF15TRZduzbcxtvVlGmafqXv//n6Zu//mr6p7/9ZnrAjNdwPThCYLuxSPDHlv1x+tOKgBNuQh//8lfh6ak2UBWDTKE8K67dpD6bvu8GnJLySSBLg2KBNJ353wmh1nOAmxgxIwfIAXKAHCAHyAFy4Fo44Pn4WHbaPMXXf/xs+t55wmhuzHx4zn649c0jt0LgKB+s20N06Kfy6enrz+HOexcKOAnP1+hKPkOnM/Gnn3XfGtLzMnWF+9GR+o37h5fGGNPxAScN9GTjD08MVQa/BJzyk0/OE0v4hFG9+ahixlf2ghJB/2WDSRsL3PuTF3BKiitzUcXMQpFHEyVS7N1j0Kl5Oi3jRmyIDTlADpAD5AA5QA6QAxfngHcgwLLTfTc9Hzi+fjgHiJ++VAfaRl/9d9P3n36cPs0hr+VhwKkElj5+/FV8ZY++/sV5eDrPDrA1qBc2/STzX9KDT7+LTzc9fDZ9JZ+AyVd9MwcewMh4UFeeRHYZ7+cf3LK6YfPnBpz0Eb/8OlokvSiDfT97reCrgJMqY/jVBJQoBLrKJuMFsz7/VL77pO+4RuXER2u9NljWBKTuiFxrZcb6z9/gUMaUMTlADpAD5AA5cN0csIcBmx+R3xpf+eHTX8VvqIYgUTkDBF8+nxEMZsG3/zj+yIs/FCc/O54DPg5PclS+uLSTtyv0MxoSYAoHcT2Ax3HWzL/qn37+XQWqrG5gfkRPpM4arm3RFdUjOZ9+PPN0U7iPn66hrtwVl0f5uqUe6oWXPi3ghOTHAI1NByOuASPza4WnoPqUk+1fywtIfkS3+Wh42tDiR9Xqzaj0ZTZB2Ow+/vS7/ofQuSlRkckBcoAcIAfIAXKAHCAHrogD3oEAy5b83+Z+9uNLMKmpk3+ETnX0CaP0FkTw+eGNiNh+/kfjo75L481Vy+S8QV/fPwcpRs/5inph05vWfZKuxDOzfLLmu+mrFHSKZ2PvPGzliU8D2nvjeerKOFabuHNFe4idv9UNmz834NRsHB1BJOWzihGVJ21MuQ5sPiv7t8Gu8KRV6Ld+wklA9IJdtj1/8ejI84oVwioI85QhOUAOkAPkADlADtwTB+xhwObXYVH88ujHx7znI8cfi8Wvt22K3+21G5mP/SHa+uxVPj0xRV+fer/ELasbmF9q2963vD9KV1K/+iRgCubac7XOh7pC3isXjrqiXnjpkwJOifgrA0JWMfyAUyRJUJbUf19xMFglUV9QyBBo6n80vBq7CaCMRItJ5qNIzH7IJXKAHCAHyAFygBwgB47hgHcgwLI1OGcfPB9201/Fcr51GuvKR8PlT7XbP+SjP/7qHxZKPntTz7TrnjWWzyL09Y/h0xq+3Fpd1AubXruW03QlPZQRg6o9/Zr7/jB1Za0sWb+2HVY3bP6cgFPaSIZ/pchPL8nkSzCn2giqOu2ff4yCL20rIoS2nYCTBpOqaLD+0pICVlonXzvj5Pu1EKq5sA4fqycHyAFygBwgB8gBcoAcuBAH7GHA5kf91uine39yvQSL4o/J0S/OAafuutG/XjoE771PX39Uzvdcz+oG5tfgcqquhHMunFmrMy3qVO98uqRL1JU1sr7HuqgXXvqUgFPcUPQXih65oTwFk/BxVwlWZeWEXzd04wpj6K8peePqKJUNOGl/+KtIpZyqWOZXFG2XrsMBtTw/WDPL6GiSA+QAOUAOkAPkADlADjwxB7wDAZYNHZiS34y+u59O5wH09Rv/3fOPS9DK7zf56OjLVziOHqLp6w/Ju8LWk9fzLEO9sOlh3E7XFcE+noFFVz7/ZXyC0L451J8vdaWPzfPk9dHrtbph86cEnP4kijW0mSQhpk3IKkbvCSd9JDEEfHADMwGhsEFV80gKhWVoBGDTqsZujGwnsNXUI0mPJjT7I6fIAXKAHCAHyAFygBzYzgF7GLD5UWzVH+9+vFt87MfPwl+Mk7ro588GkYKfvnQI3ntff1yGJ0MqP56+/igPnnM9qxuYX7PuM3Ul9g08xrOtPRvjGTjzfUmXqCtrZH2PdVEvvPQ5AadM4O2b4T0Ki2smX8gBcoAcIAfIAXKAHCAHzuSAdyDAsjPHZt/k9i1xAPXCpm9pHZwr9e5MDljdsHkGnBgc46Ps5AA5QA6QA+QAOUAOkAN3wgF7GLD5Mw8m7JsH31vigNUNzN/SOjhX6t2ZHEC98NIMON2Jc3Emydg3jRg5QA6QA+QAOUAOkAO3wQHvQIBllONtyJFyOl9OqBc2TfzPx58Y3wbGVjdsngEnBpz4iyY5QA6QA+QAOUAOkAPkwJ1wwB4GbJ6HvNs45FFO58vJ6gbmif/5+BPj28AY9cJLM+B0J84FFfY2FJZyopzIAXKAHCAHyAFy4EwOeAcCLDtzbPZNbt8SB1AvbPqW1sG5Uu/O5IDVDZs/POD05Q8/TfzfYoBCJj4tPoIJYiRp4kSc9nCAfPL542GKWHn3WRaxJE5jnCJOxIk2Y4wDZ+GEOuil7WHA5r02XtlZ82e/0ScmDufpkcdnr8zqBua9+raMMjxPhoKt4E2Mz8fY8trmUS+8NANOTxQgQ8FQMXzFQIwkTZyI0x4OkE8+fzxMESvvPssilsRpjFPEiTjRZoxx4CycUAe9tHcgwDKvjVd21vzZLw/SZ3PA47NXhnph0159W3b2Ou69f8H73jE4e/2W017e6obNM+DEgNPVKKol8NkKdKv9E6cxR544jeEkeoBY3apePMW8idMYp4gTcXoKfeQYfZ6hDnppexiwea+NV0YZ9GWwFxvBe28fbN+Xj8dnr8zqBua9+raMMujL4AhsBO8j+mEffTlZTnt51AsvzYATA05Xo6iWwFR+X/mJk4+L5QtxGsNJcEOsLI7MFxyJU8FijhfEiTjN8YP3xvixByfUQS/tHQiwzGvjle2ZI9vO80DwJkbzGO3Bx+OzV4Z6YdNefVu2Z45suyx/wZs4LeO0ByPLaS9vdcPmGXBiwOlqFNUSeI9yPOe2xGnMsBKnMZxEVxCr56w7e9dGnMY4RZyI015dY/sxDvVwQh300vYwYPNeG6+sNz7L98lP8BO8ieN+HHsYenz2yqxuYN6rb8t647P8GNkK3sTyGCx7OFpOe3nUCy990wGn168epo/e/ngTREPh9AR67+WIkaTvHY/e+onTmGF9fjh9mB4f3kyvqyC5lH0yvfx2DJMRTvXqDJe/fzM9vPrwLPUXOTWMRyUvkBNxGuMIcRrDqcczlt8lfmirvLR3IMAyr41XttsOkp9dfgrexBf2zIO54vHZK0O9sGmvvi2jDM+ToWAreBPj8zG2vLZ5qxs2f7mA07fvpscULPri7SfTw8ND9//j+5+mL799N300U6e0Lwey16/gICZOa6d96P8HObi1c4j3VJA/Ti9flP7XEBwFM9xueM2wTjHI79/kQFzA9sW76YuOob5WjI40IIJBlqNg2sFDApiWI4+v6sNzqJMP0z5nbB8PTZBA+bTtilw6Difhdrv+di3ANQ/LmcOhyEEDxJgWfah42OHqsN6k9rtwctchGMH6m3l+mB6VW4JN5okjZ7B/dl3CsczXPIYvn49eOLZT55DbOuObe4iVnc/6/HwQLNgkx9bWXAM7G2w35MPcIx41Ti1GQX/dsebk2MfranGa2d9qXAu3Kh1Evrp49zHx+HG1OCnvcb2SXmuj1T7sxOpYnNbJyJMby54PhsgtL20PAzbvtfHKzuWMZ+fnZCT1F2y7q7PeOOfvJ0vYCd5LddbfBz9F7eHcNdhH8A2Tf+H7KUk2N4Kxx2evzOoG5r36tmy9jOY4Dvd0HwryE7/L+kmpLu53Kmspm/EVK/ku1P3yB9GVOLb4FcUvW8k1ndvKq+B9JsZ6boljdGxM4LzqSS0H/3xTMKvn3vGf4VwvZ3z/R910Jp07e6zEVudmOe3lUS+89OUCTuGQWZzfsChPKRpwPKXqkRrKUVjQZ1EqqJvuZ8XJwu0RBAwA9K2CkisKB8tn0xUeMrbBK4zVkj+Tu1KApAgNEWHdV4TRIQYk4Zfl+MNPU3XIamQF3EIskvzbtoBd05dyYjtnetxALh2CU+ZRbSR74+dybxPKuqLrL9fMSxmvans8RjLHvTgV26BrmJ8n8qwXIC8bsQTZPH32y6Vu3PSAoxIkV4dBcNd0l4u6jvaKWGX5DvYj67ZBDS+vm3ajR5Wdk7khzmkDtUGjF5+0P0Do+rE/4GORj/S/cCjprP16cSoyrfQsrAN4Auuq6qG90zY7npy7bpxE/uoY9q+oq41OIMcwDfg2bZx7e3Aa6f8idQSPSl+36dr2uSf5Nr5OK3eUcbGxRZe2z+HyfSC3vLR3IMAyr41XdihGDXc26OfsXnhd+8kSdoL3Up1N9zNGrU5Ue7fsqZV9073ExzHqk3/v4UJ79hw+Hp+9MtQLm/bq27K5Oay/JzJLvjr4N/0gRPK3G3sYfU31y6p5SL+VDXf0MPlbYjcX6+a+Vp4xnD2zmme6L3h75YeUWd9I9EF9TZxfrhd15PWMX5wxd/oK+9CrN+0Y0r+WJ7lHX/odPCxzDr6Co+W0l7e6YfMXDTiFg8WrZNAyIWvyokOg5LEHFhGQVy/Uf/8m3stkqB2B0lYNabmfDyhZqUHRkWgDaRSOrmPxCobeV2px5GRO4NApgeVaRbtlE+iQ8QoxOsSAgFJGfvQ317JRFkMuRsHHXfkmnHkzPQqHhQOKvfIhjP+ubA5avvOKXDoEpzAf5bbhk87Vrk3KsUzW6uhwNqzVE4TK2zfTS88oOxvjoq7oPOG6H6dkEzpri+tVnfpxepl4EGyKeTJO5v/F2zfm1bfW5ki9YpOKLQrrDzpd20eLedcOAi4eloiVd3+uLNvJhTG0D2u/A48qmSsXIxbhlxyRQdrkpX18ajA6ts2aBSftrys7sJmD85b5XytOiq1cq0BSWJvHs7psrQxxPC991TgBl+LcayzseiLf5vUu6KFy7on4ZOd5Ffmgb0a3kt1q9HQFTqvWFvYlCUirbVY7ava2MK8yV7G7Zb/SNrd7RR300vYwYPNeG69slWyWZG5td0enKnvVtfGgs3g4lj7BBlxyP1nCTvBeqrP1foVhlovRESlPMol+SbSVL50zl/Yn9a5pz57Dx+OzV2Z1A/NefVs2N4f194p/VIJMUgZ8V1/8lZw/sFzOK5iv08FGB7tobKeUeUGWwJsfp9fv60/bvH4l7YUrnyRfbH6PXY9BbZcF77191O07eL54Nwn3rd+tfA/7B8YaKtz8M7jqjYwfbJHYp29/nELACu1f6jfsU/JmwxNhq7hYTnt51AsvfeGAU00a6ygXQXSEr0plrygkNaRIAi2rDnd+VD4ooGxOoU9QdOhDBTJ3ReHM1avuBUMPBgMUXrCJzpHMqThNsfyDMTKtgrjO3xVhdIQBCcoL3AivHwU5JuOX1lt4VnOgcj5dbJx+3pbDbtygt3Om4gLwDbl0BE5xHJynpMH5djag4FQAtplPWVfaVzsrPGE9Bf/aHvTWP1p+PE6IkcwV8u/fxWCSvirnOsFmEwcMcE2RNw4WwR70v420B0fECucykm7HNc4FckI3VeBOs3mHewkrF8fWnkkfmYOIE4xd5ilyKzZzZI1a52pxAi7ZffRLfBJO6wWd9nFs5AH7juKwdL1anAI33sAvgh0MYM2FN6CTyDHFdMN1D05LMnj6+50AsOAS9HjM/u2dt8hL9prWjrZ6L3V0X8L03jlcQ3vklpf2DgRY5rXxys5Yq8iisUO6Z4BuhrFd3wx0Fe3fle0nS9gJ3kt1jr3f6kgTcNL92djAbCdvCGOPz14Z6oVNe/Vt2fEyAv/o1YcSqOjtQSCr1i5GXcny8/qQ9lbvUr1gb+HTDo/vwS/Otn+bvzWKm+A9Wnd1PbQvgsOMr/nRWzl7v5leL+qA3QsFsxSoDeeKuC8FO6jxDJyH9J/lYfxtT34HlFlOe3mrGzZ/oYBTAvchgiqE7W4uYtwysLiJzKXr/gPBUFgAflG+KDSJKurBJSugCPdiASc4YCayB6yUhIGcqszR4YsOFCq9lBeCx3VdN0ZHGBA9eJX1tkZaZF1xQHGyfLH5wKGi6MEwpLYy3kdv36XXnVAOc5wdv2cVfbUBBf6Xtu0845rE8SvcKfXNE07aJ+IEaZHFR/pLiz5aHfRaMdTrOA7VXHR8uG7HqehG1Hudk51jyWesuraq1I2BquRQS/2lzUn7RP1X59tc1XYtYWPvI1b23lI+6hfaGMFPbVL81QbnFfUDfhGTdWV7JlgDF4FDc/OIc0hPRGVMPplevvWfvHvY+LrYdeIEfM1rX3FgwwMZ6M8c3kv3rhMnffoLdVH4ZvOq7/Gq3KrXjG2Q+3Xbuk17bw9OS30/+f3KCbZrFYzUJkS+Pr6XssJTtBFBJnBPg0KxvNbrck/GBNvTzAfuJZ6L3db2mH5y7A7SO5w3cstL28OAzXttvDIcc39aOZGefsZ9IeyTyiHg1+IeAbq6WDf2qzqf9/XAxZp39ZnFmdcBMhW892MKWKXDbJi7+hXVPFsdKQEnWWPBUjHS+QlWQYdvCGOPz16Z1Q3Me/VtmWJ0zFVkBGcZ8aeTLEUm7nm58bGKPQ5twMevOV/sc8138F/x6X31ZZPehr7C3GTOW87yyN1+WvA+BltnDOBzOFO+Ld9Ilh9SdP+IaXm9DWSD9ivomcou4RGCVzEd979o/3Qv/OLbH0swUcaSV+pgXxSZ2H20r9vO2irdn79vOe3lUS+89IUCTnFhQvQsrJGFK5kN4EURjNE3ZCj1aiVS4QphrRENJJZxA3GULPOC8YiPwvHuu2XBSPhPOMVfDEWB34THFuWvVAU8xfiEj7EXQnvrzmu+Uoz2GxCzMYqipo/U68aoASm9tk4uvhtbcybyoYwR5JE38Ih9kUMnYDPCeacOcmk/Tsplh9uqb3ldWjddhZ/2nuGTYl7rkbRP2OkYoNNVG2f9rq449XbjlPU+rdfmdQ06tmwOIa1Os+GMrlE3IQ+/6qlLB29tq2PC1bVdcH8ON8Rqrp53T8dVvZI6Jd3ySuvnvhpnyLaZw9PYfFkv9gcyK+NK/067AayuG6fIl2LPlD9gp5w1Ci7eHiFleZ9w2mX5OfeuG6c5PtWOtKyxwSfYvIKp3N9qs/bgNIf/Re6Jrtn9IHNDdE75FNPVDxnSVh11sas5OCUcxrZJdmoHRdexbjUHrx/Qe9NWbNZWOV4E74yt6nl9RW55ae9AgGVeG6/s1LUHXiSdVJnbdWMd3WPtteLlnP4DP3ScE/eTJewE76U6m+7LmipMlDvO3pjWH/cVtXv6CQHN454vfd0Gxh6fvTLUC5v26tuyTTJS/jVXkdFMUCPYNWPLUpn80Pb4Sj9JoDIv8tq63+vnIiRAEtcq8j/23DOHoeA9d3/XPTzTBFl0OK/14Or7VQWX4pOqn1HsT/A7UEe1Xw0aZ3tY5oP97Vpzw7n6cxKW35q3umHzVxNwCuDaTULyLuCoKCXdONpZQPXrPSgIPRj1xg8OiGxoQbig6I5AsF+bVoGsUoxk6GNf0ekqBFbSlg3i9dt34b1PdZpkbVpfy0Jf+WBscEG8YH2XwGgVTjBXi3vGQJVTMA2cKkpaeANG0mDRKH8YU/uI7eR7RNFgp812J2fsWjSPXDoKp+qpEj1kJd2LuqF8K/oWDvZSJ29mhW/Ku3B13iOP73fjX09ULKH/GbkqFnPX3ThlvZc5Rf2rNuTMJbmfZJ5tlubLBlIHJTtPiFXBGoPFEs4XChBk/QG8hDPB5sicVfeSPHu2tuJM5az0uZHHRq44YwpPZNxKfthmMI2cmuOedy/P9TSclKfAubCuPn6q9/IkmPxoUeYt/LX94P359HXjZPGw+Xptuv8FbLLOJ18g6KRjG5+AT0VW9XwvVi68Rn+twqD4Ka4tRfsq/Ti+YPRhLC+x33joRV9HZFfy0YaXvmt+13WvBNMKw3VzQh300vYwYPNeG6/sOL5Z+egrJmndlhfgnxQZexhZ/bb50ibbaMT9xP1kCTvBe6nOpvvZjpW1x35qfQplaf0Rm4Qd+MeKWWUn7Y9xgKfWr+Z9IYw9PntlVjcw79W3ZdVaAYvzy0Gn1A+zepRtLe5j6r92fHrwDUTuxaYupXEMy73tecH7cCwdnKL/mHTkvflOctaJoiP1GxKyPmlbMECftA7WlX0r60voP34uJ/916iDTYs+wv6PxsJz28qgXXvqqAk7NYcAaRYcANdFrByI+4qYR1zEyo9EU4YWNTMbdGTxA4QwToWOEQ/scNKo3iDjnSMqAp/QRDEr9OHDGOivJGD4y9lNgdIQB0XkWJSzOapZtMADKG7mfjEGFSzQS7qEsfUQuOjxR8fWDitFQ1AZmWPYzmxJy6Qic4px0nmmj0c0pzUPwal5DytxS4xi5+JF+RN2uIeuRcK1gVeuwCTLbPlbkd+ME8w2bqsEkBJBSWcBH7wdchEdm09b7ugap5xzQlLcNV6S+7UP72hlQQayacWGM9l6UeQxW1PojNrPoXrEvzfqadSkXtY3BMTtI6tyo/qb60F/krdarr9kGzq5P5xCv142TzBFkkNdVHBIrP8EHbVd8Qq89uNt2S/lrxWmOD9YORVyQ33WQONiEHUFewXA7TjUvl+TxNPejnrp6FXw3dbQFU33aSdcBZVLXsYtxDTIG6jvKp2cncFxsq2PHq8gzyrwufxrsjh8TueWlvQMBlnltvLLj8YlcsPqY84Yb3h4zP6ceT3R/MBw5cT+Zn2e0D0t1Nt2XNSUc4weelX+oT1om1yST5H+o7VOZiN7kg3HYd24DY4/PXhnqhU179W3ZJhnl/RvlkNLBnipf/Wtlh4HDOJfGF8tj9n0GaV/L2plf7udp7gneuK5D0tUZ0PxgmfCv9gutr7rVlZHuR6ZP1TE9g6azdh5D+pc3dUQHpe/kX+eynWeAJcwsp7281Q2bv4qAkxi88nQIEFQFp+RVgWreXBsl0Pr4IV/drERgms79iJF0yJCEa6OTSwLC+ygcLJ9NZyNRG+/KkFQBk0jgaPyTEQpr1M0ivp5Xtb9SjI40IOqQZOMquGY5CzYqc5U/4J2UOyq9NcJaT9ubJ8YCf+WVR7ifuQY8X1mGXDoOp4TD+w/T6+58fpy+SE9BRIejXlc+vCqnbD/ZSL5Lf8HiNp5wCmvNgZ6kSxrErZ4KSTIN/BL9ezO9TmnhTzjs5n7w8IocrAO6ah8i3r5joU5fvjZ2bZlryCkdc+yKOiHrQGe9XlfszykTjBCXYNOQWzhGu5bG7mf8cS52c2/7GVnvdeMU19j+qtbBL+AEOGfc9h+8rx2nwsX4ikH+c8PWZtkAXvYFop4WrDsYN/3VvNuOU93PCHefok6wcVVAKNm5KjAnNqB+eiW2Uy7GfRX9lHIolnuo12BzRDZ5X1d8sC+o68hFbGx27p37T4HfkWMgt7y0PQzYvNfGKztyzrGvOTlZPZO6yhuV+dLV9lHXf8r9ZAk7wXupzqb7Yuv1L241ey/qV8Im+XSNDyN6In29+mCCELeBscdnr8zqBua9+rZsk4zmbFD2sUFXkkzlRyORE9pPlZGdh9i8ql4ec6X87I+rSz8K5nFq3bPzG80L3qN1h+tljOMcEdO4X5n9Iuw/0Ue3+wi2xfFjeZKhnL30PJF8sUo2OB/wQ6QPHa83Do65/EDisAAAIABJREFUNW057eVRL7z0xQNOckjKh7GGpOZpBxBoPlxVbYyh1Pov4qtmxTksRrQ4KCL0mkCtMm7Z3OJYKJxhgSfS+WvFw2dZN5Iv/yohDpo8/pc2lnB41U3mSjE60oBUShgwLXjhEwEBl8Cn+FcGghILPniAr/LzRjnKeTtnejxBLh2H0555Rt1B/RLMK9xkg1GuBefEN8y9NW8p34UT6F5l9Oc2Sm2T+BL4JGkpT/pW4aL1q8OYH3Aq649Y13PaI7sd9ik5Nij3Ms/iiFZllf4kOwz4xLp2PfN6Vg4IiYcGTx2/sgNzcpy5h5zSfkeuQe5qc23/zfqTrqDdkTZNvRqnilvVGB5+9uAeD+byFGP8uD/ayCSnqs/5smvGSeQVbX1co+AWbL3qI8pJ+Cp5tV2JW1G35ceE5LA3spnHRzmzFSdtf5VXxTH7ZpZLUU8fX+GrcyZoYPoo9s7yVvqK/QeZoOwSX0t5qevhJvXUcffu31oZcstLewcCLPPaeGXH4xL50fV70S6qfq6wTfp0tT7Naef/lPuJHdvmBW9bdkg+6VfLd09HROeKfoqeFH1UO2fbeXuO1hX7qzahyLrt0wmcrJJzGa+Hmcdnrwz1wqa9+rasN/7m8hx8ANxFpkk3Gl9H7nVso4d7PBfhGdOmVX6K8ai8tf6xV8F7M5Y9TsGer7Yo/gU+jUsk7iquWSblRxZt115Fn5T7iGXyw9DG6fyc+YQ/TgU/wDRy17YHXC2nvbzVDZu/aMAJDZcLFChQIBMK1AGwGLFIZnUkZx2JNIa8BlU5neIsqdBR0FrmjD9HeBTOXL3qXsdIVHVmn3CqX6NrN5do0KX82jA60oAUbhVnVcrUCHi4yAEj/kWAstEq7qFtMDIzRvYAzuh49opcOg4nNX52Y2nz9QYVDWRdljYT4S8c/jNugk3SI+GdyiFf1YCv1LEjcUJb4s4xH6biL/WhjtoGXfdbfZ3Vc9BSUMFZq/Tl4RnngZuTbtoiu5anFo+5PHJqrl59T8aN80F9ynJEjCSdAo3N2tTOJdxCe8UycCBtwra/nPcwGdj0qzEUy/nrteIU8O+up7VTkWOo85Y/cM/haM2DFrNrxSnqUK1fgl21B6jtDk8AtNwKfWRMCk5VH4O2axtOLd5L8riu+xGzxg4MYnZda7leWSC3vLQ9DNi818YrO14ewo9W7+I4tS3DfXp8HteznyzNWfBeqrPpvjlLqV1s914MDlmuGxyzTZR65l7eq9Xf68gXfYCmDZzJDrIVHp+9MqsbmPfq27JNMnLXWPabrp+FuOlTbOnBDvzhxG2fZVjrmZ1/q3cb5e2u0fJsOS942znuzhsdkf5ET+w+n/0Bp77OQXyM+f1O5Wr9sPm1W99leZz5/nS+3tVy2sujXnjpiwacvEU91zIUznNd4951IUaS3tvfc21PnMaMJnEaw0n0BLF6rnpzxLqI0xiniBNx6usbA059bMZ4M9IeddBLewcCLPPaeGUjc2GdbXIVvIndNuxGcPP47JWhXti0V9+WjcyFdbbLWfAmftvxG8HOctrLW92weQacDoqwLgkMhbNU917vI0aSvlccltZNnMYMK3Eaw0n4hlgt8e+e7xOnMU4RJ+LUtxMMOPWxGePNSHvUQS9tDwM277Xxykbmwjrb5Cp4E7tt2I3g5vHZK7O6gXmvvi0bmQvrbJez4E38tuM3gp3ltJdHvfDSDDgx4HQ1imoJPKIE91iHOI0ZVuI0hpPoEGJ1jzo1umbiNMYp4kScRnWK9ca4shYn1EEv7R0IsMxr45WtnRfrj8tb8CZe43itxcrjs1eGemHTXn1btnZerL9O5oI3MVuH2Vq8LKe9vNUNm2fAiQGnq1FUS+C1CnEv9YnTmGElTmM4id4gVveiR1vWSZzGOEWciNMW/WKbMd6M4IQ66KXtYcDmvTZe2chcWGebXAVvYrcNuxHcPD57ZVY3MO/Vt2Ujc2Gd7XIWvInfdvxGsLOc9vKoF16aAScGnK5GUS2BR5TgHusQpzHDSpzGcBIdQqzuUadG10ycxjhFnIjTqE6x3hhX1uKEOuilvQMBlnltvLK182L9cXkL3sRrHK+1WHl89spQL2zaq2/L1s6L9dfJXPAmZuswW4uX5bSXt7ph84cHnLxJsOyP1YGOeBAPcoAcIAfIAXKAHCAHyIFLcMAeBmz+EnPimNSFa+SA1Q3MX+N8OSfq0SU4gHrhpRlw+gOJeQlickzyjhwgB8gBcoAcIAfIgafngHcgwDLK5OllQsyvE3PUC5umzK5TZpTL08vF6obNM+DEgBOfviIHyAFygBwgB8gBcoAcuBMO2MOAzfPA9vQHNmJ+nZhb3cA8ZXadMqNcnl4uqBde+vCA09r3Au+lPpL/Xta8dp2IkaTXtr+X+sRp7F1l4jSGk+gNYnUverRlncRpjFPEiTht0S+2GePNCE6og17aOxBgmdfGKxuZC+tsk6vgTey2YTeCm8dnrwz1wqa9+rZsZC6ss13Ogjfx247fCHaW017e6obNM+DEj4ZfjaJaAo8owT3WIU5jhpU4jeEkOoRY3aNOja6ZOI1xijgRp1GdYr0xrqzFCXXQS9vDgM17bbyytfNi/XF5C97EaxyvtVh5fPbKrG5g3qtvy9bOi/XXyVzwJmbrMFuLl+W0l0e98NIMODHgdDWKagm8ViHupT5xGjOsxGkMJ9EbxOpe9GjLOonTGKeIE3Haol9sM8abEZxQB720dyDAMq+NVzYyF9bZJlfBm9htw24EN4/PXhnqhU179W3ZyFxYZ7ucBW/itx2/Eewsp7281Q2bZ8CJAaerUVRL4BEluMc6xGnMsBKnMZxEhxCre9Sp0TUTpzFOESfiNKpTrDfGlbU4oQ56aXsYsHmvjVe2dl6sPy5vwZt4jeO1FiuPz16Z1Q3Me/Vt2dp5sf46mQvexGwdZmvxspz28qgXXpoBJwacrkZRLYHXKsS91CdOY4aVOI3hJHqDWN2LHm1ZJ3Ea4xRxIk5b9IttxngzghPqoJf2DgRY5rXxykbmwjrb5Cp4E7tt2I3g5vHZK0O9sGmvvi0bmQvrbJez4E38tuM3gp3ltJe3umHzDDgx4HQ1imoJPKIE91iHOI0ZVuI0hpPoEGJ1jzo1umbiNMYp4kScRnWK9ca4shYn1EEvbQ8DNu+18crWzov1x+UteBOvcbzWYuXx2SuzuoF5r74tWzuvm6z//s308OpDw9fXrx6mx/fnyVCwErxvErMnij8cgY3ltJdHvfDSDDg9kcBROEcI/0tR7oeH+f+g/F+8/QSU/sP06LV98W76osLjw/SYyqS9O17TZrthQYwkvRunb99Nj29/nL784cfp5Ys30+sffpoyDh3j+OW376aPEm5iKN01P/QNaMDpQEw8DA7HqZJ5kV/Gaub+RwHfiOsQVu/fTNomr60ni864ud3C/avA6QIcHMUH6yFWWL6YftL1id2KehzsH9i3ep5Qr+GI2ALR60+ml98Wrtft++WbcZJ5iG2pbEOxr829nn2X9llfil378gfoS8dy8Hn9Ctct7THvzbGPxRxmu3DKMnPml+/hvNp6YrvEzgR7/PBQ2xxjg0IdwSrjqn1Lv/Ue8Piqt+8aHN15ar/legxOpb85mTzdPcPFJSxEL9AfSTqy5qCi8vbX+GF6dHQh6Izak6U53uB95JaX9g4EWOa18cp8zHdwMvAh2fmA+5w9TzZL7XnPbiq/hFt5z2rnuMw5tDWSxnm2/e3FRvDe28dI+3n9kXV1zgyKq9WjIAeLTbSndfDhfBs7t36Pz14Z6oVNe/Vt2dwc1t+rZSF4+mcVi7+0G9mn6v57fv2DlfkPaR5ga2Vejb9/gi0VvNfjOKKvqO+x/pKNyP7E4jo34Gz3yqx/6qeMyHdk3W0dy2kvb3XD5m8s4GQElIndGq1WGbSOIxAxjtVBoAV7L5lROHv72tYenUBM61qxTNMF72w0hPAZd217zBUxkvS2ddZzEeV/fC+yfzO9TIcQ6TeW13XDeLC++nBW6qLB8Q29Kj9cD8TsDJw8rLsYgSGVOpkbUK79IVZShpjmdHPQK1hrP1uu14LT2Rzcgo1tg1jZe0v5p1lftN/FWbV55IzYLXW21O4XXSx9YJux9B6cSlCpnVPl1OW9CNaBOpLT0o+u86c6YAJ2DHU065zoaq4zP58teG3FSeZaYdE4VEWOec/O6ygyxDU3/K0CToBxcpib9WL/GXvcQwQ/x69w7KGdy1acbD9XlxecAo/nuRXqIL45cFp8D+RDI5uE8ay8036PAUjsE9Nze9nVYbzAL+SWl7aHAZv32nhlp+AinEg2fM7HynwI9T+ZXr6tn7IQXuQ6gJf1S3QNbrlwec4O6b1st4sd0n63XgXvrW177VbZ2LyP6pnAW5vZh3rBqRef1IFlwU0xQxtwsI3t4SDlHp+9MqsbmPfq27K5Oay/V2Sh/K729cBzK5NeUEr30/n9a8S+LurIgWcgi5ngbcsOyQsvX7ybXqYf6lzdUQ4L7sEOKaYz1w4WSzgXn83Tw/p8dcj6wWZaTnt51AsvfTsBp2T0q80jO47RqbH3RAFKWaojv1AiQQTQ7Bz5QjxCcCicI/ob7yOuOxuDsPZisIqhKmXl13JTphsrXAu++7FDjCQ9vkZ/bNc4BE44zmwwKmgg3kyPA084FfxkDoL1vOHeuyZpfzROcU4OJiDnzB91QMBB8HBWx71y4JLxjk/RAbfAwTgCH+3jHJxarsn6e3rgYRPtkoP3Rg7qevdcEas1/TzN+qINU06V+QmGtb7Zw8lHbz8cqpPbcDI2OO9LoAOVbijHZH0poIQ6ktPSLwScMKBr9FOxK/YK2uZ9FOYDjkbBW+e1fN2GU91vZTu68ynrQD2U9Edv31VP8kYu1DZefoQotg3vzRyGXLtY83AUsyNwGh3rqeuhPMrYIi+DVeJqlHfk4EvnNYzSn/RhZOXJpPLzfpxevnKe4Fb96vKr5mRZx/WXI7e8tHcgwDKvjVd2GiZil17J//KaTrYJrr0sQXfhSqvXyDvf1uX+u3wo9gafnC8+87G8ELxPwzcEhhATmbujnwELH684N8QEnnKBc1WUh+xV0e9p/CXYr/pvb9i57sfa47NXhnph0159W3asDIss1CaWfV0xAd8hP3n0pvgTwG/hvPcqHM5ZxlEfAss1rfPAfFU/+yw6v2OvgreOfeRV1y34Pr5Sm6I+l+WyyOUT8xS7WWf2tUx5koeO112D6Im31+Wy43VE52I57eWtbtj8jQScrGCtsKID4hqx7FBonXhtlKFyTmz/+/MoHBXgU1+FzNGwFINVDFUpK5unV1awsEZm73oQI0nv7U/bv377ZnoUBzXJOOCQ5V0bZowgF2zKmrVPvYY675eMgBqofj/a38j1HJxQ1nGerXzBsQAHoakHRhUduIC7Oo+yAWUjWR8eKt2EjXEEG6xzBk5hc+7M264H13EmB3HNW9OI1ZY+Tltf2mARy3p+cW+o7oc2qnPC2eM24T04VXany3+Zd9yjLJ80H17rCnoE+mj1xOin4pNt2vs3KUj64/Ty7Yf86pmO0T4hvM527cEpyFfmn220jG3stK43ryO+NlXrp3LAzF3tU8Ot1gbmuaDdSuli97ZzbDdOisPNXB2sElfjXhH1OfAPOCxymMNb7inHs8wq/iQOJJkXntd7T+ND3gyuhuPOD1PINUkv/bP1e/mA98E4BT1+8W56/a18EkH1X3y4+JQMyinUNfrZ8KEbSKlxixysy2IQpuaJyx+PbztxEczPwLf0Wb9u6q8f8O/6PmBru3tbi2GWI+o6BCfmdL6swcprPN/jtC2f0xVb18sfMdfSh9rIiKdgqPu64KXcVHtY60JsG3BPtjDLYIardR8tvjiujt9cVUdnxilrbMeYuyeYz93fdi9iJTgqvrEfxb/2K2MdvddyXfFQuXhzWsIZz6de+3qe6zD0+sMyj9e2bE5P5N5tBJzEAM0a8+igt4qD5ZC2irbY/37BoWBQiFvSQ8qtG4PiFjYB3RSKY10IqmURJ1WOfH0lQRv5hVDux35kHi3m27FCjCS9BZu6jco8zTkcND5ML8NaEhbCBcVIDCFsfAWbVI71ktHEOv3Nejsm9XpiP8fjJP2q/MtcW/kW2SNOTT090FWvqCRDHDYd6QeMNTgY3nq3lp2DU8FH5zUv9/M5qPPYc0Ws1vVz7vpQv+bmJTLQPaLYR+FYnF+2Y2oX5ero89wYcm87TvBIu+hAsMeeU6I22tgc1JGclrVJ/bLG7MyAHRM8tFzxDHgFLIoe6r36l/uW70sY7cVJD3j13iL2A7DJ9lcxNPcyRs78k32S9ZZfLbUfuL76YL6NkV7ZQQ7ldMFxBB+ts4dP2sd1XQsXff2S+warxNXIv7IP2X2l2Nm2D+R4wCPv62U+qgMFL59T5b7DnRMOS2eNh9zy0kuHA6+NV3b0/EXOWVbZTtb6ne1XOsSGvNrVV14AXfTa7Adi/3P/oPdZp3WPKJysbaNwq57X0VgI3kf3Kf1l/HCtXjrhu2oO4P/NtVP9rudyvI2dm4PHZ69sTle8+rZsbg7r7xU+FgyNTe3ZKbGLRs71PuvbvMa+mv51HrqWpv7cfmz60j7WXAXvNfVH6oY1SIA7BZyKryBYm8BS1pMiG3eMBd1ocLPYOPKrfdtBHth+B/KW015+Tk/uN+CUfi3Lv+KKMmw4fLiE6ggOhbOm3UhdIens/JGkQTGKUpRDRinzx9T7ZZOVcUeMld9fa9gQI0mPtuvVK2vTOZfH6r94+yZ+NNgaAMWqeb3JOCSJL3mMyqAqVu0ae3NdU340TnHsds6tfBXHOjAX+Gc2MXUYxZkQjkid/Hi8YJwNdHkMfg0GI3XPwcnKVDDpP5Kc+ZEDtcdzcASLpTqI1VJdvP8k61s4FCjX4ryEx/IruBwEJC2BctiEKz21slzOb8UpBGjT49avxW7KqyLpg/sFT9CvdCjIddx51/WDjmmfoGNYXuQlOvxj+SMRUj/vgXW/ZX7L+GjdzThVe7Nx6iobAzLFdej+G/CSVwjAbqvNyXyqv+vnBd3DegBL/LC44Br3P8EL5qNzGLjuwUmxvsprxSfkjYNVwjdyU/chtZOaj4fkgjfIFWWM6cznuMe0r1Q6fWCbAfldJfZp3sgtL710OPDaeGXnYDCn+yK3TqAn2Um0eXF+hncdfqq/Uq9paS6FR0f6wzIHwbueC+rS9rS/zk5/ghXqlb4Snu2orh9t4BxmWC+NmWxAWGuSoaSPsLFz+Hl89srmdMWrb8vm5rD+XrGJik8dtEN5CO81rwHUWs5VW90jje1r9anuQ+7XgQ8YU7nT6Xv9+uuxpb3gfUQ/2Mfrt+8m8dXEB0O/Ka41cbjxPeZ4HzHJPp3BWMZewhl/6Me5ahrnqWVHXS2nvfycntxJwEmNW1S8siEkRRQlEAN3sqOBwjmKALEfIbiusVVEqRNIKK99pbWGb1uE9Sbl0HSDQTFsxRkX3OJmL8pR8PTHXrNWxEjSa9r268p8HXzSplY23sQHMY7BMJp2XQcl9l0ZbTWw+dpxjhyD019HwfccnJYNZdxQ0lrAQWh4AEE8xVeMt/x1mCrQpOsHB2Nk/aN1zsGpyCHMI/PI4Ziur/c4f26r35rbxsFRPObqIVZz9fx7Rld03Uevz9FBu0FHLgqXVedkbpreH9zcilPQg7cQ1BFssn1A5yzNNWGX8a7yoKtgsyssoD6WF4cE+pD9Qz62685HuWl4rzLuXLfiFByqMA+QWRgDZYpzwXUgjpK2Oln0S50+waa37vxdi47dilzDuaxPb8apg3vmy6XvO7oa5+bYioRv5GbyOao9pOyxJeBUyxY5Hsax4zv91Vihr7NejnVf19EeueWllw4HXhuv7Jy1z8nD2HR8kjrJ2ddr4IzlR9IX9Vd6a3r9Cu1SPY8j7IEdV/C2ZUfkyz4wwNWknzpuxgj2GLlX99mXX10vjW/G0LHOwFT7lqvHZ69sTle8+rYMx9yfrvc8sYkB07f4I1Zvv9Tgu76qOiD/gUCIlZPkdY8N6zVc2Y9BPW/B++g+pT9dR+RsxF3XJfdaH0PmJfXA1qzYi3W87lpETzp+WvRjto3bHQ/mbjnt5ef05HYCTosCjI5kE/wQkmeH3KmThBe+iZHr1UQeEcRIHRTOSP3ROpagshmoQlR9VAa9OHXhnfiwdtggpC6WBWOhr9SVejJ2gzkQtBp/oBwxkvTa9ra+YNEcJrKcIx8KP5LcM07RYPsflVWlrh2OMn7BqJQdx6ujcYpzbOfcyhfWm3HCX6HSGivnHg6s2kb4NGc0s4z2YXYOTjgn2Fh0bYbn53MQ57M9jVit4eyTrg94pXNs7J8ENsN+oQeDqMevVS47HZ/NOGnA1eG264DrfOHa6mMt74iFvDIcXxXRfQAx0rGkrPuUQH4ar+5fMR+5bsYp/DUYI7OAgVcWbY+/DqgvupkDkLXDjdiUH1XMukG3I27OvqK/+oO8zsRppO+L1hHMEtfbQ7run4hz2o/Tr+DWrgiXlbvxtaa6j1qO5nVUkQnYDtt33osc3bwohiu5ZOeKOuillw4HXhuvzI57TL72R2r5gh8SMJJ85IPItvJJgYfVvDrlTfssA7Envt5n/mw8ZFbzyuNF3RC85+5vvVd0CXWwkwb7J+NljMxeWve5hFetv/jkxtE2dg4jj89e2ZyuePVt2dwc1t8ruiFY5YBTeM0r+j2tvuzjbt1fhyfA3bX112NQz0Hw3tuH117XUXFb9OFBz9nF9sT2S7zXdvX8dWwdT/PN1eiivV/NE+Rh623JW057+Tk9uaGAkzqWxkhlJyI6K9VGEw61WN+pkyKYYcM42dlA4WwRttums2m6pG2IGhXj8X0xXnEMVKCkPICN9C146WHGnddGoiNGkt7ddzAMevC08m/XFsZTnBK24fWX97VxKEodsZM6xenoGPbkSO9ek/OrzBF9en2IrCudQrkqTqhD4JApP7JzIm2hTTWecVyqezjmyvThfKrGV/0p3Ai6YeUsa86H3TM4WMbfgxtitaqfJ1sf2qWy5opfWT4im6T3lls2n9uUPufWvxknGUewCrY02R7Ql8p+JHsra6vKvfqObY4OaDl44X5QbJeuV+YS98nA39CfYP1mel3JVuuPXXfhVAUMdTyQqSuziCnaq4Kf7gGpr+w3lF8wo8ztXpjqBxxEFuhPOIF2d146f/+6Dye/zzn+Ptm9xHX5a3P5SbGAj6/HGhDq2tDwPS3FP9rRNbqh/cv6Wx0QHDuy3yDTJ8N4YW7ILS+9dDjw2nhl56y3lkdt55N9yuvXusWWxacMkg1Ln0dA21Bscd1XPY7wQrkmf32q2BG0qWdyR/A+Ht96zYv9iy6DX5MxMntprVcqE99G1XXT3hj2N9Xx2E5wruSWZe73u7gW097js1c2pytefVu2dl6z9ZNtlb/2rPhkPEUmgiP4BXVfIvsa4/q7ZD6uNd+xjurHgK8yOy/sc31a8K7Xub4Pr3297rRWxTZhnflZ5euP8UvfwR8BPVoeD9dweZwtp738nJ7cVMApCEeVSR3vLDxHGEqKbGBinUwOU95XUBT69jQKxyPa+jLcXNFgF8XXQ3/oGzcNSeegEW4MJi04W4wTrkF59FCXsdyOj8wRMZL0eky88eNBJDunsh4wDGJQKtknnGR9gl+4r3zL12iwa2OEYyOOWH5M+hyc2rnJ+lp9SfWAT3P18kYoHIE2lWxFHpln7Tyquiu4dhpOwB87N18vzuOgHX9rHrFa38fZ64v9V/Ys8KBn06W+HA6c+zu5tgsn4b/Zl6KdSU8lLXB7Ts9EZtJX0FczDtqpoo+6Z8ZDVOBt1kG5lw5X0tcGO78Lp1UBp3odkbtaJnshrEOxNwGnvDdk+657qBwyY9qzg0vyGNGjfTgdZytH5rqqTuCN98OUyMYeeFRf43oyjyt9wHaYjm2Q42GeRgdiwOld+MMnIQjWyHrukHbFOFcY1fNEbnnppcOB18YrW8WLmfm6/SQePYRv8aleJp3WvpJNFw6oL5ftXOaB4Yz2a55M9LknuEp7sJWBP8rj8/w9wdvFRde+5bp2DwSs1FYGe5j8IC2rA/LzmGT55IBe+YEE13uEjcX+bNrjs1c2pytefVtmx92TR1un+CieQQcqboJNSHJs97La/npzwzG9+7ZsbX3bfm1e8F7bZqS+uw7lffaXIsbhsyGoj1ov7TUt7iCb1M4dD/vEH/jVnwEdOuMcpThZTnv5OT25vYCTAV6BuIUrCueI+Qoxi6H3nSU1QmE8MTY52IIbtmykupHHAFM4fKijLpj3DJWUZ9K3yrN2nYiRpNe2t/XjOtQpSPMLRgDXn77rAh8JL9+4Kr8gYN8R1+KA4L2Ynt9s2/rrsDsap958hGNdI6l88nSyMrSAda+N1DfGuzenNeVn4BQ4tcT5pC+ypnM5uI43c9ghVnP17L3T1xe4hDps7JUri+RAeXzbybWtOAXcZD4yX9CPrF/KGXFOXr2rbXJyWCp7j2UVBoIP4lVzRPcEvdbyBGyrPus+6jb+vV04pYDT49ITXvbJhYwhrB+wloBl5GsJhIw4eHm9uX/YL7ty8HHJfSW7uQ+nsTHsmE+Sh6CejKe4Bw4bbvlclLWJHgPWM3vEkhyjv6QBA+BH3r/O3bOfBPO8lsgL5JaXXjoceG28ssPXBjqbA8bV2govxH6q7JVHktfywDfljeivpjv7gPA022Qds9F79WnAXgaeavlxeil4H42v4jTcL+KGP2wYDOt+i4z8fcvTwXLW8Nv455zhdag84erx2Sub0xWvvi3bM0fbNuKs3Is4Zvuq/Fbbif4G2l3DafwxL/eFtreXzuPVnFedtHM/Ky94n9F3tQ61S5016zk5c9fUq3DNZwPY33oYSzn85U2UVbPmNMfZOsD/pv3MPctpLz+nJww4zYC7RhAjdVGWMas+AAAgAElEQVQ4I/XvsQ5iJOl7xGBkzcSp3tx6mBGnMZwEP8SqhyfLidMoB8inMd0jTmM4jfJupF51MNZDRH7i++nnMzLnLXWQW1566XDgtfHKtsyNbcZ4JngTqzGstuDk8dkrm9MVr74t2zI3thmXu+BNvMbx2oKV5bSXn9MTBpwYcLoqJbUE3qIU99CGOI0ZVuI0hpPoDGJ1Dzq0dY3EaYxTxIk4bdUxthvjzhJOqINeeulw4LXxypbmwfvb5Sl4E7/t+C1h5/HZK5vTFa++LVuaB+/vk7HgTQz3YbiEn+W0l5/TEwacGHC6KiW1BF5SgHu9T5zGDCtxGsNJ9Aixule9Glk3cRrjFHEiTiP6xDpjPNmCE+qgl146HHhtvLItc2ObMbkL3sRqDKstOHl89srmdMWrb8u2zI1txuUueBOvcby2YGU57eXn9IQBJwacrkpJLYG3KMU9tCFOY4aVOI3hJDqDWN2DDm1dI3Ea4xRxIk5bdYztxrizhBPqoJdeOhx4bbyypXnw/nZ5Ct7Ebzt+S9h5fPbK5nTFq2/LlubB+/tkLHgTw30YLuFnOe3l5/SEAScGnK5KSS2BlxTgXu8TpzHDSpzGcBI9QqzuVa9G1k2cxjhFnIjTiD6xzhhPtuCEOuillw4HXhuvbMvc2GZM7oI3sRrDagtOHp+9sjld8erbsi1zY5txuQvexGscry1YWU57+Tk9OSXg5E2CZX+sDnTEg3iQA+QAOUAOkAPkADlADlyCA0uHg0vMiWNSF66RA3O6co3z5ZyoR5fgwJyeMOD0B5LyEqTkmOQdOUAOkAPkADlADpADl+HA0uGAcrmMXIj79eE+pyuU1/XJizK5jEzm9OSUgNOWR7XuoQ0qwD2sd8saESNJb+njHtoQp7FHR4nTGE6iM4jVPejQ1jUSpzFOESfitFXH2G6MO0s4oQ566aXDgdeGZZc5yBH3y+I+pyuUzWVlQ/yvB/85PWHAid9wuqqgjjUcSw7Vvd4nTmMOOXEaw0n0CLG6V70aWTdxGuMUcSJOI/rEOmM82YIT6qCXXjoceG28si1zY5sxuQvexGoMqy04eXz2yuZ0xatvy7bMjW3G5S54E69xvLZgZTnt5ef0hAEnBpyuSkktgbcoxT20IU5jhpU4jeEkOoNY3YMObV0jcRrjFHEiTlt1jO3GuLOEE+qgl146HHhtvLKlefD+dnkK3sRvO35L2Hl89srmdMWrb8uW5sH7+2QseBPDfRgu4Wc57eXn9IQBJwacrkpJLYGXFOBe7xOnMcNKnMZwEj1CrO5Vr0bWTZzGOEWciNOIPrHOGE+24IQ66KWXDgdeG69sy9zYZkzugjexGsNqC04en72yOV3x6tuyLXNjm3G5C97EaxyvLVhZTnv5OT1hwIkBp6tSUkvgLUpxD22I05hhJU5jOInOIFb3oENb10icxjhFnIjTVh1juzHuLOGEOuillw4HXhuvbGkevL9dnoI38duO3xJ2Hp+9sjld8erbsqV58P4+GQvexHAfhkv4WU57+Tk9ud6A0/s308PDw/z/Vx86BPtxevnik+nlt3PgS5030+sUcPri7Sf1WN2+5/qcv4fCWRLsyP3Xr8oam/ln7MoabZ+xzdL9BRk8PEyP7+fXbcedyyNGkp6rO3xvF5d+ml6/epg+evtjZy7CoxojwaORx4t30xcHBjdPwUnmtwKrZo2ZczUeQY/d9X+YHh/6/BuW7wyu14BTtY5v300fDa052rDHV59U+iWYH6lvODfECsuZru3bKTit0LtWHiP7Xb0GsWkPQzys27Vj9+9fFU6Cb97TZ+yO6Geul9YmZa796q/94jjN2MQ1c5urK7aovy8KNoKzsxfksjnbH/fVRVtXyRXl8WF6bGTmyV3Kih9Vrff9m3p9mQcyt7m54zwum0Yd9NJLhwOvjVdW4fYE3Lun8QTve1rvU6/V47NXNqcrXn1b9tTrurfxBO97W/NTr9dy2svP6cn1Bpx2b1qec4Gbf+00VAc5z+ncPZ8TniDIDlAMcETnDA8ffQxCsEAcMnHYGscs4rTsUMZgzKJTuAI7S+CnVqihgEtymAvexflUHtXYec4vcnF9+uI4ZZki32Ad1lnP9Z1gXD6AHH8Ivgac4uF+7uAF97IuKmfSVXQdcUq6O3/gA3kA/j2dQqx6dY4qD5jYg/0PiRsBA+EV4OIGtsW+QR2nv6Pmi/08JU447mx6xo7bdiO237bZkr88TsKhZJsxMIFpqxedvX/+R4d1emaxvDxOy/MPnEFdm03rfqg2zOsfZGNloPkBTotcfP/DGTvvScZumLXk/nL9NP/sbw3MXddw4Styy0svHQ68Nl6Z5fSu/LfvpsfOD3x9ebf7Rf2DtXLyp+nLTf0rh2UcDVA+DQ8E7114ehwU3Zr7wSHcj3tr1gevn7Rnu36IO0aUU91nK7vHV70HDhR7lcf+q8dnr2xOV7z6tuxwGXbksXYcPbNgu+CfdewiPugwd16qZVzklP2Pg+av8xa8NX3YNduKousZL+G353OCD+HhqHapxQfO672+A2ZQr8FQdel4PRFMLae9/JyePI+Akz2MGUVRActVhNyQ4NWH8ERKJgAQ5jDiGmHt61dJFTcEMfZ9hxA22kDO1BYVxd0YlgID5aCXcWvIX4zM6HotgUfbHVbPOpmdNRXHp5aFcqyRRw4krMfEW9vFccq4oGPfd+SRI9lgZwdeMREsLV/13rbr9eAk8xd8BjcC4GHGKzl3AcsGu234ILcQKyw/Je3anKhLkSuSBqyCjYd8aG8Om4DZKXNOnH9SnLKegXwDFsX+4v5WpwGv0E+yVQO2/wj8Lo7TD2BPsgOXMLA+wqt3JsD5ZnoMT4H5OKM924vV5XECbnl8q8o8G2Z0NdfHvcGOAbL5wfHJrHwwn/k717+99+P08pU+Zdx32OO+bjjy6k0JbHvB8Dwfu8bL55FbXnrpcOC18cr26oBtX/yrGsNe+Zeo65l/2rbmmozV68ctT3tNbVsdu3Cwj6eYCN6aPvaadPm9+TFLdK3htNEJqZPWK/5JG3CSvj2MPql/OIN+JBCYny7N9rr3Y7rKdv/V47NXNqcrXn1btl12NZbN3tP4A519H+SR+2jaRtlXQaVGX8C2dnwu1CNJL+qOzK3h3DrZCt7bMe6PFf3vaENeAtfRL6/GBR5bHLUe4hPLon5luQR7ZvzbbNdw/2r1svTRX5POY+3VctrLz+nJ8wg4ZUEAwB1FyAAHRSuH24o8QJhc3xtjZRkK56h+ldBl/kJANThITH1dSu8BVmEd0ajhxiF9Yj7MeQnXlZhYHBAjSdv7p+fz+pIigxMRDWfErzUYBc+Cm2Daw7vU37Kmi+OU5FzWKuvxNyKLVeFq4mTeaATzopNbcLFtrgWnMK/gRNmDLW7GZe2CWaN7GnB6O/pa3jqOIVYWx+Pz0d5Um2Nlk9GOxXUUTJy2O+3OmvU9LU6ODO3+9O2P7uu6ujdk7rlPicVf/OXpOY9va3CxdS+OEx5C0wFGbM+sYwvYWrul66vs1wG8uzxODsdm1/Vhesw2u3943/dK3fKcgixfvJte288hwMFKDjqB1+/fxCehAg8ggGTqSv1sk7IvkOYi3MgBp2KrlRfXeEVueemlw4HXxis7fu3gSwAXezoZA064l9q0ldfa/pWP6KNg2u/vCFwE7yP6GetD9laLla7dXMN+bXGO+iZyCnZW9A0CU/Gpqs7+Dba3/+TM8f60x2evbE5XvPq2bAx/g3F6LTnbJNzTRC8EX3vGSHKp2wBu4b7khb/J3iH2IcAE9ZuAUxw39G9tZNJV1NPKDwnzr/vehovFKT59c1Rf2k/YY9w9InK4CqS9eDe9rIJroz9aRTm0/peMUWMV9Arm89HbD3DebzHRdRx1tZz28nN6cpUBp56QK+Eq6BAQqEDtKILWKWNE4yr5rKBG+bTN3isKZ29f0l7mLCQVhZZvvbj4pM1DN4Cy7pmNAjYIddb8vsuvHEesR/pAjCS9t9+59TZrCutWQ6KKHo1BOaSkfMJ1ff/HGIWjcVI+NZiontlrwEqxiFx6fK/YtdzSzWm4fzjQ7OHAdeAkMheslFOGA8FpgINOchg+epF0Oj2B6WLXs3/gpI/ih1iNttlTT22S9hF0Kcu9xUvqZ3t04Lp1/NHr0TjtsyFJBzNuhlvJWXxonuCxOvpmkl/v9HAwisVcvcvjJNikw1M4+HySv8UUMPc41Oz9xemLcho8jK3Qv6NxmpPJnnvW2XXtkewTM1xcHj/yOftiyc9p+0y892QYsK8DAHnuob7IdECO4kO+kv/pW6HCjdAeeLVCzstrb3V3bxvklpdeOhx4bbyyvfMcbS9yRG6UdnMymbtXY+73n7hmfSCb73KxHqPMeaxc8F7bZr5+Wk/iddYNux7NL6xL7KIelnM6+TRdG6F9Y4AXba+0T/OTPqPMZd4dH2qHHnp89srmdMWrb8vmZdLhQrY53v3ob7v6EPBXG9fiJjJXmYV5Ad6Sr4NEMz8qdM7ZqEehL+8pOuDA7Oudg7IVvDdhPND/67dvpkf5xEPSheALZL0w+wnw2OLYzE/q6o8i7jyijCtZhTZ92TZjuP16fFous5z28nN6cpUBJwtYLdxlUEL7jiLEvuXxaiHQm+l1IkcxaukXX3UyThKWXePqPBj02uC0xqXb9yxGJaAlUfRMeEwLdlnpBuWygKclcHfuC/302q3iUjIGAV/Be3GtxTiETfwEDum6zsZJxlnCKtxPEfi4wYCTDzzBzUf6zflqUxT+CHfVkN4Gn0ZwynWcQ46HseAjwaagc8k+SR/aT9bFjTqgfdkrcsreOyUf9EvlLbLHw4SxY6FucjaHdPEY/njrPhsnjxNlHhGnEUc+1OnYLBnjLB7pXC+Lk7Enwhlrj5N9r3BIZfKrcfwRR/mpfJpx8jfq49k4qTz2XrPdHllnxrEENvM+Wh004ACZ20CZjBX2CemnlEcdKQHEdm6wF4X54t4iMpS2ZW6oT5EPSc+C/kSZF32qdbD2v5Qn13FFbnnppcOB18Yr28ut0h6wFeyz7H1ZiU9WP1XQqaece5EOjpIf7P8LfHK78lFkrtY+HC93wbvgc1z//j4jXHfW1JGDcB/3kpwG/29u7lJf+hD9LTr4yfTyLb/hFHGb2W9EJp39vf58g/C02E7pN/iYb/938xp5kkHQqbb+4/uim3nP7MgZ7TEGXbB8jhdb7p2jJ3HNce1vptdhvR9K/ED2Ftm3UA6ST74Grr2p5wT2eusO+pHGCHob7JnIqMik6E+R45F/qErm5tl+W7a0p/zL3//z9M1ffzX9099+Mz1gxmtoO/fyPdC2lUfnYPkvzqHB6qRBYJlAyXlqiGGd01Rv2xriJoFY7elH2r5+lcgvgbO37/z3pdMmq8YhkFY33t4V1q2bQXH4HFxR0Q7GSPDai1PdfoRLIqto5Btjrg4xYFRjajZqu0kfiBVy6XicFIN606mxFEMnj4zGOnEjSbg53MpOud0kK2Md+9S/HFmPt83RujxO5ZUl+RUnPEXi4JM3C9ns38bXRILe5s3L21gM33bqH2J1BPbLfcQ1BW4E3cL12PUCFy2Hdq57eZ41987FadRGOY5OwiHqYj1nu8Z8MDgRu6vBaWiNwDe179Z+Z71Fns7jbHH38ufitH9+OufKR1rCNNutOH7mpGCq+KLDHbBOuFZ7AugD2Ijg/1T1RH5gI6ogQfrxJMkvPLUUAg8yXno9MB2col6k1xTewg9tst48nox1LAcU46OvyC0v7fn4WOa18cqOnnfBuuZv5lHDPxNgrA7Clhsoy5H++35N3rcTt7Kf08yvHmcNXoL3mvr76spa+9zOZwJYH8qk3lfmcENdTdiIfqltADtRxnTkCPPYum6Pz14Z6oVNe/Vt2db5lfOXkYtg1D1TCFb6A57BLdhRgz9ij3Y54Ysytg8gWB3QvOpC3jdAptXnNw6QoWAreG/GuDOHPPccaC7fAvzi7ZspxCUqWwP+/lIwXGUX9j7nbK37VfUHFMTOyXfQ0t4V9jGQZYXxdpvTw9Fy2stb3bB5jDFdXcCpNmAame39iXoA2JIACPX6rXw8UpRQFRjTiTDB8M0b355QeuUonF6dVeVpjcH5yoZBfrmT/7o2wAQwCOPMYCT3KyOjbRfarJq/9glXxEjSe/vD9iNckjWrwVy8Bo5Ew451g6G1RkSNC6wV57Y2fSZOMpcRrKSeGmTlilzrQAnwKGx0y/jqRrUWE6/+NeAUMfJtSXGmaj3N+AdHQL77FH/10+Dx2U+DeVieUSbrlAOoXssYxkmq9EawhE22ulfjWPo7rhw5dXT/We5pTVmfmjWqM29w6Dkc1h7l4EnRx8KtY7C6CpwG1l3ZG+N4q3zVvmn+yOuZOB05T7X1Q30aHDN+hp+9PtUe9PnvBA2qMU0AAvUnzKH/Lb2sB9bXkf7DPm78Rez7ytLILS9tDwM277XxyoY4sQabjHVtizKPmr7UHhZ7hj4ZPh0X5rq6/zgP9LXtHiycrWxJM8d6LaOYCd6jddfVU5+k9WEzdpXfqodtbSfrqffpev/q66Cr95X+FqzOwlWx8vjslVndwLxX35bpeFuvwSbKvo1BuUo+BbNaLla+xmfQtxnAp7LyqfQO7SKmge9YX/uSssyrxv8YOK9C/x6GgrdXvr+s5njuL+1lZa2Acz4bAtYdm5P7c+7X+hTPZfHTJYqXjKlp+01c5MMxactpL4964aWvN+DkCECEY4WQBYaE7ChCqQuCsuNIXgNOXYVeL0AUTpnH+n5yW1yjzDm8D63KETfg7DwFbHCjiOQs9+UeKEcOyMV++obCvAuMMtiQRowknde6oa+qrZVx6s/nEnDDjtv0U9eV/jTgVGF7II9kXafhJOtt1hg56mGFm0h0tgSPuLG4zhccOIqhLo5Jxs/ivjF/LTjFp+ZgY0jr6a03Yy2yQAej2qjb/irOr8QMsdrTz6q2sr7wegvaHuGb2jHfPgo+zSEC7eHKta+Z82k4rdC7Mt+ib8FGK1cW1p/5tVCvjOPLYe7+VeCUOQF8Apwb/UN9A2yKrVqPwxxGcu80nGD+S3NYvi/4rbA3BseMH9h/GVMPI+34ye+Y2zdBjm5721bGTvYzfmxV1uM94ZR+0EzcibYmHZZCn0bn7DiH4r6Pb8gtL+0dCLDMa+OVtfjvm3fPB8k8ajAuPkSYS9Z7mQfovrbrcGe2/2rv9Q7Pdg/biUGaq+B9OL7Sd9bFnm63mKpPl+2mwTGXh7kvnR0MXmAzKp0zuOscjsLE47NXhnph0159W3bMfCOmEQNMG64FW6f22uG/6kG4pvvynaVky6xdrvSi0i0zbtWv6p7OA+sabjXtsO5YWvA+BuMynqxb94x8zfZecCvfdcpjZx6LfHpvNRjuy/odXEUPyjnypyk+LBP7jW+CYBp1uqwhz+sgjC2vbd7qhs1facBJgAShiBCN4UFBNKA6wqvrFCNbKZMIRQmj1wMEJWOjYOq5bCRHWmNQikoJCm7BcOd7Mg4QNGMEZbrWvBkZw6Bt0tUqxN51IUaS3ttfbL+WS8mQGL61BkfwbOuGzQCc29CuksFGeatsDJeOw0n5UfgTdMHggHpnN6b8OmJo42w0mVfw5BO8/iB8OtKhOIdP63Gq9A7k2Ftv1iuxQfoIrepeaF/s1zE6coJ9gnX255j0p9EPKQceen1ZHRsMtvTnMqaXyKm9fZX2a22UzrW1P00gzsEu88u5V+akY2y7XgVOWWeAT0Gn5Cln/cUQ1tfZ8xsf4UDczsEJ1nTEXMFuD/FDcDT7hrsvoo8n88ztku5r3tNtudfYjbRucy/4SKEP1TPhw1jAKa8396ltD8b4CDmZPpBbXtoeBmzea+OVZYzM+JvLO1j7eigydQ6GTRnsJ8P9q32t3xqo7afxkY/CIPUjeG/GcWYuBcsen3FdpU7QJcH21Yf0LaDyxknpU3QD27e60viOIpMgM5CTZ6Nn1rQFJ4/PXpnVDcx79W3Zlrnls2hes9qviKfwsNnvE47FjxbZ1ZhWcwHbrry2sqnkqnvqt++mR3ndS9qrHcZ0mHPkwNJfEg1nJM/G53W3/KnWkM5Etmx3PmCp55hoCwquye7o2nWu0kbWItf0V1RLm7gOi68bFO+9ZWTO8PmJNxkfZLl77boeuFpOe3nUCy99lQGnqEiwiVihwq9j2QA2Gwy013u5n2RAEynqj2uVDQwP13sFiMLZ21dor4oPhOgRNxBRMVi4ypqLQqRNIyiegyf+lYlqHssGwsMAMZK0V2dt2Rouxb7L5tqM1fClritjqWNduDO/8TZjDOB4Bk4yj/VYJTmLoQu8UuMs5UWPHvBjnQv8OzJAdz04CRYFm2KzfEdA5BD4E3BN7TLGqoelvy0csm0QK3uP+WLPzsBpld5VttjjT3SMKidwROdm/1pKWf8oFy6LU8JgcN2ClX58uOid6plz3ekcI4Zn4IT9H5Eu/sAgD4SjgFE+sBiHWPvN9jD7Z2YcsH15X2324nr/yvVwP80+U71v416FH8etDgp5PNvWzBXHu3AaueWlvQMBlnltvLIjOFb1ATYOZZB5tIRrlnNHNqv7LzLPXM3B0uP9O8RC8Mb8MWn0R2Zspepjg1fy7fR+kkctn3lcVPfxR1uUta4z+9RLMt943+OzV4Z6YdNefVum61l7tb5BgxHIJvrg1icQ+dqypBehLfqR8bVJ3Qtjf3H/y+OqLU7BlCrgITII92Of2Y9tZDPPjbUYSX3Be0u75TZwjhF/Qva1hIFgEuSDeiCYQjDWyq+VUey/3a+iXmbcM4aqu859mRfsu8tr69jHPFZ933Lay1vdsPmrDDgdDdQ19IfCuYb5XOMcECNJX+Mcr2FOxKk2hD2ZEKcxnAQ/xKqHJ8uJ0ygHyKcx3SNOYziN8o71Cp7ILS9tDwM277Xxyg7HvHNwqgMass6ZYIkXbNaD4XD/+NSdBp71gG7H1vKC/xG4CN5H9IN9hENwPpjKOry5zwUFpI0GMRAH7Mcc1Bt5aHuDVxNAUdzTVWXYORTjOkfSHp+9MqsbmPfq27KRuTxtHZRhLYMSDIzlqHcaRJKyNkiS+hEZ5j/MUPcd1zjHLa/+cpngfTR+ssbmCbIQbEKepyBb9aPVu+kx8VTwskGjjG/oC/UAdcl5XS9wPgWcUmCrWnPHrlV1duiN5bSXR73w0gw47RDAGkGicNa0u6e6iJGk72nta9ZKnJY3IMGTOI3hZLFaw8V7q4ucure1r1kvcRrTPeI0htMa7rFuxBS55aW9AwGWeW28MuJ9HocFb+J7Lr4ep20Z6oVN27penjI8T4aCrWBOjM/H2OM2llndsHkGnBhwuhpFReLSgPSNB3HqY4ObDnEaw0k3bMULMWS6xlAxkiuxqbFBPIhTHxviNIYN4sT0esxQB720PQzYvNfGK6Ns1stmFDPBe7Qu662Xg8dnr8zqBua9+raMslkvmzWYCd5r6rPuenlYTnt51AsvzYATA05Xo6iWwDQKvlEgTj4uli/EaQwnwQ2xsjgyX3AkTgWLOV4QJ+I0xw/eG+PHHpxQB720dyDAMq+NV7Znjmw7zwPBmxjNY7QHH4/PXhnqhU179W3Znjmy7bL8BW/itIzTHowsp7281Q2bZ8CJAaerUVRL4D3K8ZzbEqcxw0qcxnASXUGsnrPu7F0bcRrjFHEiTnt1je3HONTDCXXQS9vDgM17bbyy3vgs3yc/wU/wJo77cexh6PHZK7O6gXmvvi3rjc/yY2QreBPLY7Ds4Wg57eVRL7z04QEnbxIs+2N1oCMexIMcIAfIAXKAHCAHyAFy4BIc8A4EWDY6p94BheX7D4AiA+K4H8cehqMcR72w6ZE+euOz/BjZUk+OwXGOjyM8t7ph8ww4/YHOzgiRWIc8IQfIAXKAHCAHyAFy4PY5YA8DNk8Z376MKcNjZGh1A/PE+BiMiePt44h64aUZcGLAiU9fkQPkADlADpAD5AA5QA7cCQe8AwGW8QB4+wdAyvAYGaJe2DQxPgZj4nj7OFrdsHkGnO7EuaAy374yU4aUITlADpAD5AA5QA7s5YA9DNj83v7Znhx9LhywuoH557JGroP6upcDqBdemgEnBpz4iyY5QA6QA+QAOUAOkAPkwJ1wwDsQYNnewwfb8wD7XDiAemHTz2WNXAf1dS8HrG7YPANOd+Jc7CUS29MYkQPkADlADpAD5AA5cPscsIcBm6eMb1/GlOExMrS6gXlifAzGxPH2cUS98NIMODHgxF80yQFygBwgB8gBcoAcIAfuhAPegQDLeAC8/QMgZXiMDFEvbJoYH4Mxcbx9HK1u2DwDTnfiXFCZb1+ZKUPKkBwgB8gBcoAcIAf2csAeBmx+b/9sT44+Fw5Y3cD8c1kj10F93csB1AsvzYATA078RZMcIAfIAXKAHCAHyAFy4E444B0IsGzv4YPteYB9LhxAvbDp57JGroP6upcDVjdsngGnO3Eu9hKJ7WmMyAFygBwgB8gBcoAcuH0O2MOAzVPGty9jyvAYGVrdwDwxPgZj4nj7OKJeeOlVASevA5YRASJABIgAESACRIAIEAEiQASIABEgAkSACBABRIABJ0SDaSJABIgAESACRIAIEAEiQASIABEgAkSACBCB3Qgw4LQbQnZABIgAESACRIAIEAEiQASIABEgAkSACBABIoAIMOCEaDBNBIgAESACRIAIEAEiQASIABEgAkSACBABIrAbAQacdkPIDogAESACRIAIEAEiQASIABEgAkSACBABIkAEEAEGnBANpokAESACRIAIEAEiQASIABEgAkSACBABIkAEdiOwKuDEP1t4+3+2kDKkDMkBcoAcIAfIAXKAHCAHyAFygBwgB8gBcmAvB5YiUgw4/YEk20sytieHyAFygBwgB8gBcoAcIAfIAXKAHCAHyIH74gADTgwoTVT6+1J6ypvyJka5Vt0AABE5SURBVAfIAXKAHCAHyAFygBwgB8gBcoAcOJsDDDgx4MSAEzlADpAD5AA5QA6QA+QAOUAOkAPkADlADpADh3KAAScS6lBCnR0hZf+MwpMD5AA5QA6QA+QAOUAOkAPkADlADpAD188BBpwYcGLAiRwgB8gBcoAcIAfIAXKAHCAHyAFygBwgB8iBQznAgBMJdSihGGW+/igzZUQZkQPkADlADpAD5AA5QA6QA+QAOUAOnM2BiwWcfv/Lj6eHh4f5/59+F4Mhv/nV9DHW/fS76ftP/baff12TRuvZ8llgv/4szkvH7wSlYt8fT1/9ph7zT6l9f8zfTV89PkwPj7+aft/pu57fd9PnDw9Tvz8z/lCfbFNjTDyIBzlADpAD5AA5QA6QA+QAOUAOkAPkADlwFAcuFnBatYAUcJKASwjyaMAJAzZOkGcxqJXaa1BqMQAmQa8chIpBoJIHUjpzqde7MuCkAbCHz6bvGUziE1nkADlADpAD5AA5QA6QA+QAOUAOkAPkADlw5Rx4tgEnDCJ9/MvfFSLC01LeE0PSDss1wFUHjP44aTDr81+ap6/wSSxJS1ArB4z8p7Iw0IVjy5hxHZ9N32sfOeAFAa4rJ5nFjnnKjhwgB8gBcoAcIAfIAXKAHCAHyAFygBx43hy4qYBTDszgE04aiNHgzh8gGPR1egrJBoE6TwrlIFV+cup30++/TgGlXCaEKP3aAFFQmDSnfC/lS+CrfcIpB7DSK4EaaPo8vDooTzbFNp//8nfT79P4pb/nTVIaIcqXHCAHyAFygBwgB8gBcoAcIAfIAXKAHLgtDlwk4KTBlRxAagJC8CSQPNEz8kqd95QPBqOqMdrvLmmwyQ/ipABTCjrh/ENQSeaHAandAacSkPoqB5yAWPqUFo7prZ9l5ck2YkEsyAFygBwgB8gBcoAcIAfIAXKAHCAHyIEn48BFAk5VVDIHhWa+T9QLOFVBpBikkoCRBo9CQKt5BS0Fc7Ttp9+l1+NSEOrrzyYMOklwKQeVHh7CPen/48f40XO5pwGo3G53wKl8H0qfdLLfborlbeCswpaK9GSKRNwhIErekXfkADlADpAD5AA5QA6QA+QAOUAO3D0HLhxwKsGf+PpZzOfAjRJUn+iBIFEIuDx+HP56HQaEYj/14bcXtGmDBDqfFMjRce2TRF9/l7+ppONVAaBOwGnkia7QX2pfgmdOMC7NrcFKMeP17pW75XetF7xPPMgBcoAcIAfIAXKAHCAHyAFygBwgB87iwEUDTjFIA3/57Tf/f3v3rxs3doZxeLotU6Zwv40BVesbMJBOqdRu3LhUub6BwAYMJF0MpNhu14usqxS5AFVJsUAWSJVLSOOLYHBIHvI7JI9MSqPRzOgphOFw+OfwPT+S77znG+qn5g8XY6XScNBtuNKFQO064RlO7U/OLv7Y/Pxdqjjqg5mhair8NC+HVfF1GiSlkGYImb7t2rK0TFpuGiq1z1VK1VD/mn8WAqTumPpgK2w7V0mlwKmbDsebj6sIkfptzCq4nCwDN4VedKELBjCAAQxgAAMYwAAGMIABDGDgUAw8WuCUA5b2v7gVwUCuMgr/La4NbEIAEwKn/ADt5Z/P5f/yFrbV7qt8JtNU7KFtKZyqBTqzwClAe9tn7f7ngVNsQxuq9WFUF8rFCqeu7bmyKq5nOvRBwZT52MAABjCAAQxgAAMYwAAGMIABDBySgccJnHIVUaw2WpzuQqY2AIoBTAicuodqL1RF9f/VLQVRs5+d5f3PwqQx7EpB01CBtZsGVksVTiO4sUJpuTNvD5ziOl0bOh3a+dW2j/uP65umCwYwgAEMYAADGMAABjCAAQxgAAOHZuBxAqdfx8qjeYVTD0EKVi6+bd7+pXsI+Dff/dS87X9ul6p75mHQ9EHbu6bYdl91ND5Haawamm+rBHGx4mlWxRTCqhSehZ/LzTt1feA0/MSvCORCAKWSx7OaMIABDGAAAxjAAAYwgAEMYAADGDgyBh4tcJqHMGXI43N6YAADGMAABjCAAQxgAAMYwAAGMICB02RA4HRkCaAT6TRPJP2m3zCAAQxgAAMYwAAGMIABDGAAAyMDAieBk7JDDGAAAxjAAAYwgAEMYAADGMAABjCwVwYEToDaK1DS3DHNpQUtMIABDGAAAxjAAAYwgAEMYOCpMnDQwOnNzefGHw0wgAEMYAADGDhlBu5jGk/5uLXdeYsBDGAAAxjAQGZgjR8SOAnBhIAYwAAGMIABDGxgYI3Bqi2TTZpXhh0DGMAABjCAgVNmoOZ14nyB0waDecowaLuLGQYwgAEMYGA/DEQjtXVaH+ynD+hIRwxgAAMYwMDjMrDGAwmcBE5GtTGAAQxgAAMY2MDAGoNVW4Y5flxzTH/6YwADGMAABvbDQM3rxPkCpw0GE5j7AZOOdNwbA+9fNbvLT7MvyleXu+biPZ33prPr5Iwx2j7t8ysaqa3T2Hna7Oh//Y8BDGAAA+fCwBoPJHDyRcoXKQwcgIFfmpfPV4RAlQDpzc2n5uL5u+b1Ql+lcCmGTun9s+tf5seUtr171VwV21hqVzdvt9s1+e/iMq07vh+nXzQvP7ppnstN03FgeS0DawxWbZm1+7AcHjFwpAy0fmLJE4R5w2DYp+Yi+Ic0GNb6ljCv8xRTf5LWu4vHWPI1Czpu8Vsf3zXPsge77djzMjepDXdp+0I7C8/mc9cEDBwbAzWvE+cLnFzI5l/MaUKTh2AgmZTBjCzfMOqVSfPA6fX1i0oI9GXDNwRGz180z6amL7cxGaxsGIMxS/vtqqcYqmO76WnP8nlFl/3rEo3U1mn9sf/+oClNj5eB0b9k/3B1OQ1jkp8oA6flUCr7m+n6k/7fs996MwmcFgf1om+c+qepz2rfl8d7vP030TYep2nflzDQrPFAAieguFhgYO8M3G6UsmHqX3Ooc0sV01KFUzZu2aSk94UJCiFR2560n2DC0vJdxVM3+jj7Cd4qw/QF04etvbOV+9srE/yYDKwxWLVlHrPd9u28wcChGVgTOCUfMgYwnWd5VczL/Tb4md5fPKzf6qqlhkG63a5JFd/Prt+VbUt+qWj/eCxdu6eBWnm8+di8HppN+8Pc/RmoeZ04X+DkC6EvhBg4CgbaAOj5u+bqC5VLOVTqAqNJeDUdRcthVgqapp9V3g/B0zRw6reV9qvC6f43KDd5Gp4yA9FIbZ0+5ePWductBrYy0A1qZQ+S/EOucIo+JnqbPN0OtqWQJz2Tsg11VjyaYIWn3eq34mBdmm7bFwbwUug1eKf3r4rp7pEHC4FTriZf0V7MbWXO8pg5HANrPJDAyYXuKMIGF4bDXRgOq3U3OjYYkZvPTWt0chA0nH/9KFrVgIwjhLn9Y/DTaZfejybtc1fNlPeTDdKwv2W98zbLEcMXzcvrWmClwin3h9dlpuhynrqsMVi1ZTBxnkzo16fRr62HqQxY5VBpeG09zehfRo+x0jv0IdOwvRw+LXqZh/NbgydKxxP8VOu7nr+YPUdzaG/2YLMK9lET583TOG/08/n2c83rxPkCp8WL9vlC4YTXtwdjYDBKE2M1VBuN81sDl56n1AdOxWhZe47Ozckq0zeYndTv5SjjYIha4zi2ZdBHhZMw2v0BAxUGopHaOj1cYyrb9rn7NAZOh4HOvyz/U5OuH0f/kpbtKpyWqrOTD+kH33KgtTAIN4Q/aZnscR7Ub6X2d/4sVaB3P6nL/5gl+aoF/3Tzqbnq/1Nw1astHBvuT4d7faWvMgNrPJDAieHzhQID+2egDZX63/AnIzQYi2BOWoPULXN1+aq5KpZLpiuamNGw5QtcNm7xfbXCqe3j+Tbyurm8Pb9vX1N7spkLjEz3W6wTljPfzRgD58vAGoNVWwYX58uFvn1qfRs8TfX+Xw52dYFTVzk9epa0zPS5R72WoaJoka8H9lut57kOPi60J4Vfz1KF0+DxUpvnx9v+HDD6qYq/Wjy+qq5PjTXHi4/jZKDmdeJ8gZML2f7DBprSdMJAO8J1+an9V8CjwZpcOIvAqX9ewWBQ6mFRvgGlfVS33banNEFlhVMabYwBV7n/tv15xHHyGn8umNviddK3Ex7oQ59TZyAaqa3Tp37s2u/8xUDHwNR3tAHMda7+yZyM/iUtPwROH8eQqdzOpMpp4jk67zLxK+Ee2/qVPfqtq+t3zevoz/rAKe8nsTCbLgKo0k+17AicfE8IzLqe5GvFab6u8UACJ8C76GHgAAz0Yc/UhETto6GJ89vp0bC9uVljxkK5+rDPuI35RX1W5ZTa0xq90tglYyVkmuvHMNDkKTGwxmDVlnlKOjlW14WzZaDiWZJHKAa/wnLZPwx+Iz9iYPApU16m1d7p8zSvUg2V/VLyLtVt9gFQ9fMFrxSOoX1oePpPdcX6tXb2DxMPVVEtD2l7w4Di9Ji9P9tzZubt9fU59HXN68T5AifwHyBscEE5hwvKnY4hmYoY2uT3S0YjGprpeXnbZ/2yM5M33cbsoZUll4MBDIHWUrCUDeOd9Ji1qWyDbdIDA6fBQDRSW6f18Wn0sX7ST3UG0iBaGIzK3iZUI+XQKXqT7B+y30jvqxVL/TbnPmSsjCraN7Shb1d+vw+/lbaVA6ZpeDTzNXlQMOgzXScFbUvtmm0Lg0Uf08d31iNkYI0HEjgdYce5uLjBnDoDw0Mts0GZnmd5VG+3G0cCo6Hplx/NWFhuuq2wbDZ4y/r1VVbBEJY/qwvmKO4jm7baerVjjNswzSRg4KwYWGOwasssX5/c9+iCgVNhIHqT1kcs+IAcKnWvZQgzeKQhdAlV4NkfxW1OfEj0OsO24vLxfpO3dx+/Ff1Z2F7pobqqqpeXwUvdtmzyVLU2x/abPqt756mc49q5/n5U8zpxvsDJhcyFDAMYwAAGMICBDQxEI7V1mpFdb2RpRSsMYAADGMDA8TKwxgMJnDYYTLAfL+z6Rt9gAAMYwMChGFhjsGrLHKqN9uN8wAAGMIABDGDgIRmoeZ04X+AkcDKqjQEMYAADGMDABgaikdo6/ZDGz7Z9scAABjCAAQxg4FAMrPFAAqcNBvNQHWc/LhIYwAAGMICB42VgjcGqLaNfj7df9Y2+wQAGMIABDKxnoOZ14nyBk8DJqDYGMIABDGAAAxsYiEZq6zQju97I0opWGMAABjCAgeNlYI0HOmjgtKZBlvlfQwMaYAADGMAABjCAAQxgAAMYwAAGMHDKDAicfgXwKQOs7fjFAAYwgAEMYAADGMAABjCAAQwcHwMCJ4GTiioMYAADGMAABjCAAQxgAAMYwAAGMLBXBgROgNorUFLl40uV9Yk+wQAGMIABDGAAAxjAAAYwgIFDMyBwEjgJnDCAAQxgAAMYwAAGMIABDGAAAxjAwF4ZEDgBaq9AHToxtT8pPQYwgAEMYAADGMAABjCAAQxg4PgY2Gvg9KWN+ZwCFKAABShAAQpQgAIUoAAFKEABClCAAn//3Y/Nh6/eNj98/aHZxTekoQAFKEABClCAAhSgAAUoQAEKUIACFKDAXRSIGZPA6S4KWocCFKAABShAAQpQgAIUoAAFKEABClCgUEDgVMjhDQUoQAEKUIACFKAABShAAQpQgAIUoMB9FRA43VdB61OAAhSgAAUoQAEKUIACFKAABShAAQoUCgicCjm8oQAFKEABClCAAhSgAAUoQAEKUIACFLivAgKn+ypofQpQgAIUoAAFKEABClCAAhSgAAUoQIFCgcXA6a+/ed+kD/zRAAMYwAAGMIABDGAAAxjAAAYwgAEMYGArA9//9s/Nh6/eNj98/aHZ/eP3f2vfpBn+aIABDGAAAxjAAAYwgAEMYAADGMAABjBwHwbawOm/P/6nyQnUfTZmXTBiAAMYwAAGMIABDGAAAxjAAAYwgIGnzUD6Bd2///TP5v8yg/U5EHakpwAAAABJRU5ErkJggg==;opacity=70;" vertex="1" parent="1">
          <mxGeometry x="320" y="280" width="1180" height="254" as="geometry" />
        </mxCell>
        <mxCell id="R27VUwDnr8lnY172pskY-2" value="" style="shape=image;verticalLabelPosition=bottom;labelBackgroundColor=#ffffff;verticalAlign=top;aspect=fixed;imageAspect=0;image=data:image/png,iVBORw0KGgoAAAANSUhEUgAAAPoAAAEQCAYAAACZRGltAAAgAElEQVR4Ae2dz48dx3HH30k65pgDr4IuBPe0uulCAr4xh10iF4HLiy4CdBKpW07ECiCgIBBIIjHsIIh+MFkmcSTGgMMITmQ7NOOVZPpnbMWWEtuJLVig9Dd08O3ub3d1T8+8N+/Nm5k3UwQWPW9+dFdX1aequudxd/H4R783/3L0tnn7S2/qj+pAfWBiPvCNP/5789vv/NosAPntJ4/1R3WgPjBRH7iz92WzQCZX0DXQqQ9M1wfeePp2BB0f9J9qQDUwHQ0wiSvo07GpzkQ1UNGAgl5RiZ5QDUxPAwr69GyqM1INVDSgoFdUoidUA9PTgIK+NZt+bj589tjcfuId84kf44ubX7FvNd69v+qgH5l3n3A7wKs8Y/t/4ivmw4/T/j95obCL/OwD80W4rSqrMTxX7S88xoP779h5ndz8nGdCy7FXkR8Ptb0/DKQHjRpQ0BvV0/6idVQLmweF72OfeMd86EFPXl+98JEbxMOSXOOzDa2Fq+FZABZlwlA+eCwDnX0m95X0IebZEGQU9JLu+junoHes6wgVM+KSjP7x5yKzQpjPzSf3Pzfm4wfmBNncB4LYrzGf3PfBIZE9HU9WD/LZ1UAX8JaCjAfa9ttwHeIV72kIHsX7xRilqiFRg34oakBBL6pl/ZMRqhQ89CjhcyO47BqyHbMoHPvZrxRBP8FywDt+6vRppiYwyzI672OfaE+erV9ixPmtpiP2H+a45LG29y/pTi97DSjoHbtCAOGmW7cGgJ59YD7xpXsAVGRtOvhtlr+8ZqF/YD7EOrt0TWZ8QOrXyUGOj1co3TmW309AQLJg2vPpGl32axiY8uWHyNicl4LesaO17E5Bb6mwptvp1AFulpwElOtjnkcbrn1uvvg4br5V+pDP4PiFj8wX9z+yZT8rhdsimNjnPXBFuQowcswkWPixOO8EdM5HBAjbB8EXpXsZ9BbzffLYBR8Kom0rDSjordTV4mZmSZtlPzIfvoBd7ujYjY4fAE2zqR2d/QqYvvj4gXlX7O5TSgYAgsvzScv+bNBxG4YnCCKUVQSE6k48lydOTgaUd+/HeTJ4hDYENkjh7yvIHmWM+wVlncU79aheAwp6vW7WvBIdMzi3zMbPvmPexTpbgBoH8o5v4RKwAI5sKbCK0y8H3ctKmSRwviy34+DYXkvBhtwRbnmtBLC8zhmX7uM1tv45zehUyFqtgr6W2pY/RAAAe5JRUZ5zQ02CZbuUoPsxAFkxKEQZCHQxsMggkx+/8JEF9d37hJBvCPxnG3AiaLdDQBCVRlinv+Pe+csglcyPY4hnmdFzuWo+rxLcolb0SGpAQZfa6OC4NXQJDCKL1zh7AnNSBkfhGWS4ex7awhdavrj5wHwSvhzjQF86h9K4XALYoFTK1CXQo8x6tF0NKOhb0S+d2mdICYE/ttmp8g59VWHYv8yOeNaf92UugbUVBTNvsubmeOzPyctAkVYSIgglwcn3wf4RoF7w2T25j2MImfGMDxoc01U/vDfVn2Z02qt9q6C311nzE8LhkUnDGtcC8JExFu4IDZ2Xjp5k7FJWt2AQhAwa3C/gSkCH1Aw4+XKCAUI8W56kl9sHi1zmuESJ86vMh9WAkMUGFH7OlgvoM4zDZ8vC6dkGDSjoDcppe6kJLDg8oQ79+qBQOR9uqDvwIHkwCULeT0UedsdgFNb+DBw+g/I+sdkWgF0aDPBwKp/rjmO44PTF/XfsF4JicPDXqacE/Phlo3i/EFIPl2pAQV+qonHcQJgDcJWsPA45VYpxakBBH6ddVCrVQKcaUNA7Vad2phoYpwYU9HHaRaVSDXSqAQW9U3VqZ6qBcWpAQR+nXVQq1UCnGlDQO1WndqYaGKcGVgb9s0efGv1RHagPjNsH6sKMgq4BTAP4hHxAQZ+QMTWrjjurDmkfBV1B18w9Ax9Q0Gdg5CEziY49jipDQVfQNaPPwAcU9BkYWbPqOLLqkHYYBPSTw4VZ7F03p4Ds3nWzv9g3x/c+NafX9uP5HEB738IsDu/UZiD7/GJhFk0/fJ798d7DO8bKxc+iPbqVOgrvy88PaUgdO7WR6iPVR4+g3zFHi4XZv/YwAeroGkD3cAL+ew9tAFgJWj5HePPg0PTZgw5YLbgEnQEIz966bIOGBHqpXPL5pvH1Wm3AVkhTSLvQx3CgEwiR0TEhQsfJnRxeNicCSgffvjm+dd0cXXu4vrOIPjmmbSlXAXR73QcXBCzK6KoSF6xkUAjXFeqoK9XFILroDXQJiSytj265TC/P7V+7Y473mOX3zdHhZZ/1983xNWTZfYNK4Ij3bJDRw7gyo/tMbq958JnJS/K6Pi6bE3XiQZxYA+ryCqA30KUxCI1bpz/0ULt1evE+luiVFpl9zVJ/lYxeAlcGgUSeqvxyLnq83BlVR9vTUb+ge7hCFiUoNms+NKf30om6gOAAOjnMQLLAZecIZoCxIcvWgU6ZRJvvK1Q3BBmsfBWyToVB2bXVqmALPtAv6JhAgFBC6sr3fH0bQY/l/X4o48XOfaKYCJ3rz31O1tS4Pw86oXTft8sE+6wIBnm2cUuRhkCSyJQGsLwv/az62bYP9Ah6BLCS0UX2lNkygu4coZLVCzCFvQBm1Xt3wlo+gd1CzGrBvbazz+5dN8f+9d8JXvctPMwhQPmsLWWWx3IzryDftg2q/WvQKPlAj6A7Azh4HTzy2AmHzA34VgwKHjBWAq6/UqaP/fHesHt/L+70E/TTR7GCkIGHCmQwCX1ZoP0zCrqW3iMM8L2CHgA5vG6/IOM+x9dnJagIV7H1WVaW2Y3Vgg0MLovboOChtHKE0t1ndB9EkirgUQwY6XmxFGAlMUJjF3Wocs4iMPUGugQrWR8DDP8lGa7fKxBJZ6yU0HGdzEASvnUnn8MxyvW9y3anHvfK13gIFuH5xcK4bO2zNIMA4JcZu0EWhUpL6DH5QG+gj2nSKotCODcfUNDzrK+fZ1HKKugOff1VUgq8Aj8hH9CMPiFjzi1L6XxXX4JtHfSX33ts9Ed1oD6wXR9YFvQUdA1EGogn4AMK+gSMqNlwu9lwCvpV0BV0zdgz8AEFfQZGnkJG0jlsVrUo6JME/a7Z81/RxVd+9248Npculv6zzRVzKZk/nnvGXHhrFafCvS2ev3HFnHnx/Vg9vPWKOXP2FfP8e++bC2fzflYZX+9pE/wU9MTRp+I8d82eheixef7FZzzoOcBVwMrBgAEiez6AmwaV/P8SIMhYhwz3+88Kegx6Pfiggt6DkttE3m7uXQX0NCNbyC9eKWRpXw1cvCsc831z4SKyMaBN+5Hyo8+9GwgoDBYLs7Bj+M8ho8vrcpypBN7h56GgTxX0SunuMjIyPLMuS2mc47ED15X7LyPr+tJfAvzyjSu2SkCbgCvG5Bia0YeHHLZT0KcK+tLSvcYBPdwEFW2A1esqlPh2jPqMngeHMxevmDOsDLR0FxVSjS069E0FvUNlJo49aL+l0l2UxyHzIstnpbUPEHIuAWw8Z0GV63uA/ow5I8vz0P/CVwp+jBAY6kv3PKhIOfR4/YCgoA8K5PqGa3Z6wBfBBjyXLj5jLrwod74bMnG+cZbpKCn/kaXPXjF7duf8rtlDIPDPuyXBXXPhbD72Y2OXBRZ8GTS2pQ/tV0HPnLgZoF1xmFJGR/aOcKfr8iyriyARS/hs1516s+v0V9INN/F8WPvnwUNLdy3dpwHbgEEhQFR4vQYwAWKhRHd6B/Q51IWsy34WKM+RtfEuvJTR/btzkeVD8AgZPVYf9XINqE8GtR1uNaPvsPHqAqLM1jgOpftbDnwHWg6zL6cLm2/5KzT3Kg6vwdz63K3zVwM9yByCUSGITNAmYd4DzU1BH0jx2zS8XY+HTTYHdNhQ4663hdRndmZnmeUBYqkEl/oK5XgOa9wjkO/Rk402BV1L921CoH1rCTxHH9CMLjOUHveaZeYI3FBzVtAVboV7Bj6goM/AyENlER13PMskBV1B14w+Ax8YHPRlAuj11X+Tp+pKdbWuD2z9l0OuK5g+p06tPtCdDyjo+nvdl/4XRwWuO+CG0uXWQd/FDRtpjF2UHzLrHMaxUdaXHeQ4pWMFvbBRIxWloA8HjNphdd1LXZWOFXQFfbS78tJhNeA2Qy91VTpW0BV0Bb3gA10FFgldV32W+pHjlI4V9IKRpaJKSt2FczqH5gzYlw37soMcp3SsoCvomtELPtBVIJDQddVnqR85Tul4VKDjv1qG31iykfLjf6PE/81O/vvkCv1KRZWUWj2H/8YpfrnCGmNW+0RGWn8e7eZQlX9R+eMNm2TI9ebRbg6Ub72xyvrfvM/15sBxV2/lOKXjCYLuDB3hzv8v9XLlSUU1OwD7whjiFz3Y/+stPq8QXKrjbDaPdnNwoEedPba/F26dINnlPNrNAbbYTGdV2Tfvs/0c6FPtWjlO6Xh6oIdfeNBOUdLIUlHyfP1xBvp77o8ibFSdbDiPdnMogI7gZAPWhn9OaYN5tJuD/IWU69u+YuMN5EdfreewVlJIx5Fj8njcoFtHiyVxknFqr+VRvb3RqRy0FcMXDbEE9FpZCVNpjpvNo90cakC3fzdNLH16nke7OcDOS3TWs/wKehGWPAvKPwvEUpLZpeka7wU8vL8d7O0dLAPdOhRL9yZZm65tNo92c1gF9CZZm66tP492c/A25q/Nqti+Scama+vLr6CvBLozHH75Yfitopnxmq5ByeF6+D1qqwHf3sEcKFFOQh7HC7LY39OWBqCma+vOo90cmkBP59Ika9O1debRbg5R101jNcnYdK2pT1yr+9lkDnV9ls7LcUrH4y3dfZkV1rn2swek6VpF6UvKucr96XqnpNTquSyjyz6bZG26Jvuwx+3mIY1dlTd3zBrQkR35CyWbZG26tsE82s0hnxM+C501ydh0bQP5offN51CaV/WcHKd0PF7QpZOF7OxBb7oGoyUZHMZOs9Iyx5eKWnavu94AepOsTdc2nEe7ORRAh2xSb02yNl3bYB7t5uD3O+ps3yRj07UN5G8HughKfjPX/XksLh3SKjD3S6mr0vF4QfcbQSyH7R/wC6W7c8zyNVGy+19nnGziVSJ0c3TMFVr+3AD6QPOQxi7LLOed6tPqlZk86Cu9pw97tJuDm09afouNxNHbYUagL3dI6ZzbO17HwcYiO+XQOWzPP6jjVdq+7CDHKR2PKqOvorg+7pGK6mO8bYyhc1DQpQ8o6KE0jY4hFbQNCPvoU+cQ7dmHvuvG6MsOcpzSsYKuoNe+Gqpz3r7OS4fta8yux+lrDnKc0rGCrqAr6AUf6Ap4CV1XfZb6keOUjhX0gpGlokpK3YVzOofxle7SJn0fbx30viek4+3+byxVG3ZvQwVdf91z8u0thax7yMagUwVdQVfQZ+ADCvoMjDyGjKIyDFspKOgKumb0GfjAxqDXdaDnVQOqgfFr4O0vvWluP3ls3nj6tlnID+MXXSVUDagGVtWAZFtBX1Vrep9qYMc0oKDvmMFUXNXAOhpQ0NfRmj6jGtgxDSjoO2YwFVc1sI4GFPR1tKbPqAZ2TAOtQdcvRAz7hQjVv+q/yQfq4o+CPoMvUTQ5hl6bVuBQ0BVo/WbcDHxAQZ+BkTU7Tys7r2NPBV1B14w+Ax9Q0Gdg5HUygD4zrSpAQVfQNaPPwAcGA/3kcGEWe9fNKZR877rZX+yb43ufmtNr+/F8xQB3zBH++gqfq1z3z/u/0MK/5FJpD+8E55Zy2LFLz2bj2WcWl83Jo0+NPG6bBd2z+Kuvbu7ueTfH/WsPUxkXC3N0a1pZpq2+9P717d8z6NGJo5MvzNE1gO7/RjiguvfQBYBHOfg56A/N8d5mAFg5PMgOdAcwnUpelyAubLBw47vjghFsAIt/+7wScBLA3fMMNke3fN/US9bKQEBZtS3YoJAM5qinYUFnphQZHUawcFmQPNjWyQGgBD2/1t7IMtgs9vZjsMmgAqDMphHET81nty6LP+mcAc25WUcT0CbnMQcZWPycDu9YHViYfbBQsNvbd45A1825V9ATsARMR7cktA4Y6dgWrsPL5oT3AZZb183+3sLI++om2XQ+ZmzIgBKaVUL+GY5GOV2pzWePsQxJgJVOyWdyWeP5NIigb3cN553OfDDIAmLTvPSatIEe9wq6dD5mRrfeZsaTa9WScTwcSVaM94U+RRCplss+8/p1OmE9tRA3gx773zfHCDQ+0ycwZqWiu5Zley8fAadeknshn68Ywn1hKbBMT1En7Fvbeeukf9CDs2bOb+F9aE7vRYMkjr8MXg9ucOhQVsvSOPbN+zjG/rXrbqMvQBgzLkt33ms3z65dNlybx/OcUwlEBrOY2e1zRbnd89V+2f8ijM15aFu1reok6qR/0JHxAoQSiFiuVg1ESBy0LrPKZ+OE3LO8n2tr9zkt8+M96a433wLw2dj36bXr5sTKno7tgCwHlFgF5HDeMcd7+36Nz2d9cBHwu+dx3V1L5xBlq+pMr6lOog/0DLqES2SnPFsLR3fG8gD4kj0FvQpHyITsB2vePTdeDoq91675GzbWIB/7agX6ivNl/yEAQlYHfwwiCrqCG8Ftq4ueQXeCxizF997MaLgOh04zJrMiIW0CnfdW37VH6MKalzv8Ys0fnvfBh2MGxdaCngYu+Rz65OcIrpOH50P/yRpfBrEIuu2DgSe5f31HKI+v/U1FL72D7hx9YY4Or9svyATH59o9c+AAXgVGHwz8cxYY9pFXCJXPMZDY8X3fuSx8l53AWAu6DFYREM63mqEfujcHkE3MDY4V5mzlpqwK+lSgG2IevYJuHZhOLaEE3PySjC9fAVeAJIPffZNOZtAIWXiG4+QZD+PuXTbHt9L+7XN8xsvGzG+vUYYWoDtZvGx+XvYtAMexsvlKw787x3UXWBzYlOGzR7Ei4ebgEA6jY8Ygvku66BX0XVKMyrqbDq12K9tNQc8zvn4O37FXaMrQ7KJeFHQFW8GegQ/0AvrL7z02+rM7OmDGUpvtjs1gK9qt1CroGoQqQZiOoqAr6JUAQecoteowu+kwarfdtFuJwQqw/kSnv+5ZHWY3HUbttpt2U9C1TK+U6SWY6Sila3puvPDTbqVWM7rCX4GfjqJQjxfqkm1ot1I7bdDfesWcWVwxlwLMd81e8jkzpL3/GXPhrcfm5RtX6n97DL6aevYV8/x7sj8cy2/rpcd7N7KxKJMck+cGbukoJWfq5dzW7Ub7St+Afd43F84uTGord85+o9Hbd+9inW943xnIfrRbqZ026FC4cJpLF1P4EuMRRIL34hWzuHg3ZLvnX3wmcwCCS9jvmj0LPx0mOhHGpfM0ySDlkWP3ApdwTjpK3+Mm423VbjVB+ewz5kwerGlTyEN/QBLwx9EvEBAU9ABMYkzhXFs9f+OKOXMRPxHcAB8MSGNKebwxYcgEQOsIJYM60C/l91+8a8JY7z3OjtN+otMwiAzTjgJ02GJLdrPBFr4AG3vbOzsjOLsgwMAc/DIHPQ8ItX7Rnw1pt1I7+YxujXr2FXPprfd9sPHR3EdvadDgAN7JELXhAGde5LPM1gA0lnSuj9Uz+pmzpeCRVhvpmP05CxybjhKcXAbAno63ZzeW7am+q8HcXQ/+kYOuGb36/eChHAbOEoAJa+5YUkMu61CIxt5wAfYVM3rMwgD9itk7mzvQFbOXle50nksXNaOXfGPrdkOlkATvciClbYOPMGtjWacZfTygOyeqWY8FQ6XgB8cToKdOka7F6Awvo+QrLQEayvXUgbIM0lPmDPMV440ho1t9BhvlwROfN7Nbc/9pALY60ozuqn86R6ktOVN/5+oBdLusqcMAPptxfdQHyNXoHR2hAnqoHJxzIkiEPi308dn+dFDOWHXj04Z11/s5v127NQfmgo0k6CIoRvu30/E2dEi7ldrJr9Fzg8IwMUMjO0vQY7aWcFqjwNCFjO0M/b65cPEZt9nnKwE8w7FiX77/G3jtV8pS7hxL+204wyp90lFWuXd796SgU5duvM3t1pzRYYcMdgE6ZKkG/+FtR7uV2tmBHqFDBM4dhs6Fcp+GxvEVc8mDfoEZ30d19Aen2APoWPc1ZnT2z7E5Bj+LPQWRNbYHUzkL0VH6HjcdT+oqfVvRhd3yBJCOjfGkbfiathoAXKAv6zHvc9ufabdSOwPQvREAKrJosmEms7nfjfU77XztEgweMnrM+s7h4BAiMIiMTsMyuNhMIF7xueddJqhkkNmDvk27oe80kNBWbIPd/ZdokMFLlZaCLv4zP5XXe5tk1wxqC1LcqIMRYTS3pnbRnEa0gCJIEFJRxmFOfC6dHwICIcbYrB7imKnzpOfDWAMAz4yQzqfHrNWL3TJ9V5ZSWUanHZgwKvd7WxeWd33pkXYrtfPJ6DSUtku/vERH6ctBdZxugijtVmoVdAW/Aj4dRQHsBsC+9Ei7lVoFXUFX0CfiAyXAeU5Bn4iRu8wadI4u+9S+tl8d0G6lthfQSwPrueo3CMemE4Vz+3B2qeMm/1HQxduBJkXptfEHJrVRvY0UdAU9/G81BaUelF3XjYKuoCvoM/CBXkA/ff0DM7UfRvipzQvz0bntpr/SbqVWQV8zCFGZCvpuQTEHu3GOslXQFfRKtUUH0SC2m0GM9pOtgq6gK+hr+sDYAqEEOz/eAdBvmoPFgXktMQbOnTMvvTpcxKUix2bsLuTRuQ3nV5vYj3Yrtf2C/upVc/Dc25UMgsm9dn5hDq7mCn7bvPQU/wdYbM89da76H/+fumq+9upVcy4JCqUgIcaw9/uAcfWg2qf8H0roXwQbKrNomIocYkzRx+nrmN85c3D+XDL3rz2XfrZjVPrsc24YK+q/7pcuLBp17+ZaDM6Dzi23TYOcie3ic/DddO7x2ukAc6NvyrZf0GuBLoMOBZ6zgUE69U1zQOgAJ49pBKFYZ4Cyg4agYu8/Z1567sAszt8MQagIG8co7Ew3jVUBI8jMufjWyiLkxX1XD7wOPjDSaZrG63pup69TTuHAQhcu2AGQWHnl+sPnih5kYBjIbsVAXfKrynydLuy8vJ0qvshnep6bBJzHvYNe5zRw3OCgVBDa3PkLmaXyHOA4j58Ibugf/QXQhOPCuOdvmrJDVpcJVGDVURCUqvdX7/vAnAqIJRjhuCTrIHMD6Afm4LyvanK5rO6uCtBvmpdsgAb8C3PwHCqtRRKUYQ8XxFMb9G63FfzLBajcpm5uMjnAnrWZvUe70TdlOwDowrAC6ACiOGfhgCEEsDkwAQr/HPpBZH3tVS4RfNn51DnrbDIo2HvZtwA9dcByKUcl5vJYY5+H04vMnASnmPWKzv76BzbYODjivRhnuLn5jO4Dk9U54PW6g1wHV2NGx/WQvc/fjMsyAVWq4wHnlvvXq28nSzTa97XzAnQLdHNikvPr2270Tdn2CLqPgIzsXlnBIRIYRPQXzlF3L+FNwAn9F2DBWMJJ7bEAvTqOMLIPKFQiHcG15aBgr+XO4ecV9htqqwmniz+RGbD3ucXS3TqtL7kB9LnnrvqlVAQ96qJG9/QBEZwDGL3PTSYe76MM/nnSYbBtDORuvf4Sgt1TV80QdqNvyrZH0L1C4eCF0tllBal0cX+D4vOMbpcGedBIPqfOF0AVoAens4Yuw0slhud9Ji6VbjbDZXO2QQlVBkrcLKs4gFiRSJ0s2xTb1twi6LZiCXNxYDh9ZaBfPfBLMQ/PIsuADODBtkPMLcpWDe6FiizMW9rEVWCpz6TX+/ZJ+qZsdwP0BNSqAZjRHXTCKSsROXNGuTkoytKq0VfI6HTcxYGx0bxJ5qeumpeeu2pesxlRgl5yPAnvQHMLm3GA0c3P6dzDaWGVuoWcbqnkAl9pXqJqs3Yaam4ioRRArk1AwrfqAzOB73duEnAe7wboIepTcbEtZnRhsNQI0hnRBz47iCsGrak8mMGpQH52azgHQvrO36+5K68ORSawGR3rerf7H7NDLm/qMH3NjRuoL4Xlg5MDnwG8m7uQ1ZbfMkCJawGQdC4cg68w+5sb/IDVRBbQfZVHG4c2LC+qSYdJItrQ99+jT9I3ZTsg6KnxK6BxPdSUGeW1oMjUgdJ+0zGjc8HQNLKH1YNOZw5G9o5KJabnNwHdvyGoOJEEZqi5EQQhi6+A7Pytrg7sznwMcnwm3aiL+krnEm3hgni/dnNjusAv4G1IMHEeImCHIMb+2KZz3fbc6JuyHQZ0D6gsudPJU0FsAWi2xrPZWDhermQ4H8bBa6GwA57d7yM2sgffgYbdVQ/610TWl8alEuU5lxmyMbiLviyj21L3wLwmAaqbY+9zSx01nbO0kZu71ad8R27nIQBigA7BmX2I16m92o3jOz9jVnYtEwDvqbZp9VG9HvTVk93om7LtH/SacqgOdJxfhGwrlZhnZ/deOhqpClws0VzQoIEINz4j+DhHjTvz+WYZDEclBiPaQJNmdCd7nfwiE9gs7uWty+jJ+b7n1gC6lKsErtVLwVZh3T+w3QifDT4lqD38nJucLwNWTWvL9+T+fuxG35Rt/6DnmXdHP1OJKegyEO3usc5tN21Hu5VaBX3NQENlKui7BcUc7MY5ylZBV9DD9/sZtOgg/Dyldg5z4xxlq6Ar6Ar6mj4wtgAowc6PFfQ1jUxFjs3YXcijc9ut5QhtTruV2l5ALw2s56b7q4XVtuOzrYI+g1/1q+CND7y+baKgK+jhOwF9O5+O118AUtAVdAV9Bj6goM/AyJo5+8ucY9V1Z6DXdaTnVQOqgfFq4O0vvWluP3ls3nj6tlnID+MVWSVTDagG2mpAsq2gt9We3q8a2BENKOg7YigVUzWwiQYU9E20p8+qBnZEAwr6jhhKxVQNbKIBBX0T7emzqoEd0cDKoI/1vaHKpe+O1QeiD9TFHQVdv0ij35ibkA8o6BMypmawmMFUF6kuFHQFXTP3DHxAQZ+BkTW7pdltjvpQ0BV0zegz8AEFfQZGnmMG0zmnVcwgoJ8cLszi8LLq0DgAAAy/SURBVE7IJPnnqpHumCP7S/Ivm5MGME+v7ce/y13zS/XluBjHjr3I+31ojvdSGasyRUW6cfM+XN/71x76eXIO8i+W7Jvje3k/CxOeuXfd7GMeQldNcui1qEvVRaqL/kG/ddnDSDAiAEe3onAOQAlFw/E6IAQ5Gvr1wQJyVYLI4WUbfOI1zMfNxc6DkC4WRn4mxK6/CHplvr7/+JdnopzsQ505+ovqolkXPYNOqAk5has7/6n5jECuA3ND9qdjtMnoaeaOUMfz8ZzrH58vm+N7D8M8LPSPGDgi6J89clUEIZaBwB7vXTenK8yH89KWvqUtfKHu3xa+MNMAMxw4ZEAZBHwJXVeGd1DWVjKpHCsJLnk5H6GuB907WWlu4RxL8xR0GMfKtnfdnGBJoqCHpZ4GsfbBqzfQK5nTOzoznDUend8D5gBCySrh5yR94KjcG0vcUtlrzwmAK3LZrJlDLQOR6//oFgNXdbyjWyJAeUAxl2Suleyc9Xd4JwU9BCBZBVAX2ir8zT7QG+ipIaogpNdFyR4cvApUDm3og+V+MUA4hTRm8nxMQmfX2zGTc7yY0VNlMyOf+rK8HHgYxFy/KN3dc/tuIy6XZaGgU+/apv7WpI9BQA+Z2mbWaskKgU8O4dAMCIRBTsxnQJGd3UT5jN8Ey9a+qTJ4rxgLGZiVRSiXAZ/b0WcmP7qGHXEHXQQ9nUsEnWtyMQ+OEeSPAcQ+x+AiS3f7jIKe2lD6hB7X6aZ/0PNsS4fn7nRS0hLEmmyObBdAcUa2kMjz9+6YI7wqW4jXVqI839/b9334sUKpfdkcAe4AO0H0bUvQP/M78k5ezktA6/WA8r4IesjsIlgkulInr3NyPd/rZpxc5woHh7MG2LPzoeQtOXc1o4dKIcBJ5ydYzPLiHXcIPHkwcbIQOoK6TkY/ttUJZPEye2i5w24d0cqBMb2spYzODbqGJYk6NW2urfSFXjN6yLYhO+Vw4bOEmoDKc96ADA7M6Pzc2Df6z4MJHcKPVQkSvJ5CunLpDnkgY0E+CbrTDebp5IhrdflaLQYBaUQ9po20rfOFXkGvE4LnkZH3r90xp+HbYlXQQ9b2QMud7BBI6mAFbHuXzfEtfFstBbe8USYDj7s/zeilQMUlQgQ2yJzIxbm5QGDvCV+S8cGoWG3UBSp1cvqRtlVfGBXoaqCqgVQnqpMufEBB1w0t/SLKDHxAQZ+BkbvICNrHblcWCrqCrhl9Bj6goM/AyJqNdzsbd2E/BV1B14w+Ax9Q0Gdg5C4ygvax21WBgq6ga0afgQ8o6DMwsmbj3c7GXdhPQVfQNaPPwAcU9BkYuYuMoH3sdlWgoCvomtFn4AMK+gyMrNl4t7NxF/ZT0BV0zehLfOD3H/7O/PzrPzOnf/2B+Y+/et/+4POn7/92Z3Q3W9B/8+DX5if/+BPz43/4cTAejfh/D39jPvrGz3fGiF1EfO2jnPV/+e4vzHf+/IH54d/9yHzyzV8aQP8///aJ9ZvvfvWhPbcLupsc6L/61n8X4YXBfvrOTwO8gPqbf/Ze5QdGBfy49uhvfmANuwuGVBnLoK6rFyQCZPAP3vjQ/O57/2sQ/H/2T/9pfvHP/xV8CBkdAQD34fq6Y/Xx3ORAf/Dl71bgBbTI3mhhOBioCXQAziCAqD2EESEjMgjk/sHdH1aqDlYfaCEv7kMwg1P24TilMZDtoC/qbtP2vZvf7l33mAMCPfyIGZyBH/OBnvO5//rbv7L2AfRjLecnBzoycsnBCDquYX21Kui4Hw4Ho+cG7vozSkJAXResSvMqnfvW7X83H975fi8ySx0gs5Xk2eQc7NkHPAjmABrjwVcAPAIndCnlL4FOHWC5B9sB+CGSA+UotZMGHUoH0ABVgo4SDJkd19DiGpwU2QiGlhldGhmOUFLipufgyNuABLI//Mvv9eJ0dTqT+lv3GHMAeJvqufQ8gj6CIuyOY4zDDF2Stwl09k/g4VvwNZ4fsp0c6FAusiLLWRiGUZqGg0EBNSFHC9DwXBPoeB73dW2wbUHO+SLgdS2z7E8GUY7ZdQsY5ZhdHSNjY18HgANQBJUm2VcBnbKhX/TFz0O2kwMd0MAY+IFzEF7pjDQoziEgILPjB0ZeBvo2DLdpqd7kmLiGimZbTgZdLhu/q+vbqKhgb+hmVRvAZ9roEnNvc/+27p0c6MjULNelg+Wgw8DyOo+HAB2lYr4WpDybtn3tL2zLQbfdL0Gv84dc/wr6ki8dbNtg7L/OYGMGHbJjnY6M1RXwABybQkPuwtMmY24V9DfN7SePzRtP3zYL+TeU8xJgbEbcRdCR0aUe8Q4X72sBKqqTZWUl5oz7sEzB/gPWhrK/bcKeZ7xtf5bz6uJYQVfQi6U9HLkLB5N9wNnwKkee6+oYr+ywnOmqv7yfHGxUEgg6+MG4vI5gxfN1wZj3si3dl4+/6WcFXUEPTkrHY7upc+XPs1/AgG/vAc5NXifheWR2uYOcj9nVZ8qOFpCzOsFShKBjg5TzgWy4Tz5XOkZVAxlRpcjrXcnNfiAjKp5V33y0WaNDB1iKcawh27wS52dZrU+idAdAdBjsFJeyBa4DDrz75L2ltmuD/etr3yqOB/D5ChAO1vSDNwwEqw+ZqQOOJSHHl0UoC95q8F586ahuruwHLbMsnsMz8hr76qqFflFNYZkkx6k7bgM6gh4CSFeybtIPwc7bnQW9tJ5FVGV0hQGRJeRrOAkQ36k2bYptovDSszII1TnYJucx39K4XZyjXAiOyNYAk0EUsOMcfnB9FcjZHzYmsU8hqxJc60Jm2QcAh/0ho/SDTY9RkTCAyPGGOs4B5+edBZ3vWuEkNBaMCAUzU2OtSOMiExJqOCJLzCb4tmEsRH/I0gYGQlHXIphx7tuQGX3Wjb2t813PAzDCH1btF36zytxQ1SDAbmvvZVV5eR/BztudBR2GyLM6v6cO5cNIBD03mCwZm74IQuV11XI9iv5QeQBOBJpl5biUX5b5eF7utMvjrmSeSj8I7Aiuq+poFdBRhUA/sAkTx9D6ygHn550GXQKAY2a1sYKOEheybcMZ4MDofxt9T6VPrNMR2FeZzyqg4x4sAdHvKn32cQ/BzlsFveGrnV0bhoEJG1f5O/B1x0KVgNKRS4F1+5nDc4B81WC4DHRWB1j7j6Vshw3r/inoA4BO4OEsXF5g2YGKRJb3Ej5UAriOHzgh1uWl11fymS6PKXNfbZeysy+U19inWQXMZaBjHwhVFMt3jjF0O0vQsfYtGUyu0bGZV+e8XRsN2aRurC7Ow4m7lpn95fIhyCBI4UfumEO3PM9d+fzZ/HOfAQuArpLVS35DuTEvBI2xZXPYqu7fpDM6/wsrDcRWgo4MyfN5SyfvqsWO+6rOn8uy7DMg55dYupJX9iPHl+/SsalI0AE4PuM5yFICWPaDioYVDGwlr8mxuzwGoNg8wxeNmvptAh3LLvjNKgGjaYxtXFPQxe+NGwp0GBaOBifL3xhIJ29zjLlg556AbcN50CdlkgEFywlWKet8YQY6oLx5ZcXz22gRXBCEGGRKY9SBTl1D9qbnS332cU5BHwno0thY42G9iO8EIBsSGkKVt4Aa96FkBBjb2sGXMvIYsiADY0ML2QxyA3qc53t8nG/6XkI+H3zG8grlNPviPRx3Wy3mAVjrAmQJdJxDoMZ8V92935b8df0q6CMEvc5YYzxPAPtq+9ABwEVwLcEuQUeAQzAi5LjWh3zrjDE50FH+5k6HTAflINPhGtaOiLz5fTAc17P5Gh0lHTeT1lG0PtPtr2Petj4BbakMJ+gIBPAVBAP4xZghh67q/u3sZty2HUD73y1gN7EXlkFYFslyHMfI4uiXG2+4b5Nx+nhWQR/Jb8bpw9g6RvsghY01rL1RBfLLTKgMsYeA833uh2xiPwVdQR99NtrEwbt6FpuM3BRFqY5s3lXfffSjoCvoO+WwfUAxxTEUdAVdQZ+BDyjoMzDyFDOUzqndfoOCrqBrRp+BDyjoMzCyZr922W+K+lLQFXTN6DPwAQV9BkaeYobSObWrUhR0BV0z+gx8QEGfgZE1+7XLflPUl4KuoGtGn4EPKOgzMPIUM5TOqV2VoqAr6JrRZ+ADG4Ne14GeVw2oBsavgZX/P/r4p6ISqgZUA3UaUNDrNKPnVQMT0oCCPiFj6lRUA3UaUNDrNKPnVQMT0oCCPiFj6lRUA3UaUNDrNKPnVQMT0oCCPiFj6lRUA3UaUNDrNKPnVQMT0oCCPiFj6lRUA3UaUNDrNKPnVQMT0kAR9L/4gxsGF/RHdaA+MA0f+Oof/qm5/eSxeePp22bx9T/6W/sBJ/RHdaA+MD0fsKD//M0fGZKvRp6ekdWm87YpKvXvv/pd8/8x2yw45UmiqgAAAABJRU5ErkJggg==;opacity=70;" vertex="1" parent="1">
          <mxGeometry x="320" y="600" width="250" height="272" as="geometry" />
        </mxCell>
        <mxCell id="R27VUwDnr8lnY172pskY-3" value="" style="shape=image;verticalLabelPosition=bottom;labelBackgroundColor=#ffffff;verticalAlign=top;aspect=fixed;imageAspect=0;image=data:image/png,iVBORw0KGgoAAAANSUhEUgAAAPoAAAEQCAYAAACZRGltAAAgAElEQVR4Ae2dz48dx3HH30k65pgDr4IuBPe0uulCAr4xh10iF4HLiy4CdBKpW07ECiCgIBBIIjHsIIh+MFkmcSTGgMMITmQ7NOOVZPpnbMWWEtuJLVig9Dd08O3ub3d1T8+8N+/Nm5k3UwQWPW9+dFdX1aequudxd/H4R783/3L0tnn7S2/qj+pAfWBiPvCNP/5789vv/NosAPntJ4/1R3WgPjBRH7iz92WzQCZX0DXQqQ9M1wfeePp2BB0f9J9qQDUwHQ0wiSvo07GpzkQ1UNGAgl5RiZ5QDUxPAwr69GyqM1INVDSgoFdUoidUA9PTgIK+NZt+bj589tjcfuId84kf44ubX7FvNd69v+qgH5l3n3A7wKs8Y/t/4ivmw4/T/j95obCL/OwD80W4rSqrMTxX7S88xoP779h5ndz8nGdCy7FXkR8Ptb0/DKQHjRpQ0BvV0/6idVQLmweF72OfeMd86EFPXl+98JEbxMOSXOOzDa2Fq+FZABZlwlA+eCwDnX0m95X0IebZEGQU9JLu+junoHes6wgVM+KSjP7x5yKzQpjPzSf3Pzfm4wfmBNncB4LYrzGf3PfBIZE9HU9WD/LZ1UAX8JaCjAfa9ttwHeIV72kIHsX7xRilqiFRg34oakBBL6pl/ZMRqhQ89CjhcyO47BqyHbMoHPvZrxRBP8FywDt+6vRppiYwyzI672OfaE+erV9ixPmtpiP2H+a45LG29y/pTi97DSjoHbtCAOGmW7cGgJ59YD7xpXsAVGRtOvhtlr+8ZqF/YD7EOrt0TWZ8QOrXyUGOj1co3TmW309AQLJg2vPpGl32axiY8uWHyNicl4LesaO17E5Bb6mwptvp1AFulpwElOtjnkcbrn1uvvg4br5V+pDP4PiFj8wX9z+yZT8rhdsimNjnPXBFuQowcswkWPixOO8EdM5HBAjbB8EXpXsZ9BbzffLYBR8Kom0rDSjordTV4mZmSZtlPzIfvoBd7ujYjY4fAE2zqR2d/QqYvvj4gXlX7O5TSgYAgsvzScv+bNBxG4YnCCKUVQSE6k48lydOTgaUd+/HeTJ4hDYENkjh7yvIHmWM+wVlncU79aheAwp6vW7WvBIdMzi3zMbPvmPexTpbgBoH8o5v4RKwAI5sKbCK0y8H3ctKmSRwviy34+DYXkvBhtwRbnmtBLC8zhmX7uM1tv45zehUyFqtgr6W2pY/RAAAe5JRUZ5zQ02CZbuUoPsxAFkxKEQZCHQxsMggkx+/8JEF9d37hJBvCPxnG3AiaLdDQBCVRlinv+Pe+csglcyPY4hnmdFzuWo+rxLcolb0SGpAQZfa6OC4NXQJDCKL1zh7AnNSBkfhGWS4ex7awhdavrj5wHwSvhzjQF86h9K4XALYoFTK1CXQo8x6tF0NKOhb0S+d2mdICYE/ttmp8g59VWHYv8yOeNaf92UugbUVBTNvsubmeOzPyctAkVYSIgglwcn3wf4RoF7w2T25j2MImfGMDxoc01U/vDfVn2Z02qt9q6C311nzE8LhkUnDGtcC8JExFu4IDZ2Xjp5k7FJWt2AQhAwa3C/gSkCH1Aw4+XKCAUI8W56kl9sHi1zmuESJ86vMh9WAkMUGFH7OlgvoM4zDZ8vC6dkGDSjoDcppe6kJLDg8oQ79+qBQOR9uqDvwIHkwCULeT0UedsdgFNb+DBw+g/I+sdkWgF0aDPBwKp/rjmO44PTF/XfsF4JicPDXqacE/Phlo3i/EFIPl2pAQV+qonHcQJgDcJWsPA45VYpxakBBH6ddVCrVQKcaUNA7Vad2phoYpwYU9HHaRaVSDXSqAQW9U3VqZ6qBcWpAQR+nXVQq1UCnGlDQO1WndqYaGKcGVgb9s0efGv1RHagPjNsH6sKMgq4BTAP4hHxAQZ+QMTWrjjurDmkfBV1B18w9Ax9Q0Gdg5CEziY49jipDQVfQNaPPwAcU9BkYWbPqOLLqkHYYBPSTw4VZ7F03p4Ds3nWzv9g3x/c+NafX9uP5HEB738IsDu/UZiD7/GJhFk0/fJ798d7DO8bKxc+iPbqVOgrvy88PaUgdO7WR6iPVR4+g3zFHi4XZv/YwAeroGkD3cAL+ew9tAFgJWj5HePPg0PTZgw5YLbgEnQEIz966bIOGBHqpXPL5pvH1Wm3AVkhTSLvQx3CgEwiR0TEhQsfJnRxeNicCSgffvjm+dd0cXXu4vrOIPjmmbSlXAXR73QcXBCzK6KoSF6xkUAjXFeqoK9XFILroDXQJiSytj265TC/P7V+7Y473mOX3zdHhZZ/1983xNWTZfYNK4Ij3bJDRw7gyo/tMbq958JnJS/K6Pi6bE3XiQZxYA+ryCqA30KUxCI1bpz/0ULt1evE+luiVFpl9zVJ/lYxeAlcGgUSeqvxyLnq83BlVR9vTUb+ge7hCFiUoNms+NKf30om6gOAAOjnMQLLAZecIZoCxIcvWgU6ZRJvvK1Q3BBmsfBWyToVB2bXVqmALPtAv6JhAgFBC6sr3fH0bQY/l/X4o48XOfaKYCJ3rz31O1tS4Pw86oXTft8sE+6wIBnm2cUuRhkCSyJQGsLwv/az62bYP9Ah6BLCS0UX2lNkygu4coZLVCzCFvQBm1Xt3wlo+gd1CzGrBvbazz+5dN8f+9d8JXvctPMwhQPmsLWWWx3IzryDftg2q/WvQKPlAj6A7Azh4HTzy2AmHzA34VgwKHjBWAq6/UqaP/fHesHt/L+70E/TTR7GCkIGHCmQwCX1ZoP0zCrqW3iMM8L2CHgA5vG6/IOM+x9dnJagIV7H1WVaW2Y3Vgg0MLovboOChtHKE0t1ndB9EkirgUQwY6XmxFGAlMUJjF3Wocs4iMPUGugQrWR8DDP8lGa7fKxBJZ6yU0HGdzEASvnUnn8MxyvW9y3anHvfK13gIFuH5xcK4bO2zNIMA4JcZu0EWhUpL6DH5QG+gj2nSKotCODcfUNDzrK+fZ1HKKugOff1VUgq8Aj8hH9CMPiFjzi1L6XxXX4JtHfSX33ts9Ed1oD6wXR9YFvQUdA1EGogn4AMK+gSMqNlwu9lwCvpV0BV0zdgz8AEFfQZGnkJG0jlsVrUo6JME/a7Z81/RxVd+9248Npculv6zzRVzKZk/nnvGXHhrFafCvS2ev3HFnHnx/Vg9vPWKOXP2FfP8e++bC2fzflYZX+9pE/wU9MTRp+I8d82eheixef7FZzzoOcBVwMrBgAEiez6AmwaV/P8SIMhYhwz3+88Kegx6Pfiggt6DkttE3m7uXQX0NCNbyC9eKWRpXw1cvCsc831z4SKyMaBN+5Hyo8+9GwgoDBYLs7Bj+M8ho8vrcpypBN7h56GgTxX0SunuMjIyPLMuS2mc47ED15X7LyPr+tJfAvzyjSu2SkCbgCvG5Bia0YeHHLZT0KcK+tLSvcYBPdwEFW2A1esqlPh2jPqMngeHMxevmDOsDLR0FxVSjS069E0FvUNlJo49aL+l0l2UxyHzIstnpbUPEHIuAWw8Z0GV63uA/ow5I8vz0P/CVwp+jBAY6kv3PKhIOfR4/YCgoA8K5PqGa3Z6wBfBBjyXLj5jLrwod74bMnG+cZbpKCn/kaXPXjF7duf8rtlDIPDPuyXBXXPhbD72Y2OXBRZ8GTS2pQ/tV0HPnLgZoF1xmFJGR/aOcKfr8iyriyARS/hs1516s+v0V9INN/F8WPvnwUNLdy3dpwHbgEEhQFR4vQYwAWKhRHd6B/Q51IWsy34WKM+RtfEuvJTR/btzkeVD8AgZPVYf9XINqE8GtR1uNaPvsPHqAqLM1jgOpftbDnwHWg6zL6cLm2/5KzT3Kg6vwdz63K3zVwM9yByCUSGITNAmYd4DzU1BH0jx2zS8XY+HTTYHdNhQ4663hdRndmZnmeUBYqkEl/oK5XgOa9wjkO/Rk402BV1L921CoH1rCTxHH9CMLjOUHveaZeYI3FBzVtAVboV7Bj6goM/AyENlER13PMskBV1B14w+Ax8YHPRlAuj11X+Tp+pKdbWuD2z9l0OuK5g+p06tPtCdDyjo+nvdl/4XRwWuO+CG0uXWQd/FDRtpjF2UHzLrHMaxUdaXHeQ4pWMFvbBRIxWloA8HjNphdd1LXZWOFXQFfbS78tJhNeA2Qy91VTpW0BV0Bb3gA10FFgldV32W+pHjlI4V9IKRpaJKSt2FczqH5gzYlw37soMcp3SsoCvomtELPtBVIJDQddVnqR85Tul4VKDjv1qG31iykfLjf6PE/81O/vvkCv1KRZWUWj2H/8YpfrnCGmNW+0RGWn8e7eZQlX9R+eMNm2TI9ebRbg6Ub72xyvrfvM/15sBxV2/lOKXjCYLuDB3hzv8v9XLlSUU1OwD7whjiFz3Y/+stPq8QXKrjbDaPdnNwoEedPba/F26dINnlPNrNAbbYTGdV2Tfvs/0c6FPtWjlO6Xh6oIdfeNBOUdLIUlHyfP1xBvp77o8ibFSdbDiPdnMogI7gZAPWhn9OaYN5tJuD/IWU69u+YuMN5EdfreewVlJIx5Fj8njcoFtHiyVxknFqr+VRvb3RqRy0FcMXDbEE9FpZCVNpjpvNo90cakC3fzdNLH16nke7OcDOS3TWs/wKehGWPAvKPwvEUpLZpeka7wU8vL8d7O0dLAPdOhRL9yZZm65tNo92c1gF9CZZm66tP492c/A25q/Nqti+Scama+vLr6CvBLozHH75Yfitopnxmq5ByeF6+D1qqwHf3sEcKFFOQh7HC7LY39OWBqCma+vOo90cmkBP59Ika9O1debRbg5R101jNcnYdK2pT1yr+9lkDnV9ls7LcUrH4y3dfZkV1rn2swek6VpF6UvKucr96XqnpNTquSyjyz6bZG26Jvuwx+3mIY1dlTd3zBrQkR35CyWbZG26tsE82s0hnxM+C501ydh0bQP5offN51CaV/WcHKd0PF7QpZOF7OxBb7oGoyUZHMZOs9Iyx5eKWnavu94AepOsTdc2nEe7ORRAh2xSb02yNl3bYB7t5uD3O+ps3yRj07UN5G8HughKfjPX/XksLh3SKjD3S6mr0vF4QfcbQSyH7R/wC6W7c8zyNVGy+19nnGziVSJ0c3TMFVr+3AD6QPOQxi7LLOed6tPqlZk86Cu9pw97tJuDm09afouNxNHbYUagL3dI6ZzbO17HwcYiO+XQOWzPP6jjVdq+7CDHKR2PKqOvorg+7pGK6mO8bYyhc1DQpQ8o6KE0jY4hFbQNCPvoU+cQ7dmHvuvG6MsOcpzSsYKuoNe+Gqpz3r7OS4fta8yux+lrDnKc0rGCrqAr6AUf6Ap4CV1XfZb6keOUjhX0gpGlokpK3YVzOofxle7SJn0fbx30viek4+3+byxVG3ZvQwVdf91z8u0thax7yMagUwVdQVfQZ+ADCvoMjDyGjKIyDFspKOgKumb0GfjAxqDXdaDnVQOqgfFr4O0vvWluP3ls3nj6tlnID+MXXSVUDagGVtWAZFtBX1Vrep9qYMc0oKDvmMFUXNXAOhpQ0NfRmj6jGtgxDSjoO2YwFVc1sI4GFPR1tKbPqAZ2TAOtQdcvRAz7hQjVv+q/yQfq4o+CPoMvUTQ5hl6bVuBQ0BVo/WbcDHxAQZ+BkTU7Tys7r2NPBV1B14w+Ax9Q0Gdg5HUygD4zrSpAQVfQNaPPwAcGA/3kcGEWe9fNKZR877rZX+yb43ufmtNr+/F8xQB3zBH++gqfq1z3z/u/0MK/5FJpD+8E55Zy2LFLz2bj2WcWl83Jo0+NPG6bBd2z+Kuvbu7ueTfH/WsPUxkXC3N0a1pZpq2+9P717d8z6NGJo5MvzNE1gO7/RjiguvfQBYBHOfg56A/N8d5mAFg5PMgOdAcwnUpelyAubLBw47vjghFsAIt/+7wScBLA3fMMNke3fN/US9bKQEBZtS3YoJAM5qinYUFnphQZHUawcFmQPNjWyQGgBD2/1t7IMtgs9vZjsMmgAqDMphHET81nty6LP+mcAc25WUcT0CbnMQcZWPycDu9YHViYfbBQsNvbd45A1825V9ATsARMR7cktA4Y6dgWrsPL5oT3AZZb183+3sLI++om2XQ+ZmzIgBKaVUL+GY5GOV2pzWePsQxJgJVOyWdyWeP5NIigb3cN553OfDDIAmLTvPSatIEe9wq6dD5mRrfeZsaTa9WScTwcSVaM94U+RRCplss+8/p1OmE9tRA3gx773zfHCDQ+0ycwZqWiu5Zley8fAadeknshn68Ywn1hKbBMT1En7Fvbeeukf9CDs2bOb+F9aE7vRYMkjr8MXg9ucOhQVsvSOPbN+zjG/rXrbqMvQBgzLkt33ms3z65dNlybx/OcUwlEBrOY2e1zRbnd89V+2f8ijM15aFu1reok6qR/0JHxAoQSiFiuVg1ESBy0LrPKZ+OE3LO8n2tr9zkt8+M96a433wLw2dj36bXr5sTKno7tgCwHlFgF5HDeMcd7+36Nz2d9cBHwu+dx3V1L5xBlq+pMr6lOog/0DLqES2SnPFsLR3fG8gD4kj0FvQpHyITsB2vePTdeDoq91675GzbWIB/7agX6ivNl/yEAQlYHfwwiCrqCG8Ftq4ueQXeCxizF997MaLgOh04zJrMiIW0CnfdW37VH6MKalzv8Ys0fnvfBh2MGxdaCngYu+Rz65OcIrpOH50P/yRpfBrEIuu2DgSe5f31HKI+v/U1FL72D7hx9YY4Or9svyATH59o9c+AAXgVGHwz8cxYY9pFXCJXPMZDY8X3fuSx8l53AWAu6DFYREM63mqEfujcHkE3MDY4V5mzlpqwK+lSgG2IevYJuHZhOLaEE3PySjC9fAVeAJIPffZNOZtAIWXiG4+QZD+PuXTbHt9L+7XN8xsvGzG+vUYYWoDtZvGx+XvYtAMexsvlKw787x3UXWBzYlOGzR7Ei4ebgEA6jY8Ygvku66BX0XVKMyrqbDq12K9tNQc8zvn4O37FXaMrQ7KJeFHQFW8GegQ/0AvrL7z02+rM7OmDGUpvtjs1gK9qt1CroGoQqQZiOoqAr6JUAQecoteowu+kwarfdtFuJwQqw/kSnv+5ZHWY3HUbttpt2U9C1TK+U6SWY6Sila3puvPDTbqVWM7rCX4GfjqJQjxfqkm1ot1I7bdDfesWcWVwxlwLMd81e8jkzpL3/GXPhrcfm5RtX6n97DL6aevYV8/x7sj8cy2/rpcd7N7KxKJMck+cGbukoJWfq5dzW7Ub7St+Afd43F84uTGord85+o9Hbd+9inW943xnIfrRbqZ026FC4cJpLF1P4EuMRRIL34hWzuHg3ZLvnX3wmcwCCS9jvmj0LPx0mOhHGpfM0ySDlkWP3ApdwTjpK3+Mm423VbjVB+ewz5kwerGlTyEN/QBLwx9EvEBAU9ABMYkzhXFs9f+OKOXMRPxHcAB8MSGNKebwxYcgEQOsIJYM60C/l91+8a8JY7z3OjtN+otMwiAzTjgJ02GJLdrPBFr4AG3vbOzsjOLsgwMAc/DIHPQ8ItX7Rnw1pt1I7+YxujXr2FXPprfd9sPHR3EdvadDgAN7JELXhAGde5LPM1gA0lnSuj9Uz+pmzpeCRVhvpmP05CxybjhKcXAbAno63ZzeW7am+q8HcXQ/+kYOuGb36/eChHAbOEoAJa+5YUkMu61CIxt5wAfYVM3rMwgD9itk7mzvQFbOXle50nksXNaOXfGPrdkOlkATvciClbYOPMGtjWacZfTygOyeqWY8FQ6XgB8cToKdOka7F6Awvo+QrLQEayvXUgbIM0lPmDPMV440ho1t9BhvlwROfN7Nbc/9pALY60ozuqn86R6ktOVN/5+oBdLusqcMAPptxfdQHyNXoHR2hAnqoHJxzIkiEPi308dn+dFDOWHXj04Z11/s5v127NQfmgo0k6CIoRvu30/E2dEi7ldrJr9Fzg8IwMUMjO0vQY7aWcFqjwNCFjO0M/b65cPEZt9nnKwE8w7FiX77/G3jtV8pS7hxL+204wyp90lFWuXd796SgU5duvM3t1pzRYYcMdgE6ZKkG/+FtR7uV2tmBHqFDBM4dhs6Fcp+GxvEVc8mDfoEZ30d19Aen2APoWPc1ZnT2z7E5Bj+LPQWRNbYHUzkL0VH6HjcdT+oqfVvRhd3yBJCOjfGkbfiathoAXKAv6zHvc9ufabdSOwPQvREAKrJosmEms7nfjfU77XztEgweMnrM+s7h4BAiMIiMTsMyuNhMIF7xueddJqhkkNmDvk27oe80kNBWbIPd/ZdokMFLlZaCLv4zP5XXe5tk1wxqC1LcqIMRYTS3pnbRnEa0gCJIEFJRxmFOfC6dHwICIcbYrB7imKnzpOfDWAMAz4yQzqfHrNWL3TJ9V5ZSWUanHZgwKvd7WxeWd33pkXYrtfPJ6DSUtku/vERH6ctBdZxugijtVmoVdAW/Aj4dRQHsBsC+9Ei7lVoFXUFX0CfiAyXAeU5Bn4iRu8wadI4u+9S+tl8d0G6lthfQSwPrueo3CMemE4Vz+3B2qeMm/1HQxduBJkXptfEHJrVRvY0UdAU9/G81BaUelF3XjYKuoCvoM/CBXkA/ff0DM7UfRvipzQvz0bntpr/SbqVWQV8zCFGZCvpuQTEHu3GOslXQFfRKtUUH0SC2m0GM9pOtgq6gK+hr+sDYAqEEOz/eAdBvmoPFgXktMQbOnTMvvTpcxKUix2bsLuTRuQ3nV5vYj3Yrtf2C/upVc/Dc25UMgsm9dn5hDq7mCn7bvPQU/wdYbM89da76H/+fumq+9upVcy4JCqUgIcaw9/uAcfWg2qf8H0roXwQbKrNomIocYkzRx+nrmN85c3D+XDL3rz2XfrZjVPrsc24YK+q/7pcuLBp17+ZaDM6Dzi23TYOcie3ic/DddO7x2ukAc6NvyrZf0GuBLoMOBZ6zgUE69U1zQOgAJ49pBKFYZ4Cyg4agYu8/Z1567sAszt8MQagIG8co7Ew3jVUBI8jMufjWyiLkxX1XD7wOPjDSaZrG63pup69TTuHAQhcu2AGQWHnl+sPnih5kYBjIbsVAXfKrynydLuy8vJ0qvshnep6bBJzHvYNe5zRw3OCgVBDa3PkLmaXyHOA4j58Ibugf/QXQhOPCuOdvmrJDVpcJVGDVURCUqvdX7/vAnAqIJRjhuCTrIHMD6Afm4LyvanK5rO6uCtBvmpdsgAb8C3PwHCqtRRKUYQ8XxFMb9G63FfzLBajcpm5uMjnAnrWZvUe70TdlOwDowrAC6ACiOGfhgCEEsDkwAQr/HPpBZH3tVS4RfNn51DnrbDIo2HvZtwA9dcByKUcl5vJYY5+H04vMnASnmPWKzv76BzbYODjivRhnuLn5jO4Dk9U54PW6g1wHV2NGx/WQvc/fjMsyAVWq4wHnlvvXq28nSzTa97XzAnQLdHNikvPr2270Tdn2CLqPgIzsXlnBIRIYRPQXzlF3L+FNwAn9F2DBWMJJ7bEAvTqOMLIPKFQiHcG15aBgr+XO4ecV9htqqwmniz+RGbD3ucXS3TqtL7kB9LnnrvqlVAQ96qJG9/QBEZwDGL3PTSYe76MM/nnSYbBtDORuvf4Sgt1TV80QdqNvyrZH0L1C4eCF0tllBal0cX+D4vOMbpcGedBIPqfOF0AVoAens4Yuw0slhud9Ji6VbjbDZXO2QQlVBkrcLKs4gFiRSJ0s2xTb1twi6LZiCXNxYDh9ZaBfPfBLMQ/PIsuADODBtkPMLcpWDe6FiizMW9rEVWCpz6TX+/ZJ+qZsdwP0BNSqAZjRHXTCKSsROXNGuTkoytKq0VfI6HTcxYGx0bxJ5qeumpeeu2pesxlRgl5yPAnvQHMLm3GA0c3P6dzDaWGVuoWcbqnkAl9pXqJqs3Yaam4ioRRArk1AwrfqAzOB73duEnAe7wboIepTcbEtZnRhsNQI0hnRBz47iCsGrak8mMGpQH52azgHQvrO36+5K68ORSawGR3rerf7H7NDLm/qMH3NjRuoL4Xlg5MDnwG8m7uQ1ZbfMkCJawGQdC4cg68w+5sb/IDVRBbQfZVHG4c2LC+qSYdJItrQ99+jT9I3ZTsg6KnxK6BxPdSUGeW1oMjUgdJ+0zGjc8HQNLKH1YNOZw5G9o5KJabnNwHdvyGoOJEEZqi5EQQhi6+A7Pytrg7sznwMcnwm3aiL+krnEm3hgni/dnNjusAv4G1IMHEeImCHIMb+2KZz3fbc6JuyHQZ0D6gsudPJU0FsAWi2xrPZWDhermQ4H8bBa6GwA57d7yM2sgffgYbdVQ/610TWl8alEuU5lxmyMbiLviyj21L3wLwmAaqbY+9zSx01nbO0kZu71ad8R27nIQBigA7BmX2I16m92o3jOz9jVnYtEwDvqbZp9VG9HvTVk93om7LtH/SacqgOdJxfhGwrlZhnZ/deOhqpClws0VzQoIEINz4j+DhHjTvz+WYZDEclBiPaQJNmdCd7nfwiE9gs7uWty+jJ+b7n1gC6lKsErtVLwVZh3T+w3QifDT4lqD38nJucLwNWTWvL9+T+fuxG35Rt/6DnmXdHP1OJKegyEO3usc5tN21Hu5VaBX3NQENlKui7BcUc7MY5ylZBV9DD9/sZtOgg/Dyldg5z4xxlq6Ar6Ar6mj4wtgAowc6PFfQ1jUxFjs3YXcijc9ut5QhtTruV2l5ALw2s56b7q4XVtuOzrYI+g1/1q+CND7y+baKgK+jhOwF9O5+O118AUtAVdAV9Bj6goM/AyJo5+8ucY9V1Z6DXdaTnVQOqgfFq4O0vvWluP3ls3nj6tlnID+MVWSVTDagG2mpAsq2gt9We3q8a2BENKOg7YigVUzWwiQYU9E20p8+qBnZEAwr6jhhKxVQNbKIBBX0T7emzqoEd0cDKoI/1vaHKpe+O1QeiD9TFHQVdv0ij35ibkA8o6BMypmawmMFUF6kuFHQFXTP3DHxAQZ+BkTW7pdltjvpQ0BV0zegz8AEFfQZGnmMG0zmnVcwgoJ8cLszi8LLq0DgAAAy/SURBVE7IJPnnqpHumCP7S/Ivm5MGME+v7ce/y13zS/XluBjHjr3I+31ojvdSGasyRUW6cfM+XN/71x76eXIO8i+W7Jvje3k/CxOeuXfd7GMeQldNcui1qEvVRaqL/kG/ddnDSDAiAEe3onAOQAlFw/E6IAQ5Gvr1wQJyVYLI4WUbfOI1zMfNxc6DkC4WRn4mxK6/CHplvr7/+JdnopzsQ505+ovqolkXPYNOqAk5has7/6n5jECuA3ND9qdjtMnoaeaOUMfz8ZzrH58vm+N7D8M8LPSPGDgi6J89clUEIZaBwB7vXTenK8yH89KWvqUtfKHu3xa+MNMAMxw4ZEAZBHwJXVeGd1DWVjKpHCsJLnk5H6GuB907WWlu4RxL8xR0GMfKtnfdnGBJoqCHpZ4GsfbBqzfQK5nTOzoznDUend8D5gBCySrh5yR94KjcG0vcUtlrzwmAK3LZrJlDLQOR6//oFgNXdbyjWyJAeUAxl2Suleyc9Xd4JwU9BCBZBVAX2ir8zT7QG+ipIaogpNdFyR4cvApUDm3og+V+MUA4hTRm8nxMQmfX2zGTc7yY0VNlMyOf+rK8HHgYxFy/KN3dc/tuIy6XZaGgU+/apv7WpI9BQA+Z2mbWaskKgU8O4dAMCIRBTsxnQJGd3UT5jN8Ey9a+qTJ4rxgLGZiVRSiXAZ/b0WcmP7qGHXEHXQQ9nUsEnWtyMQ+OEeSPAcQ+x+AiS3f7jIKe2lD6hB7X6aZ/0PNsS4fn7nRS0hLEmmyObBdAcUa2kMjz9+6YI7wqW4jXVqI839/b9334sUKpfdkcAe4AO0H0bUvQP/M78k5ezktA6/WA8r4IesjsIlgkulInr3NyPd/rZpxc5woHh7MG2LPzoeQtOXc1o4dKIcBJ5ydYzPLiHXcIPHkwcbIQOoK6TkY/ttUJZPEye2i5w24d0cqBMb2spYzODbqGJYk6NW2urfSFXjN6yLYhO+Vw4bOEmoDKc96ADA7M6Pzc2Df6z4MJHcKPVQkSvJ5CunLpDnkgY0E+CbrTDebp5IhrdflaLQYBaUQ9po20rfOFXkGvE4LnkZH3r90xp+HbYlXQQ9b2QMud7BBI6mAFbHuXzfEtfFstBbe8USYDj7s/zeilQMUlQgQ2yJzIxbm5QGDvCV+S8cGoWG3UBSp1cvqRtlVfGBXoaqCqgVQnqpMufEBB1w0t/SLKDHxAQZ+BkbvICNrHblcWCrqCrhl9Bj6goM/AyJqNdzsbd2E/BV1B14w+Ax9Q0Gdg5C4ygvax21WBgq6ga0afgQ8o6DMwsmbj3c7GXdhPQVfQNaPPwAcU9BkYuYuMoH3sdlWgoCvomtFn4AMK+gyMrNl4t7NxF/ZT0BV0zehLfOD3H/7O/PzrPzOnf/2B+Y+/et/+4POn7/92Z3Q3W9B/8+DX5if/+BPz43/4cTAejfh/D39jPvrGz3fGiF1EfO2jnPV/+e4vzHf+/IH54d/9yHzyzV8aQP8///aJ9ZvvfvWhPbcLupsc6L/61n8X4YXBfvrOTwO8gPqbf/Ze5QdGBfy49uhvfmANuwuGVBnLoK6rFyQCZPAP3vjQ/O57/2sQ/H/2T/9pfvHP/xV8CBkdAQD34fq6Y/Xx3ORAf/Dl71bgBbTI3mhhOBioCXQAziCAqD2EESEjMgjk/sHdH1aqDlYfaCEv7kMwg1P24TilMZDtoC/qbtP2vZvf7l33mAMCPfyIGZyBH/OBnvO5//rbv7L2AfRjLecnBzoycsnBCDquYX21Kui4Hw4Ho+cG7vozSkJAXResSvMqnfvW7X83H975fi8ySx0gs5Xk2eQc7NkHPAjmABrjwVcAPAIndCnlL4FOHWC5B9sB+CGSA+UotZMGHUoH0ABVgo4SDJkd19DiGpwU2QiGlhldGhmOUFLipufgyNuABLI//Mvv9eJ0dTqT+lv3GHMAeJvqufQ8gj6CIuyOY4zDDF2Stwl09k/g4VvwNZ4fsp0c6FAusiLLWRiGUZqGg0EBNSFHC9DwXBPoeB73dW2wbUHO+SLgdS2z7E8GUY7ZdQsY5ZhdHSNjY18HgANQBJUm2VcBnbKhX/TFz0O2kwMd0MAY+IFzEF7pjDQoziEgILPjB0ZeBvo2DLdpqd7kmLiGimZbTgZdLhu/q+vbqKhgb+hmVRvAZ9roEnNvc/+27p0c6MjULNelg+Wgw8DyOo+HAB2lYr4WpDybtn3tL2zLQbfdL0Gv84dc/wr6ki8dbNtg7L/OYGMGHbJjnY6M1RXwABybQkPuwtMmY24V9DfN7SePzRtP3zYL+TeU8xJgbEbcRdCR0aUe8Q4X72sBKqqTZWUl5oz7sEzB/gPWhrK/bcKeZ7xtf5bz6uJYQVfQi6U9HLkLB5N9wNnwKkee6+oYr+ywnOmqv7yfHGxUEgg6+MG4vI5gxfN1wZj3si3dl4+/6WcFXUEPTkrHY7upc+XPs1/AgG/vAc5NXifheWR2uYOcj9nVZ8qOFpCzOsFShKBjg5TzgWy4Tz5XOkZVAxlRpcjrXcnNfiAjKp5V33y0WaNDB1iKcawh27wS52dZrU+idAdAdBjsFJeyBa4DDrz75L2ltmuD/etr3yqOB/D5ChAO1vSDNwwEqw+ZqQOOJSHHl0UoC95q8F586ahuruwHLbMsnsMz8hr76qqFflFNYZkkx6k7bgM6gh4CSFeybtIPwc7bnQW9tJ5FVGV0hQGRJeRrOAkQ36k2bYptovDSszII1TnYJucx39K4XZyjXAiOyNYAk0EUsOMcfnB9FcjZHzYmsU8hqxJc60Jm2QcAh/0ho/SDTY9RkTCAyPGGOs4B5+edBZ3vWuEkNBaMCAUzU2OtSOMiExJqOCJLzCb4tmEsRH/I0gYGQlHXIphx7tuQGX3Wjb2t813PAzDCH1btF36zytxQ1SDAbmvvZVV5eR/BztudBR2GyLM6v6cO5cNIBD03mCwZm74IQuV11XI9iv5QeQBOBJpl5biUX5b5eF7utMvjrmSeSj8I7Aiuq+poFdBRhUA/sAkTx9D6ygHn550GXQKAY2a1sYKOEheybcMZ4MDofxt9T6VPrNMR2FeZzyqg4x4sAdHvKn32cQ/BzlsFveGrnV0bhoEJG1f5O/B1x0KVgNKRS4F1+5nDc4B81WC4DHRWB1j7j6Vshw3r/inoA4BO4OEsXF5g2YGKRJb3Ej5UAriOHzgh1uWl11fymS6PKXNfbZeysy+U19inWQXMZaBjHwhVFMt3jjF0O0vQsfYtGUyu0bGZV+e8XRsN2aRurC7Ow4m7lpn95fIhyCBI4UfumEO3PM9d+fzZ/HOfAQuArpLVS35DuTEvBI2xZXPYqu7fpDM6/wsrDcRWgo4MyfN5SyfvqsWO+6rOn8uy7DMg55dYupJX9iPHl+/SsalI0AE4PuM5yFICWPaDioYVDGwlr8mxuzwGoNg8wxeNmvptAh3LLvjNKgGjaYxtXFPQxe+NGwp0GBaOBifL3xhIJ29zjLlg556AbcN50CdlkgEFywlWKet8YQY6oLx5ZcXz22gRXBCEGGRKY9SBTl1D9qbnS332cU5BHwno0thY42G9iO8EIBsSGkKVt4Aa96FkBBjb2sGXMvIYsiADY0ML2QxyA3qc53t8nG/6XkI+H3zG8grlNPviPRx3Wy3mAVjrAmQJdJxDoMZ8V92935b8df0q6CMEvc5YYzxPAPtq+9ABwEVwLcEuQUeAQzAi5LjWh3zrjDE50FH+5k6HTAflINPhGtaOiLz5fTAc17P5Gh0lHTeT1lG0PtPtr2Petj4BbakMJ+gIBPAVBAP4xZghh67q/u3sZty2HUD73y1gN7EXlkFYFslyHMfI4uiXG2+4b5Nx+nhWQR/Jb8bpw9g6RvsghY01rL1RBfLLTKgMsYeA833uh2xiPwVdQR99NtrEwbt6FpuM3BRFqY5s3lXfffSjoCvoO+WwfUAxxTEUdAVdQZ+BDyjoMzDyFDOUzqndfoOCrqBrRp+BDyjoMzCyZr922W+K+lLQFXTN6DPwAQV9BkaeYobSObWrUhR0BV0z+gx8QEGfgZE1+7XLflPUl4KuoGtGn4EPKOgzMPIUM5TOqV2VoqAr6JrRZ+ADG4Ne14GeVw2oBsavgZX/P/r4p6ISqgZUA3UaUNDrNKPnVQMT0oCCPiFj6lRUA3UaUNDrNKPnVQMT0oCCPiFj6lRUA3UaUNDrNKPnVQMT0oCCPiFj6lRUA3UaUNDrNKPnVQMT0oCCPiFj6lRUA3UaUNDrNKPnVQMT0kAR9L/4gxsGF/RHdaA+MA0f+Oof/qm5/eSxeePp22bx9T/6W/sBJ/RHdaA+MD0fsKD//M0fGZKvRp6ekdWm87YpKvXvv/pd8/8x2yw45UmiqgAAAABJRU5ErkJggg==;opacity=70;" vertex="1" parent="1">
          <mxGeometry x="630" y="600" width="250" height="272" as="geometry" />
        </mxCell>
        <mxCell id="R27VUwDnr8lnY172pskY-4" value="" style="shape=image;verticalLabelPosition=bottom;labelBackgroundColor=#ffffff;verticalAlign=top;aspect=fixed;imageAspect=0;image=data:image/png,iVBORw0KGgoAAAANSUhEUgAAAPoAAAEQCAYAAACZRGltAAAgAElEQVR4Ae2dz68lR5bX78regVewsBESwrZQqZ9keJYQ3ZuyZIlFIaRnIRauqo2FZMmsXLVCYlF6lozwAqqMZsbdMKMuF1OlAWwz/PAYkJkZd3VXqbpEI354UBvNgAZrStX9NwT6RsT3xInIyHx578vMezPzlPSUvyIjTpzz/ZwTmfe+V5unP/sT9ztXPnGfvH7bfswHpoGFaeDf/a3fcn/8e3/kNoD8w2dP7cd8YBpYqAbuHP2q26CSG+iW6EwDy9XAD1/6MIGOA/tnHjAPLMcDLOIG+nJiajMxDzQ8YKA3XGInzAPL84CBvryY2ozMAw0PGOgNl9gJ88DyPLBi0L92Xzxz6j585iP36OcTBvbzT8MnG8986r6ZcNixhvrlzY+qPvzm7cqb6+995X4phvzCPfoe/K/9wHM9YvLzr9xdHT/6NRtDBuu3gz70/TjO7OvXzSG2WjjoEebiM9G7N3/hnDtA0ClWZW+wtSkdD5hq5z8SaxMloSjbv/11s2N9prRHty+vqb6/+Nw5D7ok0ehrDZEj1Ap09pm10wal/WoiUTZkHxHSL21+8HZGe9AHxldt22KQrDn8vcWC3iWEwwNdiawmVgrV66mjbdZOiU+JNgNAg6uaY7eaSGBbdk8OK+/ZDfSOeWFcSRrOuWpCyG0ppqMOY7uYTGRF8nlcIdT8n81ZdTWj3UWCTsF5UZfV4fNP3aGBru3NqocGlGJT57K2DlVUVUctQoLBPvS16n5aCXEMsVEDx1VR9DGT61mgs51OOne/95F/pMG95T/fnuNyLjUgW86FOZyRSEQnfRNGaeVhHy8Q9CTSvPqUgWhZuleERLGHHlL/WpQCgggmtJbzvip96r5h/1J9U381e+V+Cl2B3vv5kWP2BZ3tOaafSrKT8yaw9I8GUu/LY5L2DecR/YB5+n79+fwZXffFMZtJvC+gcR7RF96/2Tz79lPq6bCPlwc6RfrsaRBOq/9jwFWQBapaZRBImoLHEHKvEnMmyrJPgk57lR2ZyQRC5lOvTIQtuzceiG3aBplP8w5pTxt9kzQuxpI23/vKfYMXcuw7zr869w7f0H65T9nnz2n/KJ/IuBy/smXfYnPZBn13LN15f9NT8zmzXNC1MKrxKEDX4lEiE3FIfz1Br/aXYJFqfBboXB4/exofOcJkBAgtWgWSnrLMQbfFvppntX3WX7Ldg/7zr9wXWSIIPXCsTji0b5751D26+ZG7+/bX7peca21c8b9zjvdX27U8vsQJevt0X3rifj/OszK3RtMZnVgu6FIB26JRgN4KXAI7iDcdcwmLEShw+XimrT85HwUpx/lyVaymqNvmw/sjxNom6aPYkSTRIniZSyb2HPSiSznkve2gx36+96n7ovx4Lc7FzwH7fnyCp/yjfNKnoqcXeeyrKxn0aSPTnc3O8kDXImipWCE624MeIBoYdGVvDQ6Ck8Ra0dYZfTTuYPsW0OWtdgZ6Pm+xq1wlnHX89tf+o7cvPi+Bise+Ssd99CUJoQK6qui0p+ZDmT/nXdqY+aG0S+6e9c7yQPdvn9WXNUrY2966axGoeyigBFoSfFr6amHGL4Wo/pL4VDsFkVTYYnkuwEGYtAn9cp/SU1W9WdF/4R7dzD8vl/HEhiLpVWxPfqhXQ/bJt+ey9d9ZoKFh+8ubX7lvis/Rpf8SQh5HGM9sx/blNiYYrgDoJ9/fMx+5L95W7xnKe1VCyWcyn6NFgi5vecuAxeMAXiHuMkGU9yq4KGqKBlsKW5buFHLZD48FMohFJQBe11stNAWhHt/vZ31ShO19SwJSiYLnanP082yAm/oHPATR98N+tf00i3OONst4ys9ZHKtzS0lX/E+/VdpjDLYrQU/fjozzqdwvps9wZ6Ggh0hQdBkQskxrgu7vojgpmOqzcRI3xS9jZaLO26EqS7uKkOSaGpvgJW0VfbJtBkhqHfYSECEhqGWwb1D3hcAXx2jYQl+puXAO0lYlJjnnx+wLVLStza/xfDauGlNWQnQJbabfsBVNoFFfu9jhPLaLBn0eIZinlUwCrIycRQYcT2JLwCQhtQPFviVBq0Qi16SfMEh9XJXg2D7aQbv9fQa6jpTtmwfMA3P1gFX0uUbO7DYPbOEBA30LZ1lT88BcPWCgzzVyZrd5YAsPGOhbOMuamgfm6gEDfa6RM7vNA1t4wEDfwlnW1DwwVw/0Bv3J42+d/ZgPTAOHrYG2RGSgWwKzBL4gDRjoCwqmVdXDrqr7jI+BbqBb5V6BBgz0FQR5n5XExj6MVYaBbqBbRV+BBgz0FQTZquphVNV9xmGxoN892bjN5tidfjZckB9cO3abDfrt+Dm5EyrkZzfcsW53cscFm5r3XrmV28h25flcKHfclY75sQ/6IB3n41+5Vti52bgw7n13epS3rc97WB/nc8z9Ytd298fEoEOcuXiOr90fZekYhF2IsIRPRK0c2GhT9NF3BRD7ATTeFoJ+dMM9YB+3LvukoYE+M5nw/njvZnPZ3W3YHHzc9C3gPXan1y67DRMSbcE2syeCzvF0u7gfbN3RP5X+DGSlw4H9Mx3oIsz9gN4FkABRBWZHIe8Auq66YhMCruzSScGDeQTQlUDUuBk4Vf8Xc6uBXiTmZlUv+hhYoNkcrO+di+JEoKdKngn48R13KhU9tQliuuzuMrAUulQhLisrbSBMVk9Z2qa+s/FF/FGsPJZxvnUPrl3ebflPmwkKbUKF5Di4FismE9GVW8nWHCo1V/olbnlv3l4lVMwHY57cUBU97uskEe3Klu4dFd0gVAm2iMmh+WYa0KOAMsgyx5whbkIjAJagt91fAFwRLauoF7cA2KxSZ8JEoGOiYRVGv61L98wHUTRigwLV953bRLv90l3301XRTy6H53q/dCfoTd+VoN/tfDfRnoAOTexrtmcS0AlJEFAlC1LcCkQK2SeHs0Bv3E/xBjg4fu25lNdCEmICSZBVbeZ4eD7WkOl9BVwGuk4IcR9jc76+KktCo68Ku+L1YDtsKK5nY0QbaTN8TH/6FU/wVTMJxz5VTNYMytznPinoTTEFIeewVc5RmAIAhR1E3Lyf1wvQK6IlYBponuNSWF97oqAK58NYjbnRZkInS/dj/zbe36uSQSmkYENHInmMxwp8CqBAL+aXrscXbUc33N3P+PITgMM/Z4BO+7u2xbjlXOyYCXt/20lA5zIW4OTQxGd0VhsBOS532Z7QiKBYsXPQU8Xm9bjc5f2bjcuA5LiszLcu5/bF6/oeSQK0FaDEj6F0uzDnML6/R0C/4U7x0R+gE1DTG28ml9at+GAH0BuwdoGeJwAm087kplc0tr/zi7MxEuM0oD9O4JYCDnAQzLRkDu1Y0c64rkDO+4+gS/Ur+w/HAqiAn7djcqLY+QItBYQrCJXIfF910B88VvNhwlBgMJlw3DBOvKcL9AbImEf0IexR9z7xNjRB92OjnV5tiF9iX8rfuY37q1gpFmZDzReTge4HF8EkkJJQlPi9YAl5DJy698otgqXaqOvH1+7EL3sk0OvjF9eVgJkwxL7KNbbJt6FPnxQiWNWKHqGUJONB57yKlQeucXwmBh6jnwzgFqEr/yR7S9Dj+Cd30mOBGkfbymTEL+TUxGXnWmKhkvpUPpoW9D1McEhHirjbwAIUR5fd6a3wci0lnFDp5X4+krCyc1lfQtuAMyU2JBKCp/tNEKdk6h9p0FdmNxJrSErl/UhuPlH5pJKST7XvzbFD4h3Sz9bX8AnCQJ958jEohodiiT410A10q8Yr0ICBvoIgL7FC2Zy2W8kY6Aa6VfQVaGBU0K9/+dTZj/nANDC+Bs5a4RjolowsGS9AAwb6AoJoFXH8ijh3HxvoBrpV7BVowEBfQZDnXo3M/vOvWAz0xYF+zx3Fr8/im2pH7z91b1xS34KTa1fdG9nccd+r7rWP+4gKbbe4//2r7vl3HqaVw8fvuecvvOfe+vKhe+1C2U+f8a3NtsnPQM/EvgQB3XNHHqKn7q13Xo2glwA3AasnAyaI4n4BN08q5VdgkWS8IKV9PDbQU9KbSH8G+kSO3jYD796+D+h5RfaQX7paqdJxNXDpnhLmQ/faJVRjQJv3o21Gn0fvI6EwWWzcxo8Rj6Wi6+t6nCUk3cOZg4G+RNBlec6le6jIqPCsulxK4xz3A7jhnuuounHprwG+/v5Vv0rANgNXjckxrKIb6P7bVpmAFgfcvoLcp6K32BbhJqjYCqwxPrLE9xW5vaJnscXS/RJ+YsW2pbtaIbXEYmAerKIP7NBM4Hvpuwa6Wh5L5UWVL5bW8dlez0HAxn0eVP18D9Bfdc/r5bn0v4krhTiGJIb2pXuZVLQdtn++hGCg7wXG8wWtW/SAL4ENeN649Kp77R395rujEpcvzgr/ZMt/VOkLV92Rf3N+zx0hEcT7wyPBPffahXLsp84/Fsgzur11747nMFox0AshT+H0cceoVXRU7wR3/lxeVHWVJNISvnjrTp/55/T38hdu6n559i+Thy3dbek+LgTDZMeDtlEgqny8BjABYmWJHuYE6Euo9VI9+o/9bLA8R9VGVa5V9PjZuarykjykoqfVR7tdK4gbk+dIW6voIzl2X8lAV2vsy9L94wB+AK2EOS6nKy/fyo/QwkdxeKkWns/Dc34/0MUnkowqSWRh8ZA573leBvqeAzC0EPzzuLxkC0DLCzW+9faQxsrO6qyrPECsLcG1r2Q5XsKa3hHoz9GzF20Gui3dhxa+9WfLXtPA0zP/eIj9PrquYrY/eSUySIdJ1LZ0N3gN3hVowEBfQZCtKg5TFefsRwPdQLeKvgIN7BX0swa369v9yV7zl/lrVw2M+jJuV6PsPhO0aWBYDRjoK/ib3gbNsNDM0Z+jgj7Xlxs6kHOcw9zth89tDtu9YNT+qu0b6JUXNdpRBvp2ghvKX3OPwdTJSvurtm+gG+gH+VZei3Wo5DF1P1POQY9V2zfQDXQDvaKBIZKCBm6I/rr60GPV9g30SpC1o7qce6jX5m4//Gpz2O6RSfurtm+gG+hW0SsaGCKJa+CG6K+rDz1Wbf9gQMevWspfLDmX49OvUeJ3s7Nfn+zZr3ZUl3PTNfwqp/oDCzuOm/pjNt9tLtvZ37R90/jPG2jPLtsp5kC7dhur6Xf2h+3ufW4XBz3m9vt6rNr+wkAPQUlwl79L3c+B2lHdImB/GEf9sQf/+97quGeCycfafS7b2R9ATz576v8u3K5Jcj9zQBx291duM2N6/j63i4Med/t9PVZtf1mgyx882N5ROtjaUfp8+34B+pfhP0Y41wrlHHPZzv4K6EhMPlmd8w87TjYH/Qcpzxf7LMbnsB/9bBeH89mtx6rtHy7oXmhpOZxVnNZrZVbfzXnaUVngWyvzGaC32kugavPcfS7b2d8Cuv9/09Sjz0HPAXE+w18T22+gt8CSP6Pr/xaIS0lWl65rbAtw2H572LcDBf0XoHtRceneZW/Xtd3nsp39fUDvsrPr2lRziDHmn81qxL7Lxq5ru9tvoPcCPQQOf/xQ/qpoEbyua3CyXJe/o9Yf+O1AIeipKm8q/2up2OP/VluehLqu7TKX7ezvAp3Javp4bDeHPLbizyL2cn6CGBjofUCPyyx5xvXHEY6ua42+z1jONdoHwWwvsqKi63677O26pvvw+/3nsp39LaCjOvIPSnbZ2XVtsjnkoAOybCnfZWPXtXPYb6A3nBeClC3dtcikOkfQu64haFkWBxx5VQoiqAkjndsOFNzXAXqXvV3XzjGX7eyvgA67tN+67Oy6Ntkc4ruOtth32dh17Rz2bwd6nsT9X/XlXGBfsZqtaVjHvLZ/oC/jgvi4bPf/gZ9MtuuaWrLHP2ecvcRrSTKl47Sjymv14w7Q40utKeeynf25P72drOTir7zNFPHYbg4hSedLc/UicQ8xgE76z2FFoNcBSlV2yuv9A7Qf+87yxdzt3w6Sw4zB1HPQMa/tH0xFP0u8U17Xjppy3KHGmrv98IPNYbsEpv1V2zfQZXmaHKsdNRR8U/Yzd/sN9KTFvrrRMa/tG+gGuv1SS0UDfQHraqeB62o3xDU9Vm3fQK8EWTtqiCBM3cfc7Ye/bA7bVXXtr9q+gW6gW0WvaGCI5FwDbl/nRgV9X5Oyce2vnpoGcg0Y6PbnnrNlsgGSA7IUfxjoBrqBvgINGOgrCPJSqpLNY/fVhoFuoFtFX4EGzg16Wwd23jxgHjh8D3zy+m334bOn7ocvfeg2+uDwTTcLzQPmgb4e0Gwb6H29Zu3MAzPzgIE+s4CZueaBXTxgoO/iNbvHPDAzDxjoMwuYmWse2MUDBvouXrN7zAMz88BWoNsXGXb/IoP5znw3hQba8o+BvoIvUUwhMBvjMBKZgW5A2zfjVqABA30FQbaqehhVdZ9xMNANdKvoK9CAgb6CIO+zktjYh7GaMNANdKvoK9DA4YD+2Q137P93lcvu7kiOv3uC/wjx2J1+dhhZdtpqd8dd6eNfi8MiE98eQKfg0v8+enztvnuyL4HJuMmeK7eKRNBoU08WD64dq//9Ff21JK2iv8Z4SHS3Lvu+wrXos6Mb7oEkwfvu9GibxEW/t9jEfsW2M9qx/Q7bzoQr44d4VH0Tx8z9XY/JtMm00M0OvhnL3mlBj+Ll/0PG7b5Az4WSQIdd3iYEqhBesLkuqiBg3U8NFgKn25X9EWLePwToPUUo8+XYPe/bQtTtoPfxTbCnGbvSh8PbPRaEU/Q7IegpiAKRF8cdd9pa0dM9ATAlPgry5E5capVwFJCe3HG5wFLfmT2SjKJweCzjfOseXLtcXf6H/pWNNfEX/TE5ZDbEuaVz0dbOiq7acAydsB5zvto+notJB3OkX7PVSNFOX2N78c+2cVBA0u7YV9U3UTPhMcTg7pskpgM9BjGJVwUYwaNgRESluFgBo1DZvlVgbfcXAGfwBJsoML9spPh6PNvzvmylUsDOSiRLUvYv80AiwSOAFnGcS2YrgWI7tjmO7zoKfzVAr/gHNtCvU8VB+aePb7ywRUs34nuHjdtkvim0pcboC8bS2k0GeiOIpfNLgREAFUCC5JMF2wsgFH5MBI37KewABu3ZyP1JHLwWkhL7JTgbJ5Bmc2i2y2HVSYRwqgQndhBY/TxeO8fx2Fc+vyeP264X/pFx4/zpV4Le8OO3cWUUH2/YXvrhuMU4EsfSzuT3EF/Op+ab0Fbic5S/E2ktIlmc0nhLg7lrPpOD3hoMCiYKTIKJZX0MVHaO7VsElrX191OABegiwCQAJhQNNM+xWutrtE9v2b5s1zhPkDiPeJzftwXoaj5hLIJDwAKA9E8+joJrojh0+qz0TU0HONfSTve99v3JQE9LwrIitjyjV4KXQULQRdh1IaeKzetR+Lw/e45VolEVLYMh2tVMWPfdA/WxXWZrFCjERsBoF9vlq4dYDeU+2q58J/azbWwj/mDl7QaddggIZb9jx0HmeJZvUiJugF2xUeaj+l/zuelAf0zhpSUwq6MXeSkweaYs2xfC9p8N6zbxuvSnr2GfwlfCavSh3rpTREWbDH4vpgQj58WP1wh3Pk9tV25zM4m025rabgf6k5p/saoQv/X0c60f/Xm99Kfnm8dBAKy2DXZkPpTHkrzPZkxUclg58JOC7gNaAccHSIJMgSFIJTz6mq6+qHRcmqs2aqzja3fqnzurNgHQlAi8vWJXElWroLK+kh25SHO7m4mnGF8JlNVfEgmX+zrR9Kzo1blVQZ8oDpxn5sPki4YPC220xoT9rnw7Pegrd7hUr4YfYlLL4LWK1O4v8802vjHQG8DtSUCxklll2pP/D0UHI9lhoI/k2G2yrbU1uMfWgIFuoMvHl2OLzfrfX0IbHfTrXz519jMfH2gYLW7ziRtipWNX7hvoloiyRKwFYqAb6FmC0OIo900s8xWLxW6+sSs5zIBVB4P9uWcTy3zFYrGbb+wMdFuqZ0v1EmYtkPKaHR82+Dp25b4q4tmuVfSVJgQtEAP7sMEu46NjV+5ndKuD+YP+8Xvu+c1V94YAe88dZcdFEH37V91rHz9119+/WvxJqPT1V//10wvvube+1P1hv2ijjo/eL8aiTXpMntvzVgukFNJkx6PHjjHW+kCMHrrXLmxcHq9wTr52vNm4o0tt+oj62VMMdezKfcV2tjt/0OFsJZg3LvUAkeC9c9VtLt2TJe5b77xaBJ/gEvZ77sjDT7EkAWFcCqfLBi0kPfZkcEVxaoFMPXY23qixa0nMF151z6sEnZJ61BI1gUIQ95M2kBAMdIEmC+YUme/9q+75S/hJ4Ap8EJMASnhjtr90zyGIGYBeBLVgBtDfKNtfuudkrC+fFvt5P0kwyo4p/FOMcTCgw66RYucTLvQAYGP8Q6yRoEMSYHIWvUIr1FDrii+Pqdxb+His8zp25X5WxtXBIiq6D+iF99wbHz+MiSZm8pi5dTAl+FFgyNgI/vPv8F5WawQzLedCH/0r+vMXaskjX23kY04LvhbIWILs0+94seOyPfd5M6GH66KREnSr6PnX/PoEdYw2EIoAIxk4LakxphcTqnQMmsAel2ZnVfRUhQH6VXd0oRTPVXdULN0pnDcu5dk/9TUt2KXvDwH00WOHlUKWwOs+Z0xEJ1zR4dGuXOLzGt7xTFTBy3F07Mp9VcSz3UVU9OtxGVYPCqDMwRfHKdBzQeTPYRSCH6f2CNCxXM/FU1SPPQkF89cCEX/sxZ6W52gB7Hyx69ZGnoS9H6yiu0wcWijY37tYWgAMb1hzsQA+X3FjxgfIzSSRRNAAXVYOAVwkCenTQ5/u3a9f2quOjt9+bdSPQ6W9SLjni113cq7ESYOuEl/SQGnj9Mc6duV+VsbVwXIqugIdQUkVuhRLqtYaTsnmqh8CEIL80L126dXwoiauBHCdY6W+Yv/v42O/comfjrm05xhTb7VAph47Hy8Hnf4Mbc4fu+6KjngUsCvQYUuzAIQY7jN+OnblvmI7210k6Ak6ZNtSLBQWlowMMvavujcQ5AvvuddY8WNGR38QxBFAxzNfZ0Vn/xybY/BYvVNQFSMX//hVQgtk6rHz8bS/8k8shohdV0WHHeU7lPBRbTMBhGQ/flxy39TH07Er9zO61cFCQI8OAaiootkLs3zp5yHlR2qxekuwI+hv+eRAQLkCUIlBVXQGhsnFVwF+PONBxv2hCjSqh4GeHvlGiR10kScSxotbiX38Eg0qeK1aG+jxDzrQcZNvs+paQO1BSi97EEAELDxTB5AZQA8okgQhhfC4r5bo+fw0xBibq4c0Zi6c/LyMtQfgdSXI51SvIqO0mSR2hc8bj1NM6MW8mXga7WPSrjzijeKjijZ07Mp9VcSz3WVV9IpTpnL+3MbRApmb7Wu3V8eu3M/oVgcG+kqTgxbI2sGZ2/x17Mp9xXa2a6Ab6Ok5eaW+MNCznHDIn6MXz1cm2DPh1ZVgbkJfu706duV+gawcDlbRywHtOP+KsPnD/DGFBoTsYsdAtz8D3fmNxynEaWMMlwQLvuXQQDfQDfQFaUDILnYM9AUF2SrjcJVxrr4s+JbDwUB/dPt1t7QfBntp88J8ODdslzy/Jc9Nx5D7QnaxY6B3JCg6b+liWfL8ljw36lNvC77l0EA30K2id2jgEBOFBrvcF7KLHQO9I8h04iEG+7w2cW7YnrevQ7yf8ztE285rE+dW2xZ8y+GBgP6KO9m84G5m0OHcc+7dD/b37E9Hnjcwh3g/54btIdp3Xps4v/P2c4j3c261rZBd7AwP+gcvu5M3v1sVz82LG3dyvQT3u+7dF/lrnGn7nRefa/7S/4svu08/eNl9J0sKtSShxvDtY8K4/kKzT/3bSehfJRs6shrshh1qTNXHo9uY33Pu5OJz2dw/fTM/9mM0+hx/bphjmh/GSzFo+6MLm07/h/lWE/Qe5pfmVsanw84sfuk+6Defe7r2aA9zoz71tuBbDocH/fbrrg50/TzafscnBi3qV9wJoQOc3GcAlFOD8+vilKTi2z/n3n3zBbe5+IoIuwobx1BvpimWrrEaUIjNnEvceluUvWh3/YXog9edFkzXeEPNrQG62K1ErHwSEldafZU+xHHDFzox7Cl2jGG2rWkrm2vygZ9XjFVDj7xn4rlpwLkvZBc7o4D+6DbFnRwFB0O4IlA6B9tS/JWq0rgPcFzETwJX+kd/NcEisBdfcXUxNh8T6LxMHN5uJKVm+2a7190jBbGGQvZrtk44tyboL7iTi3FlU9rm/feye/dFgv6Ke9cn6bAqO3kTq61NlpgRk5DIlRYmnJ/EpIfGQoIq4xrmpgsEYtpa2SecG/WptwXfcjgS6CqoCmgBUZ3zgUAQFLASnNhOoIjH6AdZ9eYHfESIS84Xn/NC00nBt2XfCvRcfPVlHB1Y2uMDfRGCV5U5S04EISS3fKzgGz8nD0Zqi3GmnlsT9LTCEBuj/0L84KtgM65L9b74SkrkCqpy7lPPT2JXauyD72aPaWx386IC3QPdXZz0/KaeG/Wpt0J2sTMw6DH7MatHR4kYMhhU5lfCaGtLeOFMca70X4EFYymB+n0FenMcFeCYUOhAiiBs60nBXyuFEecl7xtaVxPBF39/D3Orgs6EE5fcAPo7b74cH6cS6MkfLf6nDlSC3m/sWICiTlkAon06zh7azmQentffRbJ78WW3r9hRo9wWfMvhwKBHR0LglaUznEdgtVP90r3D6b6yZC/xznpplAtPxlKgi+B8kOvw0nly/+3X47K/2b+vbsWcfVLCKgPL26KiBHi4IqEAsZ12bm2g+1WLzCeAEXxWgH79hRjTCM+miDGTuMR32vmF2CXbmgm+siqTeeu4hNjnusmv7yN21Ci3Qnaxczigl9W+OM4TRP0dQApqDqIkmPi87KEs+t9UnrnpPAGdot284Hwmb/ShRPPiy+7dN192N3011KDXRKftnXZuddABY5hj8HuE08OqQYet4XEpPLPW5qZWbj6pTjs/iR2r9rZFiPfFJH8m6KYMEUEAABB0SURBVC1JonyJCbvOq0vqU28LvuXwcECXjF9myZBJu0DPq6MWIvrCcViWi2MZvJagUxx0II/D81uAIP/Mv2ZjmIfYhrH8UjC8/U+CKe3NQZD7vc1l2/PPrQb6u/IIEWzBMfwf5q9s8I8qOkmpa/Rx48XstPNj7MKWq4niMS2u9PK24UXqWSuAFEfEe9q5UZ96K2QXOyODnge+AZo8C6pKeEaVDJ9z5w7N+83HTM5HkBngCGsEnUIuA00H5ufPA3r8hCA+yycRaVimnVsDdO9/ZU9cBXkfeH+94E7krXsUd4zZyfXS903xp3iERDht7MKYIfkrzXUUGR37POmyL72dPnbUKLcF33I4HugS/OSIPKjpfHAmRFI83/lqrEQnVSLeC+FhnBchPgauaK+ey/n5p7xZjaB/qqq+Diydp895oerPhaNNEEG+6gg2ijj8WFjmvuBuanja5jjR3Bqgty49Ga8EM+aWf8wUYpgSWIxJrc+J5pfHTs+BeuGWRYBtmluJZanD8niiuVGfeitkFzvjgN6yFGoDHedrz8i155rwGSaDU0DtHc7lWUgaDA7hxjGADCJNb+bLl2UQCB2YiyWv6MH2NvvVCxxfxaO9bRU9Oz/N3HqDrm2rget9n5JA8pmqcrqPSrIMSTTEljHC0niQ2BE+X4BqUMckxblltlJv9a1fvmftp4sdNcptwbccjgN6meFmekznJdE2s/xcr3Fu2M51Dl12c35dbeZ6jXOrbYXsYsdA70hCdORcBdFlN+eGbVe7uV7j/OZqf5fdnFttW/Athwa6gW6gd2igC7h9XasBznNCdrFjoHcEmc7bV0DHHJdzw3bMcfbVN+e3r/HHHJdzq20LvuXQQDfQDfQODYwJ7K591wDnOSG72BkMdA5kW/tLpKaB/Wmg4FsODXT7c8/yMaIBuj9Ah/K9kF3sGOgGuoG+IA0UfMuhgb6gIA9VFayf+VZ2IbvYMdANdKvoC9JAwbccbgW63GU75gHzwKw8YKDPKlxmrHlgNw8Y6Lv5ze4yD8zKAwb6rMJlxpoHdvOAgb6b3+wu88CsPGCgzypcZqx5YDcPGOi7+c3uMg/MygO9QbcvUcz3SxQWu/XEri37GOgL+rKEAb0eoNtibaAb0PYNuBVowEBfQZDbsrydX0+lN9ANdKvoK9CAgb6CIFvlXk/lbou1gW6gW0VfgQYmBv2OuxL/p5Yrt0KWfXDt2G02x+70s7asy3suu7sdAQn91P+QvvwPISd3MlHfPUH7st/77vRo4zZF27ZMGcYt+/jWoe/ja/fjeJyDti+fM+2Xez674Y7hq552tNln59t0ta7zk4AegKLINRQRqqMb7oGCOG/P+1q2u4Bw67IT+GPiaTtGQiKE0ubksk9Y6RrmFGD2CYyQbjZOHxPi0F8CvTHf2L+Mp2xkHwbwukA9b7wnAT0YWauUsdK1wUog266r5LCLIwJgOvFAPDU7CTvbJqhTRU/ngi04vuxOP7vvnsR5eOgfs68EOsckxDoR+P0iEe4yV7tn3YlhEtAbFYtL0lj5CEAuxgicqmaNCnfOBFC1i+NlfZfwJ6jbQY/CkurOJPGteyLnuDQP/RN0+MHbdnTD3cWjjYGePXLlOlk3wH19MQno3hiKWwPkK50CQFXoABCW67XrATQ+v6a2Lct7wssEE8fpXdFpe+znyq04vu5XrqkEFQGFffVkRpEW/Z3cyUGXcfQqgPfatq/Y19xuMtCz6hlhz6qWBppLdhF4C8A6aTBJyL21BBGgyGzpMQbbE3ANbaroOXCc2wM+ClTHoY0BdFT0cN9xeBHXuMdAXzOs55n7JKDXKu7xtRv+hZZfrsaKyaXr3RMImpWRMGiQ8oqeHMB74kuwCBn7Te3QF9uqsVCBWb1luQz48MkA+gzjXrmGN+IBugR66I9jJdD5TK7mwTEkUcV+b8Ule1nRxS4DPY+h1oTtd/lmEtCD6C+7K/Fjq7snl91dL3YKN0IncGkQW6o5qp2AEoLsx9HnP7sTxtzoj7pS38dHx7GPfPwH1y67K4Bb7CGIu4H+JL6RD/bqBBPFGcHHSsHPoQRdKrtKFlzB2Nae33toYBLQn9y6kSp0hNNXQgEpCjz7PJ1A1MQdgNOgy6pB9RkyHPthlQ9j+cory/wymYQEROgI6i4V/dSvTgB0tDlCy8rvbfR2YMxoawl6nFNIZDV/xITRI+BdWd+uLdeP04DuBZhEXIpev01PABDQirDLpS+PpfKV4PKYK4gyoHGsRpJguxzS3kt3ri4q9qV5MslhnsEOXPNQZ/Zo/9Eu21py6qeB/YAuFUwbWcIWj9VLOqnaEWj9UixUu41abuu+40daR5fd6S18Wy0HVyeafJ9JJrTPKzqTR74NACdgxeYatDER+DbyJZmYjKqrjbZEVczVKrst5wsNTAi6idGqj2lgXxow0IvMt69A2LiWBMbUgIFuoNsydwUaMNBXEOQxK4X1PY+ViIFuoFtFX4EGDPQVBNmq7jyq7phxMtANdKvoK9CAgb6CII9ZKazveawWDHQD3Sr6CjRgoK8gyFZ151F1x4yTgW6gW0VfgQYM9BUEecxKYX3PY7VgoBvoVtFXoAEDfQVBtqq7e9X9k5/+ofuDf/sP3KPbF93D3/hr/gfH3z78g1klyFWC/n9/9Pvuv39yzf23f/V3JXgM4h/ff+j+17//R7MKooG8O8hdvvvmP/y6+9Gv/Tn3X//F33H/+z/9cwfo//DLf+l185N/esGf67r/kK4tCvT/83v/0QNMaLlFNkagfv47v+oBxvn//I83jR8EFfDj2n+5+7d9YA8pWGbLOECXfkUhgGZ++vFfd//vwc8ckv/Xv31D9IP2qOhIAGiH62Ufh3a8KNDbAH7w63/F/ey3rnqAsX34G3+1ATngBugAnEkAWXtfQYSQkJyw8gg2h2Ujk5fewma0QwWCMPchMlQ7+Iu+O+/29//Jn5rc95gDEv2Pv/8XpYIz8WM+8HHpWxQXxALQH/JyfhWgIxDIvBTfj3/wl2Sf57AtQcc5CA7AlQEe4xjLQkANoWm7tt3/6lf+jHv8m39zMrvhC+3fbe1ta494TAEPkjmAxniAGcAjacKP2rYa6NQBHvcQNwC/r+JAW2rbxYIOQAE4qgyrH4P24J/9ZX8OSzMEDyJFuxrovAdCqDlwiHMQ8xigwHasZsYWnl4F0V9DbWE/wBvCz2UfeKmGhIi4Yx/jsELX7O8CnX0TeGgLy32e3/d2UaBDcMioBBiBwbkS9Pu/9uelDdoCMlTSLtAReLQbI2BjQU6xotKMYTf6hI85zlhbwDiG/ajYf/S7/8YDDkCRVLrm0Ad02ol+0ReP971dFOgAGsHAD4HHtgT9xz94ybfRSQBBPgv0sQJ33qV6lzhxDaubMYQGOM4ae6jrY6yoEG/4pa//twEd/WLuY/h9lz4XBToCBqgRQC2wEvTy2Ytt9wU6lottNtG2XbdTvmPYRYD7vIegl3pp87WBfiBfOmkL2KGDDrHjOR1VayjgAThWM/t6C79PgPuObaA798nrt92Hz566H770odvog3IJ0NepU7SbK+io6No/+BwXn/nzseOspSXmjWSG9wx4qYTnQ93fWLC3Vb6xzus5DbFvoC8QdLx0owDbqiYCf9Yb5CEEVvaBcfFxTnl+iGN8ZIdPFIboq+yD/uSWn3Qg6ejP1PlIhfOYK9t3bWvtyvHPe4wx0EdtrJpttnSfwdJdA3xooFNUAOJ//Ou/579meZ6PlAA3Krt+i3xeKGr3025sATlXJngMIej4RIFzgV1op++r7WNFg/GwQtHXazac5xxsxGqn76ce24AOH0Bn57FvyHvLlTiP9Wp9EUt3LZo20AEGPvvU4ir3h3Q++/rdW89WxwT4+qNCCK3tBx9BEa7SZhxzrCG3HEdDjs/saQeSK8fDl47a5sl+sGWVxX24R19jX0Nt4VuspPCIpMdp298GdCS9sT6O3WX+BLvczhL0tmdZwIuAMoD3v/8XqsDwM9W2RID7d3HyWfegitO2MbZIcmfZsMt12gr/oloDTC6DATvO4QfX+0DO/vBSEu8o9IoE13axseseAA54YWNbAt3lPFYkTCBd4095rQScx7MEHUHBMrEMHB3KJdpPfhBEiCpIqCFELjG7wGNfQ29RAWDPNkAQjLYt5gtfDG0r+2sbd6zzHHeoLWDEe4O+/UFffeaGVQ2SK/rv2/fY7Qh2uZ0t6Fw2MiB6KcgveAB0Xue21o7X9HaMgPCZFH3j2Q5wItmctRzXdullPu7Xb9r1/hj2z7VPJHYk1r7+6QM6ViHwB+LBwnEI/ikB5/FsQdfix34N4EMDHclprO+jQ8To/xDEdog24DkdBaCPbX1ARxs8AqLfPn1O1YZgl1sDvfL76kgcYwSGyQkvr8rPwHcdD6sELB/5KLBrP0u/D5D3TYRngc7VAZ79D2nZjhi2/TPQ9wA6gYdg8OwIYeEFF5bienmv4cNKANfxg/Z4Lq99hKXvGWqf9k61Hcpu3Q+W13hP0wfMs0DHS0esoLh81+Pse99Aj0DrJT7e+LaJd4yAle8V2sbe9TyEPIbdpT1IMEhQ+NFvzOFbnsd+eV/teKpkBb8A0D5VvQt0zAtJ4xCrOebY9m/VFR3VsSY+nBsDGLxx7wtAm11t5wE5v8gytO16TP1ZOl4oEnQAjmOMDTtqAOt+sJrh6kV/yQlthraf/QFQvDzDl4x4rrbtAh2PXNBNn4RR63vscwZ6paJPDTqCDLFBaG3fBdAw9NlH4sCbe0I2hpBoh04m5/3CDOZPW8uVFc+PsUVyQRJikqmN0QY6/Qzbu+6v9TnVOQP9QEDXAcdzHp4Z8cURVMSzlvaAGu2wbAQcY73B1zZiH6CjAuOFFpIjbAb0OM/P8HG+63sJTBZ6i48VsZxmX7xWjj/0MeYBWNuSYw10nEOSxnz7vr0f2u4+/RnoBwh6n8AdQhsCONV2ijkDXCTWGuwadCQ4JCNCjmtT2LfrGIsCHRm1FJ1ejvH6Typ/HBKB47NsuXRHH3yZtKuj7b5p/lTzEH4GtLVlOEFHIoBWkAygi0OHHD5p+zfLl3FDBNn6mA+QY8YKj0B4JNLLceyjimNcFAMAj3Zj2jFU3wb6gfyK7VABtX6GS1R4sYZnb3yCwC8y4f0H3iHg/FTvQoaIqYFuoM+iIg0h9l37wEtGvhDFUh3VfNe+9nWfgW6gz060+4JlzuMa6Aa6gb4CDRjoKwjynCuR2T7MOwcD3UC3ir4CDRjoKwiyVcVhquKc/WigG+hW0VegAQN9BUGecyUy24dZjRjoBrpV9BVowEBfQZCtKg5TFefsRwPdQLeKvgINGOgrCPKcK5HZPsxqxEA30K2ir0AD5wa9rQM7bx4wDxy+B3r/PvrhT8UsNA+YB9o8YKC3ecbOmwcW5AEDfUHBtKmYB9o8YKC3ecbOmwcW5AEDfUHBtKmYB9o8YKC3ecbOmwcW5AEDfUHBtKmYB9o8YKC3ecbOmwcW5AEDfUHBtKmYB9o8YKC3ecbOmwcW5IEq6L/yp993uGA/5gPTwDI08P0/+4H78NlT98OXPnSb3/4bv+kPcMJ+zAemgeVpwIP+P2//zJF8C/LygmwxXXdMsVL/6T/8kfv/dTLbAeZX10gAAAAASUVORK5CYII=;opacity=70;" vertex="1" parent="1">
          <mxGeometry x="1250" y="600" width="250" height="272" as="geometry" />
        </mxCell>
        <mxCell id="R27VUwDnr8lnY172pskY-5" value="" style="shape=image;verticalLabelPosition=bottom;labelBackgroundColor=#ffffff;verticalAlign=top;aspect=fixed;imageAspect=0;image=data:image/png,iVBORw0KGgoAAAANSUhEUgAAAPoAAAEQCAYAAACZRGltAAAgAElEQVR4Ae2dz6slR5bf70ra2VrZC8kYjCVhin4g+wmMuzcSCLwoY3jCeKGq2giDQF6pamXwongCGWthV8nMjLrtGVoqT4mxLcnjHxrZRp4ZdXWXqC7cxj80pmVmbMZiiur+G8J8I+J74kRkZN6892XmvZl5Ch75KzLixDnfzzmRee97tXn8sz9xv3P1Y/fxKx/Yj/nANLAwDfy7v/Vb7o9/74/cBpC/9+S5/ZgPTAML1cCdk191G1RyA90SnWlguRr44XPvJdBxYP/MA+aB5XiARdxAX05MbSbmgYYHDPSGS+yEeWB5HjDQlxdTm5F5oOEBA73hEjthHlieB1YM+tfu8yfO3XtPvO8e/HzCwH72Sfhk44lP3DcTDjvWUL+89X7Vh9+8UXlz/b0v3S/FkF+4B9+D/7UfeK5HTH7+pbur40e/ZmPIYP120Ie+H8eZff26OcZWCwc9wlx8Jnr31i+cc0cIOsWq7A22NqXjAVPt/EdiraKs+OGNr5udlmdKe/Q95TVly+efOedBlyQax9cQOUKtQGefWbvSqHBcTSTKhuwjQvqFyaFs5+2M9uAaxldt22JQt+w4zy4W9C4hHB/oSmSlCHFMoXoNdbTN2inBEaCybw2uao7daiLB/dk9Oay8Zz/QO+blfaCqPOeTJYTclmI66jC2i/fKiuSzuEIofdSYs+pqRruLBJ2C81k9E4Nz7rNP3LGBru3NqoeqKgKYOpe1daiiqjpqEX72iQN8/CfjtSUGrnaePI++UuBLlUZveaVmct0GOtvpqnv3e+/7RxptJ+317TkuIa8B2XIu+GlLIhGd9E0YtG4e2wWCrpapWfUpAxLbUUC8XBFSDlTqX4tS4BHBhA7lPEQIsNi/QJb6E5hpi66stFOBnld6ddOWXQGtzT9io6qihPrJc0ka7If+0UDq/TIhePM4j+gH+Mn705/X4+aPARyzmcT7Ahr9Hefu40PfesP69rPFyUd2eXmgU6RKkHWfN0HPoCyrg0CRwNwGeibKsj+CTnszsSmLCYTMp16ZCJu6M9tt2FIkJN1Y/EAb/cU0LsaSNt/70n2DF3KcX+y3MR6uqzHL67Rfzou/c9C9KconMi7Hr2zZt9hctoHvO5buvF/7aG77ywW9DRyJUAG6Fo8SmYhD+usJerW/BItU422gq0qqBSdAaNEqkGSacafRXuZTtlTL9Ky/ZDvswMuqz7NEEPqhv7StjRG0b574xD249b67+8bX7peca21cbS/vr7ZreXyJRnj7dF8N4+I8K3NrNJ3RieWCLhWwLRoF6K3AJbCDeNNxZ0Vv60/OR0HKcb5cFasp6rb58P4IvLZJ+ih2BPoWMRNWSUb+/hz0oks55L3toMd+vveJ+7z8eC3Oxc8B+94+gqf8o3zSp6Knj1DZV1cy6NNGpjubneWBrkWgKnMzIruDHiAaGHRlbw0OgpPE2pyJ29JH4w62b6tsTB5ZIsjnLXbpFUWf/Te+9h+9ff5ZCVQ89lU67qM/SQgV0FVFpz01H8r8Oe/SzswPpV1y96x3lge6f/usvqxRwt721l2LQN1DASXQkuDTyzMtzPilENVfEp9qpyCSCqvecntVETgIkzahX+5Teqpds6L/wj14Q39RJT7zok+xoUh6FduTH+rVkHPg23PZ+u8s0NCw/eWtL903xefo0n8JIY8jjFvbsX25jQmGKwD6yff3xPvu8zfUe4byXpVQ8pnM52iRoMtb3jJg8TiAV4i7TBDlvQouipqiwZbCTi+cFNRlXzgWyCCWLW210BSEeny/n/VJEXb0zTmpRMGkVJujn2cD3NQ/4CGIvh/2q+2nWZxztFnGo02+nUqq1bml6+J/+rrSHmOwXQl6+nZknE/lfjF9hjsLBT1EgqLLgJBlWhN0fxfFScFUn42TuCl+GSsTdd4OVVnaVYQk19TYBC9pq+iTbTNAUmvs1fql0EPLui8EvjhGwxb6Ss2FY0lblZjknB+0L1DRtja/xvPZuGpMWQnRJbSZfsNWNIFGfe1ih/PYLhr0eYRgnlYyCeQJIyWVHOrwRSWfcCUhtQPFviVBq0Qi16Sf4L8MdHFpqvgCfASddvv7DHTxmO2YB8wDM/aAVfQZB89MNw/09YCB3tdT1s48MGMPGOgzDp6Zbh7o6wEDva+nrJ15YMYeMNBnHDwz3TzQ1wMGel9PWTvzwIw90Bv0Rw+/dfZjPjANHLcG2nKRgW4JzBL4gjRgoC8omFZVj7uqHjI+BrqBbpV7BRow0FcQ5ENWEhv7OFYZBrqBbhV9BRow0FcQZKuqx1FVDxmHxYJ+92zjNptTd/7pcEG+f/3UbTbot+Pn7E6okJ/edKe63dkdF2xq3nv1dm4j25Xnc6HccVc75sc+6IN0nI9/9Xph52bjwrj33PlJ3rY+72F9nM8x94td298fE4MOcebiOb1+b5SlYxB2IcISPhG1cmCjTdFH3xVA7AfQeFsI+slNd5993L7ik4YGemsy4f3x3s3mirvbsDn4uOlbwHvqzq9fcRsmJNqCbWZPBJ3j6XZxP9i6p38q/RnISocD+2c60EWYhwG9CyABogrMnkLeA3RddcUmBFzZpZOCB/MEoCuBqHEzcKr+L+ZWA71IzM2qXvQxsECzOVjfexfFiUBPlTwT8MM77lwqemoTxHTF3WVgKXSpQlxWVtpAmKyesrRNfWfji/ijWHks43zr7l+/st/ynzYTFNqECslxcC1WTCaiq7eTrTlUaq70S9zy3ry9SqiYD8Y8u6kqetzXSSLalS3dOyq6QagSbBGTY/PNNKBHAWWQZY7ZIm5CIwCWoLfdXwBcES2rqBe3ANisUlthItAx0bAKo9/WpXvmgygasUGB6vvObaLdfumu++mq6GdXwnO9X7oT9KbvStDvdr6baE9Axyb2NdszCeiEJAiokgUpbgUiheyTwzbQG/dTvAEOjl97LuW1kISYQBJkVZs5Hp6PNWR6XwGXga4TQtzH2Jyvr8qS0Oirwq54PdgOG4rr2RjRRtoMH9OffsUTfNVMwrFPFZM1gzL3uU8KelNMQcg5bJVzFKYAQGEHETfv5/UC9IpoCZgGmue4FNbXHimowvkwVmNutJnQydL91L+N9/eqZFAKKdjQkUge4rECnwIo0Iv5pevxRdvJTXf3U778BODwzxbQaX/Xthi3nIsdM2EfbjsJ6FzGApwcmviMzmojIMflLtsTGhEUK3YOeqrYvB6Xu7x/s3EZkByXlfn2ldy+eF3fI0mAtgKU+DGUbhfmHMb39wjoN905PvoDdAJqeuPN5NK6FR/sAXoD1i7Q8wTAZNqZ3PSKxvb3fnE2RmKcBvSHCdxSwAEOgpmWzKEdK9qW6wrkvP8IulS/sv9wLIAK+Hk7JieKnS/QUkC4glCJzPdVB/3+QzUfJgwFBpMJxw3jxHu6QG+AjHlEH8Iede8jb0MTdD822unVhvgl9qX8ndt4uIqVYmE21HwxGeh+cBFMAikJRYnfC5aQx8Cpe6/eJliqjbp+ev1O/LJHAr0+fnFdCZgJQ+yrXGObfBv69EkhglWt6BFKSTIedM6rWHngGsdnYuAx+skAbhG68k+ytwQ9jn92Jz0WqHG0rUxG/EJOTVx2riUWKqlP5aNpQT/ABId0pIi7DSxAcXLFnd8OL9dSwgmVXu7nIwkrO5f1JbQNOFNiQyIheLrfBHFKpv6RBn1ldiOxhqRU3o/k5hOVTyop+VT73pw6JN4h/Wx9DZ8gDPSZJx+DYngoluhTA91At2q8Ag0Y6CsI8hIrlM1pt5WMgW6gW0VfgQZGBf3GF4+d/ZgPTAPja2DbCsdAt2RkyXgBGjDQFxBEq4jjV8S5+9hAN9CtYq9AAwb6CoI892pk9l98xWKgLw70j9xJ/Posvql28s5j9+pl9S04uXbNvZrNHfe96F7+sI+o0HaH+9+55p5+86u0cvjwbff0pbfd61985V6+VPbTZ3xrs2vyM9AzsS9BQB+5Ew/RY/f6my9G0EuAm4DVkwETRHG/gJsnlfIrsEgyXpDSPh4b6CnpTaQ/A30iR++agfdv3wf0vCJ7yC9fq1TpuBq4/JES5lfu5cuoxoA270fbjD5P3kFCYbLYuI0fIx5LRdfX9ThLSLrHMwcDfYmgy/KcS/dQkVHhWXW5lMY57gdwwz03UHXj0l8DfOOda36VgG0GrhqTY1hFN9D9t60yAS0OuEMFuU9Fb7Etwk1QsRVYY3xkie8rcntFz2KLpftl/MSKbUt3tUJqicXAPFhFH9ihmcAP0ncNdLU8lsqLKl8sreOzvZ6DgI37PKj6+R6gv+ie1stz6X8TVwpxDEkM7Uv3MqloO2z/YgnBQD8IjBcLWrfoAV8CG/C8evlF9/Kb+s13RyUuX5wV/smW/6jSl665E//m/CN3gkQQ7w+PBB+5ly+VYz92/rFAntHtrXt3PIfRioFeCHkKp487Rq2io3onuPPn8qKqqySRlvDFW3f6zD+nv52/cFP3y7N/mTxs6W5L93EhGCY7HrWNAlHl4zWACRArS/QwJ0BfQq2X6tF/7GeD5TmqNqpyraLHz85VlZfkIRU9rT7a7VpB3Jg8R9paRR/JsYdKBrpaY1+W7h8G8ANoJcxxOV15+VZ+hBY+isNLtfB8Hp7z+4EuPpFkVEkiC4uHzPnA8zLQDxyAoYXgn8flJVsAWl6o8a23hzRWdlZnXeUBYm0Jrn0ly/ES1vSOQH+Onr1oM9Bt6T608K0/W/aaBh5v/eMh9vvouorZ/uSVyCAdJlHb0t3gNXhXoAEDfQVBtqo4TFWcsx8NdAPdKvoKNHBQ0LcNbtd3+5O95i/z174aGPVl3L5G2X0maNPAsBow0FfwN70NmmGhmaM/RwV9ri83dCDnOIe52w+f2xx2e8Go/VXbN9ArL2q0owz03QQ3lL/mHoOpk5X2V23fQDfQj/KtvBbrUMlj6n6mnIMeq7ZvoBvoBnpFA0MkBQ3cEP119aHHqu0b6JUga0d1OfdYr83dfvjV5rDbI5P2V23fQDfQraJXNDBEEtfADdFfVx96rNr+0YCOX7WUv1hyIcenX6PE72Znvz7Zs1/tqC7npmv4VU71Bxb2HDf1x2y+31x2s79p+6bxnzfQnn22U8yBdu03VtPv7A/b/fvcLQ56zN339Vi1/YWBHoKS4C5/l7qfA7WjukXA/jCO+mMP/ve91XHPBJOPtf9cdrM/gJ589tj/Xbh9k+Rh5oA47O+v3GbG9OJ97hYHPe7u+3qs2v6yQJc/eLC7o3SwtaP0+fb9AvQvwn+McKEVygXmspv9FdCRmHyyuuAfdpxsDvoPUl4s9lmML2A/+tktDhezW49V2z9e0L3Q0nI4qzit18qsvp/ztKOywLdW5i2gt9pLoGrz3H8uu9nfArr/f9PUo89RzwFx3uKvie030FtgyZ/R9X8LxKUkq0vXNbYFOGy/O+y7gYL+C9C9qLh077K369r+c9nN/j6gd9nZdW2qOcQY889mNWLfZWPXtf3tN9B7gR4Chz9+KH9VtAhe1zU4Wa7L31HrD/xuoBD0VJU3lf+1VOzxf6stT0Jd1/aZy272d4HOZDV9PHabQx5b8WcRezk/QQwM9D6gx2WWPOP64whH17VG31uWc432QTC7i6yo6LrfLnu7ruk+/H7/uexmfwvoqI78g5JddnZdm2wOOeiALFvKd9nYde0C9hvoDeeFIGVLdy0yqc4R9K5rCFqWxQFHXpWCCGrCSOd2AwX3dYDeZW/XtQvMZTf7K6DDLu23Lju7rk02h/iuoy32XTZ2XbuA/buBnidx/1d9ORfYV6xmaxrWMa/tH+nLuCA+Ltv9f+Ank+26ppbs8c8ZZy/xWpJM6TjtqPJa/bgD9PhSa8q57GZ/7k9vJyu5+CtvM0U8dptDSNL50ly9SDxADKCT/nNYEeh1gFKVnfJ6/wAdxr5tvpi7/btBcpwxmHoOOua1/aOp6NvEO+V17agpxx1qrLnbDz/YHHZLYNpftX0DXZanybHaUUPBN2U/c7ffQE9a7KsbHfPavoFuoNsvtVQ00BewrnYauK52Q1zTY9X2DfRKkLWjhgjC1H3M3X74y+awW1XX/qrtG+gGulX0igaGSM414A51blTQDzUpG9f+6qlpINeAgW5/7jlbJhsgOSBL8YeBbqAb6CvQgIG+giAvpSrZPPZfbRjoBrpV9BVo4MKgt3Vg580D5oHj98DHr3zg3nvy3P3wuffcRh8cv+lmoXnAPNDXA5ptA72v16ydeWBmHjDQZxYwM9c8sI8HDPR9vGb3mAdm5gEDfWYBM3PNA/t4wEDfx2t2j3lgZh7YCXT7IsP+X2Qw35nvptBAW/4x0FfwJYopBGZjHEciM9ANaPtm3Ao0YKCvIMhWVY+jqh4yDga6gW4VfQUaMNBXEORDVhIb+zhWEwa6gW4VfQUaOB7QP73pTv3/rnLF3R3J8XfP8B8hnrrzT48jy05b7e64q338a3FYZOI7AOgUXPrfR0+v33OPDiUwGTfZc/V2kQgaberJ4v71U/W/v6K/lqRV9NcYD4nu9hXfV7gWfXZy092XJHjPnZ/skrjo9xab2K/YtqUd2++x7Uy4Mn6IR9U3cczc3/WYTJtMC93s4Zux7J0W9Che/j9k3B4K9FwoCXTY5W1CoArhBZvrogoC1v3UYCFwul3ZHyHm/UOA3lOEMl+O3fO+HUTdDnof3wR7mrErfTi83WNBOEW/E4KegigQeXHcceetFT3dEwBT4qMgz+7EpVYJRwHp2R2XCyz1ndkjySgKh8cyzrfu/vUr1eV/6F/ZWBN/0R+TQ2ZDnFs6F23trOiqDcfQCesh56vt47mYdDBH+jVbjRTt9DW2F//sGgcFJO2OfVV9EzUTHkMM7r5JYjrQYxCTeFWAETwKRkRUiosVMAqV7VsF1nZ/AXAGT7CJAvPLRoqvx7M978tWKgXsrESyJGX/Mg8kEjwCaBHHuWS2Eii2Y5vT+K6j8FcD9Ip/YAP9OlUclH/6+MYLW7R0M7532LhN5ptCW2qMvmAsrd1koDeCWDq/FBgBUAEkSD5ZsL0AQuHHRNC4n8IOYNCejdyfxMFrISmxX4KzcQJpNodmuxxWnUQIp0pwYgeB1c/jtXMcj33l83v0sO164R8ZN86ffiXoDT9+G1dG8fGG7aUfjluMI3Es7Ux+D/HlfGq+CW0lPif5O5HWIpLFKY23NJi75jM56K3BoGCiwCSYWNbHQGXn2L5FYFlbfz8FWIAuAkwCYELRQPMcq7W+Rvv0lu3Ldo3zBInziMf5fTuAruYTxiI4BCwASP/k4yi4JopDp89K39R0gHMt7XTfa9+fDPS0JCwrYsszeiV4GSQEXYRdF3Kq2Lwehc/7s+dYJRpV0TIYol3NhHXP3Vcf22W2RoFCbASMdrFdvnqI1VDuo+3Kd2I/28Y24g9W3m7QaYeAUPY7dhxkjtt8kxJxA+yKjTIf1f+az00H+kMKLy2BWR29yEuByTNl2b4Qtv9sWLeJ16U/fQ37FL4SVqMP9dadIiraZPB7MSUYOS9+vEa483lqu3Kbm0mk3dbUdjfQH9X8i1WF+K2nn2v96M/rpT893zwOAmC1bbAj86E8luR9NmOiksPKgZ8UdB/QCjg+QBJkCgxBKuHR13T1RaXj0ly1UWOdXr9T/9xZtQmApkTg7RW7kqhaBZX1lezIRZrb3Uw8xfhKoKz+kki43NeJpmdFr86tCvpEceA8Mx8mXzR8WGijNSbsd+Xb6UFfucOlejX8EJNaBq9VpHZ/mW928Y2B3gDuQAKKlcwq04H8fyw6GMkOA30kx+6Sba2twT22Bgx0A10+vhxbbNb/4RLa6KDf+OKxs5/5+EDDaHGbT9wQKx27ct9At0SUJWItEAPdQM8ShBZHuW9ima9YLHbzjV3JYQasOhjszz2bWOYrFovdfGNnoNtSPVuqlzBrgZTX7Pi4wdexK/dVEc92raKvNCFogRjYxw12GR8du3I/o1sdzB/0D992T2+uuVcF2I/cSXZcBNG3f9G9/OFjd+Oda8WfhEpff/VfP730tnv9C90f9os26vjknWIs2qTH5LkDb7VASiFNdjx67BhjrQ/E6Cv38qWNy+MVzsnXjjcbd3K5TR9RPweKoY5dua/YznbnDzqcrQTz6uUeIBK8N6+5zeWPZIn7+psvFsEnuIT9I3fi4adYkoAwLoXTZYMWkh57MriiOLVAph47G2/U2LUk5ksvuqdVgk5JPWqJmkAhiPtJG0gIBrpAkwVzisz3zjX39GX8JHAFPohJACW8Mdtf/sghiBmAXgS1YAbQXy3bX/7IyVhfPC72836SYJQdU/inGONoQIddI8XOJ1zoAcDG+IdYI0GHJMDkLHqFVqih1hVfHlO5t/DxWOd17Mr9rIyrg0VUdB/QS2+7Vz/8KiaamMlj5tbBlOBHgSFjI/hPv8l7Wa0RzLScC330r+hPX6olj3y1kY85LfhaIGMJsk+/48WOy/bc582EHq6LRkrQraLnX/PrE9Qx2kAoAoxk4LSkxpheTKjSMWgCe1yabavoqQoD9Gvu5FIpnmvupFi6UzivXs6zf+prWrBL3x8D6KPHDiuFLIHXfc6YiE64osOjXbnE5zW845mogpfj6NiV+6qIZ7uLqOg34jKsHhRAmYMvjlOg54LIn8MoBD9O7RGgY7mei6eoHgcSCuavBSL+OIg9Lc/RAtjFYtetjTwJez9YRXeZOLRQsH9wsbQAGN6w5mIBfL7ixowPkJtJIomgAbqsHAK4SBLSp4c+3XtYv7RXHR2/w9qoH4dKe5FwLxa77uRciZMGXSW+pIHSxumPdezK/ayMq4PlVHQFOoKSKnQpllStNZySzVU/BCAE+Sv38uUXw4uauBLAdY6V+or9v4OP/colfjrm0p5jTL3VApl67Hy8HHT6M7S5eOy6KzriUcCuQIctzQIQYnjI+OnYlfuK7Wx3kaAn6JBtS7FQWFgyMsjYv+ZeRZAvve1eZsWPGR39QRAnAB3PfJ0Vnf1zbI7BY/VOQVWMXPzjVwktkKnHzsfT/so/sRgidl0VHXaU71DCR7XNBBCS/fhxyX1TH0/HrtzP6FYHCwE9OgSgoopmL8zypZ+HlB+pxeotwY6gv+6TAwHlCkAlBlXRGRgmF18F+PGMBxn3hyrQqB4GenrkGyV20EWeSBgvbiX28Us0qOC1am2gxz/oQMdNvs2qawG1Bym97EEAEbDwTB1AZgA9oEgShBTC475aoufz0xBjbK4e0pi5cPLzMtYBgNeVIJ9TvYqM0maS2BU+bzxOMaEX82biabSPSbvyiDeKjyra0LEr91URz3aXVdErTpnK+XMbRwtkbrav3V4du3I/o1sdGOgrTQ5aIGsHZ27z17Er9xXb2a6BbqCn5+SV+sJAz3LCMX+OXjxfmWC3wqsrwdyEvnZ7dezK/QJZORysopcD2nH+FWHzh/ljCg0I2cWOgW5/BrrzG49TiNPGGC4JFnzLoYFuoBvoC9KAkF3sGOgLCrJVxuEq41x9WfAth4OB/uCDV9zSfhjspc0L8+HcsF3y/JY8Nx1D7gvZxY6B3pGg6Lyli2XJ81vy3KhPvS34lkMD3UC3it6hgWNMFBrscl/ILnYM9I4g04nHGOyL2sS5YXvRvo7xfs7vGG27qE2cW21b8C2HRwL6C+5s84y7lUGHc0+5t9493LM/HXnRwBzj/Zwbtsdo30Vt4vwu2s8x3s+51bZCdrEzPOjvPu/OXvtuVTy3Xtq4sxsluN91bz3LX+NM2+88+1Tzl/6ffd598u7z7jtZUqglCTWGbx8Txo1nmn3q305C/yrZ0JHVYDfsUGOqPh58gPk95c5eeiqb+yev5cd+jEaf488Nc0zzw3gpBm1/dGHT6f8w32qCPsD80tzK+HTYmcUv3Qf95nNP1x4cYG7Up94WfMvh8KB/8IqrA10/j7bf8YlBi/oFd0boACf3GQDl1OD8ujglqfj2T7m3XnvGbV56QYRdhY1jqDfTFEvXWA0oxGbOJW69LcpetLvxTPTBK04Lpmu8oebWAF3sViJWPgmJK62+Sh/iuOELnRgOFDvGMNvWtJXNNfnAzyvGqqFH3jPx3DTg3Beyi51RQH/wAcWdHAUHQ7giUDoH21L8larSuA9wvISfBK70j/5qgkVgX3rB1cXYfEyg8zJxeLuRlJrtm+1ecQ8UxBoK2a/ZOuHcmqA/485eiiub0jbvv+fdW88S9BfcWz5Jh1XZ2WtYbW2yxIyYhESutDDh/CQmPTQWElQZ1zA3XSAQ09bKPuHcqE+9LfiWw5FAV0FVQAuI6pwPBIKggJXgxHYCRTxGP8iqt97lI0Jccj77lBeaTgq+LftWoOfiqy/j6MDSHh/olyB4VZmz5EQQQnLLxwq+8XPyYKS2GGfquTVBTysMsTH6L8QPvgo247pU75deSIlcQVXOfer5SexKjb373ewxje1uvaRA90B3Fyc9v6nnRn3qrZBd7AwMesx+zOrRUSKGDAaV+ZUw2toSXjhTnCv9V2DBWEqgfl+B3hxHBTgmFDqQIgjbelLw10phxHnJ+4bW1UTwxd8/wNyqoDPhxCU3gP7Oa8/Hx6kEevJHi/+pA5WgDxs7FqCoUxaAaJ+Os4e2M5mH5/W3kOyefd4dKnbUKLcF33I4MOjRkRB4ZekM5xFY7VS/dO9wuq8s2Uu8bS+NcuHJWAp0EZwPch1eOk/u/+CVuOxv9u+rWzFnn5SwysDytqgoAR6uSChAbKedWxvoftUi8wlgBJ8VoN94JsY0wrMpYswkLvGddn4hdsm2ZoKvrMpk3jouIfa5bvLrh4gdNcqtkF3sHA/oZbUvjvMEUX8HkIKagygJJj4veyiL/jeVZ246T0CnaDfPOJ/JG30o0Tz7vHvrtefdLV8NNeg10Wl7p51bHXTAGOYY/B7h9LBq0GFreFwKz6y1uamVm0+q085PYseqvWsR4n0xye5FaFcAABB3SURBVG8FvSVJlC8xYddFdUl96m3BtxweD+iS8cssGTJpF+h5ddRCRF84DstycSyD1xJ0ioMO5HF4fgsQ5J/512wM8xDbMJZfCoa3/0kwpb05CHK/t7lse/G51UB/Sx4hgi04hv/D/JUN/lFFJyl1jT5uvJiddn6MXdhyNVE8psWVXt42vEjdtgJIcUS8p50b9am3QnaxMzLoeeAboMmzoKqEW6pk+Jw7d2jebz5mcj6CzABHWCPoFHIZaDowP38R0OMnBPFZPolIwzLt3Bqge/8re+IqyPvA++sZdyZv3aO4Y8zObpS+b4o/xSMkwmljF8YMyV9prqPI6NjnSZd96e30saNGuS34lsPxQJfgJ0fkQU3ngzMhkuL5zldjJTqpEvFeCA/jPAvxMXBFe/Vczs8/5c1qBP0TVfV1YOk8fc4LVX8uHG2CCPJVR7BRxOHHwjL3GXdLw9M2x4nm1gC9denJeCWYMbf8Y6YQw5TAYkxqfU40vzx2eg7UC7csAmzT3EosSx2WxxPNjfrUWyG72BkH9JalUBvoOF97Rq4914TPMBmcAmrvcC7PQtJgcAg3jgFkEGl6M1++LINA6MBcLHlFD7a32a9e4PgqHu1tq+jZ+Wnm1ht0bVsNXO/7lASSz1SV031UkmVIoiG2jBGWxoPEjvD5AlSDOiYpzi2zlXqrb/3yPWs/XeyoUW4LvuVwHNDLDDfTYzovibaZ5ed6jXPDdq5z6LKb8+tqM9drnFttK2QXOwZ6RxKiI+cqiC67OTdsu9rN9RrnN1f7u+zm3Grbgm85NNANdAO9QwNdwB3qWg1wnhOyix0DvSPIdN6hAjrmuJwbtmOOc6i+Ob9DjT/muJxbbVvwLYcGuoFuoHdoYExg9+27BjjPCdnFzmCgcyDb2l8iNQ0cTgMF33JooNufe5aPEQ3QwwE6lO+F7GLHQDfQDfQFaaDgWw4N9AUFeaiqYP3Mt7IL2cWOgW6gW0VfkAYKvuVwJ9DlLtsxD5gHZuUBA31W4TJjzQP7ecBA389vdpd5YFYeMNBnFS4z1jywnwcM9P38ZneZB2blAQN9VuEyY80D+3nAQN/Pb3aXeWBWHugNun2JYr5forDYrSd2bdnHQF/QlyUM6PUA3RZrA92Atm/ArUADBvoKgtyW5e38eiq9gW6gW0VfgQYM9BUE2Sr3eip3W6wNdAPdKvoKNDAx6Hfc1fg/tVy9HbLs/eunbrM5deeftmVd3nPF3e0ISOin/of05X8IObuTifruGdqX/d5z5ycbtynatmXKMG7Zx7cOfZ9evxfH4xy0ffmcab/c8+lNdwpf9bSjzT4736ardZ2fBPQAFEWuoYhQndx09xXEeXve17LdB4TbV5zAHxNP2zESEiGUNmdXfMJK1zCnALNPYIR0s3H6mBCH/hLojfnG/mU8ZSP7MIDXBepF4z0J6MHIWqWMla4NVgLZdl0lh30cEQDTiQfiqdlJ2Nk2QZ0qejoXbMHxFXf+6T33KM7DQ/+QfSXQOSYh1onA7xeJcJ+52j3rTgyTgN6oWFySxspHAHIxRuBUNWtUuAsmgKpdHC/ru4Q/Qd0OehSWVHcmiW/dIznHpXnon6DDD962k5vuLh5tDPTskSvXyboB7uuLSUD3xlDcGiBf6RQAqkIHgLBcr10PoPH5NbVtWd4TXiaYOE7vik7bYz9Xb8fxdb9yTSWoCCjsqyczirTo7+xODrqMo1cBvNe2fcW+5naTgZ5Vzwh7VrU00Fyyi8BbANZJg0lC7q0liABFZkuPMdiegGtoU0XPgePc7vNRoDoObQygo6KH+07Di7jGPQb6mmG9yNwnAb1WcU+v3/QvtPxyNVZMLl3vnkHQrIyEQYOUV/TkAN4TX4JFyNhvaoe+2FaNhQrM6i3LZcCHTwbQZxj36nW8EQ/QJdBDfxwrgc5ncjUPjiGJKvZ7Oy7Zy4oudhnoeQy1Jmy/yzeTgB5Ef8VdjR9b3T274u56sVO4ETqBS4PYUs1R7QSUEGQ/jj7/6Z0w5kZ/1JX6Pj05jX3k49+/fsVdBdxiD0HcD/RH8Y18sFcnmCjOCD5WCn4OJehS2VWy4ArGtvb83kMDk4D+6PbNVKEjnL4SCkhR4Nnn6QSiJu4AnAZdVg2qz5Dh2A+rfBjLV15Z5pfJJCQgQkdQ96no5351AqCjzRFaVn5vo7cDY0ZbS9DjnEIiq/kjJoweAe/K+nZtuX6cBnQvwCTiUvT6bXoCgIBWhF0ufXksla8El8dcQZQBjWM1kgTb5ZD2XrpzdVGxL82TSQ7zDHbgmoc6s0f7j3bZ1pJTPw0cBnSpYNrIErZ4rF7SSdWOQOuXYqHabdRyW/cdP9I6ueLOb+Pbajm4OtHk+0wyoX1e0Zk88m0AOAErNtegjYnAt5EvycRkVF1ttCWqYq5W2W05X2hgQtBNjFZ9TAOH0oCBXmS+QwXCxrUkMKYGDHQD3Za5K9CAgb6CII9ZKazveaxEDHQD3Sr6CjRgoK8gyFZ151F1x4yTgW6gW0VfgQYM9BUEecxKYX3PY7VgoBvoVtFXoAEDfQVBtqo7j6o7ZpwMdAPdKvoKNGCgryDIY1YK63seqwUD3UC3ir4CDRjoKwiyVd39q+6f/PQP3R/823/gHnzwkvvqN/6a/8Hxt1/9wawS5CpB/78/+n333z++7v7bv/q7EjwG8Y/vfeX+17//R7MKooG8P8hdvvvmP/y6+9Gv/Tn3X//F33H/+z/9cwfo//CLf+l185N/esmf67r/mK4tCvT/83v/0QNMaLlFNkagfv47v+oBxvn//I83jR8EFfDj2n+5+7d9YI8pWGbLOECXfkUhgGZ++uFfd//v/s8ckv/Xv31T9IP2qOhIAGiH62Ufx3a8KNDbAL7/63/F/ey3rnmAsf3qN/5qA3LADdABOJMAsvahggghITlh5RFsDstGJi+9hc1ohwoEYR5CZKh28Bd9d9Ht7/+TPzW57zEHJPoff/8vSgVn4sd84OPStyguiAWgP+bl/CpARyCQeSm+H//gL8k+z2Fbgo5zEByAKwM8xjGWhYAaQtN27br/5a/8GffwN//mZHbDF9q/u9rb1h7xmAIeJHMAjfEAM4BH0oQftW010KkDPO4hbgD+UMWBttS2iwUdgAJwVBlWPwbt/j/7y/4clmYIHkSKdjXQeQ+EUHPgEOcg5jFAge1YzYwtPL0Kor+G2sJ+gDeEn8s+8FINCRFxxz7GYYWu2d8FOvsm8NAWlvs8f+jtokCH4JBRCTACg3Ml6Pd+7c9LG7QFZKikXaAj8Gg3RsDGgpxiRaUZw270CR9znLG2gHEM+1Gx/+h3/40HHIAiqXTNoQ/otBP9oi8eH3q7KNABNIKBHwKPbQn6j3/wnG+jkwCCvA30sQJ30aV6lzhxDaubMYQGOLaNPdT1MVZUiDf80tf/u4COfjH3Mfy+T5+LAh0BA9QIoBZYCXr57MW2hwIdy8U2m2jbvtsp3zHsI8BD3kPQS720+dpAP5IvnbQF7NhBh9jxnI6qNRTwAByrmUO9hT8kwH3HNtCd+/iVD9x7T567Hz73ntvog3IJ0NepU7SbK+io6No/+BwXn/nzsWPb0hLzRjLDewa8VMLzoe5vLNjbKt9Y5/Wchtg30BcIOl66UYBtVROB3/YGeQiBlX1gXHycU54f4hgf2eEThSH6KvugP7nlJx1IOvozdT5S4TzmyvZd21q7cvyLHmMM9FEbq2abLd1nsHTXAB8b6BQVgPgf//rv+a9ZXuQjJcCNyq7fIl8Uitr9tBtbQM6VCR5DCDo+UeBcYBfa6ftq+1jRYDysUPT1mg0XOQcbsdrp+6nHLqDDB9DZRewb8t5yJc5jvVpfxNJdi6YNdICBzz61uMr9IZ3Pvn739pPVMQG+/qgQQmv7wUdQhKu0Gccca8gtx9GQ4zN72oHkyvHwpaO2ebIfbFllcR/u0dfY11Bb+BYrKTwi6XHa9ncBHUlvrI9j95k/wS63swS97VkW8CKgDOC97/+FKjD8TLUtEeD+fZy87R5Ucdo2xhZJbpsN+1ynrfAvqjXA5DIYsOMcfnC9D+TsDy8l8Y5Cr0hwbR8bu+4B4IAXNrYl0H3OY0XCBNI1/pTXSsB5PEvQERQsE8vA0aFcov3kB0GEqIKEGkLkErMLPPY19BYVAPbsAgTBaNtivvDF0Layv7ZxxzrPcYfaAka8N+jbH/TVZ25Y1SC5ov++fY/djmCX29mCzmUjA6KXgvyCB0DndW5r7XhNb8cICJ9J0Tee7QAnks225bi2Sy/zcb9+0673x7B/rn0isSOx9vVPH9CxCoE/EA8WjmPwTwk4j2cLuhY/9msAHxvoSE5jfR8dIkb/xyC2Y7QBz+koAH1s6wM62uAREP326XOqNgS73Brold9XR+IYIzBMTnh5VX4Gvu94WCVg+chHgX37Wfp9gLxvItwGOlcHePY/pmU7Ytj2z0A/AOgEHoLBsyOEhRdcWIrr5b2GDysBXMcP2uO5vPYRlr5nqH3aO9V2KLt1P1he4z1NHzC3gY6XjlhBcfmuxzn0voEegdZLfLzxbRPvGAEr3yu0jb3veQh5DLtLe5BgkKDwo9+Yw7c8j/3yvtrxVMkKfgGgfap6F+iYF5LGMVZzzLHt36orOqpjTXw4NwYweOPeF4A2u9rOA3J+kWVo2/WY+rN0vFAk6AAcxxgbdtQA1v1gNcPVi/6SE9oMbT/7A6B4eYYvGfFcbdsFOh65oJs+CaPW99jnDPRKRZ8adAQZYoPQ2r4LoGHos4/EgTf3hGwMIdEOnUwu+oUZzJ+2lisrnh9ji+SCJMQkUxujDXT6GbZ33V/rc6pzBvqRgK4Djuc8PDPiiyOoiNuW9oAa7bBsBBxjvcHXNmIfoKMC44UWkiNsBvQ4z8/wcb7rewlMFnqLjxWxnGZfvFaOP/Qx5gFY25JjDXScQ5LGfPu+vR/a7j79GehHCHqfwB1DGwI41XaKOQNcJNYa7Bp0JDgkI0KOa1PYt+8YiwIdGbUUnV6O8fpPKn8cEoHjs2y5dEcffJm0r6Ptvmn+VPMQfga0tWU4QUcigFaQDKCLY4ccPmn7N8uXcUME2fqYD5BjxgqPQHgk0stx7KOKY1wUAwCPdmPaMVTfBvqR/IrtUAG1foZLVHixhmdvfILALzLh/QfeIeD8VO9ChoipgW6gz6IiDSH2ffvAS0a+EMVSHdV8374OdZ+BbqDPTrSHgmXO4xroBrqBvgINGOgrCPKcK5HZPsw7BwPdQLeKvgINGOgrCLJVxWGq4pz9aKAb6FbRV6ABA30FQZ5zJTLbh1mNGOgGulX0FWjAQF9BkK0qDlMV5+xHA91At4q+Ag0Y6CsI8pwrkdk+zGrEQDfQraKvQAMXBr2tAztvHjAPHL8Hev8++vFPxSw0D5gH2jxgoLd5xs6bBxbkAQN9QcG0qZgH2jxgoLd5xs6bBxbkAQN9QcG0qZgH2jxgoLd5xs6bBxbkAQN9QcG0qZgH2jxgoLd5xs6bBxbkAQN9QcG0qZgH2jxgoLd5xs6bBxbkgSrov/Kn33G4YD/mA9PAMjTw/T/7rnvvyXP3w+fec5vf/hu/6Q9wwn7MB6aB5WnAg/4/P/iZI/kW5OUF2WK67phipf7Tf/gj9/8B/ErcUzHTUbkAAAAASUVORK5CYII=;opacity=70;" vertex="1" parent="1">
          <mxGeometry x="940" y="600" width="250" height="272" as="geometry" />
        </mxCell>
        <mxCell id="R27VUwDnr8lnY172pskY-6" value="" style="endArrow=block;startArrow=block;html=1;exitX=0.5;exitY=0;exitDx=0;exitDy=0;entryX=0.106;entryY=0.996;entryDx=0;entryDy=0;entryPerimeter=0;strokeWidth=6;fillColor=#e1d5e7;startFill=1;endFill=1;opacity=70;" edge="1" parent="1" source="R27VUwDnr8lnY172pskY-2" target="R27VUwDnr8lnY172pskY-1">
          <mxGeometry width="50" height="50" relative="1" as="geometry">
            <mxPoint x="880" y="650" as="sourcePoint" />
            <mxPoint x="444" y="560" as="targetPoint" />
          </mxGeometry>
        </mxCell>
        <mxCell id="R27VUwDnr8lnY172pskY-7" value="" style="endArrow=block;startArrow=block;html=1;exitX=0.5;exitY=0;exitDx=0;exitDy=0;entryX=0.106;entryY=0.996;entryDx=0;entryDy=0;entryPerimeter=0;strokeWidth=6;fillColor=#e1d5e7;startFill=1;endFill=1;opacity=70;" edge="1" parent="1">
          <mxGeometry width="50" height="50" relative="1" as="geometry">
            <mxPoint x="754.5000000000009" y="600" as="sourcePoint" />
            <mxPoint x="754.5799999999999" y="532.9840000000004" as="targetPoint" />
          </mxGeometry>
        </mxCell>
        <mxCell id="R27VUwDnr8lnY172pskY-8" value="" style="endArrow=block;startArrow=block;html=1;exitX=0.5;exitY=0;exitDx=0;exitDy=0;entryX=0.106;entryY=0.996;entryDx=0;entryDy=0;entryPerimeter=0;strokeWidth=6;fillColor=#e1d5e7;startFill=1;endFill=1;opacity=70;strokeColor=#0000FF;" edge="1" parent="1">
          <mxGeometry width="50" height="50" relative="1" as="geometry">
            <mxPoint x="1064.500000000001" y="601.0200000000004" as="sourcePoint" />
            <mxPoint x="1064.58" y="534.0039999999999" as="targetPoint" />
          </mxGeometry>
        </mxCell>
        <mxCell id="R27VUwDnr8lnY172pskY-9" value="" style="endArrow=block;startArrow=block;html=1;exitX=0.5;exitY=0;exitDx=0;exitDy=0;entryX=0.106;entryY=0.996;entryDx=0;entryDy=0;entryPerimeter=0;strokeWidth=6;fillColor=#e1d5e7;startFill=1;endFill=1;opacity=70;strokeColor=#666666;" edge="1" parent="1">
          <mxGeometry width="50" height="50" relative="1" as="geometry">
            <mxPoint x="1374.500000000001" y="601.0200000000004" as="sourcePoint" />
            <mxPoint x="1374.58" y="534.0039999999999" as="targetPoint" />
          </mxGeometry>
        </mxCell>
        <mxCell id="R27VUwDnr8lnY172pskY-10" value="" style="rounded=0;whiteSpace=wrap;html=1;fillColor=none;strokeWidth=6;" vertex="1" parent="1">
          <mxGeometry x="320" y="280" width="1180" height="250" as="geometry" />
        </mxCell>
        <mxCell id="R27VUwDnr8lnY172pskY-11" value="" style="rounded=0;whiteSpace=wrap;html=1;fillColor=none;strokeWidth=6;" vertex="1" parent="1">
          <mxGeometry x="320" y="600" width="250" height="270" as="geometry" />
        </mxCell>
        <mxCell id="R27VUwDnr8lnY172pskY-12" value="" style="rounded=0;whiteSpace=wrap;html=1;fillColor=none;strokeWidth=6;" vertex="1" parent="1">
          <mxGeometry x="630" y="600" width="250" height="270" as="geometry" />
        </mxCell>
        <mxCell id="R27VUwDnr8lnY172pskY-13" value="" style="rounded=0;whiteSpace=wrap;html=1;fillColor=none;strokeWidth=6;strokeColor=#0000FF;" vertex="1" parent="1">
          <mxGeometry x="940" y="602" width="250" height="270" as="geometry" />
        </mxCell>
        <mxCell id="R27VUwDnr8lnY172pskY-14" value="" style="rounded=0;whiteSpace=wrap;html=1;fillColor=none;strokeWidth=6;strokeColor=#666666;" vertex="1" parent="1">
          <mxGeometry x="1250" y="600" width="250" height="270" as="geometry" />
        </mxCell>
        <mxCell id="R27VUwDnr8lnY172pskY-15" value="UCO" style="text;html=1;strokeColor=none;fillColor=none;align=center;verticalAlign=middle;whiteSpace=wrap;rounded=0;fontSize=32;fontStyle=1" vertex="1" parent="1">
          <mxGeometry x="210" y="360" width="60" height="20" as="geometry" />
        </mxCell>
        <mxCell id="R27VUwDnr8lnY172pskY-16" value="UCA" style="text;html=1;strokeColor=none;fillColor=none;align=center;verticalAlign=middle;whiteSpace=wrap;rounded=0;fontSize=32;fontStyle=1" vertex="1" parent="1">
          <mxGeometry x="210" y="650" width="60" height="20" as="geometry" />
        </mxCell>
        <mxCell id="R27VUwDnr8lnY172pskY-17" value="UCS" style="text;html=1;strokeColor=none;fillColor=none;align=center;verticalAlign=middle;whiteSpace=wrap;rounded=0;fontSize=32;fontStyle=1" vertex="1" parent="1">
          <mxGeometry x="210" y="820" width="60" height="20" as="geometry" />
        </mxCell>
        <mxCell id="R27VUwDnr8lnY172pskY-18" value="紫鸾预发布环境-门户/控制台/运营平台&lt;br&gt;&lt;font color=&quot;#ff0000&quot;&gt;https://10.0.45.193/&lt;/font&gt;" style="text;html=1;strokeColor=none;fillColor=none;align=center;verticalAlign=middle;whiteSpace=wrap;rounded=0;fontSize=32;fontStyle=1" vertex="1" parent="1">
          <mxGeometry x="590" y="220" width="660" height="20" as="geometry" />
        </mxCell>
        <mxCell id="R27VUwDnr8lnY172pskY-19" value="&lt;span style=&quot;color: rgb(0 , 0 , 0) ; font-family: &amp;#34;helvetica&amp;#34; ; font-size: 32px ; font-style: normal ; font-weight: 700 ; letter-spacing: normal ; text-align: center ; text-indent: 0px ; text-transform: none ; word-spacing: 0px ; background-color: rgb(248 , 249 , 250) ; display: inline ; float: none&quot;&gt;紫鸾预发布环境&lt;br&gt;- YFB节点&lt;/span&gt;" style="text;whiteSpace=wrap;html=1;fontSize=32;fontColor=#FF0000;" vertex="1" parent="1">
          <mxGeometry x="320" y="880" width="240" height="80" as="geometry" />
        </mxCell>
        <mxCell id="R27VUwDnr8lnY172pskY-20" value="&lt;span style=&quot;color: rgb(0 , 0 , 0) ; font-family: &amp;#34;helvetica&amp;#34; ; font-size: 32px ; font-style: normal ; font-weight: 700 ; letter-spacing: normal ; text-align: center ; text-indent: 0px ; text-transform: none ; word-spacing: 0px ; background-color: rgb(248 , 249 , 250) ; display: inline ; float: none&quot;&gt;紫鸾预发布环境&lt;br&gt;- CTO节点&lt;/span&gt;" style="text;whiteSpace=wrap;html=1;fontSize=32;fontColor=#FF0000;" vertex="1" parent="1">
          <mxGeometry x="630" y="880" width="240" height="80" as="geometry" />
        </mxCell>
        <mxCell id="R27VUwDnr8lnY172pskY-21" value="&lt;span style=&quot;font-family: helvetica; font-size: 32px; font-style: normal; font-weight: 700; letter-spacing: normal; text-align: center; text-indent: 0px; text-transform: none; word-spacing: 0px; background-color: rgb(248, 249, 250); display: inline; float: none;&quot;&gt;紫鸾预发布环境&lt;br&gt;- 0.6老架构节点&lt;/span&gt;" style="text;whiteSpace=wrap;html=1;fontSize=32;fontColor=#0000FF;" vertex="1" parent="1">
          <mxGeometry x="940" y="880" width="240" height="80" as="geometry" />
        </mxCell>
        <mxCell id="R27VUwDnr8lnY172pskY-22" value="&lt;span style=&quot;font-family: helvetica; font-size: 32px; font-style: normal; font-weight: 700; letter-spacing: normal; text-align: center; text-indent: 0px; text-transform: none; word-spacing: 0px; background-color: rgb(248, 249, 250); display: inline; float: none;&quot;&gt;紫鸾预发布环境&lt;br&gt;-CloudOS5节点&lt;/span&gt;" style="text;whiteSpace=wrap;html=1;fontSize=32;fontColor=#666666;" vertex="1" parent="1">
          <mxGeometry x="1250" y="880" width="240" height="80" as="geometry" />
        </mxCell>
        <mxCell id="R27VUwDnr8lnY172pskY-23" value="" style="shape=image;verticalLabelPosition=bottom;labelBackgroundColor=#ffffff;verticalAlign=top;aspect=fixed;imageAspect=0;image=data:image/png,iVBORw0KGgoAAAANSUhEUgAABJwAAAD+CAYAAAB/XR+eAAAgAElEQVR4Aey9PaslSZI2eKWZH1HaCKMkXKlKG1pIGC2lSpZWqlIpZSChla4/0FQOKXeVsLy80kwVVLKwM60ss6MULE1DF0PDaiPMCCsszTbV/RtiMXc398fNzSM8vu45554nIQl3D/987DFzczsRcR9++r//v+n//Pxfpn/5+3/mf2JADpAD5AA5QA6QA+QAOUAOkAPkADlADpAD5AA5sJkD/8f/8r9N/+//9f9MDxJs+uavv+J/YkAOkAPkADlADpAD5AA5QA6QA+QAOUAOkAPkADmwmwPfPf6v04M82cSAEwNu5AA5QA6QA+QAOUAOkAPkADlADpAD5AA5QA6QA0dw4J/+9psScJIM/xEBIkAEiAARIAJEgAgQASJABIgAESACRIAIEIEtCOhDTQw4bUGPbYgAESACRIAIEAEiQASIABEgAkSACBABIkAEGgQYcGogYQERIAJEgAgQASJABIgAESACRIAIEAEiQASIwB4EGHDagx7bEgEiQASIABEgAkSACBABIkAEiAARIAJEgAg0CDDg1EDCAiJABIgAESACROBoBP7y6/8R/jDJv/+b9vyf07//1VfTN3/1r9N/a9HI9d/+Nf6Bk7/6H9N//NdIg311dN7f/MN/th3912+n77esoe3piUr+PP3H3301ff/rPz/ReByGCBABIkAEiAARuGcEGHC6Z+lz7USACBABIkAETkRAgzUSZMJ0HNIGnLxgSCwrQappmjoBp9B/ExRKY4z+OWMbxNKxnPYyp//+B/8v1+B6q7/s8g//GoNsTn+5Xg7AxbXn8rk2eC+3t4Kt+2PQyeLDPBEgAkSACBABInA0Agw4HY0o+yMCRIAIEAEiQAQCAhhk0rQGUL7/9W/hCacUGPq7307//V/l6Zsc0MFAkAaBsEyfNJLAy9/9dvrLAfjn+UoAR/uHvvP9v/vt9B8p8NQGcWxQrc5rH7Fdfa+7BJ0Lrr9bWW/UwaYqgBf6W/mUmXbLKxEgAkSACBABIkAEZhBgwGkGHN4iAkSACBABIkAEtiOgARV84qcEO1KAJT2dU8pxPAiU6JM7TcAJ+tE62MXmtIxdXtsLwS8J8vw6vdL3D7+F+3EOxwec4vqrfnsBJ8EFAmJl2YDPX9vX6eCe27b0whQRIAJEgAgQASJABNYiwIDTWsRYnwgQASJABIgAERhCYCjgVAWJJABSgjxhEA2w6NNLVcAJAia23dAMZyrpOPi62mC6BM/S/PIaYb69vnLd8hqiPBWW+1Q8qvVCvxg4MmuoAle6dKzTvJKolXglAkSACBABIkAEiMB6BBhwWo8ZWxABIkAEiAARIAIDCOSA06/Tx7UhyPLv/5aeXsLAiQY/bOBDyrVM6+R29ZNIA9Maq6LjYABntmVaDwaHpk7AKQWVFJ+5V+q0zje63ibgtCPYlNaTX12s5j67WN4kAkSACBABIkAEiMAiAgw4LULECkSACBABIkAEiMBaBDCIod9t0mt+WkeDOhCIyoGV3oDaRgMwnXo5UIN9D6bLk0AliKRzn71CcMobv/5uVXmCaS7gNE0wB+m/CjhBsAmejIqQQLuFdUd5aHDMPGHWwZfFRIAIEAEiQASIABFYQoABpyWEeJ8IEAEiQASIABE4AAEIjuRvCaWgSBMsKcGY2QBPJ5BSAkY4bRjfGQ9rlnQJ2uQgWblZUhoEg4BTvKlBHP0od53XoNR8wGmaphBkko+X/9kEnOBemc3mlM7nm2F8Ng/FhkSACBABIkAEiMAdIMCA0x0ImUskAkSACBABInApBHIQIwWHSuCmBHO++Yd/nf7j1+Wv03lzzU9MaVBHgzyDwRGcR5mDNxKWlTnOttG56NxyF3WAadJX7DqBshBcW1pP9YRTHuigxH9O/96s4aCu2Q0RIAJEgAgQASJwdwgw4HR3IueCiQARIAJEgAg8HQI5UGSDLPpKXAigLL3GVQI/7bec9OmhmTVpkEbmoN+CCtVjQKgfTIJx7fy9fBOssQGneo4aBPOeyNJ7W57wKmtM43tz9cqWgl319JkjAkSACBABIkAEiMAsAgw4zcLDm0SACBABIkAEiMBeBDB4YoMrf/m3f52+/6uvJgms2Htl3BI4yXX0qaLFIElp+00VEILy7seyS8CpH5Qqs2xTaYzOHBWXvKa2g7ZEg2casGtrQImOvxDQy30OBO+gdyaJABEgAkSACBABIjCHAANOc+jwHhEgAkSACBABIrAZAQ2orHpKpwoKpaE1uISBIS2DYE54mgry1Qe3q3JYkvaDfefbJeA0uoY6MKUBHw3k1EEut8+lQFIODi0EkcIadPyFurlPnWcGgAkiQASIABEgAkSACGxGgAGnzdCxIREgAkSACBABIjCCQAg85UBKCeLUwZlpkoDRv//6z9NfTKf5tTwMRmmgCAJJuV54ba6M4wZ2vFfKmqBT6cPOtZ5ir54GfOSD37+dvq9e5ysfRucTTjWazBEBIkAEiAARIALPAwEGnJ6HHLkKIkAEiAARIAJXiUD1lJMJBEkQpw5GtUvA9lXQpwk4laCPBnByAKoTXOoFoso4pc9S1s4Rn6TCejj3MBYDTh54LCMCRIAIEAEiQASeKQIMOD1TwXJZRIAIEAEiQAQujUAO+IQnk/5z+u9/kxmlIE564ukv//XnacrBo/rVLwzYYCAnrKt5DUyfJoI+mjpziMR51eOUgFMvOGXLtb2uXYNfQ3+hTgNj+CSXnXJeE6zT1sn5gVf4dEy5wtNiuQsmiAARIAJEgAgQASKwEQEGnDYCx2ZEgAgQASJABIhAHwENFmkAJgeaNMDhBVVS4EnaaMBmLgiiY1RBH/MUUX+GI3dKwKmsw2s3Ws9ru7JsS8Apv87YGSv3yW84dRBiMREgAkSACBABIrABAQacNoDGJkSACBABIkAEiAARIAJEgAgQASJABIgAESACfQQYcOpjwztEgAgQASJABIgAESACRIAIEAEiQASIABEgAhsQYMBpA2hsQgSIABEgAkSACBABIkAEiAARIAJEgAgQASLQR4ABpz42vEMEiAARIAJEgAgQASJABIgAESACRIAIEAEisAEBBpw2gMYmRIAIEAEiQASIABEgAkSACBABIkAEiAARIAJ9BBhw6mPDO0SACBABIkAEiAARIAJEgAgQASJABIgAESACGxBgwGkDaGxCBIgAESACRIAIEAEiQASIABEgAkSACBABItBHgAGnPja8QwSIABEgAkSACBABIkAEiAARIAJEgAgQASKwAYFVAac//eGPE/8TA3KAHCAHyAFygBwgB8gBcoAcIAfIAXKAHCAH7psDSzEoBpwYRGMQkRwgB8gBcoAcIAfIAXKAHCAHyAFygBwgB8iBVRxgwImEWUUYRqjvO0JN+VP+5AA5QA6QA+QAOUAOkAPkADlADpADIxxgwIkBJwacyAFygBwgB8gBcoAcIAfIAXKAHCAHyAFygBw4lAMMOJFQhxJqJMrJOoyGkwPkADlADpAD5AA5QA6QA+QAOUAOkAPPmwMMODHgxIATOUAOkAPkADlADpAD5AA5QA6QA+QAOUAOkAOHcoABJxLqUEIxQv28I9SUL+VLDpAD5AA5QA6QA+QAOUAOkAPkADkwwoELBpy+mz5/eJg+/uXvcsDj+08fpoeHh+nzr48RXuzvs+n7P/xx0r6lf/zvjxXn9vD4q+n3DEhl+YwQinWO4S5xJI7kADlADpAD5AA5QA6QA+QAOUAOkAO3zIGLBZx+/8uPU3Dpd9NXj3UQCANCGJBaDfTXn4Ux3D7SPT/gpHP6ePrqNyT4atwZpGOQjhwgB8gBcoAcIAfIAXKAHCAHyAFygBy4aw5cKOCUniD69Lvw5FEICP3mV9PH5omnzYGOHExKgSPvSaVcJwaUNACGwa42zQDUZpnQ0Ny1oSFvGLgmB8gBcoAcIAfIAXKAHCAHyAFy4L44cJGAUwzuSPAmBp7kKSN8/e1PIfi0I7hjgkkuqU2dMiefAEv33TEYZGGQhRwgB8gBcoAcIAfIAXKAHCAHyAFygBwgB+6QAxcJOFXfU/r0u+lPJvgTA07ymt3GoJPtzxOsqbMUUFq6z4CTH6gjLsSFHCAHyAFygBwgB8gBcoAcIAfIAXKAHLg/Dlwk4BSIFgI+MaBUBaDMR70f0mt37ettne8+eQEsBpwYTfY4wDLyghwgB8gBcoAcIAfIAXKAHCAHyAFygBw4hQMXCjiVbzhplDM+QSR/US7ecz/0PUoC8/SSjlFdTZ04fieIlYNgG5+4Gp03651C8kruxJgYkwPkADlADpAD5AA5QA6QA+QAOUAOkAOnc+AyAacU7IlPLUmQCb/hdJmAU/UNKYd4fKXu/h7/Y6CKMicHyAFygBwgB8gBcoAcIAfIAXKAHCAHtnHgMgGnJqCDTzyVgFMIAskrck39hcWap5fc9lWd9Nfstoy1dm6sv16exIyYkQPkADlADpAD5AA5QA6QA+QAOUAOkAM3xYGLBpzq19j0dbWnCThVTyxVwaeFYBYJflMEd4ONlCFlSA6QA+QAOUAOkAPkADlADpAD5AA5QA6cyoGLBJz0I+HxO00xwPT51xroSU8bpe8mlXK9P3DtBJDqANfDJB8kl4BEKH/81fR7ku1UsjH4M8BdcpAcJAfIAXKAHCAHyAFygBwgB8gBcoAceAYcuEjAiYEHBh7IAXKAHCAHyAFygBwgB8gBcoAcIAfIAXKAHHi+HGDA6RlEDamgz1dBKVvKlhwgB8gBcoAcIAfIAXKAHCAHyAFy4BY5wIATA058VJEcIAfIAXKAHCAHyAFygBwgB8gBcoAcIAfIgUM5wIATCXUooW4x6so53/avBV/+8D8n/icGezjQswF7+mRbcpK8Igeeqx3ocZvlt+1PUX6UHzlADpzBgScNOH35w08T/xMDcoAcWMOBJcP3XB16ruvpDqs9jlEGTyeD54g1eUX+PEdey5p63Lbla/Z61qVveE0csFw+K39Na+ZcqINbODCiGww4MQjGICA5cNUcWDJkz9Wh57qe7rDa4xhl8HQyeI5Yk1fkz3Pktaypx21bvuXwwjY89F4DByyXz8pfw1o5B+rcHg6M6AYDTgw2XHWwYY8CsO3zMKBLhuy5OvRc19MdVnscowyeTgbPEWvyivx5jryWNfW4bcvphz0PP+we5Wi5fFb+HrHlmp+XXRjRDQacGHBiwIkcuGoOLBmy5+rQc11Pd1jtcYwyeDoZPEesySvy5znyWtbU47Yt58HyeR0s70melstn5e8JU671edqDEd1gwInBhqsONtA4PU/jtEauS4bsuTr0XNfTHVZ7HKMMnk4GzxHrZ8Wr9z+bHl79gn+ggX+kInCgx21bvmavZ136e9fEAcvls/LXtGbOhTq4hQMjusGAEwNODDiRA1fNgSVDdpmD6j9OL188TI/vZw7k3/58+igd0L54+zfTR2//MR7W3IPbL6bHh59Nr+UwI/c1DYeb168e5g98Mt7Dw/TR21+EuT08PEz1/9S/9Alzi/j9Ynp88fPpCxivxVXnKFfbt+Sh/9l+ZjC7ULsex1oMnmLu5FbN29vl1nXxai93Re//Znr5rd+P2LhWbtZOFBsh9Yv97NgUtUnJti3335/fOl0e0EG1Ve9/Vmy7loWr9HHUfHzM163p2D563LblWw4vbMND7zVwwHL5rPw1rJVzoM7t4cCIbjDgxGDDbLDhi7efTB+9/XGmzofq8Pn4/qcpHIybA+mb6XWFtbT7ZHr57YCSv38zPbx4N33xw0+TzMd3Om3/2u+P08sXg+NU89P2vO4xQke0XTJkT+J0hyCQPTz5+XyIgqDOqoCTHFbCAetn08uFQ5wEscpBTw9zctDRtB4yNFiU8jC3iN9ywEn0Oq+tOljpGPYaD23tUxGpHGwE9ivj5ODc0Dh23PX5HsfILQ0iKJ/IrTWcuCivdupOsSu+ndN9WHW1snFqw6onoix30OZgWvUXyip7Fe0H2owoEylfEeAJNjbVD+n5dcb1lv7zepuAk867ns8l7Noarq6t2+O2LT/CB7jZPr59N3306kPyn8UX7XHM8V/F781to18t/nWDBf3jFpODfHnL5bPyjUwPmv/N9LtJT+QMCXojfcg5Ua8WQ+rJaXoiPBvRDQacLCmZnwnqlM2yBKE+TI8QDIoBJxvgkY0WDMMPvaCU9m/b/zR9aTbf2pAaw2NlCIambuds3rYt86caqRF5LBmytY7ypvrNoUIPRfVVDiFyEKqDrjFwpAez8ASTHsTy004mIGQOi+Hwp23MvbgebG8PdjLHct+bmx4ey7UcrKT/TYclOcS9+Jvpo+bJp/ogFoNrZbxNY7mY1LKZk3uPY3NtDrtHbq0PMN4Ity7Kq506obZslOc5AKPjiowqm6V2Sa661z9MD+EpJg3SiK1RW1DK8InM2n5pP9LG2BWdh3st9jCsL/Bp6QlPMzcImBe7KYFZnbedj82P26dRGTxlvR63bfnIHv+c68iPpG6gqPEt5wJSynO4Jr87YEf/+BQ/1XL5rPxz5v/o2sb1JJ3b3r+pHoaQfSHrmbmX50A9OUVPBN8R3WDAqTH6DEIsKn6lzCMBpzogFBzGV2/q6HSSQ7ynvwiJLOq22XBUcjN1xKi4zmBns676ovx9jC+Hy5Ihe0onG8dqDlj2YAMHrhAwSpyUIEx46keCTfrKSA4IxcNYDk55wZ6qXayPfN/0Sl114JI+9YmW/xmeoNL5lMPg8mFJ8YmOANZvD15Sp4xR0oj3mekex84cc65vxa5bh9wKfLl2bl0br7p8srbrh6j3EjwvbTSQkspysDzm0cahParTxa5Iv6FNCEqVvouNKWUx4PTzEqjKdhPtU2tXytxxHdimLu/Vt+Uy74xNEzDWeTvzMZjZfm8p3+O2Lb82f+Lp59P+4Do0B3M4jrbO+mHG93V9WVOH/vHwodty+az8EB9c2Vo+3HJ+jZ78OL18JW+9SJtPppfv34XPSdR7TTrvhacEjQ64WJo61JNhPRH+jugGA04u8W5ZaffPvf/aWgnYVE84QXAHn3DCfrS+lGk6BpNSVFoeg3yACHWWizECuRzXaepUATGsp+kSJKOhV0yu97pkyJ7MSZfDAnDdS+dDiBzgTFBAAyrxG032e0z1L+7iXEpQavYQh08P6NywzDlEZqzS3F6/SgfAmYCTtpG5yBrC3Ho45PHhsCVzgwPilz/AvTRH6VPxwbSOffa1x7Gzx839q/x6uAbbCIdjcit+S+jKuXVxXs3ZgIV7MaiCdqnW2yrokoJHqsOB18DRyHNpDwGnwHnNa5DGPEWkdsP2JXnVFc/mzK7NzEMDX9rfwrUf0I/+0Udvf56+h1fjFTFAPEGfZ+d7nfV63Lbl9LGibzW7bwrn5GA8cshN/IxPcxjfl/7xqkPyEjctl8/KL83jnu6P6kng//s30+P79GRgfuIvBaGqz7VQT87m0IhuMODkGujrPXyfTRrp//gnnDp4piATHtzzI5FZLjQUTyHzax5jyZDlQ/vZTrv5JVsDMDq+PYDFV8XkEDLzSl2e84aDyPuf5V/ZX0swKIwjY/UDY/FAKAeheDiSAFnY4OXVt+rgpgfBdNgJBzxTluZucQh4VIEAWZu+JiP9mYNY6Lvcv9eAEx7WLabkFhy6b4hbPdulNuOar8o50UcNpJe0H7TRemFdNkgU9D7ZkCZgNBJw8p9wygH8Fz+bHke+4SRjayAr21/gl5Y183fqSF2zL4TXl0P/xs6FflvcrpkDc3PrcduWX7Nvcfbcwt6qwaTKp3U+GyH304+lXR+8uU//+EwZWi6flT9zDbfQ91o9qeoHnXhXfUsYz5TxAQfqydk8GNENBpzyJtAJitzh/e5mp1hUTxCVp4W0XTYG1S+FssGmSLSW54h0wb5qy0chD/215myDc1b/S4Zszik+9F74Rb485Yebmqb1wJV5nII4VQBB+snBHT3EmIAT1MmvmOjBpjkI/WJ6Kb+qh28l/WJ6hL6rcfOB52+ml+/r76tIvYccFDKHonw4HA84yfoxgFLnpX/EsQSbRF51XcXn3GuPY4fyRw+y3pXcin+h0WDT8rflR82X6+LWxXll8FzDZ7Q7aq+yPBoblF6P0729e402JPStNijYNX0qSOxg+10nfFo0BqzRfqhdEtnXtsRdr8y9E3CS9akNr8e09sfyTOcjc9HgmTcfr8z2fRv5Hrdt+Vl+wc30Kz+swse/xU/Wp/zFdrU/ss79cRzZV/GP+Gw7SKu/0r06vvnN4K3nlAOulstn5e8R22bNa/Xk2x/DH5KK/ZRz6Jf6mt0BTzh19UP3N+pJPqOO6AYDTgcYpUZxbrxP2RCXFK1serLhqbMVN8/Xrz6ZXr7FD7rNbIpV8KoEngqmM20zznUd3NBLP9g3GicsZ9rH67K4LBky91Cx46DV7U8DPqnvfPiCfD6sSBkcyqq6EEwqv4bXAady8IEDio4P/cpcv3j7s+nlt9g+HdpAL6M+w2HM9BEd39ju8b2MqYc4fcUF+68PRNXaAha98bVPWFPCDjGvAwj1WFjvyHSPY0eOMduXyha4hAG7woeEB8ivwp/cmg06PDW3Ls4rR79meZjro46C7id+NXxMgeKe/Ytj1nYF7WO2g9K/PG0ZAkIauKltaTP/b/9x+iLMG+c8YzdEd9yAk2kv9awNze1gLVl3tUznbfrLc1Q7ODPHLIfrrdPjti2/Rp/iSedUHaSt71n7ruvnNdK+rkP/eNyftVw+K79e7uNruJm+1+iJ1FXbHII+wvFyDsXz69YnnKgn6zg2ohsMOOWgxTpwb0aJN6xPFM371SWvuQoSlQ1U24WA07dlk6sV1zzl5BoJfNy49JPHb9ZU19F59OtT1reEzZIhaw4gZznrchhy+Vo2ut6BKwcF5HCiHw2XeebDDxzqqlfOoFwPNjnYEO89vpW/rgT1YP15XCgLeOU+0hyqvySnByU9OMmhx+9f+mrGCDjZQ5W011dztH//MPXUQQFZQ49j5Ba5tYcDF+eV1fvhPOq+1VfJW/12ytDGhHFNnea+2ggcO9mIXDfWUTtc2dvKbvq2JcqyY8uSfc995jG9vmAtapfxlcG8XgjyhzJnbcMy8eZxubIet235Lfkap8wVDtJfvH0zvUxPXsg+pzwO329Sv3bgO07FP699X3/+dR36x+P+v+XyWXlfbuPzfBbtV+iJcLjSGfnjUvlpo2O+4UQ9Wce/Ed1gwEmNPK/50bhFRcOAkxiJpOjaLgac4vvoYUPNhsAS2DMMUvZmep3lUW+WvmHFOra9HZN5H8PrxWXJkO05EK5qmw8W0cm3gRbJ58OKHCLgwCL3oi78fPpCDjb62ltOwyFI2qUAUHBKoW546iX3i4cXaA8HGDvHvF7sIweCyuGleuVFD0pVUKrUtWNUc4a5lHI5rNmDWOlP6uHTPXnO0NfRZT2OHT1Otz9ya+iVusKhwhfBtJRfF7cuzquNOhPsldod20e2HSADsWP56Z9U3tSDII30ifcl/aB6b+ya9Jvu5wN6N/Dftyuoe8KXylaHgLq0jQGt2s7COjMWsBbR3Vc/i7+4Vxg4XMz23uvztsp63Lblt+ZvHD7ffJAWP7UEmUrQ6Kcp+8zi96J/nf3g4p+pnx3nib5vqVOvAevQP66x6WEWyy2Xz8qvmdOzrbtWT8JfMI/69Pj+6IAT9WQtz0Z0gwEnx6CvBfq51ZcNbcmx01fqpC6mZRPVzbP0g08sJQMvxmXor9LhZtnbHKCO/DoE78s/N9nc43qWDBkeJJ4ybQMtOHY4sOUDVDwQlwNOPNSojpXyeODQw145RKeDSA5KQPt8KNSAkxxyilOrY+Tri59PL9Mvq3KokjHc4I4cjKpAlPavhyKYQ/72k967vWuPYyjTp0yTW8rhsQDCU8pmzVjXxquxuZdAidqxbD/gwJzLXv0i2BFrx3JACYNFGJDRgFOwNfjElLFhYuO0bg74eDamzHt5nb9If0ku9mMDUMH2emuVsmxz0xyyXdY5wfxxvcNPYGk/133tcduW36PPktec/FzRFfWT873e2ePMJ5zoH+cf1hflMPin3i3ft+RH5vKs66zUk2if7YMJ6jOYa37lDut7Z0meI/dwbIT3DDj1jP4dl9e/oDiKCb/AxOCSRINFyWNgKTtrOfAjiiwfAn03faGbKT71BMam3ZjBCBiZ5HGCE/ghbCQa7NqjOGzryNxg/5QYLRmy5cPFdTvunP/l5dPjGGVzedncsgzIqyvmTxPoOneu4q+4wf3ZINq5c9qjWz1u2/Kn9BWubSz0Ryt/1Qtmqr8M/rW3nto/p3/sYXRUmeXyWfmj5nur/WzSk+pMgk84eecX6snZ3BjRDQacKtJ6RGXZ2URl/+TYHAeWDNkep5ltr/dA85Sy6XHsKefAsZ4fF8mr5ydT6mmUaY/btnxub+c9+n7XzAHL5bPy14wB50YdHeHAiG4w4MSA06pHTEeIxzo0UEdyYMmQ8QDAQ91eDvQ4trdftr9vbpJX9y3/56z/PW7b8iN9AfZF3/IpOWC5fFb+KdfEsahDZ3BgRDcYcGLAiQEncuCqObBkyJ6zU8+1Pc2Btccx4v80+D9XnMkr8ufeuG05f8bhhn3y0PwUHLBcPiv/FGvhGNSZMzkwohsMODHYcNXBhjMVhH3fhgFeMmTP1aHnup7usNrjGGXwdDJ4jliTV+TPc+S1rKnHbVtOP+s2/CzKqZWT5fJZeWLfYk9MbguTEd140oDTyIRY54/DGzmxIlbkADlADpAD5AA5QA6QA+QAOUAOkAPkADlwjRxgwOkPJOY1EpNzIi/JAXKAHCAHyAFygBwgB8gBcoAcIAfIgdvlAANODDjxiSpygBwgB8gBcoAcIAfIAXKAHCAHyAFygBwgBw7lAANOJNShhGL0+Xajz5QdZUcOkAPkADlADpAD5AA5QA6QA+QAOXAUBxhwYsCJASdygBwgB8gBcr/QwA8AACAASURBVIAcIAfIAXKAHCAHyAFygBwgBw7lAANOJNShhDoqEsp+GFUnB8gBcoAcIAfIAXKAHCAHyAFygBwgB26XA4cGnJY6430iQASIABEgAkSACBABIkAEiAARIAJEgAgQASLwL3//z9M3f/3V9E9/+830gBlCQwSIABEgAkSACBABIkAEiAARIAJEgAgQASJABLYggDEmBpy2IMg2RIAIEAEiQASIABEgAkSACBABIkAEiAARIAIVAgw4VXAwQwSIABEgAkSACBABIkAEiAARIAJEgAgQASKwFwEGnPYiyPZEgAgQASJABIgAESACRIAIEAEiQASIABEgAhUCDDhVcDBDBIgAESACRIAIEAEiQASIABEgAkSACBABIrAXgVUBJ/65wtv9c4WUHWVHDpAD5AA5QA6QA+QAObB0eCBHyBFyIHJgTleIEfWEHFjWE9EhBpz+QGWhspAD5AA5QA6QA+QAOUAO3AcH5g7Rco88uA8eUM7Lcp7TFeK3jB8xug+M5vRE7jHgxIATHQtygBwgB8gBcoAcIAfIgTvhwNLhgIfE+zgkUs7Lcp7TFeK3jB8xug+M5vSEAac7cSyo7Peh7JQz5UwOkAPkADlADpADSxxYOhwsted9cuxeODCnK/eCAddJfV/iwJyeMODEgBN/zSQHyAFygBwgB8gBcoAcuCMOLB0Olg4XvM8D6L1wYE5X7gUDrpP6vsSBOT1hwOmOnIslovA+jQk5QA6QA+QAOUAOkAPPnwNLhwNy4PlzgDIek/GcrhDDMQyJ0/PHaU5PGHBiwIm/aJID5AA5QA6QA+QAOUAO3BEHlg4HPCA+/wMiZTwm4zldIYZjGBKn54/TnJ48YcDpu+nzh4fp4fFX0+97G/pvfjV9LHVm/n/+dRHY9586/X39WWiP9WqS/2766vFhevj0u9axSuN7bX//y4/n595bE8tbnIkJMSEHyAFygBwgB8gBcuBiHFg6HNS+c/G9bXnwj2f89uDTZ587+uDqZwc/3m372fS94Ubt86czRe43zW/gHBHPGB9PX/2mXRN9/RYTK+97zM/pyho8TtcVewYO+Y+nr76W87XhPHXlYrZ3DWduqe6cnpwXcEqknwse5Xu6YSTyf/zL3zUkUCXVTUoEUDaftPG4m9bDFPuLdT7/2gk4VQr5MOEYMo6OLfO1926JCJwrN1JygBwgB8gBcoAcIAfIgaXDwSkcyWcDc/g1wSUdux+Qcn6cdn/QTj6/e6/mAH39Gg+VAa9/nFWV0/BZqSsyj3IujrLM+d98N30uD1vM6gF15TRZduzbcxtvVlGmafqXv//n6Zu//mr6p7/9ZnrAjNdwPThCYLuxSPDHlv1x+tOKgBNuQh//8lfh6ak2UBWDTKE8K67dpD6bvu8GnJLySSBLg2KBNJ353wmh1nOAmxgxIwfIAXKAHCAHyAFy4Fo44Pn4WHbaPMXXf/xs+t55wmhuzHx4zn649c0jt0LgKB+s20N06Kfy6enrz+HOexcKOAnP1+hKPkOnM/Gnn3XfGtLzMnWF+9GR+o37h5fGGNPxAScN9GTjD08MVQa/BJzyk0/OE0v4hFG9+ahixlf2ghJB/2WDSRsL3PuTF3BKiitzUcXMQpFHEyVS7N1j0Kl5Oi3jRmyIDTlADpAD5AA5QA6QAxfngHcgwLLTfTc9Hzi+fjgHiJ++VAfaRl/9d9P3n36cPs0hr+VhwKkElj5+/FV8ZY++/sV5eDrPDrA1qBc2/STzX9KDT7+LTzc9fDZ9JZ+AyVd9MwcewMh4UFeeRHYZ7+cf3LK6YfPnBpz0Eb/8OlokvSiDfT97reCrgJMqY/jVBJQoBLrKJuMFsz7/VL77pO+4RuXER2u9NljWBKTuiFxrZcb6z9/gUMaUMTlADpAD5AA5cN0csIcBmx+R3xpf+eHTX8VvqIYgUTkDBF8+nxEMZsG3/zj+yIs/FCc/O54DPg5PclS+uLSTtyv0MxoSYAoHcT2Ax3HWzL/qn37+XQWqrG5gfkRPpM4arm3RFdUjOZ9+PPN0U7iPn66hrtwVl0f5uqUe6oWXPi3ghOTHAI1NByOuASPza4WnoPqUk+1fywtIfkS3+Wh42tDiR9Xqzaj0ZTZB2Ow+/vS7/ofQuSlRkckBcoAcIAfIAXKAHCAHrogD3oEAy5b83+Z+9uNLMKmpk3+ETnX0CaP0FkTw+eGNiNh+/kfjo75L481Vy+S8QV/fPwcpRs/5inph05vWfZKuxDOzfLLmu+mrFHSKZ2PvPGzliU8D2nvjeerKOFabuHNFe4idv9UNmz834NRsHB1BJOWzihGVJ21MuQ5sPiv7t8Gu8KRV6Ld+wklA9IJdtj1/8ejI84oVwioI85QhOUAOkAPkADlADtwTB+xhwObXYVH88ujHx7znI8cfi8Wvt22K3+21G5mP/SHa+uxVPj0xRV+fer/ELasbmF9q2963vD9KV1K/+iRgCubac7XOh7pC3isXjrqiXnjpkwJOifgrA0JWMfyAUyRJUJbUf19xMFglUV9QyBBo6n80vBq7CaCMRItJ5qNIzH7IJXKAHCAHyAFygBwgB47hgHcgwLI1OGcfPB9201/Fcr51GuvKR8PlT7XbP+SjP/7qHxZKPntTz7TrnjWWzyL09Y/h0xq+3Fpd1AubXruW03QlPZQRg6o9/Zr7/jB1Za0sWb+2HVY3bP6cgFPaSIZ/pchPL8nkSzCn2giqOu2ff4yCL20rIoS2nYCTBpOqaLD+0pICVlonXzvj5Pu1EKq5sA4fqycHyAFygBwgB8gBcoAcuBAH7GHA5kf91uine39yvQSL4o/J0S/OAafuutG/XjoE771PX39Uzvdcz+oG5tfgcqquhHMunFmrMy3qVO98uqRL1JU1sr7HuqgXXvqUgFPcUPQXih65oTwFk/BxVwlWZeWEXzd04wpj6K8peePqKJUNOGl/+KtIpZyqWOZXFG2XrsMBtTw/WDPL6GiSA+QAOUAOkAPkADlADjwxB7wDAZYNHZiS34y+u59O5wH09Rv/3fOPS9DK7zf56OjLVziOHqLp6w/Ju8LWk9fzLEO9sOlh3E7XFcE+noFFVz7/ZXyC0L451J8vdaWPzfPk9dHrtbph86cEnP4kijW0mSQhpk3IKkbvCSd9JDEEfHADMwGhsEFV80gKhWVoBGDTqsZujGwnsNXUI0mPJjT7I6fIAXKAHCAHyAFygBzYzgF7GLD5UWzVH+9+vFt87MfPwl+Mk7ro588GkYKfvnQI3ntff1yGJ0MqP56+/igPnnM9qxuYX7PuM3Ul9g08xrOtPRvjGTjzfUmXqCtrZH2PdVEvvPQ5AadM4O2b4T0Ki2smX8gBcoAcIAfIAXKAHCAHzuSAdyDAsjPHZt/k9i1xAPXCpm9pHZwr9e5MDljdsHkGnBgc46Ps5AA5QA6QA+QAOUAOkAN3wgF7GLD5Mw8m7JsH31vigNUNzN/SOjhX6t2ZHEC98NIMON2Jc3Emydg3jRg5QA6QA+QAOUAOkAO3wQHvQIBllONtyJFyOl9OqBc2TfzPx58Y3wbGVjdsngEnBpz4iyY5QA6QA+QAOUAOkAPkwJ1wwB4GbJ6HvNs45FFO58vJ6gbmif/5+BPj28AY9cJLM+B0J84FFfY2FJZyopzIAXKAHCAHyAFy4EwOeAcCLDtzbPZNbt8SB1AvbPqW1sG5Uu/O5IDVDZs/POD05Q8/TfzfYoBCJj4tPoIJYiRp4kSc9nCAfPL542GKWHn3WRaxJE5jnCJOxIk2Y4wDZ+GEOuil7WHA5r02XtlZ82e/0ScmDufpkcdnr8zqBua9+raMMjxPhoKt4E2Mz8fY8trmUS+8NANOTxQgQ8FQMXzFQIwkTZyI0x4OkE8+fzxMESvvPssilsRpjFPEiTjRZoxx4CycUAe9tHcgwDKvjVd21vzZLw/SZ3PA47NXhnph0159W3b2Ou69f8H73jE4e/2W017e6obNM+DEgNPVKKol8NkKdKv9E6cxR544jeEkeoBY3apePMW8idMYp4gTcXoKfeQYfZ6hDnppexiwea+NV0YZ9GWwFxvBe28fbN+Xj8dnr8zqBua9+raMMujL4AhsBO8j+mEffTlZTnt51AsvzYATA05Xo6iWwFR+X/mJk4+L5QtxGsNJcEOsLI7MFxyJU8FijhfEiTjN8YP3xvixByfUQS/tHQiwzGvjle2ZI9vO80DwJkbzGO3Bx+OzV4Z6YdNefVu2Z45suyx/wZs4LeO0ByPLaS9vdcPmGXBiwOlqFNUSeI9yPOe2xGnMsBKnMZxEVxCr56w7e9dGnMY4RZyI015dY/sxDvVwQh300vYwYPNeG6+sNz7L98lP8BO8ieN+HHsYenz2yqxuYN6rb8t647P8GNkK3sTyGCx7OFpOe3nUCy990wGn168epo/e/ngTREPh9AR67+WIkaTvHY/e+onTmGF9fjh9mB4f3kyvqyC5lH0yvfx2DJMRTvXqDJe/fzM9vPrwLPUXOTWMRyUvkBNxGuMIcRrDqcczlt8lfmirvLR3IMAyr41XttsOkp9dfgrexBf2zIO54vHZK0O9sGmvvi2jDM+ToWAreBPj8zG2vLZ5qxs2f7mA07fvpscULPri7SfTw8ND9//j+5+mL799N300U6e0Lwey16/gICZOa6d96P8HObi1c4j3VJA/Ti9flP7XEBwFM9xueM2wTjHI79/kQFzA9sW76YuOob5WjI40IIJBlqNg2sFDApiWI4+v6sNzqJMP0z5nbB8PTZBA+bTtilw6Difhdrv+di3ANQ/LmcOhyEEDxJgWfah42OHqsN6k9rtwctchGMH6m3l+mB6VW4JN5okjZ7B/dl3CsczXPIYvn49eOLZT55DbOuObe4iVnc/6/HwQLNgkx9bWXAM7G2w35MPcIx41Ti1GQX/dsebk2MfranGa2d9qXAu3Kh1Evrp49zHx+HG1OCnvcb2SXmuj1T7sxOpYnNbJyJMby54PhsgtL20PAzbvtfHKzuWMZ+fnZCT1F2y7q7PeOOfvJ0vYCd5LddbfBz9F7eHcNdhH8A2Tf+H7KUk2N4Kxx2evzOoG5r36tmy9jOY4Dvd0HwryE7/L+kmpLu53Kmspm/EVK/ku1P3yB9GVOLb4FcUvW8k1ndvKq+B9JsZ6boljdGxM4LzqSS0H/3xTMKvn3vGf4VwvZ3z/R910Jp07e6zEVudmOe3lUS+89OUCTuGQWZzfsChPKRpwPKXqkRrKUVjQZ1EqqJvuZ8XJwu0RBAwA9K2CkisKB8tn0xUeMrbBK4zVkj+Tu1KApAgNEWHdV4TRIQYk4Zfl+MNPU3XIamQF3EIskvzbtoBd05dyYjtnetxALh2CU+ZRbSR74+dybxPKuqLrL9fMSxmvans8RjLHvTgV26BrmJ8n8qwXIC8bsQTZPH32y6Vu3PSAoxIkV4dBcNd0l4u6jvaKWGX5DvYj67ZBDS+vm3ajR5Wdk7khzmkDtUGjF5+0P0Do+rE/4GORj/S/cCjprP16cSoyrfQsrAN4Auuq6qG90zY7npy7bpxE/uoY9q+oq41OIMcwDfg2bZx7e3Aa6f8idQSPSl+36dr2uSf5Nr5OK3eUcbGxRZe2z+HyfSC3vLR3IMAyr41XdihGDXc26OfsXnhd+8kSdoL3Up1N9zNGrU5Ue7fsqZV9073ExzHqk3/v4UJ79hw+Hp+9MtQLm/bq27K5Oay/JzJLvjr4N/0gRPK3G3sYfU31y6p5SL+VDXf0MPlbYjcX6+a+Vp4xnD2zmme6L3h75YeUWd9I9EF9TZxfrhd15PWMX5wxd/oK+9CrN+0Y0r+WJ7lHX/odPCxzDr6Co+W0l7e6YfMXDTiFg8WrZNAyIWvyokOg5LEHFhGQVy/Uf/8m3stkqB2B0lYNabmfDyhZqUHRkWgDaRSOrmPxCobeV2px5GRO4NApgeVaRbtlE+iQ8QoxOsSAgFJGfvQ317JRFkMuRsHHXfkmnHkzPQqHhQOKvfIhjP+ubA5avvOKXDoEpzAf5bbhk87Vrk3KsUzW6uhwNqzVE4TK2zfTS88oOxvjoq7oPOG6H6dkEzpri+tVnfpxepl4EGyKeTJO5v/F2zfm1bfW5ki9YpOKLQrrDzpd20eLedcOAi4eloiVd3+uLNvJhTG0D2u/A48qmSsXIxbhlxyRQdrkpX18ajA6ts2aBSftrys7sJmD85b5XytOiq1cq0BSWJvHs7psrQxxPC991TgBl+LcayzseiLf5vUu6KFy7on4ZOd5Ffmgb0a3kt1q9HQFTqvWFvYlCUirbVY7ava2MK8yV7G7Zb/SNrd7RR300vYwYPNeG69slWyWZG5td0enKnvVtfGgs3g4lj7BBlxyP1nCTvBeqrP1foVhlovRESlPMol+SbSVL50zl/Yn9a5pz57Dx+OzV2Z1A/NefVs2N4f194p/VIJMUgZ8V1/8lZw/sFzOK5iv08FGB7tobKeUeUGWwJsfp9fv60/bvH4l7YUrnyRfbH6PXY9BbZcF77191O07eL54Nwn3rd+tfA/7B8YaKtz8M7jqjYwfbJHYp29/nELACu1f6jfsU/JmwxNhq7hYTnt51AsvfeGAU00a6ygXQXSEr0plrygkNaRIAi2rDnd+VD4ooGxOoU9QdOhDBTJ3ReHM1avuBUMPBgMUXrCJzpHMqThNsfyDMTKtgrjO3xVhdIQBCcoL3AivHwU5JuOX1lt4VnOgcj5dbJx+3pbDbtygt3Om4gLwDbl0BE5xHJynpMH5djag4FQAtplPWVfaVzsrPGE9Bf/aHvTWP1p+PE6IkcwV8u/fxWCSvirnOsFmEwcMcE2RNw4WwR70v420B0fECucykm7HNc4FckI3VeBOs3mHewkrF8fWnkkfmYOIE4xd5ilyKzZzZI1a52pxAi7ZffRLfBJO6wWd9nFs5AH7juKwdL1anAI33sAvgh0MYM2FN6CTyDHFdMN1D05LMnj6+50AsOAS9HjM/u2dt8hL9prWjrZ6L3V0X8L03jlcQ3vklpf2DgRY5rXxys5Yq8iisUO6Z4BuhrFd3wx0Fe3fle0nS9gJ3kt1jr3f6kgTcNL92djAbCdvCGOPz14Z6oVNe/Vt2fEyAv/o1YcSqOjtQSCr1i5GXcny8/qQ9lbvUr1gb+HTDo/vwS/Otn+bvzWKm+A9Wnd1PbQvgsOMr/nRWzl7v5leL+qA3QsFsxSoDeeKuC8FO6jxDJyH9J/lYfxtT34HlFlOe3mrGzZ/oYBTAvchgiqE7W4uYtwysLiJzKXr/gPBUFgAflG+KDSJKurBJSugCPdiASc4YCayB6yUhIGcqszR4YsOFCq9lBeCx3VdN0ZHGBA9eJX1tkZaZF1xQHGyfLH5wKGi6MEwpLYy3kdv36XXnVAOc5wdv2cVfbUBBf6Xtu0845rE8SvcKfXNE07aJ+IEaZHFR/pLiz5aHfRaMdTrOA7VXHR8uG7HqehG1Hudk51jyWesuraq1I2BquRQS/2lzUn7RP1X59tc1XYtYWPvI1b23lI+6hfaGMFPbVL81QbnFfUDfhGTdWV7JlgDF4FDc/OIc0hPRGVMPplevvWfvHvY+LrYdeIEfM1rX3FgwwMZ6M8c3kv3rhMnffoLdVH4ZvOq7/Gq3KrXjG2Q+3Xbuk17bw9OS30/+f3KCbZrFYzUJkS+Pr6XssJTtBFBJnBPg0KxvNbrck/GBNvTzAfuJZ6L3db2mH5y7A7SO5w3cstL28OAzXttvDIcc39aOZGefsZ9IeyTyiHg1+IeAbq6WDf2qzqf9/XAxZp39ZnFmdcBMhW892MKWKXDbJi7+hXVPFsdKQEnWWPBUjHS+QlWQYdvCGOPz16Z1Q3Me/VtmWJ0zFVkBGcZ8aeTLEUm7nm58bGKPQ5twMevOV/sc8138F/x6X31ZZPehr7C3GTOW87yyN1+WvA+BltnDOBzOFO+Ld9Ilh9SdP+IaXm9DWSD9ivomcou4RGCVzEd979o/3Qv/OLbH0swUcaSV+pgXxSZ2H20r9vO2irdn79vOe3lUS+89IUCTnFhQvQsrJGFK5kN4EURjNE3ZCj1aiVS4QphrRENJJZxA3GULPOC8YiPwvHuu2XBSPhPOMVfDEWB34THFuWvVAU8xfiEj7EXQnvrzmu+Uoz2GxCzMYqipo/U68aoASm9tk4uvhtbcybyoYwR5JE38Ih9kUMnYDPCeacOcmk/Tsplh9uqb3ldWjddhZ/2nuGTYl7rkbRP2OkYoNNVG2f9rq449XbjlPU+rdfmdQ06tmwOIa1Os+GMrlE3IQ+/6qlLB29tq2PC1bVdcH8ON8Rqrp53T8dVvZI6Jd3ySuvnvhpnyLaZw9PYfFkv9gcyK+NK/067AayuG6fIl2LPlD9gp5w1Ci7eHiFleZ9w2mX5OfeuG6c5PtWOtKyxwSfYvIKp3N9qs/bgNIf/Re6Jrtn9IHNDdE75FNPVDxnSVh11sas5OCUcxrZJdmoHRdexbjUHrx/Qe9NWbNZWOV4E74yt6nl9RW55ae9AgGVeG6/s1LUHXiSdVJnbdWMd3WPtteLlnP4DP3ScE/eTJewE76U6m+7LmipMlDvO3pjWH/cVtXv6CQHN454vfd0Gxh6fvTLUC5v26tuyTTJS/jVXkdFMUCPYNWPLUpn80Pb4Sj9JoDIv8tq63+vnIiRAEtcq8j/23DOHoeA9d3/XPTzTBFl0OK/14Or7VQWX4pOqn1HsT/A7UEe1Xw0aZ3tY5oP97Vpzw7n6cxKW35q3umHzVxNwCuDaTULyLuCoKCXdONpZQPXrPSgIPRj1xg8OiGxoQbig6I5AsF+bVoGsUoxk6GNf0ekqBFbSlg3i9dt34b1PdZpkbVpfy0Jf+WBscEG8YH2XwGgVTjBXi3vGQJVTMA2cKkpaeANG0mDRKH8YU/uI7eR7RNFgp812J2fsWjSPXDoKp+qpEj1kJd2LuqF8K/oWDvZSJ29mhW/Ku3B13iOP73fjX09ULKH/GbkqFnPX3ThlvZc5Rf2rNuTMJbmfZJ5tlubLBlIHJTtPiFXBGoPFEs4XChBk/QG8hDPB5sicVfeSPHu2tuJM5az0uZHHRq44YwpPZNxKfthmMI2cmuOedy/P9TSclKfAubCuPn6q9/IkmPxoUeYt/LX94P359HXjZPGw+Xptuv8FbLLOJ18g6KRjG5+AT0VW9XwvVi68Rn+twqD4Ka4tRfsq/Ti+YPRhLC+x33joRV9HZFfy0YaXvmt+13WvBNMKw3VzQh300vYwYPNeG6/sOL5Z+egrJmndlhfgnxQZexhZ/bb50ibbaMT9xP1kCTvBe6nOpvvZjpW1x35qfQplaf0Rm4Qd+MeKWWUn7Y9xgKfWr+Z9IYw9PntlVjcw79W3ZdVaAYvzy0Gn1A+zepRtLe5j6r92fHrwDUTuxaYupXEMy73tecH7cCwdnKL/mHTkvflOctaJoiP1GxKyPmlbMECftA7WlX0r60voP34uJ/916iDTYs+wv6PxsJz28qgXXvqqAk7NYcAaRYcANdFrByI+4qYR1zEyo9EU4YWNTMbdGTxA4QwToWOEQ/scNKo3iDjnSMqAp/QRDEr9OHDGOivJGD4y9lNgdIQB0XkWJSzOapZtMADKG7mfjEGFSzQS7qEsfUQuOjxR8fWDitFQ1AZmWPYzmxJy6Qic4px0nmmj0c0pzUPwal5DytxS4xi5+JF+RN2uIeuRcK1gVeuwCTLbPlbkd+ME8w2bqsEkBJBSWcBH7wdchEdm09b7ugap5xzQlLcNV6S+7UP72hlQQayacWGM9l6UeQxW1PojNrPoXrEvzfqadSkXtY3BMTtI6tyo/qb60F/krdarr9kGzq5P5xCv142TzBFkkNdVHBIrP8EHbVd8Qq89uNt2S/lrxWmOD9YORVyQ33WQONiEHUFewXA7TjUvl+TxNPejnrp6FXw3dbQFU33aSdcBZVLXsYtxDTIG6jvKp2cncFxsq2PHq8gzyrwufxrsjh8TueWlvQMBlnltvLLj8YlcsPqY84Yb3h4zP6ceT3R/MBw5cT+Zn2e0D0t1Nt2XNSUc4weelX+oT1om1yST5H+o7VOZiN7kg3HYd24DY4/PXhnqhU179W3ZJhnl/RvlkNLBnipf/Wtlh4HDOJfGF8tj9n0GaV/L2plf7udp7gneuK5D0tUZ0PxgmfCv9gutr7rVlZHuR6ZP1TE9g6azdh5D+pc3dUQHpe/kX+eynWeAJcwsp7281Q2bv4qAkxi88nQIEFQFp+RVgWreXBsl0Pr4IV/drERgms79iJF0yJCEa6OTSwLC+ygcLJ9NZyNRG+/KkFQBk0jgaPyTEQpr1M0ivp5Xtb9SjI40IOqQZOMquGY5CzYqc5U/4J2UOyq9NcJaT9ubJ8YCf+WVR7ifuQY8X1mGXDoOp4TD+w/T6+58fpy+SE9BRIejXlc+vCqnbD/ZSL5Lf8HiNp5wCmvNgZ6kSxrErZ4KSTIN/BL9ezO9TmnhTzjs5n7w8IocrAO6ah8i3r5joU5fvjZ2bZlryCkdc+yKOiHrQGe9XlfszykTjBCXYNOQWzhGu5bG7mf8cS52c2/7GVnvdeMU19j+qtbBL+AEOGfc9h+8rx2nwsX4ikH+c8PWZtkAXvYFop4WrDsYN/3VvNuOU93PCHefok6wcVVAKNm5KjAnNqB+eiW2Uy7GfRX9lHIolnuo12BzRDZ5X1d8sC+o68hFbGx27p37T4HfkWMgt7y0PQzYvNfGKztyzrGvOTlZPZO6yhuV+dLV9lHXf8r9ZAk7wXupzqb7Yuv1L241ey/qV8Im+XSNDyN6In29+mCCELeBscdnr8zqBua9+rZsk4zmbFD2sUFXkkzlRyORE9pPlZGdh9i8ql4ec6X87I+rSz8K5nFq3bPzG80L3qN1h+tljOMcEdO4X5n9Iuw/0Ue3+wi2xfFjeZKhnL30PJF8sUo2OB/wQ6QPHa83Do65/EDisAAAIABJREFUNW057eVRL7z0xQNOckjKh7GGpOZpBxBoPlxVbYyh1Pov4qtmxTksRrQ4KCL0mkCtMm7Z3OJYKJxhgSfS+WvFw2dZN5Iv/yohDpo8/pc2lnB41U3mSjE60oBUShgwLXjhEwEBl8Cn+FcGghILPniAr/LzRjnKeTtnejxBLh2H0555Rt1B/RLMK9xkg1GuBefEN8y9NW8p34UT6F5l9Oc2Sm2T+BL4JGkpT/pW4aL1q8OYH3Aq649Y13PaI7sd9ik5Nij3Ms/iiFZllf4kOwz4xLp2PfN6Vg4IiYcGTx2/sgNzcpy5h5zSfkeuQe5qc23/zfqTrqDdkTZNvRqnilvVGB5+9uAeD+byFGP8uD/ayCSnqs/5smvGSeQVbX1co+AWbL3qI8pJ+Cp5tV2JW1G35ceE5LA3spnHRzmzFSdtf5VXxTH7ZpZLUU8fX+GrcyZoYPoo9s7yVvqK/QeZoOwSX0t5qevhJvXUcffu31oZcstLewcCLPPaeGXH4xL50fV70S6qfq6wTfp0tT7Naef/lPuJHdvmBW9bdkg+6VfLd09HROeKfoqeFH1UO2fbeXuO1hX7qzahyLrt0wmcrJJzGa+Hmcdnrwz1wqa9+rasN/7m8hx8ANxFpkk3Gl9H7nVso4d7PBfhGdOmVX6K8ai8tf6xV8F7M5Y9TsGer7Yo/gU+jUsk7iquWSblRxZt115Fn5T7iGXyw9DG6fyc+YQ/TgU/wDRy17YHXC2nvbzVDZu/aMAJDZcLFChQIBMK1AGwGLFIZnUkZx2JNIa8BlU5neIsqdBR0FrmjD9HeBTOXL3qXsdIVHVmn3CqX6NrN5do0KX82jA60oAUbhVnVcrUCHi4yAEj/kWAstEq7qFtMDIzRvYAzuh49opcOg4nNX52Y2nz9QYVDWRdljYT4S8c/jNugk3SI+GdyiFf1YCv1LEjcUJb4s4xH6biL/WhjtoGXfdbfZ3Vc9BSUMFZq/Tl4RnngZuTbtoiu5anFo+5PHJqrl59T8aN80F9ynJEjCSdAo3N2tTOJdxCe8UycCBtwra/nPcwGdj0qzEUy/nrteIU8O+up7VTkWOo85Y/cM/haM2DFrNrxSnqUK1fgl21B6jtDk8AtNwKfWRMCk5VH4O2axtOLd5L8riu+xGzxg4MYnZda7leWSC3vLQ9DNi818YrO14ewo9W7+I4tS3DfXp8HteznyzNWfBeqrPpvjlLqV1s914MDlmuGxyzTZR65l7eq9Xf68gXfYCmDZzJDrIVHp+9MqsbmPfq27JNMnLXWPabrp+FuOlTbOnBDvzhxG2fZVjrmZ1/q3cb5e2u0fJsOS942znuzhsdkf5ET+w+n/0Bp77OQXyM+f1O5Wr9sPm1W99leZz5/nS+3tVy2sujXnjpiwacvEU91zIUznNd4951IUaS3tvfc21PnMaMJnEaw0n0BLF6rnpzxLqI0xiniBNx6usbA059bMZ4M9IeddBLewcCLPPaeGUjc2GdbXIVvIndNuxGcPP47JWhXti0V9+WjcyFdbbLWfAmftvxG8HOctrLW92weQacDoqwLgkMhbNU917vI0aSvlccltZNnMYMK3Eaw0n4hlgt8e+e7xOnMU4RJ+LUtxMMOPWxGePNSHvUQS9tDwM277Xxykbmwjrb5Cp4E7tt2I3g5vHZK7O6gXmvvi0bmQvrbJez4E38tuM3gp3ltJdHvfDSDDgx4HQ1imoJPKIE91iHOI0ZVuI0hpPoEGJ1jzo1umbiNMYp4kScRnWK9ca4shYn1EEv7R0IsMxr45WtnRfrj8tb8CZe43itxcrjs1eGemHTXn1btnZerL9O5oI3MVuH2Vq8LKe9vNUNm2fAiQGnq1FUS+C1CnEv9YnTmGElTmM4id4gVveiR1vWSZzGOEWciNMW/WKbMd6M4IQ66KXtYcDmvTZe2chcWGebXAVvYrcNuxHcPD57ZVY3MO/Vt2Ujc2Gd7XIWvInfdvxGsLOc9vKoF16aAScGnK5GUS2BR5TgHusQpzHDSpzGcBIdQqzuUadG10ycxjhFnIjTqE6x3hhX1uKEOuilvQMBlnltvLK182L9cXkL3sRrHK+1WHl89spQL2zaq2/L1s6L9dfJXPAmZuswW4uX5bSXt7ph84cHnLxJsOyP1YGOeBAPcoAcIAfIAXKAHCAHyIFLcMAeBmz+EnPimNSFa+SA1Q3MX+N8OSfq0SU4gHrhpRlw+gOJeQlickzyjhwgB8gBcoAcIAfIgafngHcgwDLK5OllQsyvE3PUC5umzK5TZpTL08vF6obNM+DEgBOfviIHyAFygBwgB8gBcoAcuBMO2MOAzfPA9vQHNmJ+nZhb3cA8ZXadMqNcnl4uqBde+vCA09r3Au+lPpL/Xta8dp2IkaTXtr+X+sRp7F1l4jSGk+gNYnUverRlncRpjFPEiTht0S+2GePNCE6og17aOxBgmdfGKxuZC+tsk6vgTey2YTeCm8dnrwz1wqa9+rZsZC6ss13Ogjfx247fCHaW017e6obNM+DEj4ZfjaJaAo8owT3WIU5jhpU4jeEkOoRY3aNOja6ZOI1xijgRp1GdYr0xrqzFCXXQS9vDgM17bbyytfNi/XF5C97EaxyvtVh5fPbKrG5g3qtvy9bOi/XXyVzwJmbrMFuLl+W0l0e98NIMODHgdDWKagm8ViHupT5xGjOsxGkMJ9EbxOpe9GjLOonTGKeIE3Haol9sM8abEZxQB720dyDAMq+NVzYyF9bZJlfBm9htw24EN4/PXhnqhU179W3ZyFxYZ7ucBW/itx2/Eewsp7281Q2bZ8CJAaerUVRL4BEluMc6xGnMsBKnMZxEhxCre9Sp0TUTpzFOESfiNKpTrDfGlbU4oQ56aXsYsHmvjVe2dl6sPy5vwZt4jeO1FiuPz16Z1Q3Me/Vt2dp5sf46mQvexGwdZmvxspz28qgXXpoBJwacrkZRLYHXKsS91CdOY4aVOI3hJHqDWN2LHm1ZJ3Ea4xRxIk5b9IttxngzghPqoJf2DgRY5rXxykbmwjrb5Cp4E7tt2I3g5vHZK0O9sGmvvi0bmQvrbJez4E38tuM3gp3ltJe3umHzDDgx4HQ1imoJPKIE91iHOI0ZVuI0hpPoEGJ1jzo1umbiNMYp4kScRnWK9ca4shYn1EEvbQ8DNu+18crWzov1x+UteBOvcbzWYuXx2SuzuoF5r74tWzuvm6z//s308OpDw9fXrx6mx/fnyVCwErxvErMnij8cgY3ltJdHvfDSDDg9kcBROEcI/0tR7oeH+f+g/F+8/QSU/sP06LV98W76osLjw/SYyqS9O17TZrthQYwkvRunb99Nj29/nL784cfp5Ys30+sffpoyDh3j+OW376aPEm5iKN01P/QNaMDpQEw8DA7HqZJ5kV/Gaub+RwHfiOsQVu/fTNomr60ni864ud3C/avA6QIcHMUH6yFWWL6YftL1id2KehzsH9i3ep5Qr+GI2ALR60+ml98Wrtft++WbcZJ5iG2pbEOxr829nn2X9llfil378gfoS8dy8Hn9Ctct7THvzbGPxRxmu3DKMnPml+/hvNp6YrvEzgR7/PBQ2xxjg0IdwSrjqn1Lv/Ue8Piqt+8aHN15ar/legxOpb85mTzdPcPFJSxEL9AfSTqy5qCi8vbX+GF6dHQh6Izak6U53uB95JaX9g4EWOa18cp8zHdwMvAh2fmA+5w9TzZL7XnPbiq/hFt5z2rnuMw5tDWSxnm2/e3FRvDe28dI+3n9kXV1zgyKq9WjIAeLTbSndfDhfBs7t36Pz14Z6oVNe/Vt2dwc1t+rZSF4+mcVi7+0G9mn6v57fv2DlfkPaR5ga2Vejb9/gi0VvNfjOKKvqO+x/pKNyP7E4jo34Gz3yqx/6qeMyHdk3W0dy2kvb3XD5m8s4GQElIndGq1WGbSOIxAxjtVBoAV7L5lROHv72tYenUBM61qxTNMF72w0hPAZd217zBUxkvS2ddZzEeV/fC+yfzO9TIcQ6TeW13XDeLC++nBW6qLB8Q29Kj9cD8TsDJw8rLsYgSGVOpkbUK79IVZShpjmdHPQK1hrP1uu14LT2Rzcgo1tg1jZe0v5p1lftN/FWbV55IzYLXW21O4XXSx9YJux9B6cSlCpnVPl1OW9CNaBOpLT0o+u86c6YAJ2DHU065zoaq4zP58teG3FSeZaYdE4VEWOec/O6ygyxDU3/K0CToBxcpib9WL/GXvcQwQ/x69w7KGdy1acbD9XlxecAo/nuRXqIL45cFp8D+RDI5uE8ay8036PAUjsE9Nze9nVYbzAL+SWl7aHAZv32nhlp+AinEg2fM7HynwI9T+ZXr6tn7IQXuQ6gJf1S3QNbrlwec4O6b1st4sd0n63XgXvrW177VbZ2LyP6pnAW5vZh3rBqRef1IFlwU0xQxtwsI3t4SDlHp+9MqsbmPfq27K5Oay/V2Sh/K729cBzK5NeUEr30/n9a8S+LurIgWcgi5ngbcsOyQsvX7ybXqYf6lzdUQ4L7sEOKaYz1w4WSzgXn83Tw/p8dcj6wWZaTnt51AsvfTsBp2T0q80jO47RqbH3RAFKWaojv1AiQQTQ7Bz5QjxCcCicI/ob7yOuOxuDsPZisIqhKmXl13JTphsrXAu++7FDjCQ9vkZ/bNc4BE44zmwwKmgg3kyPA084FfxkDoL1vOHeuyZpfzROcU4OJiDnzB91QMBB8HBWx71y4JLxjk/RAbfAwTgCH+3jHJxarsn6e3rgYRPtkoP3Rg7qevdcEas1/TzN+qINU06V+QmGtb7Zw8lHbz8cqpPbcDI2OO9LoAOVbijHZH0poIQ6ktPSLwScMKBr9FOxK/YK2uZ9FOYDjkbBW+e1fN2GU91vZTu68ynrQD2U9Edv31VP8kYu1DZefoQotg3vzRyGXLtY83AUsyNwGh3rqeuhPMrYIi+DVeJqlHfk4EvnNYzSn/RhZOXJpPLzfpxevnKe4Fb96vKr5mRZx/WXI7e8tHcgwDKvjVd2GiZil17J//KaTrYJrr0sQXfhSqvXyDvf1uX+u3wo9gafnC8+87G8ELxPwzcEhhATmbujnwELH684N8QEnnKBc1WUh+xV0e9p/CXYr/pvb9i57sfa47NXhnph0159W3asDIss1CaWfV0xAd8hP3n0pvgTwG/hvPcqHM5ZxlEfAss1rfPAfFU/+yw6v2OvgreOfeRV1y34Pr5Sm6I+l+WyyOUT8xS7WWf2tUx5koeO112D6Im31+Wy43VE52I57eWtbtj8jQScrGCtsKID4hqx7FBonXhtlKFyTmz/+/MoHBXgU1+FzNGwFINVDFUpK5unV1awsEZm73oQI0nv7U/bv377ZnoUBzXJOOCQ5V0bZowgF2zKmrVPvYY675eMgBqofj/a38j1HJxQ1nGerXzBsQAHoakHRhUduIC7Oo+yAWUjWR8eKt2EjXEEG6xzBk5hc+7M264H13EmB3HNW9OI1ZY+Tltf2mARy3p+cW+o7oc2qnPC2eM24T04VXany3+Zd9yjLJ80H17rCnoE+mj1xOin4pNt2vs3KUj64/Ty7Yf86pmO0T4hvM527cEpyFfmn220jG3stK43ryO+NlXrp3LAzF3tU8Ot1gbmuaDdSuli97ZzbDdOisPNXB2sElfjXhH1OfAPOCxymMNb7inHs8wq/iQOJJkXntd7T+ND3gyuhuPOD1PINUkv/bP1e/mA98E4BT1+8W56/a18EkH1X3y4+JQMyinUNfrZ8KEbSKlxixysy2IQpuaJyx+PbztxEczPwLf0Wb9u6q8f8O/6PmBru3tbi2GWI+o6BCfmdL6swcprPN/jtC2f0xVb18sfMdfSh9rIiKdgqPu64KXcVHtY60JsG3BPtjDLYIardR8tvjiujt9cVUdnxilrbMeYuyeYz93fdi9iJTgqvrEfxb/2K2MdvddyXfFQuXhzWsIZz6de+3qe6zD0+sMyj9e2bE5P5N5tBJzEAM0a8+igt4qD5ZC2irbY/37BoWBQiFvSQ8qtG4PiFjYB3RSKY10IqmURJ1WOfH0lQRv5hVDux35kHi3m27FCjCS9BZu6jco8zTkcND5ML8NaEhbCBcVIDCFsfAWbVI71ktHEOv3Nejsm9XpiP8fjJP2q/MtcW/kW2SNOTT090FWvqCRDHDYd6QeMNTgY3nq3lp2DU8FH5zUv9/M5qPPYc0Ws1vVz7vpQv+bmJTLQPaLYR+FYnF+2Y2oX5ero89wYcm87TvBIu+hAsMeeU6I22tgc1JGclrVJ/bLG7MyAHRM8tFzxDHgFLIoe6r36l/uW70sY7cVJD3j13iL2A7DJ9lcxNPcyRs78k32S9ZZfLbUfuL76YL6NkV7ZQQ7ldMFxBB+ts4dP2sd1XQsXff2S+warxNXIv7IP2X2l2Nm2D+R4wCPv62U+qgMFL59T5b7DnRMOS2eNh9zy0kuHA6+NV3b0/EXOWVbZTtb6ne1XOsSGvNrVV14AXfTa7Adi/3P/oPdZp3WPKJysbaNwq57X0VgI3kf3Kf1l/HCtXjrhu2oO4P/NtVP9rudyvI2dm4PHZ69sTle8+rZsbg7r7xU+FgyNTe3ZKbGLRs71PuvbvMa+mv51HrqWpv7cfmz60j7WXAXvNfVH6oY1SIA7BZyKryBYm8BS1pMiG3eMBd1ocLPYOPKrfdtBHth+B/KW015+Tk/uN+CUfi3Lv+KKMmw4fLiE6ggOhbOm3UhdIens/JGkQTGKUpRDRinzx9T7ZZOVcUeMld9fa9gQI0mPtuvVK2vTOZfH6r94+yZ+NNgaAMWqeb3JOCSJL3mMyqAqVu0ae3NdU340TnHsds6tfBXHOjAX+Gc2MXUYxZkQjkid/Hi8YJwNdHkMfg0GI3XPwcnKVDDpP5Kc+ZEDtcdzcASLpTqI1VJdvP8k61s4FCjX4ryEx/IruBwEJC2BctiEKz21slzOb8UpBGjT49avxW7KqyLpg/sFT9CvdCjIddx51/WDjmmfoGNYXuQlOvxj+SMRUj/vgXW/ZX7L+GjdzThVe7Nx6iobAzLFdej+G/CSVwjAbqvNyXyqv+vnBd3DegBL/LC44Br3P8EL5qNzGLjuwUmxvsprxSfkjYNVwjdyU/chtZOaj4fkgjfIFWWM6cznuMe0r1Q6fWCbAfldJfZp3sgtL710OPDaeGXnYDCn+yK3TqAn2Um0eXF+hncdfqq/Uq9paS6FR0f6wzIHwbueC+rS9rS/zk5/ghXqlb4Snu2orh9t4BxmWC+NmWxAWGuSoaSPsLFz+Hl89srmdMWrb8vm5rD+XrGJik8dtEN5CO81rwHUWs5VW90jje1r9anuQ+7XgQ8YU7nT6Xv9+uuxpb3gfUQ/2Mfrt+8m8dXEB0O/Ka41cbjxPeZ4HzHJPp3BWMZewhl/6Me5ahrnqWVHXS2nvfycntxJwEmNW1S8siEkRRQlEAN3sqOBwjmKALEfIbiusVVEqRNIKK99pbWGb1uE9Sbl0HSDQTFsxRkX3OJmL8pR8PTHXrNWxEjSa9r268p8HXzSplY23sQHMY7BMJp2XQcl9l0ZbTWw+dpxjhyD019HwfccnJYNZdxQ0lrAQWh4AEE8xVeMt/x1mCrQpOsHB2Nk/aN1zsGpyCHMI/PI4Ziur/c4f26r35rbxsFRPObqIVZz9fx7Rld03Uevz9FBu0FHLgqXVedkbpreH9zcilPQg7cQ1BFssn1A5yzNNWGX8a7yoKtgsyssoD6WF4cE+pD9Qz62685HuWl4rzLuXLfiFByqMA+QWRgDZYpzwXUgjpK2Oln0S50+waa37vxdi47dilzDuaxPb8apg3vmy6XvO7oa5+bYioRv5GbyOao9pOyxJeBUyxY5Hsax4zv91Vihr7NejnVf19EeueWllw4HXhuv7Jy1z8nD2HR8kjrJ2ddr4IzlR9IX9Vd6a3r9Cu1SPY8j7IEdV/C2ZUfkyz4wwNWknzpuxgj2GLlX99mXX10vjW/G0LHOwFT7lqvHZ69sTle8+rYMx9yfrvc8sYkB07f4I1Zvv9Tgu76qOiD/gUCIlZPkdY8N6zVc2Y9BPW/B++g+pT9dR+RsxF3XJfdaH0PmJfXA1qzYi3W87lpETzp+WvRjto3bHQ/mbjnt5ef05HYCTosCjI5kE/wQkmeH3KmThBe+iZHr1UQeEcRIHRTOSP3ROpagshmoQlR9VAa9OHXhnfiwdtggpC6WBWOhr9SVejJ2gzkQtBp/oBwxkvTa9ra+YNEcJrKcIx8KP5LcM07RYPsflVWlrh2OMn7BqJQdx6ujcYpzbOfcyhfWm3HCX6HSGivnHg6s2kb4NGc0s4z2YXYOTjgn2Fh0bYbn53MQ57M9jVit4eyTrg94pXNs7J8ENsN+oQeDqMevVS47HZ/NOGnA1eG264DrfOHa6mMt74iFvDIcXxXRfQAx0rGkrPuUQH4ar+5fMR+5bsYp/DUYI7OAgVcWbY+/DqgvupkDkLXDjdiUH1XMukG3I27OvqK/+oO8zsRppO+L1hHMEtfbQ7run4hz2o/Tr+DWrgiXlbvxtaa6j1qO5nVUkQnYDtt33osc3bwohiu5ZOeKOuillw4HXhuvzI57TL72R2r5gh8SMJJ85IPItvJJgYfVvDrlTfssA7Envt5n/mw8ZFbzyuNF3RC85+5vvVd0CXWwkwb7J+NljMxeWve5hFetv/jkxtE2dg4jj89e2ZyuePVt2dwc1t8ruiFY5YBTeM0r+j2tvuzjbt1fhyfA3bX112NQz0Hw3tuH117XUXFb9OFBz9nF9sT2S7zXdvX8dWwdT/PN1eiivV/NE+Rh623JW057+Tk9uaGAkzqWxkhlJyI6K9VGEw61WN+pkyKYYcM42dlA4WwRttums2m6pG2IGhXj8X0xXnEMVKCkPICN9C146WHGnddGoiNGkt7ddzAMevC08m/XFsZTnBK24fWX97VxKEodsZM6xenoGPbkSO9ek/OrzBF9en2IrCudQrkqTqhD4JApP7JzIm2hTTWecVyqezjmyvThfKrGV/0p3Ai6YeUsa86H3TM4WMbfgxtitaqfJ1sf2qWy5opfWT4im6T3lls2n9uUPufWvxknGUewCrY02R7Ql8p+JHsra6vKvfqObY4OaDl44X5QbJeuV+YS98nA39CfYP1mel3JVuuPXXfhVAUMdTyQqSuziCnaq4Kf7gGpr+w3lF8wo8ztXpjqBxxEFuhPOIF2d146f/+6Dye/zzn+Ptm9xHX5a3P5SbGAj6/HGhDq2tDwPS3FP9rRNbqh/cv6Wx0QHDuy3yDTJ8N4YW7ILS+9dDjw2nhl56y3lkdt55N9yuvXusWWxacMkg1Ln0dA21Bscd1XPY7wQrkmf32q2BG0qWdyR/A+Ht96zYv9iy6DX5MxMntprVcqE99G1XXT3hj2N9Xx2E5wruSWZe73u7gW097js1c2pytefVu2dl6z9ZNtlb/2rPhkPEUmgiP4BXVfIvsa4/q7ZD6uNd+xjurHgK8yOy/sc31a8K7Xub4Pr3297rRWxTZhnflZ5euP8UvfwR8BPVoeD9dweZwtp738nJ7cVMApCEeVSR3vLDxHGEqKbGBinUwOU95XUBT69jQKxyPa+jLcXNFgF8XXQ3/oGzcNSeegEW4MJi04W4wTrkF59FCXsdyOj8wRMZL0eky88eNBJDunsh4wDGJQKtknnGR9gl+4r3zL12iwa2OEYyOOWH5M+hyc2rnJ+lp9SfWAT3P18kYoHIE2lWxFHpln7Tyquiu4dhpOwB87N18vzuOgHX9rHrFa38fZ64v9V/Ys8KBn06W+HA6c+zu5tgsn4b/Zl6KdSU8lLXB7Ts9EZtJX0FczDtqpoo+6Z8ZDVOBt1kG5lw5X0tcGO78Lp1UBp3odkbtaJnshrEOxNwGnvDdk+657qBwyY9qzg0vyGNGjfTgdZytH5rqqTuCN98OUyMYeeFRf43oyjyt9wHaYjm2Q42GeRgdiwOld+MMnIQjWyHrukHbFOFcY1fNEbnnppcOB18YrW8WLmfm6/SQePYRv8aleJp3WvpJNFw6oL5ftXOaB4Yz2a55M9LknuEp7sJWBP8rj8/w9wdvFRde+5bp2DwSs1FYGe5j8IC2rA/LzmGT55IBe+YEE13uEjcX+bNrjs1c2pytefVtmx92TR1un+CieQQcqboJNSHJs97La/npzwzG9+7ZsbX3bfm1e8F7bZqS+uw7lffaXIsbhsyGoj1ov7TUt7iCb1M4dD/vEH/jVnwEdOuMcpThZTnv5OT25vYCTAV6BuIUrCueI+Qoxi6H3nSU1QmE8MTY52IIbtmykupHHAFM4fKijLpj3DJWUZ9K3yrN2nYiRpNe2t/XjOtQpSPMLRgDXn77rAh8JL9+4Kr8gYN8R1+KA4L2Ynt9s2/rrsDsap958hGNdI6l88nSyMrSAda+N1DfGuzenNeVn4BQ4tcT5pC+ypnM5uI43c9ghVnP17L3T1xe4hDps7JUri+RAeXzbybWtOAXcZD4yX9CPrF/KGXFOXr2rbXJyWCp7j2UVBoIP4lVzRPcEvdbyBGyrPus+6jb+vV04pYDT49ITXvbJhYwhrB+wloBl5GsJhIw4eHm9uX/YL7ty8HHJfSW7uQ+nsTHsmE+Sh6CejKe4Bw4bbvlclLWJHgPWM3vEkhyjv6QBA+BH3r/O3bOfBPO8lsgL5JaXXjoceG28ssPXBjqbA8bV2govxH6q7JVHktfywDfljeivpjv7gPA022Qds9F79WnAXgaeavlxeil4H42v4jTcL+KGP2wYDOt+i4z8fcvTwXLW8Nv455zhdag84erx2Sub0xWvvi3bM0fbNuKs3Is4Zvuq/Fbbif4G2l3DafwxL/eFtreXzuPVnFedtHM/Ky94n9F3tQ61S5016zk5c9fUq3DNZwPY33oYSzn85U2UVbPmNMfZOsD/pv3MPctpLz+nJww4zYC7RhAjdVGWMas+AAAgAElEQVQ4I/XvsQ5iJOl7xGBkzcSp3tx6mBGnMZwEP8SqhyfLidMoB8inMd0jTmM4jfJupF51MNZDRH7i++nnMzLnLXWQW1566XDgtfHKtsyNbcZ4JngTqzGstuDk8dkrm9MVr74t2zI3thmXu+BNvMbx2oKV5bSXn9MTBpwYcLoqJbUE3qIU99CGOI0ZVuI0hpPoDGJ1Dzq0dY3EaYxTxIk4bdUxthvjzhJOqINeeulw4LXxypbmwfvb5Sl4E7/t+C1h5/HZK5vTFa++LVuaB+/vk7HgTQz3YbiEn+W0l5/TEwacGHC6KiW1BF5SgHu9T5zGDCtxGsNJ9Aixule9Glk3cRrjFHEiTiP6xDpjPNmCE+qgl146HHhtvLItc2ObMbkL3sRqDKstOHl89srmdMWrb8u2zI1txuUueBOvcby2YGU57eXn9IQBJwacrkpJLYG3KMU9tCFOY4aVOI3hJDqDWN2DDm1dI3Ea4xRxIk5bdYztxrizhBPqoJdeOhx4bbyypXnw/nZ5Ct7Ebzt+S9h5fPbK5nTFq2/LlubB+/tkLHgTw30YLuFnOe3l5/SEAScGnK5KSS2BlxTgXu8TpzHDSpzGcBI9QqzuVa9G1k2cxjhFnIjTiD6xzhhPtuCEOuillw4HXhuvbMvc2GZM7oI3sRrDagtOHp+9sjld8erbsi1zY5txuQvexGscry1YWU57+Tk9OSXg5E2CZX+sDnTEg3iQA+QAOUAOkAPkADlADlyCA0uHg0vMiWNSF66RA3O6co3z5ZyoR5fgwJyeMOD0B5LyEqTkmOQdOUAOkAPkADlADpADl+HA0uGAcrmMXIj79eE+pyuU1/XJizK5jEzm9OSUgNOWR7XuoQ0qwD2sd8saESNJb+njHtoQp7FHR4nTGE6iM4jVPejQ1jUSpzFOESfitFXH2G6MO0s4oQ566aXDgdeGZZc5yBH3y+I+pyuUzWVlQ/yvB/85PWHAid9wuqqgjjUcSw7Vvd4nTmMOOXEaw0n0CLG6V70aWTdxGuMUcSJOI/rEOmM82YIT6qCXXjoceG28si1zY5sxuQvexGoMqy04eXz2yuZ0xatvy7bMjW3G5S54E69xvLZgZTnt5ef0hAEnBpyuSkktgbcoxT20IU5jhpU4jeEkOoNY3YMObV0jcRrjFHEiTlt1jO3GuLOEE+qgl146HHhtvLKlefD+dnkK3sRvO35L2Hl89srmdMWrb8uW5sH7+2QseBPDfRgu4Wc57eXn9IQBJwacrkpJLYGXFOBe7xOnMcNKnMZwEj1CrO5Vr0bWTZzGOEWciNOIPrHOGE+24IQ66KWXDgdeG69sy9zYZkzugjexGsNqC04en72yOV3x6tuyLXNjm3G5C97EaxyvLVhZTnv5OT1hwIkBp6tSUkvgLUpxD22I05hhJU5jOInOIFb3oENb10icxjhFnIjTVh1juzHuLOGEOuillw4HXhuvbGkevL9dnoI38duO3xJ2Hp+9sjld8erbsqV58P4+GQvexHAfhkv4WU57+Tk9ud6A0/s308PDw/z/Vx86BPtxevnik+nlt3PgS5030+sUcPri7Sf1WN2+5/qcv4fCWRLsyP3Xr8oam/ln7MoabZ+xzdL9BRk8PEyP7+fXbcedyyNGkp6rO3xvF5d+ml6/epg+evtjZy7CoxojwaORx4t30xcHBjdPwUnmtwKrZo2ZczUeQY/d9X+YHh/6/BuW7wyu14BTtY5v300fDa052rDHV59U+iWYH6lvODfECsuZru3bKTit0LtWHiP7Xb0GsWkPQzys27Vj9+9fFU6Cb97TZ+yO6Geul9YmZa796q/94jjN2MQ1c5urK7aovy8KNoKzsxfksjnbH/fVRVtXyRXl8WF6bGTmyV3Kih9Vrff9m3p9mQcyt7m54zwum0Yd9NJLhwOvjVdW4fYE3Lun8QTve1rvU6/V47NXNqcrXn1b9tTrurfxBO97W/NTr9dy2svP6cn1Bpx2b1qec4Gbf+00VAc5z+ncPZ8TniDIDlAMcETnDA8ffQxCsEAcMnHYGscs4rTsUMZgzKJTuAI7S+CnVqihgEtymAvexflUHtXYec4vcnF9+uI4ZZki32Ad1lnP9Z1gXD6AHH8Ivgac4uF+7uAF97IuKmfSVXQdcUq6O3/gA3kA/j2dQqx6dY4qD5jYg/0PiRsBA+EV4OIGtsW+QR2nv6Pmi/08JU447mx6xo7bdiO237bZkr88TsKhZJsxMIFpqxedvX/+R4d1emaxvDxOy/MPnEFdm03rfqg2zOsfZGNloPkBTotcfP/DGTvvScZumLXk/nL9NP/sbw3MXddw4Styy0svHQ68Nl6Z5fSu/LfvpsfOD3x9ebf7Rf2DtXLyp+nLTf0rh2UcDVA+DQ8E7114ehwU3Zr7wSHcj3tr1gevn7Rnu36IO0aUU91nK7vHV70HDhR7lcf+q8dnr2xOV7z6tuxwGXbksXYcPbNgu+CfdewiPugwd16qZVzklP2Pg+av8xa8NX3YNduKousZL+G353OCD+HhqHapxQfO672+A2ZQr8FQdel4PRFMLae9/JyePI+Akz2MGUVRActVhNyQ4NWH8ERKJgAQ5jDiGmHt61dJFTcEMfZ9hxA22kDO1BYVxd0YlgID5aCXcWvIX4zM6HotgUfbHVbPOpmdNRXHp5aFcqyRRw4krMfEW9vFccq4oGPfd+SRI9lgZwdeMREsLV/13rbr9eAk8xd8BjcC4GHGKzl3AcsGu234ILcQKyw/Je3anKhLkSuSBqyCjYd8aG8Om4DZKXNOnH9SnLKegXwDFsX+4v5WpwGv0E+yVQO2/wj8Lo7TD2BPsgOXMLA+wqt3JsD5ZnoMT4H5OKM924vV5XECbnl8q8o8G2Z0NdfHvcGOAbL5wfHJrHwwn/k717+99+P08pU+Zdx32OO+bjjy6k0JbHvB8Dwfu8bL55FbXnrpcOC18cr26oBtX/yrGsNe+Zeo65l/2rbmmozV68ctT3tNbVsdu3Cwj6eYCN6aPvaadPm9+TFLdK3htNEJqZPWK/5JG3CSvj2MPql/OIN+JBCYny7N9rr3Y7rKdv/V47NXNqcrXn1btl12NZbN3tP4A519H+SR+2jaRtlXQaVGX8C2dnwu1CNJL+qOzK3h3DrZCt7bMe6PFf3vaENeAtfRL6/GBR5bHLUe4hPLon5luQR7ZvzbbNdw/2r1svTRX5POY+3VctrLz+nJ8wg4ZUEAwB1FyAAHRSuH24o8QJhc3xtjZRkK56h+ldBl/kJANThITH1dSu8BVmEd0ajhxiF9Yj7MeQnXlZhYHBAjSdv7p+fz+pIigxMRDWfErzUYBc+Cm2Daw7vU37Kmi+OU5FzWKuvxNyKLVeFq4mTeaATzopNbcLFtrgWnMK/gRNmDLW7GZe2CWaN7GnB6O/pa3jqOIVYWx+Pz0d5Um2Nlk9GOxXUUTJy2O+3OmvU9LU6ODO3+9O2P7uu6ujdk7rlPicVf/OXpOY9va3CxdS+OEx5C0wFGbM+sYwvYWrul66vs1wG8uzxODsdm1/Vhesw2u3943/dK3fKcgixfvJte288hwMFKDjqB1+/fxCehAg8ggGTqSv1sk7IvkOYi3MgBp2KrlRfXeEVueemlw4HXxis7fu3gSwAXezoZA064l9q0ldfa/pWP6KNg2u/vCFwE7yP6GetD9laLla7dXMN+bXGO+iZyCnZW9A0CU/Gpqs7+Dba3/+TM8f60x2evbE5XvPq2bAx/g3F6LTnbJNzTRC8EX3vGSHKp2wBu4b7khb/J3iH2IcAE9ZuAUxw39G9tZNJV1NPKDwnzr/vehovFKT59c1Rf2k/YY9w9InK4CqS9eDe9rIJroz9aRTm0/peMUWMV9Arm89HbD3DebzHRdRx1tZz28nN6cpUBp56QK+Eq6BAQqEDtKILWKWNE4yr5rKBG+bTN3isKZ29f0l7mLCQVhZZvvbj4pM1DN4Cy7pmNAjYIddb8vsuvHEesR/pAjCS9t9+59TZrCutWQ6KKHo1BOaSkfMJ1ff/HGIWjcVI+NZiontlrwEqxiFx6fK/YtdzSzWm4fzjQ7OHAdeAkMheslFOGA8FpgINOchg+epF0Oj2B6WLXs3/gpI/ih1iNttlTT22S9hF0Kcu9xUvqZ3t04Lp1/NHr0TjtsyFJBzNuhlvJWXxonuCxOvpmkl/v9HAwisVcvcvjJNikw1M4+HySv8UUMPc41Oz9xemLcho8jK3Qv6NxmpPJnnvW2XXtkewTM1xcHj/yOftiyc9p+0y892QYsK8DAHnuob7IdECO4kO+kv/pW6HCjdAeeLVCzstrb3V3bxvklpdeOhx4bbyyvfMcbS9yRG6UdnMymbtXY+73n7hmfSCb73KxHqPMeaxc8F7bZr5+Wk/iddYNux7NL6xL7KIelnM6+TRdG6F9Y4AXba+0T/OTPqPMZd4dH2qHHnp89srmdMWrb8vmZdLhQrY53v3ob7v6EPBXG9fiJjJXmYV5Ad6Sr4NEMz8qdM7ZqEehL+8pOuDA7Oudg7IVvDdhPND/67dvpkf5xEPSheALZL0w+wnw2OLYzE/q6o8i7jyijCtZhTZ92TZjuP16fFous5z28nN6cpUBJwtYLdxlUEL7jiLEvuXxaiHQm+l1IkcxaukXX3UyThKWXePqPBj02uC0xqXb9yxGJaAlUfRMeEwLdlnpBuWygKclcHfuC/302q3iUjIGAV/Be3GtxTiETfwEDum6zsZJxlnCKtxPEfi4wYCTDzzBzUf6zflqUxT+CHfVkN4Gn0ZwynWcQ46HseAjwaagc8k+SR/aT9bFjTqgfdkrcsreOyUf9EvlLbLHw4SxY6FucjaHdPEY/njrPhsnjxNlHhGnEUc+1OnYLBnjLB7pXC+Lk7Enwhlrj5N9r3BIZfKrcfwRR/mpfJpx8jfq49k4qTz2XrPdHllnxrEENvM+Wh004ACZ20CZjBX2CemnlEcdKQHEdm6wF4X54t4iMpS2ZW6oT5EPSc+C/kSZF32qdbD2v5Qn13FFbnnppcOB18Yr28ut0h6wFeyz7H1ZiU9WP1XQqaece5EOjpIf7P8LfHK78lFkrtY+HC93wbvgc1z//j4jXHfW1JGDcB/3kpwG/29u7lJf+hD9LTr4yfTyLb/hFHGb2W9EJp39vf58g/C02E7pN/iYb/938xp5kkHQqbb+4/uim3nP7MgZ7TEGXbB8jhdb7p2jJ3HNce1vptdhvR9K/ED2Ftm3UA6ST74Grr2p5wT2eusO+pHGCHob7JnIqMik6E+R45F/qErm5tl+W7a0p/zL3//z9M1ffzX9099+Mz1gxmtoO/fyPdC2lUfnYPkvzqHB6qRBYJlAyXlqiGGd01Rv2xriJoFY7elH2r5+lcgvgbO37/z3pdMmq8YhkFY33t4V1q2bQXH4HFxR0Q7GSPDai1PdfoRLIqto5Btjrg4xYFRjajZqu0kfiBVy6XicFIN606mxFEMnj4zGOnEjSbg53MpOud0kK2Md+9S/HFmPt83RujxO5ZUl+RUnPEXi4JM3C9ns38bXRILe5s3L21gM33bqH2J1BPbLfcQ1BW4E3cL12PUCFy2Hdq57eZ41987FadRGOY5OwiHqYj1nu8Z8MDgRu6vBaWiNwDe179Z+Z71Fns7jbHH38ufitH9+OufKR1rCNNutOH7mpGCq+KLDHbBOuFZ7AugD2Ijg/1T1RH5gI6ogQfrxJMkvPLUUAg8yXno9MB2col6k1xTewg9tst48nox1LAcU46OvyC0v7fn4WOa18cqOnnfBuuZv5lHDPxNgrA7Clhsoy5H++35N3rcTt7Kf08yvHmcNXoL3mvr76spa+9zOZwJYH8qk3lfmcENdTdiIfqltADtRxnTkCPPYum6Pz14Z6oVNe/Vt2db5lfOXkYtg1D1TCFb6A57BLdhRgz9ij3Y54Ysytg8gWB3QvOpC3jdAptXnNw6QoWAreG/GuDOHPPccaC7fAvzi7ZspxCUqWwP+/lIwXGUX9j7nbK37VfUHFMTOyXfQ0t4V9jGQZYXxdpvTw9Fy2stb3bB5jDFdXcCpNmAame39iXoA2JIACPX6rXw8UpRQFRjTiTDB8M0b355QeuUonF6dVeVpjcH5yoZBfrmT/7o2wAQwCOPMYCT3KyOjbRfarJq/9glXxEjSe/vD9iNckjWrwVy8Bo5Ew451g6G1RkSNC6wV57Y2fSZOMpcRrKSeGmTlilzrQAnwKGx0y/jqRrUWE6/+NeAUMfJtSXGmaj3N+AdHQL77FH/10+Dx2U+DeVieUSbrlAOoXssYxkmq9EawhE22ulfjWPo7rhw5dXT/We5pTVmfmjWqM29w6Dkc1h7l4EnRx8KtY7C6CpwG1l3ZG+N4q3zVvmn+yOuZOB05T7X1Q30aHDN+hp+9PtUe9PnvBA2qMU0AAvUnzKH/Lb2sB9bXkf7DPm78Rez7ytLILS9tDwM277XxyoY4sQabjHVtizKPmr7UHhZ7hj4ZPh0X5rq6/zgP9LXtHiycrWxJM8d6LaOYCd6jddfVU5+k9WEzdpXfqodtbSfrqffpev/q66Cr95X+FqzOwlWx8vjslVndwLxX35bpeFuvwSbKvo1BuUo+BbNaLla+xmfQtxnAp7LyqfQO7SKmge9YX/uSssyrxv8YOK9C/x6GgrdXvr+s5njuL+1lZa2Acz4bAtYdm5P7c+7X+hTPZfHTJYqXjKlp+01c5MMxactpL4964aWvN+DkCECEY4WQBYaE7ChCqQuCsuNIXgNOXYVeL0AUTpnH+n5yW1yjzDm8D63KETfg7DwFbHCjiOQs9+UeKEcOyMV++obCvAuMMtiQRowknde6oa+qrZVx6s/nEnDDjtv0U9eV/jTgVGF7II9kXafhJOtt1hg56mGFm0h0tgSPuLG4zhccOIqhLo5Jxs/ivjF/LTjFp+ZgY0jr6a03Yy2yQAej2qjb/irOr8QMsdrTz6q2sr7wegvaHuGb2jHfPgo+zSEC7eHKta+Z82k4rdC7Mt+ib8FGK1cW1p/5tVCvjOPLYe7+VeCUOQF8Apwb/UN9A2yKrVqPwxxGcu80nGD+S3NYvi/4rbA3BseMH9h/GVMPI+34ye+Y2zdBjm5721bGTvYzfmxV1uM94ZR+0EzcibYmHZZCn0bn7DiH4r6Pb8gtL+0dCLDMa+OVtfjvm3fPB8k8ajAuPkSYS9Z7mQfovrbrcGe2/2rv9Q7Pdg/biUGaq+B9OL7Sd9bFnm63mKpPl+2mwTGXh7kvnR0MXmAzKp0zuOscjsLE47NXhnph0159W3bMfCOmEQNMG64FW6f22uG/6kG4pvvynaVky6xdrvSi0i0zbtWv6p7OA+sabjXtsO5YWvA+BuMynqxb94x8zfZecCvfdcpjZx6LfHpvNRjuy/odXEUPyjnypyk+LBP7jW+CYBp1uqwhz+sgjC2vbd7qhs1facBJgAShiBCN4UFBNKA6wqvrFCNbKZMIRQmj1wMEJWOjYOq5bCRHWmNQikoJCm7BcOd7Mg4QNGMEZbrWvBkZw6Bt0tUqxN51IUaS3ttfbL+WS8mQGL61BkfwbOuGzQCc29CuksFGeatsDJeOw0n5UfgTdMHggHpnN6b8OmJo42w0mVfw5BO8/iB8OtKhOIdP63Gq9A7k2Ftv1iuxQfoIrepeaF/s1zE6coJ9gnX255j0p9EPKQceen1ZHRsMtvTnMqaXyKm9fZX2a22UzrW1P00gzsEu88u5V+akY2y7XgVOWWeAT0Gn5Cln/cUQ1tfZ8xsf4UDczsEJ1nTEXMFuD/FDcDT7hrsvoo8n88ztku5r3tNtudfYjbRucy/4SKEP1TPhw1jAKa8396ltD8b4CDmZPpBbXtoeBmzea+OVZYzM+JvLO1j7eigydQ6GTRnsJ8P9q32t3xqo7afxkY/CIPUjeG/GcWYuBcsen3FdpU7QJcH21Yf0LaDyxknpU3QD27e60viOIpMgM5CTZ6Nn1rQFJ4/PXpnVDcx79W3Zlrnls2hes9qviKfwsNnvE47FjxbZ1ZhWcwHbrry2sqnkqnvqt++mR3ndS9qrHcZ0mHPkwNJfEg1nJM/G53W3/KnWkM5Etmx3PmCp55hoCwquye7o2nWu0kbWItf0V1RLm7gOi68bFO+9ZWTO8PmJNxkfZLl77boeuFpOe3nUCy99lQGnqEiwiVihwq9j2QA2Gwy013u5n2RAEynqj2uVDQwP13sFiMLZ21dor4oPhOgRNxBRMVi4ypqLQqRNIyiegyf+lYlqHssGwsMAMZK0V2dt2Rouxb7L5tqM1fClritjqWNduDO/8TZjDOB4Bk4yj/VYJTmLoQu8UuMs5UWPHvBjnQv8OzJAdz04CRYFm2KzfEdA5BD4E3BN7TLGqoelvy0csm0QK3uP+WLPzsBpld5VttjjT3SMKidwROdm/1pKWf8oFy6LU8JgcN2ClX58uOid6plz3ekcI4Zn4IT9H5Eu/sAgD4SjgFE+sBiHWPvN9jD7Z2YcsH15X2324nr/yvVwP80+U71v416FH8etDgp5PNvWzBXHu3AaueWlvQMBlnltvLIjOFb1ATYOZZB5tIRrlnNHNqv7LzLPXM3B0uP9O8RC8Mb8MWn0R2Zspepjg1fy7fR+kkctn3lcVPfxR1uUta4z+9RLMt943+OzV4Z6YdNefVum61l7tb5BgxHIJvrg1icQ+dqypBehLfqR8bVJ3Qtjf3H/y+OqLU7BlCrgITII92Of2Y9tZDPPjbUYSX3Be0u75TZwjhF/Qva1hIFgEuSDeiCYQjDWyq+VUey/3a+iXmbcM4aqu859mRfsu8tr69jHPFZ933Lay1vdsPmrDDgdDdQ19IfCuYb5XOMcECNJX+Mcr2FOxKk2hD2ZEKcxnAQ/xKqHJ8uJ0ygHyKcx3SNOYziN8o71Cp7ILS9tDwM277Xxyg7HvHNwqgMass6ZYIkXbNaD4XD/+NSdBp71gG7H1vKC/xG4CN5H9IN9hENwPpjKOry5zwUFpI0GMRAH7Mcc1Bt5aHuDVxNAUdzTVWXYORTjOkfSHp+9MqsbmPfq27KRuTxtHZRhLYMSDIzlqHcaRJKyNkiS+hEZ5j/MUPcd1zjHLa/+cpngfTR+ssbmCbIQbEKepyBb9aPVu+kx8VTwskGjjG/oC/UAdcl5XS9wPgWcUmCrWnPHrlV1duiN5bSXR73w0gw47RDAGkGicNa0u6e6iJGk72nta9ZKnJY3IMGTOI3hZLFaw8V7q4ucure1r1kvcRrTPeI0htMa7rFuxBS55aW9AwGWeW28MuJ9HocFb+J7Lr4ep20Z6oVN27penjI8T4aCrWBOjM/H2OM2llndsHkGnBhwuhpFReLSgPSNB3HqY4ObDnEaw0k3bMULMWS6xlAxkiuxqbFBPIhTHxviNIYN4sT0esxQB720PQzYvNfGK6Ns1stmFDPBe7Qu662Xg8dnr8zqBua9+raMslkvmzWYCd5r6rPuenlYTnt51AsvzYATA05Xo6iWwDQKvlEgTj4uli/EaQwnwQ2xsjgyX3AkTgWLOV4QJ+I0xw/eG+PHHpxQB720dyDAMq+NV7Znjmw7zwPBmxjNY7QHH4/PXhnqhU179W3Znjmy7bL8BW/itIzTHowsp7281Q2bZ8CJAaerUVRL4D3K8ZzbEqcxw0qcxnASXUGsnrPu7F0bcRrjFHEiTnt1je3HONTDCXXQS9vDgM17bbyy3vgs3yc/wU/wJo77cexh6PHZK7O6gXmvvi3rjc/yY2QreBPLY7Ds4Wg57eVRL7z04QEnbxIs+2N1oCMexIMcIAfIAXKAHCAHyAFy4BIc8A4EWDY6p94BheX7D4AiA+K4H8cehqMcR72w6ZE+euOz/BjZUk+OwXGOjyM8t7ph8ww4/YHOzgiRWIc8IQfIAXKAHCAHyAFy4PY5YA8DNk8Z376MKcNjZGh1A/PE+BiMiePt44h64aUZcGLAiU9fkQPkADlADpAD5AA5QA7cCQe8AwGW8QB4+wdAyvAYGaJe2DQxPgZj4nj7OFrdsHkGnO7EuaAy374yU4aUITlADpAD5AA5QA7s5YA9DNj83v7Znhx9LhywuoH557JGroP6upcDqBdemgEnBpz4iyY5QA6QA+QAOUAOkAPkwJ1wwDsQYNnewwfb8wD7XDiAemHTz2WNXAf1dS8HrG7YPANOd+Jc7CUS29MYkQPkADlADpAD5AA5cPscsIcBm6eMb1/GlOExMrS6gXlifAzGxPH2cUS98NIMODHgxF80yQFygBwgB8gBcoAcIAfuhAPegQDLeAC8/QMgZXiMDFEvbJoYH4Mxcbx9HK1u2DwDTnfiXFCZb1+ZKUPKkBwgB8gBcoAcIAf2csAeBmx+b/9sT44+Fw5Y3cD8c1kj10F93csB1AsvzYATA078RZMcIAfIAXKAHCAHyAFy4E444B0IsGzv4YPteYB9LhxAvbDp57JGroP6upcDVjdsngGnO3Eu9hKJ7WmMyAFygBwgB8gBcoAcuH0O2MOAzVPGty9jyvAYGVrdwDwxPgZj4nj7OKJeeOlVASevA5YRASJABIgAESACRIAIEAEiQASIABEgAkSACBABRIABJ0SDaSJABIgAESACRIAIEAEiQASIABEgAkSACBCB3Qgw4LQbQnZABIgAESACRIAIEAEiQASIABEgAkSACBABIoAIMOCEaDBNBIgAESACRIAIEAEiQASIABEgAkSACBABIrAbAQacdkPIDogAESACRIAIEAEiQASIABEgAkSACBABIkAEEAEGnBANpokAESACRIAIEAEiQASIABEgAkSACBABIkAEdiOwKuDEP1t4+3+2kDKkDMkBcoAcIAfIAXKAHCAHyAFygBwgB8gBcmAvB5YiUgw4/YEk20sytieHyAFygBwgB8gBcoAcIAfIAXKAHCAHyIH74gADTgwoTVT6+1J6ypvyJka5Vt0AABE5SURBVAfIAXKAHCAHyAFygBwgB8gBcoAcOJsDDDgx4MSAEzlADpAD5AA5QA6QA+QAOUAOkAPkADlADpADh3KAAScS6lBCnR0hZf+MwpMD5AA5QA6QA+QAOUAOkAPkADlADpAD188BBpwYcGLAiRwgB8gBcoAcIAfIAXKAHCAHyAFygBwgB8iBQznAgBMJdSihGGW+/igzZUQZkQPkADlADpAD5AA5QA6QA+QAOUAOnM2BiwWcfv/Lj6eHh4f5/59+F4Mhv/nV9DHW/fS76ftP/baff12TRuvZ8llgv/4szkvH7wSlYt8fT1/9ph7zT6l9f8zfTV89PkwPj7+aft/pu57fd9PnDw9Tvz8z/lCfbFNjTDyIBzlADpAD5AA5QA6QA+QAOUAOkAPkADlwFAcuFnBatYAUcJKASwjyaMAJAzZOkGcxqJXaa1BqMQAmQa8chIpBoJIHUjpzqde7MuCkAbCHz6bvGUziE1nkADlADpAD5AA5QA6QA+QAOUAOkAPkADlw5Rx4tgEnDCJ9/MvfFSLC01LeE0PSDss1wFUHjP44aTDr81+ap6/wSSxJS1ArB4z8p7Iw0IVjy5hxHZ9N32sfOeAFAa4rJ5nFjnnKjhwgB8gBcoAcIAfIAXKAHCAHyAFygBx43hy4qYBTDszgE04aiNHgzh8gGPR1egrJBoE6TwrlIFV+cup30++/TgGlXCaEKP3aAFFQmDSnfC/lS+CrfcIpB7DSK4EaaPo8vDooTzbFNp//8nfT79P4pb/nTVIaIcqXHCAHyAFygBwgB8gBcoAcIAfIAXKAHLgtDlwk4KTBlRxAagJC8CSQPNEz8kqd95QPBqOqMdrvLmmwyQ/ipABTCjrh/ENQSeaHAandAacSkPoqB5yAWPqUFo7prZ9l5ck2YkEsyAFygBwgB8gBcoAcIAfIAXKAHCAHyIEn48BFAk5VVDIHhWa+T9QLOFVBpBikkoCRBo9CQKt5BS0Fc7Ttp9+l1+NSEOrrzyYMOklwKQeVHh7CPen/48f40XO5pwGo3G53wKl8H0qfdLLfborlbeCswpaK9GSKRNwhIErekXfkADlADpAD5AA5QA6QA+QAOUAO3D0HLhxwKsGf+PpZzOfAjRJUn+iBIFEIuDx+HP56HQaEYj/14bcXtGmDBDqfFMjRce2TRF9/l7+ppONVAaBOwGnkia7QX2pfgmdOMC7NrcFKMeP17pW75XetF7xPPMgBcoAcIAfIAXKAHCAHyAFygBwgB87iwEUDTjFIA3/57Tf/f3v3rxs3doZxeLotU6Zwv40BVesbMJBOqdRu3LhUub6BwAYMJF0MpNhu14usqxS5AFVJsUAWSJVLSOOLYHBIHvI7JI9MSqPRzOgphOFw+OfwPT+S77znG+qn5g8XY6XScNBtuNKFQO064RlO7U/OLv7Y/Pxdqjjqg5mhair8NC+HVfF1GiSlkGYImb7t2rK0TFpuGiq1z1VK1VD/mn8WAqTumPpgK2w7V0mlwKmbDsebj6sIkfptzCq4nCwDN4VedKELBjCAAQxgAAMYwAAGMIABDGDgUAw8WuCUA5b2v7gVwUCuMgr/La4NbEIAEwKn/ADt5Z/P5f/yFrbV7qt8JtNU7KFtKZyqBTqzwClAe9tn7f7ngVNsQxuq9WFUF8rFCqeu7bmyKq5nOvRBwZT52MAABjCAAQxgAAMYwAAGMIABDBySgccJnHIVUaw2WpzuQqY2AIoBTAicuodqL1RF9f/VLQVRs5+d5f3PwqQx7EpB01CBtZsGVksVTiO4sUJpuTNvD5ziOl0bOh3a+dW2j/uP65umCwYwgAEMYAADGMAABjCAAQxgAAOHZuBxAqdfx8qjeYVTD0EKVi6+bd7+pXsI+Dff/dS87X9ul6p75mHQ9EHbu6bYdl91ND5Haawamm+rBHGx4mlWxRTCqhSehZ/LzTt1feA0/MSvCORCAKWSx7OaMIABDGAAAxjAAAYwgAEMYAADGDgyBh4tcJqHMGXI43N6YAADGMAABjCAAQxgAAMYwAAGMICB02RA4HRkCaAT6TRPJP2m3zCAAQxgAAMYwAAGMIABDGAAAyMDAieBk7JDDGAAAxjAAAYwgAEMYAADGMAABjCwVwYEToDaK1DS3DHNpQUtMIABDGAAAxjAAAYwgAEMYOCpMnDQwOnNzefGHw0wgAEMYAADGDhlBu5jGk/5uLXdeYsBDGAAAxjAQGZgjR8SOAnBhIAYwAAGMIABDGxgYI3Bqi2TTZpXhh0DGMAABjCAgVNmoOZ14nyB0waDecowaLuLGQYwgAEMYGA/DEQjtXVaH+ynD+hIRwxgAAMYwMDjMrDGAwmcBE5GtTGAAQxgAAMY2MDAGoNVW4Y5flxzTH/6YwADGMAABvbDQM3rxPkCpw0GE5j7AZOOdNwbA+9fNbvLT7MvyleXu+biPZ33prPr5Iwx2j7t8ysaqa3T2Hna7Oh//Y8BDGAAA+fCwBoPJHDyRcoXKQwcgIFfmpfPV4RAlQDpzc2n5uL5u+b1Ql+lcCmGTun9s+tf5seUtr171VwV21hqVzdvt9s1+e/iMq07vh+nXzQvP7ppnstN03FgeS0DawxWbZm1+7AcHjFwpAy0fmLJE4R5w2DYp+Yi+Ic0GNb6ljCv8xRTf5LWu4vHWPI1Czpu8Vsf3zXPsge77djzMjepDXdp+0I7C8/mc9cEDBwbAzWvE+cLnFzI5l/MaUKTh2AgmZTBjCzfMOqVSfPA6fX1i0oI9GXDNwRGz180z6amL7cxGaxsGIMxS/vtqqcYqmO76WnP8nlFl/3rEo3U1mn9sf/+oClNj5eB0b9k/3B1OQ1jkp8oA6flUCr7m+n6k/7fs996MwmcFgf1om+c+qepz2rfl8d7vP030TYep2nflzDQrPFAAieguFhgYO8M3G6UsmHqX3Ooc0sV01KFUzZu2aSk94UJCiFR2560n2DC0vJdxVM3+jj7Cd4qw/QF04etvbOV+9srE/yYDKwxWLVlHrPd9u28wcChGVgTOCUfMgYwnWd5VczL/Tb4md5fPKzf6qqlhkG63a5JFd/Prt+VbUt+qWj/eCxdu6eBWnm8+di8HppN+8Pc/RmoeZ04X+DkC6EvhBg4CgbaAOj5u+bqC5VLOVTqAqNJeDUdRcthVgqapp9V3g/B0zRw6reV9qvC6f43KDd5Gp4yA9FIbZ0+5ePWductBrYy0A1qZQ+S/EOucIo+JnqbPN0OtqWQJz2Tsg11VjyaYIWn3eq34mBdmm7bFwbwUug1eKf3r4rp7pEHC4FTriZf0V7MbWXO8pg5HANrPJDAyYXuKMIGF4bDXRgOq3U3OjYYkZvPTWt0chA0nH/9KFrVgIwjhLn9Y/DTaZfejybtc1fNlPeTDdKwv2W98zbLEcMXzcvrWmClwin3h9dlpuhynrqsMVi1ZTBxnkzo16fRr62HqQxY5VBpeG09zehfRo+x0jv0IdOwvRw+LXqZh/NbgydKxxP8VOu7nr+YPUdzaG/2YLMK9lET583TOG/08/n2c83rxPkCp8WL9vlC4YTXtwdjYDBKE2M1VBuN81sDl56n1AdOxWhZe47Ozckq0zeYndTv5SjjYIha4zi2ZdBHhZMw2v0BAxUGopHaOj1cYyrb9rn7NAZOh4HOvyz/U5OuH0f/kpbtKpyWqrOTD+kH33KgtTAIN4Q/aZnscR7Ub6X2d/4sVaB3P6nL/5gl+aoF/3Tzqbnq/1Nw1astHBvuT4d7faWvMgNrPJDAieHzhQID+2egDZX63/AnIzQYi2BOWoPULXN1+aq5KpZLpiuamNGw5QtcNm7xfbXCqe3j+Tbyurm8Pb9vX1N7spkLjEz3W6wTljPfzRgD58vAGoNVWwYX58uFvn1qfRs8TfX+Xw52dYFTVzk9epa0zPS5R72WoaJoka8H9lut57kOPi60J4Vfz1KF0+DxUpvnx9v+HDD6qYq/Wjy+qq5PjTXHi4/jZKDmdeJ8gZML2f7DBprSdMJAO8J1+an9V8CjwZpcOIvAqX9ewWBQ6mFRvgGlfVS33banNEFlhVMabYwBV7n/tv15xHHyGn8umNviddK3Ex7oQ59TZyAaqa3Tp37s2u/8xUDHwNR3tAHMda7+yZyM/iUtPwROH8eQqdzOpMpp4jk67zLxK+Ee2/qVPfqtq+t3zevoz/rAKe8nsTCbLgKo0k+17AicfE8IzLqe5GvFab6u8UACJ8C76GHgAAz0Yc/UhETto6GJ89vp0bC9uVljxkK5+rDPuI35RX1W5ZTa0xq90tglYyVkmuvHMNDkKTGwxmDVlnlKOjlW14WzZaDiWZJHKAa/wnLZPwx+Iz9iYPApU16m1d7p8zSvUg2V/VLyLtVt9gFQ9fMFrxSOoX1oePpPdcX6tXb2DxMPVVEtD2l7w4Di9Ji9P9tzZubt9fU59HXN68T5AifwHyBscEE5hwvKnY4hmYoY2uT3S0YjGprpeXnbZ/2yM5M33cbsoZUll4MBDIHWUrCUDeOd9Ji1qWyDbdIDA6fBQDRSW6f18Wn0sX7ST3UG0iBaGIzK3iZUI+XQKXqT7B+y30jvqxVL/TbnPmSsjCraN7Shb1d+vw+/lbaVA6ZpeDTzNXlQMOgzXScFbUvtmm0Lg0Uf08d31iNkYI0HEjgdYce5uLjBnDoDw0Mts0GZnmd5VG+3G0cCo6Hplx/NWFhuuq2wbDZ4y/r1VVbBEJY/qwvmKO4jm7baerVjjNswzSRg4KwYWGOwasssX5/c9+iCgVNhIHqT1kcs+IAcKnWvZQgzeKQhdAlV4NkfxW1OfEj0OsO24vLxfpO3dx+/Ff1Z2F7pobqqqpeXwUvdtmzyVLU2x/abPqt756mc49q5/n5U8zpxvsDJhcyFDAMYwAAGMICBDQxEI7V1mpFdb2RpRSsMYAADGMDA8TKwxgMJnDYYTLAfL+z6Rt9gAAMYwMChGFhjsGrLHKqN9uN8wAAGMIABDGDgIRmoeZ04X+AkcDKqjQEMYAADGMDABgaikdo6/ZDGz7Z9scAABjCAAQxg4FAMrPFAAqcNBvNQHWc/LhIYwAAGMICB42VgjcGqLaNfj7df9Y2+wQAGMIABDKxnoOZ14nyBk8DJqDYGMIABDGAAAxsYiEZq6zQju97I0opWGMAABjCAgeNlYI0HOmjgtKZBlvlfQwMaYAADGMAABjCAAQxgAAMYwAAGMHDKDAicfgXwKQOs7fjFAAYwgAEMYAADGMAABjCAAQwcHwMCJ4GTiioMYAADGMAABjCAAQxgAAMYwAAGMLBXBgROgNorUFLl40uV9Yk+wQAGMIABDGAAAxjAAAYwgIFDMyBwEjgJnDCAAQxgAAMYwAAGMIABDGAAAxjAwF4ZEDgBaq9AHToxtT8pPQYwgAEMYAADGMAABjCAAQxg4PgY2Gvg9KWN+ZwCFKAABShAAQpQgAIUoAAFKEABClCAAn//3Y/Nh6/eNj98/aHZxTekoQAFKEABClCAAhSgAAUoQAEKUIACFKDAXRSIGZPA6S4KWocCFKAABShAAQpQgAIUoAAFKEABClCgUEDgVMjhDQUoQAEKUIACFKAABShAAQpQgAIUoMB9FRA43VdB61OAAhSgAAUoQAEKUIACFKAABShAAQoUCgicCjm8oQAFKEABClCAAhSgAAUoQAEKUIACFLivAgKn+ypofQpQgAIUoAAFKEABClCAAhSgAAUoQIFCgcXA6a+/ed+kD/zRAAMYwAAGMIABDGAAAxjAAAYwgAEMYGArA9//9s/Nh6/eNj98/aHZ/eP3f2vfpBn+aIABDGAAAxjAAAYwgAEMYAADGMAABjBwHwbawOm/P/6nyQnUfTZmXTBiAAMYwAAGMIABDGAAAxjAAAYwgIGnzUD6Bd2///TP5v8yg/U5EHakpwAAAABJRU5ErkJggg==;opacity=70;" vertex="1" parent="1">
          <mxGeometry x="320" y="1160" width="1180" height="254" as="geometry" />
        </mxCell>
        <mxCell id="R27VUwDnr8lnY172pskY-24" value="" style="shape=image;verticalLabelPosition=bottom;labelBackgroundColor=#ffffff;verticalAlign=top;aspect=fixed;imageAspect=0;image=data:image/png,iVBORw0KGgoAAAANSUhEUgAAAPoAAAEQCAYAAACZRGltAAAgAElEQVR4Ae2dz48dx3HH30k65pgDr4IuBPe0uulCAr4xh10iF4HLiy4CdBKpW07ECiCgIBBIIjHsIIh+MFkmcSTGgMMITmQ7NOOVZPpnbMWWEtuJLVig9Dd08O3ub3d1T8+8N+/Nm5k3UwQWPW9+dFdX1aequudxd/H4R783/3L0tnn7S2/qj+pAfWBiPvCNP/5789vv/NosAPntJ4/1R3WgPjBRH7iz92WzQCZX0DXQqQ9M1wfeePp2BB0f9J9qQDUwHQ0wiSvo07GpzkQ1UNGAgl5RiZ5QDUxPAwr69GyqM1INVDSgoFdUoidUA9PTgIK+NZt+bj589tjcfuId84kf44ubX7FvNd69v+qgH5l3n3A7wKs8Y/t/4ivmw4/T/j95obCL/OwD80W4rSqrMTxX7S88xoP779h5ndz8nGdCy7FXkR8Ptb0/DKQHjRpQ0BvV0/6idVQLmweF72OfeMd86EFPXl+98JEbxMOSXOOzDa2Fq+FZABZlwlA+eCwDnX0m95X0IebZEGQU9JLu+junoHes6wgVM+KSjP7x5yKzQpjPzSf3Pzfm4wfmBNncB4LYrzGf3PfBIZE9HU9WD/LZ1UAX8JaCjAfa9ttwHeIV72kIHsX7xRilqiFRg34oakBBL6pl/ZMRqhQ89CjhcyO47BqyHbMoHPvZrxRBP8FywDt+6vRppiYwyzI672OfaE+erV9ixPmtpiP2H+a45LG29y/pTi97DSjoHbtCAOGmW7cGgJ59YD7xpXsAVGRtOvhtlr+8ZqF/YD7EOrt0TWZ8QOrXyUGOj1co3TmW309AQLJg2vPpGl32axiY8uWHyNicl4LesaO17E5Bb6mwptvp1AFulpwElOtjnkcbrn1uvvg4br5V+pDP4PiFj8wX9z+yZT8rhdsimNjnPXBFuQowcswkWPixOO8EdM5HBAjbB8EXpXsZ9BbzffLYBR8Kom0rDSjordTV4mZmSZtlPzIfvoBd7ujYjY4fAE2zqR2d/QqYvvj4gXlX7O5TSgYAgsvzScv+bNBxG4YnCCKUVQSE6k48lydOTgaUd+/HeTJ4hDYENkjh7yvIHmWM+wVlncU79aheAwp6vW7WvBIdMzi3zMbPvmPexTpbgBoH8o5v4RKwAI5sKbCK0y8H3ctKmSRwviy34+DYXkvBhtwRbnmtBLC8zhmX7uM1tv45zehUyFqtgr6W2pY/RAAAe5JRUZ5zQ02CZbuUoPsxAFkxKEQZCHQxsMggkx+/8JEF9d37hJBvCPxnG3AiaLdDQBCVRlinv+Pe+csglcyPY4hnmdFzuWo+rxLcolb0SGpAQZfa6OC4NXQJDCKL1zh7AnNSBkfhGWS4ex7awhdavrj5wHwSvhzjQF86h9K4XALYoFTK1CXQo8x6tF0NKOhb0S+d2mdICYE/ttmp8g59VWHYv8yOeNaf92UugbUVBTNvsubmeOzPyctAkVYSIgglwcn3wf4RoF7w2T25j2MImfGMDxoc01U/vDfVn2Z02qt9q6C311nzE8LhkUnDGtcC8JExFu4IDZ2Xjp5k7FJWt2AQhAwa3C/gSkCH1Aw4+XKCAUI8W56kl9sHi1zmuESJ86vMh9WAkMUGFH7OlgvoM4zDZ8vC6dkGDSjoDcppe6kJLDg8oQ79+qBQOR9uqDvwIHkwCULeT0UedsdgFNb+DBw+g/I+sdkWgF0aDPBwKp/rjmO44PTF/XfsF4JicPDXqacE/Phlo3i/EFIPl2pAQV+qonHcQJgDcJWsPA45VYpxakBBH6ddVCrVQKcaUNA7Vad2phoYpwYU9HHaRaVSDXSqAQW9U3VqZ6qBcWpAQR+nXVQq1UCnGlDQO1WndqYaGKcGVgb9s0efGv1RHagPjNsH6sKMgq4BTAP4hHxAQZ+QMTWrjjurDmkfBV1B18w9Ax9Q0Gdg5CEziY49jipDQVfQNaPPwAcU9BkYWbPqOLLqkHYYBPSTw4VZ7F03p4Ds3nWzv9g3x/c+NafX9uP5HEB738IsDu/UZiD7/GJhFk0/fJ798d7DO8bKxc+iPbqVOgrvy88PaUgdO7WR6iPVR4+g3zFHi4XZv/YwAeroGkD3cAL+ew9tAFgJWj5HePPg0PTZgw5YLbgEnQEIz966bIOGBHqpXPL5pvH1Wm3AVkhTSLvQx3CgEwiR0TEhQsfJnRxeNicCSgffvjm+dd0cXXu4vrOIPjmmbSlXAXR73QcXBCzK6KoSF6xkUAjXFeqoK9XFILroDXQJiSytj265TC/P7V+7Y473mOX3zdHhZZ/1983xNWTZfYNK4Ij3bJDRw7gyo/tMbq958JnJS/K6Pi6bE3XiQZxYA+ryCqA30KUxCI1bpz/0ULt1evE+luiVFpl9zVJ/lYxeAlcGgUSeqvxyLnq83BlVR9vTUb+ge7hCFiUoNms+NKf30om6gOAAOjnMQLLAZecIZoCxIcvWgU6ZRJvvK1Q3BBmsfBWyToVB2bXVqmALPtAv6JhAgFBC6sr3fH0bQY/l/X4o48XOfaKYCJ3rz31O1tS4Pw86oXTft8sE+6wIBnm2cUuRhkCSyJQGsLwv/az62bYP9Ah6BLCS0UX2lNkygu4coZLVCzCFvQBm1Xt3wlo+gd1CzGrBvbazz+5dN8f+9d8JXvctPMwhQPmsLWWWx3IzryDftg2q/WvQKPlAj6A7Azh4HTzy2AmHzA34VgwKHjBWAq6/UqaP/fHesHt/L+70E/TTR7GCkIGHCmQwCX1ZoP0zCrqW3iMM8L2CHgA5vG6/IOM+x9dnJagIV7H1WVaW2Y3Vgg0MLovboOChtHKE0t1ndB9EkirgUQwY6XmxFGAlMUJjF3Wocs4iMPUGugQrWR8DDP8lGa7fKxBJZ6yU0HGdzEASvnUnn8MxyvW9y3anHvfK13gIFuH5xcK4bO2zNIMA4JcZu0EWhUpL6DH5QG+gj2nSKotCODcfUNDzrK+fZ1HKKugOff1VUgq8Aj8hH9CMPiFjzi1L6XxXX4JtHfSX33ts9Ed1oD6wXR9YFvQUdA1EGogn4AMK+gSMqNlwu9lwCvpV0BV0zdgz8AEFfQZGnkJG0jlsVrUo6JME/a7Z81/RxVd+9248Npculv6zzRVzKZk/nnvGXHhrFafCvS2ev3HFnHnx/Vg9vPWKOXP2FfP8e++bC2fzflYZX+9pE/wU9MTRp+I8d82eheixef7FZzzoOcBVwMrBgAEiez6AmwaV/P8SIMhYhwz3+88Kegx6Pfiggt6DkttE3m7uXQX0NCNbyC9eKWRpXw1cvCsc831z4SKyMaBN+5Hyo8+9GwgoDBYLs7Bj+M8ho8vrcpypBN7h56GgTxX0SunuMjIyPLMuS2mc47ED15X7LyPr+tJfAvzyjSu2SkCbgCvG5Bia0YeHHLZT0KcK+tLSvcYBPdwEFW2A1esqlPh2jPqMngeHMxevmDOsDLR0FxVSjS069E0FvUNlJo49aL+l0l2UxyHzIstnpbUPEHIuAWw8Z0GV63uA/ow5I8vz0P/CVwp+jBAY6kv3PKhIOfR4/YCgoA8K5PqGa3Z6wBfBBjyXLj5jLrwod74bMnG+cZbpKCn/kaXPXjF7duf8rtlDIPDPuyXBXXPhbD72Y2OXBRZ8GTS2pQ/tV0HPnLgZoF1xmFJGR/aOcKfr8iyriyARS/hs1516s+v0V9INN/F8WPvnwUNLdy3dpwHbgEEhQFR4vQYwAWKhRHd6B/Q51IWsy34WKM+RtfEuvJTR/btzkeVD8AgZPVYf9XINqE8GtR1uNaPvsPHqAqLM1jgOpftbDnwHWg6zL6cLm2/5KzT3Kg6vwdz63K3zVwM9yByCUSGITNAmYd4DzU1BH0jx2zS8XY+HTTYHdNhQ4663hdRndmZnmeUBYqkEl/oK5XgOa9wjkO/Rk402BV1L921CoH1rCTxHH9CMLjOUHveaZeYI3FBzVtAVboV7Bj6goM/AyENlER13PMskBV1B14w+Ax8YHPRlAuj11X+Tp+pKdbWuD2z9l0OuK5g+p06tPtCdDyjo+nvdl/4XRwWuO+CG0uXWQd/FDRtpjF2UHzLrHMaxUdaXHeQ4pWMFvbBRIxWloA8HjNphdd1LXZWOFXQFfbS78tJhNeA2Qy91VTpW0BV0Bb3gA10FFgldV32W+pHjlI4V9IKRpaJKSt2FczqH5gzYlw37soMcp3SsoCvomtELPtBVIJDQddVnqR85Tul4VKDjv1qG31iykfLjf6PE/81O/vvkCv1KRZWUWj2H/8YpfrnCGmNW+0RGWn8e7eZQlX9R+eMNm2TI9ebRbg6Ub72xyvrfvM/15sBxV2/lOKXjCYLuDB3hzv8v9XLlSUU1OwD7whjiFz3Y/+stPq8QXKrjbDaPdnNwoEedPba/F26dINnlPNrNAbbYTGdV2Tfvs/0c6FPtWjlO6Xh6oIdfeNBOUdLIUlHyfP1xBvp77o8ibFSdbDiPdnMogI7gZAPWhn9OaYN5tJuD/IWU69u+YuMN5EdfreewVlJIx5Fj8njcoFtHiyVxknFqr+VRvb3RqRy0FcMXDbEE9FpZCVNpjpvNo90cakC3fzdNLH16nke7OcDOS3TWs/wKehGWPAvKPwvEUpLZpeka7wU8vL8d7O0dLAPdOhRL9yZZm65tNo92c1gF9CZZm66tP492c/A25q/Nqti+Scama+vLr6CvBLozHH75Yfitopnxmq5ByeF6+D1qqwHf3sEcKFFOQh7HC7LY39OWBqCma+vOo90cmkBP59Ika9O1debRbg5R101jNcnYdK2pT1yr+9lkDnV9ls7LcUrH4y3dfZkV1rn2swek6VpF6UvKucr96XqnpNTquSyjyz6bZG26Jvuwx+3mIY1dlTd3zBrQkR35CyWbZG26tsE82s0hnxM+C501ydh0bQP5offN51CaV/WcHKd0PF7QpZOF7OxBb7oGoyUZHMZOs9Iyx5eKWnavu94AepOsTdc2nEe7ORRAh2xSb02yNl3bYB7t5uD3O+ps3yRj07UN5G8HughKfjPX/XksLh3SKjD3S6mr0vF4QfcbQSyH7R/wC6W7c8zyNVGy+19nnGziVSJ0c3TMFVr+3AD6QPOQxi7LLOed6tPqlZk86Cu9pw97tJuDm09afouNxNHbYUagL3dI6ZzbO17HwcYiO+XQOWzPP6jjVdq+7CDHKR2PKqOvorg+7pGK6mO8bYyhc1DQpQ8o6KE0jY4hFbQNCPvoU+cQ7dmHvuvG6MsOcpzSsYKuoNe+Gqpz3r7OS4fta8yux+lrDnKc0rGCrqAr6AUf6Ap4CV1XfZb6keOUjhX0gpGlokpK3YVzOofxle7SJn0fbx30viek4+3+byxVG3ZvQwVdf91z8u0thax7yMagUwVdQVfQZ+ADCvoMjDyGjKIyDFspKOgKumb0GfjAxqDXdaDnVQOqgfFr4O0vvWluP3ls3nj6tlnID+MXXSVUDagGVtWAZFtBX1Vrep9qYMc0oKDvmMFUXNXAOhpQ0NfRmj6jGtgxDSjoO2YwFVc1sI4GFPR1tKbPqAZ2TAOtQdcvRAz7hQjVv+q/yQfq4o+CPoMvUTQ5hl6bVuBQ0BVo/WbcDHxAQZ+BkTU7Tys7r2NPBV1B14w+Ax9Q0Gdg5HUygD4zrSpAQVfQNaPPwAcGA/3kcGEWe9fNKZR877rZX+yb43ufmtNr+/F8xQB3zBH++gqfq1z3z/u/0MK/5FJpD+8E55Zy2LFLz2bj2WcWl83Jo0+NPG6bBd2z+Kuvbu7ueTfH/WsPUxkXC3N0a1pZpq2+9P717d8z6NGJo5MvzNE1gO7/RjiguvfQBYBHOfg56A/N8d5mAFg5PMgOdAcwnUpelyAubLBw47vjghFsAIt/+7wScBLA3fMMNke3fN/US9bKQEBZtS3YoJAM5qinYUFnphQZHUawcFmQPNjWyQGgBD2/1t7IMtgs9vZjsMmgAqDMphHET81nty6LP+mcAc25WUcT0CbnMQcZWPycDu9YHViYfbBQsNvbd45A1825V9ATsARMR7cktA4Y6dgWrsPL5oT3AZZb183+3sLI++om2XQ+ZmzIgBKaVUL+GY5GOV2pzWePsQxJgJVOyWdyWeP5NIigb3cN553OfDDIAmLTvPSatIEe9wq6dD5mRrfeZsaTa9WScTwcSVaM94U+RRCplss+8/p1OmE9tRA3gx773zfHCDQ+0ycwZqWiu5Zley8fAadeknshn68Ywn1hKbBMT1En7Fvbeeukf9CDs2bOb+F9aE7vRYMkjr8MXg9ucOhQVsvSOPbN+zjG/rXrbqMvQBgzLkt33ms3z65dNlybx/OcUwlEBrOY2e1zRbnd89V+2f8ijM15aFu1reok6qR/0JHxAoQSiFiuVg1ESBy0LrPKZ+OE3LO8n2tr9zkt8+M96a433wLw2dj36bXr5sTKno7tgCwHlFgF5HDeMcd7+36Nz2d9cBHwu+dx3V1L5xBlq+pMr6lOog/0DLqES2SnPFsLR3fG8gD4kj0FvQpHyITsB2vePTdeDoq91675GzbWIB/7agX6ivNl/yEAQlYHfwwiCrqCG8Ftq4ueQXeCxizF997MaLgOh04zJrMiIW0CnfdW37VH6MKalzv8Ys0fnvfBh2MGxdaCngYu+Rz65OcIrpOH50P/yRpfBrEIuu2DgSe5f31HKI+v/U1FL72D7hx9YY4Or9svyATH59o9c+AAXgVGHwz8cxYY9pFXCJXPMZDY8X3fuSx8l53AWAu6DFYREM63mqEfujcHkE3MDY4V5mzlpqwK+lSgG2IevYJuHZhOLaEE3PySjC9fAVeAJIPffZNOZtAIWXiG4+QZD+PuXTbHt9L+7XN8xsvGzG+vUYYWoDtZvGx+XvYtAMexsvlKw787x3UXWBzYlOGzR7Ei4ebgEA6jY8Ygvku66BX0XVKMyrqbDq12K9tNQc8zvn4O37FXaMrQ7KJeFHQFW8GegQ/0AvrL7z02+rM7OmDGUpvtjs1gK9qt1CroGoQqQZiOoqAr6JUAQecoteowu+kwarfdtFuJwQqw/kSnv+5ZHWY3HUbttpt2U9C1TK+U6SWY6Sila3puvPDTbqVWM7rCX4GfjqJQjxfqkm1ot1I7bdDfesWcWVwxlwLMd81e8jkzpL3/GXPhrcfm5RtX6n97DL6aevYV8/x7sj8cy2/rpcd7N7KxKJMck+cGbukoJWfq5dzW7Ub7St+Afd43F84uTGord85+o9Hbd+9inW943xnIfrRbqZ026FC4cJpLF1P4EuMRRIL34hWzuHg3ZLvnX3wmcwCCS9jvmj0LPx0mOhHGpfM0ySDlkWP3ApdwTjpK3+Mm423VbjVB+ewz5kwerGlTyEN/QBLwx9EvEBAU9ABMYkzhXFs9f+OKOXMRPxHcAB8MSGNKebwxYcgEQOsIJYM60C/l91+8a8JY7z3OjtN+otMwiAzTjgJ02GJLdrPBFr4AG3vbOzsjOLsgwMAc/DIHPQ8ItX7Rnw1pt1I7+YxujXr2FXPprfd9sPHR3EdvadDgAN7JELXhAGde5LPM1gA0lnSuj9Uz+pmzpeCRVhvpmP05CxybjhKcXAbAno63ZzeW7am+q8HcXQ/+kYOuGb36/eChHAbOEoAJa+5YUkMu61CIxt5wAfYVM3rMwgD9itk7mzvQFbOXle50nksXNaOXfGPrdkOlkATvciClbYOPMGtjWacZfTygOyeqWY8FQ6XgB8cToKdOka7F6Awvo+QrLQEayvXUgbIM0lPmDPMV440ho1t9BhvlwROfN7Nbc/9pALY60ozuqn86R6ktOVN/5+oBdLusqcMAPptxfdQHyNXoHR2hAnqoHJxzIkiEPi308dn+dFDOWHXj04Z11/s5v127NQfmgo0k6CIoRvu30/E2dEi7ldrJr9Fzg8IwMUMjO0vQY7aWcFqjwNCFjO0M/b65cPEZt9nnKwE8w7FiX77/G3jtV8pS7hxL+204wyp90lFWuXd796SgU5duvM3t1pzRYYcMdgE6ZKkG/+FtR7uV2tmBHqFDBM4dhs6Fcp+GxvEVc8mDfoEZ30d19Aen2APoWPc1ZnT2z7E5Bj+LPQWRNbYHUzkL0VH6HjcdT+oqfVvRhd3yBJCOjfGkbfiathoAXKAv6zHvc9ufabdSOwPQvREAKrJosmEms7nfjfU77XztEgweMnrM+s7h4BAiMIiMTsMyuNhMIF7xueddJqhkkNmDvk27oe80kNBWbIPd/ZdokMFLlZaCLv4zP5XXe5tk1wxqC1LcqIMRYTS3pnbRnEa0gCJIEFJRxmFOfC6dHwICIcbYrB7imKnzpOfDWAMAz4yQzqfHrNWL3TJ9V5ZSWUanHZgwKvd7WxeWd33pkXYrtfPJ6DSUtku/vERH6ctBdZxugijtVmoVdAW/Aj4dRQHsBsC+9Ei7lVoFXUFX0CfiAyXAeU5Bn4iRu8wadI4u+9S+tl8d0G6lthfQSwPrueo3CMemE4Vz+3B2qeMm/1HQxduBJkXptfEHJrVRvY0UdAU9/G81BaUelF3XjYKuoCvoM/CBXkA/ff0DM7UfRvipzQvz0bntpr/SbqVWQV8zCFGZCvpuQTEHu3GOslXQFfRKtUUH0SC2m0GM9pOtgq6gK+hr+sDYAqEEOz/eAdBvmoPFgXktMQbOnTMvvTpcxKUix2bsLuTRuQ3nV5vYj3Yrtf2C/upVc/Dc25UMgsm9dn5hDq7mCn7bvPQU/wdYbM89da76H/+fumq+9upVcy4JCqUgIcaw9/uAcfWg2qf8H0roXwQbKrNomIocYkzRx+nrmN85c3D+XDL3rz2XfrZjVPrsc24YK+q/7pcuLBp17+ZaDM6Dzi23TYOcie3ic/DddO7x2ukAc6NvyrZf0GuBLoMOBZ6zgUE69U1zQOgAJ49pBKFYZ4Cyg4agYu8/Z1567sAszt8MQagIG8co7Ew3jVUBI8jMufjWyiLkxX1XD7wOPjDSaZrG63pup69TTuHAQhcu2AGQWHnl+sPnih5kYBjIbsVAXfKrynydLuy8vJ0qvshnep6bBJzHvYNe5zRw3OCgVBDa3PkLmaXyHOA4j58Ibugf/QXQhOPCuOdvmrJDVpcJVGDVURCUqvdX7/vAnAqIJRjhuCTrIHMD6Afm4LyvanK5rO6uCtBvmpdsgAb8C3PwHCqtRRKUYQ8XxFMb9G63FfzLBajcpm5uMjnAnrWZvUe70TdlOwDowrAC6ACiOGfhgCEEsDkwAQr/HPpBZH3tVS4RfNn51DnrbDIo2HvZtwA9dcByKUcl5vJYY5+H04vMnASnmPWKzv76BzbYODjivRhnuLn5jO4Dk9U54PW6g1wHV2NGx/WQvc/fjMsyAVWq4wHnlvvXq28nSzTa97XzAnQLdHNikvPr2270Tdn2CLqPgIzsXlnBIRIYRPQXzlF3L+FNwAn9F2DBWMJJ7bEAvTqOMLIPKFQiHcG15aBgr+XO4ecV9htqqwmniz+RGbD3ucXS3TqtL7kB9LnnrvqlVAQ96qJG9/QBEZwDGL3PTSYe76MM/nnSYbBtDORuvf4Sgt1TV80QdqNvyrZH0L1C4eCF0tllBal0cX+D4vOMbpcGedBIPqfOF0AVoAens4Yuw0slhud9Ji6VbjbDZXO2QQlVBkrcLKs4gFiRSJ0s2xTb1twi6LZiCXNxYDh9ZaBfPfBLMQ/PIsuADODBtkPMLcpWDe6FiizMW9rEVWCpz6TX+/ZJ+qZsdwP0BNSqAZjRHXTCKSsROXNGuTkoytKq0VfI6HTcxYGx0bxJ5qeumpeeu2pesxlRgl5yPAnvQHMLm3GA0c3P6dzDaWGVuoWcbqnkAl9pXqJqs3Yaam4ioRRArk1AwrfqAzOB73duEnAe7wboIepTcbEtZnRhsNQI0hnRBz47iCsGrak8mMGpQH52azgHQvrO36+5K68ORSawGR3rerf7H7NDLm/qMH3NjRuoL4Xlg5MDnwG8m7uQ1ZbfMkCJawGQdC4cg68w+5sb/IDVRBbQfZVHG4c2LC+qSYdJItrQ99+jT9I3ZTsg6KnxK6BxPdSUGeW1oMjUgdJ+0zGjc8HQNLKH1YNOZw5G9o5KJabnNwHdvyGoOJEEZqi5EQQhi6+A7Pytrg7sznwMcnwm3aiL+krnEm3hgni/dnNjusAv4G1IMHEeImCHIMb+2KZz3fbc6JuyHQZ0D6gsudPJU0FsAWi2xrPZWDhermQ4H8bBa6GwA57d7yM2sgffgYbdVQ/610TWl8alEuU5lxmyMbiLviyj21L3wLwmAaqbY+9zSx01nbO0kZu71ad8R27nIQBigA7BmX2I16m92o3jOz9jVnYtEwDvqbZp9VG9HvTVk93om7LtH/SacqgOdJxfhGwrlZhnZ/deOhqpClws0VzQoIEINz4j+DhHjTvz+WYZDEclBiPaQJNmdCd7nfwiE9gs7uWty+jJ+b7n1gC6lKsErtVLwVZh3T+w3QifDT4lqD38nJucLwNWTWvL9+T+fuxG35Rt/6DnmXdHP1OJKegyEO3usc5tN21Hu5VaBX3NQENlKui7BcUc7MY5ylZBV9DD9/sZtOgg/Dyldg5z4xxlq6Ar6Ar6mj4wtgAowc6PFfQ1jUxFjs3YXcijc9ut5QhtTruV2l5ALw2s56b7q4XVtuOzrYI+g1/1q+CND7y+baKgK+jhOwF9O5+O118AUtAVdAV9Bj6goM/AyJo5+8ucY9V1Z6DXdaTnVQOqgfFq4O0vvWluP3ls3nj6tlnID+MVWSVTDagG2mpAsq2gt9We3q8a2BENKOg7YigVUzWwiQYU9E20p8+qBnZEAwr6jhhKxVQNbKIBBX0T7emzqoEd0cDKoI/1vaHKpe+O1QeiD9TFHQVdv0ij35ibkA8o6BMypmawmMFUF6kuFHQFXTP3DHxAQZ+BkTW7pdltjvpQ0BV0zegz8AEFfQZGnmMG0zmnVcwgoJ8cLszi8LLq0DgAAAy/SURBVE7IJPnnqpHumCP7S/Ivm5MGME+v7ce/y13zS/XluBjHjr3I+31ojvdSGasyRUW6cfM+XN/71x76eXIO8i+W7Jvje3k/CxOeuXfd7GMeQldNcui1qEvVRaqL/kG/ddnDSDAiAEe3onAOQAlFw/E6IAQ5Gvr1wQJyVYLI4WUbfOI1zMfNxc6DkC4WRn4mxK6/CHplvr7/+JdnopzsQ505+ovqolkXPYNOqAk5has7/6n5jECuA3ND9qdjtMnoaeaOUMfz8ZzrH58vm+N7D8M8LPSPGDgi6J89clUEIZaBwB7vXTenK8yH89KWvqUtfKHu3xa+MNMAMxw4ZEAZBHwJXVeGd1DWVjKpHCsJLnk5H6GuB907WWlu4RxL8xR0GMfKtnfdnGBJoqCHpZ4GsfbBqzfQK5nTOzoznDUend8D5gBCySrh5yR94KjcG0vcUtlrzwmAK3LZrJlDLQOR6//oFgNXdbyjWyJAeUAxl2Suleyc9Xd4JwU9BCBZBVAX2ir8zT7QG+ipIaogpNdFyR4cvApUDm3og+V+MUA4hTRm8nxMQmfX2zGTc7yY0VNlMyOf+rK8HHgYxFy/KN3dc/tuIy6XZaGgU+/apv7WpI9BQA+Z2mbWaskKgU8O4dAMCIRBTsxnQJGd3UT5jN8Ey9a+qTJ4rxgLGZiVRSiXAZ/b0WcmP7qGHXEHXQQ9nUsEnWtyMQ+OEeSPAcQ+x+AiS3f7jIKe2lD6hB7X6aZ/0PNsS4fn7nRS0hLEmmyObBdAcUa2kMjz9+6YI7wqW4jXVqI839/b9334sUKpfdkcAe4AO0H0bUvQP/M78k5ezktA6/WA8r4IesjsIlgkulInr3NyPd/rZpxc5woHh7MG2LPzoeQtOXc1o4dKIcBJ5ydYzPLiHXcIPHkwcbIQOoK6TkY/ttUJZPEye2i5w24d0cqBMb2spYzODbqGJYk6NW2urfSFXjN6yLYhO+Vw4bOEmoDKc96ADA7M6Pzc2Df6z4MJHcKPVQkSvJ5CunLpDnkgY0E+CbrTDebp5IhrdflaLQYBaUQ9po20rfOFXkGvE4LnkZH3r90xp+HbYlXQQ9b2QMud7BBI6mAFbHuXzfEtfFstBbe8USYDj7s/zeilQMUlQgQ2yJzIxbm5QGDvCV+S8cGoWG3UBSp1cvqRtlVfGBXoaqCqgVQnqpMufEBB1w0t/SLKDHxAQZ+BkbvICNrHblcWCrqCrhl9Bj6goM/AyJqNdzsbd2E/BV1B14w+Ax9Q0Gdg5C4ygvax21WBgq6ga0afgQ8o6DMwsmbj3c7GXdhPQVfQNaPPwAcU9BkYuYuMoH3sdlWgoCvomtFn4AMK+gyMrNl4t7NxF/ZT0BV0zehLfOD3H/7O/PzrPzOnf/2B+Y+/et/+4POn7/92Z3Q3W9B/8+DX5if/+BPz43/4cTAejfh/D39jPvrGz3fGiF1EfO2jnPV/+e4vzHf+/IH54d/9yHzyzV8aQP8///aJ9ZvvfvWhPbcLupsc6L/61n8X4YXBfvrOTwO8gPqbf/Ze5QdGBfy49uhvfmANuwuGVBnLoK6rFyQCZPAP3vjQ/O57/2sQ/H/2T/9pfvHP/xV8CBkdAQD34fq6Y/Xx3ORAf/Dl71bgBbTI3mhhOBioCXQAziCAqD2EESEjMgjk/sHdH1aqDlYfaCEv7kMwg1P24TilMZDtoC/qbtP2vZvf7l33mAMCPfyIGZyBH/OBnvO5//rbv7L2AfRjLecnBzoycsnBCDquYX21Kui4Hw4Ho+cG7vozSkJAXResSvMqnfvW7X83H975fi8ySx0gs5Xk2eQc7NkHPAjmABrjwVcAPAIndCnlL4FOHWC5B9sB+CGSA+UotZMGHUoH0ABVgo4SDJkd19DiGpwU2QiGlhldGhmOUFLipufgyNuABLI//Mvv9eJ0dTqT+lv3GHMAeJvqufQ8gj6CIuyOY4zDDF2Stwl09k/g4VvwNZ4fsp0c6FAusiLLWRiGUZqGg0EBNSFHC9DwXBPoeB73dW2wbUHO+SLgdS2z7E8GUY7ZdQsY5ZhdHSNjY18HgANQBJUm2VcBnbKhX/TFz0O2kwMd0MAY+IFzEF7pjDQoziEgILPjB0ZeBvo2DLdpqd7kmLiGimZbTgZdLhu/q+vbqKhgb+hmVRvAZ9roEnNvc/+27p0c6MjULNelg+Wgw8DyOo+HAB2lYr4WpDybtn3tL2zLQbfdL0Gv84dc/wr6ki8dbNtg7L/OYGMGHbJjnY6M1RXwABybQkPuwtMmY24V9DfN7SePzRtP3zYL+TeU8xJgbEbcRdCR0aUe8Q4X72sBKqqTZWUl5oz7sEzB/gPWhrK/bcKeZ7xtf5bz6uJYQVfQi6U9HLkLB5N9wNnwKkee6+oYr+ywnOmqv7yfHGxUEgg6+MG4vI5gxfN1wZj3si3dl4+/6WcFXUEPTkrHY7upc+XPs1/AgG/vAc5NXifheWR2uYOcj9nVZ8qOFpCzOsFShKBjg5TzgWy4Tz5XOkZVAxlRpcjrXcnNfiAjKp5V33y0WaNDB1iKcawh27wS52dZrU+idAdAdBjsFJeyBa4DDrz75L2ltmuD/etr3yqOB/D5ChAO1vSDNwwEqw+ZqQOOJSHHl0UoC95q8F586ahuruwHLbMsnsMz8hr76qqFflFNYZkkx6k7bgM6gh4CSFeybtIPwc7bnQW9tJ5FVGV0hQGRJeRrOAkQ36k2bYptovDSszII1TnYJucx39K4XZyjXAiOyNYAk0EUsOMcfnB9FcjZHzYmsU8hqxJc60Jm2QcAh/0ho/SDTY9RkTCAyPGGOs4B5+edBZ3vWuEkNBaMCAUzU2OtSOMiExJqOCJLzCb4tmEsRH/I0gYGQlHXIphx7tuQGX3Wjb2t813PAzDCH1btF36zytxQ1SDAbmvvZVV5eR/BztudBR2GyLM6v6cO5cNIBD03mCwZm74IQuV11XI9iv5QeQBOBJpl5biUX5b5eF7utMvjrmSeSj8I7Aiuq+poFdBRhUA/sAkTx9D6ygHn550GXQKAY2a1sYKOEheybcMZ4MDofxt9T6VPrNMR2FeZzyqg4x4sAdHvKn32cQ/BzlsFveGrnV0bhoEJG1f5O/B1x0KVgNKRS4F1+5nDc4B81WC4DHRWB1j7j6Vshw3r/inoA4BO4OEsXF5g2YGKRJb3Ej5UAriOHzgh1uWl11fymS6PKXNfbZeysy+U19inWQXMZaBjHwhVFMt3jjF0O0vQsfYtGUyu0bGZV+e8XRsN2aRurC7Ow4m7lpn95fIhyCBI4UfumEO3PM9d+fzZ/HOfAQuArpLVS35DuTEvBI2xZXPYqu7fpDM6/wsrDcRWgo4MyfN5SyfvqsWO+6rOn8uy7DMg55dYupJX9iPHl+/SsalI0AE4PuM5yFICWPaDioYVDGwlr8mxuzwGoNg8wxeNmvptAh3LLvjNKgGjaYxtXFPQxe+NGwp0GBaOBifL3xhIJ29zjLlg556AbcN50CdlkgEFywlWKet8YQY6oLx5ZcXz22gRXBCEGGRKY9SBTl1D9qbnS332cU5BHwno0thY42G9iO8EIBsSGkKVt4Aa96FkBBjb2sGXMvIYsiADY0ML2QxyA3qc53t8nG/6XkI+H3zG8grlNPviPRx3Wy3mAVjrAmQJdJxDoMZ8V92935b8df0q6CMEvc5YYzxPAPtq+9ABwEVwLcEuQUeAQzAi5LjWh3zrjDE50FH+5k6HTAflINPhGtaOiLz5fTAc17P5Gh0lHTeT1lG0PtPtr2Petj4BbakMJ+gIBPAVBAP4xZghh67q/u3sZty2HUD73y1gN7EXlkFYFslyHMfI4uiXG2+4b5Nx+nhWQR/Jb8bpw9g6RvsghY01rL1RBfLLTKgMsYeA833uh2xiPwVdQR99NtrEwbt6FpuM3BRFqY5s3lXfffSjoCvoO+WwfUAxxTEUdAVdQZ+BDyjoMzDyFDOUzqndfoOCrqBrRp+BDyjoMzCyZr922W+K+lLQFXTN6DPwAQV9BkaeYobSObWrUhR0BV0z+gx8QEGfgZE1+7XLflPUl4KuoGtGn4EPKOgzMPIUM5TOqV2VoqAr6JrRZ+ADG4Ne14GeVw2oBsavgZX/P/r4p6ISqgZUA3UaUNDrNKPnVQMT0oCCPiFj6lRUA3UaUNDrNKPnVQMT0oCCPiFj6lRUA3UaUNDrNKPnVQMT0oCCPiFj6lRUA3UaUNDrNKPnVQMT0oCCPiFj6lRUA3UaUNDrNKPnVQMT0kAR9L/4gxsGF/RHdaA+MA0f+Oof/qm5/eSxeePp22bx9T/6W/sBJ/RHdaA+MD0fsKD//M0fGZKvRp6ekdWm87YpKvXvv/pd8/8x2yw45UmiqgAAAABJRU5ErkJggg==;opacity=70;" vertex="1" parent="1">
          <mxGeometry x="320" y="1480" width="250" height="272" as="geometry" />
        </mxCell>
        <mxCell id="R27VUwDnr8lnY172pskY-25" value="" style="endArrow=block;startArrow=block;html=1;exitX=0.5;exitY=0;exitDx=0;exitDy=0;entryX=0.106;entryY=0.996;entryDx=0;entryDy=0;entryPerimeter=0;strokeWidth=6;fillColor=#e1d5e7;startFill=1;endFill=1;opacity=70;" edge="1" parent="1" source="R27VUwDnr8lnY172pskY-24" target="R27VUwDnr8lnY172pskY-23">
          <mxGeometry width="50" height="50" relative="1" as="geometry">
            <mxPoint x="880" y="1530" as="sourcePoint" />
            <mxPoint x="444" y="1440" as="targetPoint" />
          </mxGeometry>
        </mxCell>
        <mxCell id="R27VUwDnr8lnY172pskY-26" value="" style="rounded=0;whiteSpace=wrap;html=1;fillColor=none;strokeWidth=6;" vertex="1" parent="1">
          <mxGeometry x="320" y="1160" width="1180" height="250" as="geometry" />
        </mxCell>
        <mxCell id="R27VUwDnr8lnY172pskY-27" value="" style="rounded=0;whiteSpace=wrap;html=1;fillColor=none;strokeWidth=6;" vertex="1" parent="1">
          <mxGeometry x="320" y="1480" width="250" height="270" as="geometry" />
        </mxCell>
        <mxCell id="R27VUwDnr8lnY172pskY-28" value="UCO" style="text;html=1;strokeColor=none;fillColor=none;align=center;verticalAlign=middle;whiteSpace=wrap;rounded=0;fontSize=32;fontStyle=1" vertex="1" parent="1">
          <mxGeometry x="210" y="1240" width="60" height="20" as="geometry" />
        </mxCell>
        <mxCell id="R27VUwDnr8lnY172pskY-29" value="UCA" style="text;html=1;strokeColor=none;fillColor=none;align=center;verticalAlign=middle;whiteSpace=wrap;rounded=0;fontSize=32;fontStyle=1" vertex="1" parent="1">
          <mxGeometry x="210" y="1530" width="60" height="20" as="geometry" />
        </mxCell>
        <mxCell id="R27VUwDnr8lnY172pskY-30" value="UCS" style="text;html=1;strokeColor=none;fillColor=none;align=center;verticalAlign=middle;whiteSpace=wrap;rounded=0;fontSize=32;fontStyle=1" vertex="1" parent="1">
          <mxGeometry x="210" y="1700" width="60" height="20" as="geometry" />
        </mxCell>
        <mxCell id="R27VUwDnr8lnY172pskY-31" value="紫鸾单节点环境-门户/控制台/运营平台&lt;br&gt;&lt;font color=&quot;#ff0000&quot;&gt;https://10.253.146.115/&lt;/font&gt;" style="text;html=1;strokeColor=none;fillColor=none;align=center;verticalAlign=middle;whiteSpace=wrap;rounded=0;fontSize=32;fontStyle=1" vertex="1" parent="1">
          <mxGeometry x="590" y="1100" width="660" height="20" as="geometry" />
        </mxCell>
        <mxCell id="R27VUwDnr8lnY172pskY-32" value="&lt;span style=&quot;color: rgb(0 , 0 , 0) ; font-family: &amp;#34;helvetica&amp;#34; ; font-size: 32px ; font-style: normal ; font-weight: 700 ; letter-spacing: normal ; text-align: center ; text-indent: 0px ; text-transform: none ; word-spacing: 0px ; background-color: rgb(248 , 249 , 250) ; display: inline ; float: none&quot;&gt;紫鸾单节点环境&lt;br&gt;- 武清云节点&lt;/span&gt;" style="text;whiteSpace=wrap;html=1;fontSize=32;fontColor=#FF0000;" vertex="1" parent="1">
          <mxGeometry x="320" y="1760" width="240" height="80" as="geometry" />
        </mxCell>
      </root>
    </mxGraphModel>
  </diagram>
</mxfile>
